solid OpenSCAD_Model
  facet normal -1 0 0
    outer loop
      vertex -5.91817 -0.987568 3
      vertex -5.91817 75.9876 3
      vertex -5.91817 -0.987568 -1
    endloop
  endfacet
  facet normal -1 0 0
    outer loop
      vertex -5.91817 -0.987568 -1
      vertex -5.91817 75.9876 3
      vertex -5.91817 75.9876 -1
    endloop
  endfacet
  facet normal 0 0 1
    outer loop
      vertex -5.91817 -0.987568 3
      vertex -5.27684 -2.85568 3
      vertex -4.06369 -4.41434 3
    endloop
  endfacet
  facet normal 0 0 1
    outer loop
      vertex -3.53553 -3.53553 3
      vertex -5.91817 -0.987568 3
      vertex -2.41017 -5.49464 3
    endloop
  endfacet
  facet normal 0 0 1
    outer loop
      vertex -2.41017 -5.49464 3
      vertex -5.91817 -0.987568 3
      vertex -4.06369 -4.41434 3
    endloop
  endfacet
  facet normal 0 0 1
    outer loop
      vertex -3.53553 -3.53553 3
      vertex -4.6194 -1.91342 3
      vertex -5.91817 -0.987568 3
    endloop
  endfacet
  facet normal 0 0 1
    outer loop
      vertex 0 80 3
      vertex 100 80 3
      vertex 99.5045 80.9795 3
    endloop
  endfacet
  facet normal 0 0 1
    outer loop
      vertex -1.91342 79.6194 3
      vertex 0 80 3
      vertex -0.495476 80.9795 3
    endloop
  endfacet
  facet normal 0 0 1
    outer loop
      vertex -5.91817 75.9876 3
      vertex -5.91817 -0.987568 3
      vertex -5.27684 77.8557 3
    endloop
  endfacet
  facet normal 0 0 1
    outer loop
      vertex 100 80 3
      vertex 101.913 79.6194 3
      vertex 101.473 80.8164 3
    endloop
  endfacet
  facet normal 0 0 1
    outer loop
      vertex -3.53553 78.5355 3
      vertex -1.91342 79.6194 3
      vertex -2.41017 80.4946 3
    endloop
  endfacet
  facet normal 0 0 1
    outer loop
      vertex -5.27684 77.8557 3
      vertex -5.91817 -0.987568 3
      vertex -5 75 3
    endloop
  endfacet
  facet normal 0 0 1
    outer loop
      vertex -5.27684 77.8557 3
      vertex -4.6194 76.9134 3
      vertex -4.06369 79.4143 3
    endloop
  endfacet
  facet normal 0 0 1
    outer loop
      vertex -5.27684 77.8557 3
      vertex -5 75 3
      vertex -4.6194 76.9134 3
    endloop
  endfacet
  facet normal 0 0 1
    outer loop
      vertex -4.06369 79.4143 3
      vertex -3.53553 78.5355 3
      vertex -2.41017 80.4946 3
    endloop
  endfacet
  facet normal 0 0 1
    outer loop
      vertex -4.6194 76.9134 3
      vertex -3.53553 78.5355 3
      vertex -4.06369 79.4143 3
    endloop
  endfacet
  facet normal 0 0 1
    outer loop
      vertex -2.41017 80.4946 3
      vertex -1.91342 79.6194 3
      vertex -0.495476 80.9795 3
    endloop
  endfacet
  facet normal 0 0 1
    outer loop
      vertex -0.495476 80.9795 3
      vertex 0 80 3
      vertex 99.5045 80.9795 3
    endloop
  endfacet
  facet normal 0 0 1
    outer loop
      vertex 99.5045 80.9795 3
      vertex 100 80 3
      vertex 101.473 80.8164 3
    endloop
  endfacet
  facet normal 0 0 1
    outer loop
      vertex 101.473 80.8164 3
      vertex 101.913 79.6194 3
      vertex 103.282 80.023 3
    endloop
  endfacet
  facet normal 0 0 1
    outer loop
      vertex 100 -5 3
      vertex 0 -5 3
      vertex 99.5045 -5.97951 3
    endloop
  endfacet
  facet normal 0 0 1
    outer loop
      vertex 103.282 80.023 3
      vertex 103.536 78.5355 3
      vertex 104.735 78.6853 3
    endloop
  endfacet
  facet normal 0 0 1
    outer loop
      vertex -5 0 3
      vertex -5 75 3
      vertex -5.91817 -0.987568 3
    endloop
  endfacet
  facet normal 0 0 1
    outer loop
      vertex 104.735 78.6853 3
      vertex 104.619 76.9134 3
      vertex 105.675 76.9482 3
    endloop
  endfacet
  facet normal 0 0 1
    outer loop
      vertex 105.675 76.9482 3
      vertex 105 75 3
      vertex 106 75 3
    endloop
  endfacet
  facet normal 0 0 1
    outer loop
      vertex 106 75 3
      vertex 105 0 3
      vertex 106 0 3
    endloop
  endfacet
  facet normal 0 0 1
    outer loop
      vertex 106 0 3
      vertex 104.619 -1.91342 3
      vertex 105.675 -1.9482 3
    endloop
  endfacet
  facet normal 0 0 1
    outer loop
      vertex 105.675 -1.9482 3
      vertex 103.536 -3.53553 3
      vertex 104.735 -3.68528 3
    endloop
  endfacet
  facet normal 0 0 1
    outer loop
      vertex 104.735 -3.68528 3
      vertex 101.913 -4.6194 3
      vertex 103.282 -5.023 3
    endloop
  endfacet
  facet normal 0 0 1
    outer loop
      vertex 103.282 -5.023 3
      vertex 100 -5 3
      vertex 101.473 -5.8164 3
    endloop
  endfacet
  facet normal 0 0 1
    outer loop
      vertex 99.5045 -5.97951 3
      vertex 0 -5 3
      vertex -0.495476 -5.97951 3
    endloop
  endfacet
  facet normal 0 0 1
    outer loop
      vertex 0 -5 3
      vertex -1.91342 -4.6194 3
      vertex -0.495476 -5.97951 3
    endloop
  endfacet
  facet normal 0 0 1
    outer loop
      vertex -0.495476 -5.97951 3
      vertex -3.53553 -3.53553 3
      vertex -2.41017 -5.49464 3
    endloop
  endfacet
  facet normal 0 0 1
    outer loop
      vertex 101.913 79.6194 3
      vertex 103.536 78.5355 3
      vertex 103.282 80.023 3
    endloop
  endfacet
  facet normal 0 0 1
    outer loop
      vertex 103.536 78.5355 3
      vertex 104.619 76.9134 3
      vertex 104.735 78.6853 3
    endloop
  endfacet
  facet normal 0 0 1
    outer loop
      vertex 104.619 76.9134 3
      vertex 105 75 3
      vertex 105.675 76.9482 3
    endloop
  endfacet
  facet normal 0 0 1
    outer loop
      vertex 105 75 3
      vertex 105 0 3
      vertex 106 75 3
    endloop
  endfacet
  facet normal 0 0 1
    outer loop
      vertex 104.619 -1.91342 3
      vertex 103.536 -3.53553 3
      vertex 105.675 -1.9482 3
    endloop
  endfacet
  facet normal 0 0 1
    outer loop
      vertex 105 0 3
      vertex 104.619 -1.91342 3
      vertex 106 0 3
    endloop
  endfacet
  facet normal 0 0 1
    outer loop
      vertex 103.536 -3.53553 3
      vertex 101.913 -4.6194 3
      vertex 104.735 -3.68528 3
    endloop
  endfacet
  facet normal 0 0 1
    outer loop
      vertex 101.913 -4.6194 3
      vertex 100 -5 3
      vertex 103.282 -5.023 3
    endloop
  endfacet
  facet normal 0 0 1
    outer loop
      vertex 100 -5 3
      vertex 99.5045 -5.97951 3
      vertex 101.473 -5.8164 3
    endloop
  endfacet
  facet normal 0 0 1
    outer loop
      vertex -1.91342 -4.6194 3
      vertex -3.53553 -3.53553 3
      vertex -0.495476 -5.97951 3
    endloop
  endfacet
  facet normal 0 0 1
    outer loop
      vertex -4.6194 -1.91342 3
      vertex -5 0 3
      vertex -5.91817 -0.987568 3
    endloop
  endfacet
  facet normal -0.945817 -0.324699 0
    outer loop
      vertex -5.27684 -2.85568 -1
      vertex -5.27684 -2.85568 3
      vertex -5.91817 -0.987568 -1
    endloop
  endfacet
  facet normal -0.945817 -0.324699 0
    outer loop
      vertex -5.91817 -0.987568 -1
      vertex -5.27684 -2.85568 3
      vertex -5.91817 -0.987568 3
    endloop
  endfacet
  facet normal 0 0 -1
    outer loop
      vertex -5.91817 75.9876 -1
      vertex -5.27684 77.8557 -1
      vertex -5.91817 -0.987568 -1
    endloop
  endfacet
  facet normal 0 0 -1
    outer loop
      vertex -4.6194 76.9134 -1
      vertex -5.27684 77.8557 -1
      vertex -4.06369 79.4143 -1
    endloop
  endfacet
  facet normal 0 0 -1
    outer loop
      vertex -3.53553 78.5355 -1
      vertex -4.06369 79.4143 -1
      vertex -2.41017 80.4946 -1
    endloop
  endfacet
  facet normal 0 0 -1
    outer loop
      vertex -1.91342 79.6194 -1
      vertex -2.41017 80.4946 -1
      vertex -0.495476 80.9795 -1
    endloop
  endfacet
  facet normal 0 0 -1
    outer loop
      vertex 0 80 -1
      vertex -0.495476 80.9795 -1
      vertex 99.5045 80.9795 -1
    endloop
  endfacet
  facet normal 0 0 -1
    outer loop
      vertex 100 80 -1
      vertex 99.5045 80.9795 -1
      vertex 101.473 80.8164 -1
    endloop
  endfacet
  facet normal 0 0 -1
    outer loop
      vertex 101.913 79.6194 -1
      vertex 101.473 80.8164 -1
      vertex 103.282 80.023 -1
    endloop
  endfacet
  facet normal 0 0 -1
    outer loop
      vertex 103.536 78.5355 -1
      vertex 103.282 80.023 -1
      vertex 104.735 78.6853 -1
    endloop
  endfacet
  facet normal 0 0 -1
    outer loop
      vertex 104.619 76.9134 -1
      vertex 104.735 78.6853 -1
      vertex 105.675 76.9482 -1
    endloop
  endfacet
  facet normal 0 0 -1
    outer loop
      vertex 105 75 -1
      vertex 105.675 76.9482 -1
      vertex 106 75 -1
    endloop
  endfacet
  facet normal 0 0 -1
    outer loop
      vertex 105 0 -1
      vertex 106 75 -1
      vertex 106 0 -1
    endloop
  endfacet
  facet normal 0 0 -1
    outer loop
      vertex 104.619 -1.91342 -1
      vertex 106 0 -1
      vertex 105.675 -1.9482 -1
    endloop
  endfacet
  facet normal 0 0 -1
    outer loop
      vertex 103.536 -3.53553 -1
      vertex 105.675 -1.9482 -1
      vertex 104.735 -3.68528 -1
    endloop
  endfacet
  facet normal 0 0 -1
    outer loop
      vertex 101.913 -4.6194 -1
      vertex 104.735 -3.68528 -1
      vertex 103.282 -5.023 -1
    endloop
  endfacet
  facet normal 0 0 -1
    outer loop
      vertex 100 -5 -1
      vertex 103.282 -5.023 -1
      vertex 101.473 -5.8164 -1
    endloop
  endfacet
  facet normal 0 0 -1
    outer loop
      vertex -1.91342 -4.6194 -1
      vertex -0.495476 -5.97951 -1
      vertex -3.53553 -3.53553 -1
    endloop
  endfacet
  facet normal 0 0 -1
    outer loop
      vertex 0 -5 -1
      vertex 99.5045 -5.97951 -1
      vertex -0.495476 -5.97951 -1
    endloop
  endfacet
  facet normal 0 0 -1
    outer loop
      vertex -3.53553 -3.53553 -1
      vertex -0.495476 -5.97951 -1
      vertex -2.41017 -5.49464 -1
    endloop
  endfacet
  facet normal 0 0 -1
    outer loop
      vertex -5.91817 -0.987568 -1
      vertex -2.41017 -5.49464 -1
      vertex -4.06369 -4.41434 -1
    endloop
  endfacet
  facet normal 0 0 -1
    outer loop
      vertex -5.91817 -0.987568 -1
      vertex -4.06369 -4.41434 -1
      vertex -5.27684 -2.85568 -1
    endloop
  endfacet
  facet normal 0 0 -1
    outer loop
      vertex -4.6194 -1.91342 -1
      vertex -5.91817 -0.987568 -1
      vertex -5 0 -1
    endloop
  endfacet
  facet normal 0 0 -1
    outer loop
      vertex -3.53553 -3.53553 -1
      vertex -5.91817 -0.987568 -1
      vertex -4.6194 -1.91342 -1
    endloop
  endfacet
  facet normal 0 0 -1
    outer loop
      vertex 100 -5 -1
      vertex 99.5045 -5.97951 -1
      vertex 0 -5 -1
    endloop
  endfacet
  facet normal 0 0 -1
    outer loop
      vertex 0 -5 -1
      vertex -0.495476 -5.97951 -1
      vertex -1.91342 -4.6194 -1
    endloop
  endfacet
  facet normal 0 0 -1
    outer loop
      vertex -5.91817 -0.987568 -1
      vertex -3.53553 -3.53553 -1
      vertex -2.41017 -5.49464 -1
    endloop
  endfacet
  facet normal 0 0 -1
    outer loop
      vertex 100 -5 -1
      vertex 101.473 -5.8164 -1
      vertex 99.5045 -5.97951 -1
    endloop
  endfacet
  facet normal 0 0 -1
    outer loop
      vertex -1.91342 79.6194 -1
      vertex -0.495476 80.9795 -1
      vertex 0 80 -1
    endloop
  endfacet
  facet normal 0 0 -1
    outer loop
      vertex 0 80 -1
      vertex 99.5045 80.9795 -1
      vertex 100 80 -1
    endloop
  endfacet
  facet normal 0 0 -1
    outer loop
      vertex 100 80 -1
      vertex 101.473 80.8164 -1
      vertex 101.913 79.6194 -1
    endloop
  endfacet
  facet normal 0 0 -1
    outer loop
      vertex -5 75 -1
      vertex -5.27684 77.8557 -1
      vertex -4.6194 76.9134 -1
    endloop
  endfacet
  facet normal 0 0 -1
    outer loop
      vertex -5.91817 -0.987568 -1
      vertex -5.27684 77.8557 -1
      vertex -5 75 -1
    endloop
  endfacet
  facet normal 0 0 -1
    outer loop
      vertex 101.913 79.6194 -1
      vertex 103.282 80.023 -1
      vertex 103.536 78.5355 -1
    endloop
  endfacet
  facet normal 0 0 -1
    outer loop
      vertex -5 0 -1
      vertex -5.91817 -0.987568 -1
      vertex -5 75 -1
    endloop
  endfacet
  facet normal 0 0 -1
    outer loop
      vertex -4.6194 76.9134 -1
      vertex -4.06369 79.4143 -1
      vertex -3.53553 78.5355 -1
    endloop
  endfacet
  facet normal 0 0 -1
    outer loop
      vertex -3.53553 78.5355 -1
      vertex -2.41017 80.4946 -1
      vertex -1.91342 79.6194 -1
    endloop
  endfacet
  facet normal 0 0 -1
    outer loop
      vertex 103.536 78.5355 -1
      vertex 104.735 78.6853 -1
      vertex 104.619 76.9134 -1
    endloop
  endfacet
  facet normal 0 0 -1
    outer loop
      vertex 104.619 76.9134 -1
      vertex 105.675 76.9482 -1
      vertex 105 75 -1
    endloop
  endfacet
  facet normal 0 0 -1
    outer loop
      vertex 105 0 -1
      vertex 106 0 -1
      vertex 104.619 -1.91342 -1
    endloop
  endfacet
  facet normal 0 0 -1
    outer loop
      vertex 105 75 -1
      vertex 106 75 -1
      vertex 105 0 -1
    endloop
  endfacet
  facet normal 0 0 -1
    outer loop
      vertex 104.619 -1.91342 -1
      vertex 105.675 -1.9482 -1
      vertex 103.536 -3.53553 -1
    endloop
  endfacet
  facet normal 0 0 -1
    outer loop
      vertex 103.536 -3.53553 -1
      vertex 104.735 -3.68528 -1
      vertex 101.913 -4.6194 -1
    endloop
  endfacet
  facet normal 0 0 -1
    outer loop
      vertex 101.913 -4.6194 -1
      vertex 103.282 -5.023 -1
      vertex 100 -5 -1
    endloop
  endfacet
  facet normal -0.945817 0.324699 0
    outer loop
      vertex -5.91817 75.9876 3
      vertex -5.27684 77.8557 3
      vertex -5.91817 75.9876 -1
    endloop
  endfacet
  facet normal -0.945817 0.324699 0
    outer loop
      vertex -5.91817 75.9876 -1
      vertex -5.27684 77.8557 3
      vertex -5.27684 77.8557 -1
    endloop
  endfacet
  facet normal -0.78914 0.614213 0
    outer loop
      vertex -5.27684 77.8557 3
      vertex -4.06369 79.4143 3
      vertex -5.27684 77.8557 -1
    endloop
  endfacet
  facet normal -0.78914 0.614213 0
    outer loop
      vertex -5.27684 77.8557 -1
      vertex -4.06369 79.4143 3
      vertex -4.06369 79.4143 -1
    endloop
  endfacet
  facet normal -0.546949 0.837166 0
    outer loop
      vertex -4.06369 79.4143 3
      vertex -2.41017 80.4946 3
      vertex -4.06369 79.4143 -1
    endloop
  endfacet
  facet normal -0.546949 0.837166 0
    outer loop
      vertex -4.06369 79.4143 -1
      vertex -2.41017 80.4946 3
      vertex -2.41017 80.4946 -1
    endloop
  endfacet
  facet normal -0.245485 0.9694 0
    outer loop
      vertex -2.41017 80.4946 3
      vertex -0.495476 80.9795 3
      vertex -2.41017 80.4946 -1
    endloop
  endfacet
  facet normal -0.245485 0.9694 0
    outer loop
      vertex -2.41017 80.4946 -1
      vertex -0.495476 80.9795 3
      vertex -0.495476 80.9795 -1
    endloop
  endfacet
  facet normal 0 1 0
    outer loop
      vertex -0.495476 80.9795 3
      vertex 99.5045 80.9795 3
      vertex -0.495476 80.9795 -1
    endloop
  endfacet
  facet normal 0 1 0
    outer loop
      vertex -0.495476 80.9795 -1
      vertex 99.5045 80.9795 3
      vertex 99.5045 80.9795 -1
    endloop
  endfacet
  facet normal 0.0825792 0.996585 0
    outer loop
      vertex 99.5045 80.9795 3
      vertex 101.473 80.8164 3
      vertex 99.5045 80.9795 -1
    endloop
  endfacet
  facet normal 0.0825792 0.996585 0
    outer loop
      vertex 99.5045 80.9795 -1
      vertex 101.473 80.8164 3
      vertex 101.473 80.8164 -1
    endloop
  endfacet
  facet normal 0.401696 0.915773 0
    outer loop
      vertex 101.473 80.8164 3
      vertex 103.282 80.023 3
      vertex 101.473 80.8164 -1
    endloop
  endfacet
  facet normal 0.401696 0.915773 0
    outer loop
      vertex 101.473 80.8164 -1
      vertex 103.282 80.023 3
      vertex 103.282 80.023 -1
    endloop
  endfacet
  facet normal 0.677282 0.735724 0
    outer loop
      vertex 103.282 80.023 3
      vertex 104.735 78.6853 3
      vertex 103.282 80.023 -1
    endloop
  endfacet
  facet normal 0.677282 0.735724 0
    outer loop
      vertex 103.282 80.023 -1
      vertex 104.735 78.6853 3
      vertex 104.735 78.6853 -1
    endloop
  endfacet
  facet normal 0.879474 0.475947 0
    outer loop
      vertex 104.735 78.6853 -1
      vertex 104.735 78.6853 3
      vertex 105.675 76.9482 3
    endloop
  endfacet
  facet normal 0.879474 0.475947 0
    outer loop
      vertex 105.675 76.9482 -1
      vertex 104.735 78.6853 -1
      vertex 105.675 76.9482 3
    endloop
  endfacet
  facet normal 0.986361 0.164595 0
    outer loop
      vertex 105.675 76.9482 -1
      vertex 105.675 76.9482 3
      vertex 106 75 3
    endloop
  endfacet
  facet normal 0.986361 0.164595 0
    outer loop
      vertex 106 75 -1
      vertex 105.675 76.9482 -1
      vertex 106 75 3
    endloop
  endfacet
  facet normal 1 0 0
    outer loop
      vertex 106 0 -1
      vertex 106 75 -1
      vertex 106 75 3
    endloop
  endfacet
  facet normal 1 0 0
    outer loop
      vertex 106 0 3
      vertex 106 0 -1
      vertex 106 75 3
    endloop
  endfacet
  facet normal 0.986361 -0.164595 0
    outer loop
      vertex 105.675 -1.9482 -1
      vertex 106 0 -1
      vertex 106 0 3
    endloop
  endfacet
  facet normal 0.986361 -0.164595 0
    outer loop
      vertex 105.675 -1.9482 3
      vertex 105.675 -1.9482 -1
      vertex 106 0 3
    endloop
  endfacet
  facet normal 0.879474 -0.475947 0
    outer loop
      vertex 104.735 -3.68528 -1
      vertex 105.675 -1.9482 -1
      vertex 105.675 -1.9482 3
    endloop
  endfacet
  facet normal 0.879474 -0.475947 0
    outer loop
      vertex 104.735 -3.68528 3
      vertex 104.735 -3.68528 -1
      vertex 105.675 -1.9482 3
    endloop
  endfacet
  facet normal 0.677282 -0.735724 0
    outer loop
      vertex 103.282 -5.023 -1
      vertex 104.735 -3.68528 -1
      vertex 104.735 -3.68528 3
    endloop
  endfacet
  facet normal 0.677282 -0.735724 0
    outer loop
      vertex 103.282 -5.023 3
      vertex 103.282 -5.023 -1
      vertex 104.735 -3.68528 3
    endloop
  endfacet
  facet normal 0.401696 -0.915773 0
    outer loop
      vertex 101.473 -5.8164 -1
      vertex 103.282 -5.023 -1
      vertex 103.282 -5.023 3
    endloop
  endfacet
  facet normal 0.401696 -0.915773 0
    outer loop
      vertex 101.473 -5.8164 3
      vertex 101.473 -5.8164 -1
      vertex 103.282 -5.023 3
    endloop
  endfacet
  facet normal 0.0825792 -0.996585 0
    outer loop
      vertex 99.5045 -5.97951 -1
      vertex 101.473 -5.8164 -1
      vertex 101.473 -5.8164 3
    endloop
  endfacet
  facet normal 0.0825792 -0.996585 0
    outer loop
      vertex 99.5045 -5.97951 3
      vertex 99.5045 -5.97951 -1
      vertex 101.473 -5.8164 3
    endloop
  endfacet
  facet normal 0 -1 0
    outer loop
      vertex -0.495476 -5.97951 -1
      vertex 99.5045 -5.97951 -1
      vertex 99.5045 -5.97951 3
    endloop
  endfacet
  facet normal 0 -1 0
    outer loop
      vertex -0.495476 -5.97951 3
      vertex -0.495476 -5.97951 -1
      vertex 99.5045 -5.97951 3
    endloop
  endfacet
  facet normal -0.245485 -0.9694 0
    outer loop
      vertex -2.41017 -5.49464 -1
      vertex -0.495476 -5.97951 -1
      vertex -0.495476 -5.97951 3
    endloop
  endfacet
  facet normal -0.245485 -0.9694 0
    outer loop
      vertex -2.41017 -5.49464 3
      vertex -2.41017 -5.49464 -1
      vertex -0.495476 -5.97951 3
    endloop
  endfacet
  facet normal -0.546949 -0.837166 0
    outer loop
      vertex -4.06369 -4.41434 -1
      vertex -2.41017 -5.49464 -1
      vertex -2.41017 -5.49464 3
    endloop
  endfacet
  facet normal -0.546949 -0.837166 0
    outer loop
      vertex -4.06369 -4.41434 3
      vertex -4.06369 -4.41434 -1
      vertex -2.41017 -5.49464 3
    endloop
  endfacet
  facet normal -0.78914 -0.614213 0
    outer loop
      vertex -4.06369 -4.41434 -1
      vertex -4.06369 -4.41434 3
      vertex -5.27684 -2.85568 -1
    endloop
  endfacet
  facet normal -0.78914 -0.614213 0
    outer loop
      vertex -5.27684 -2.85568 -1
      vertex -4.06369 -4.41434 3
      vertex -5.27684 -2.85568 3
    endloop
  endfacet
  facet normal 1 0 0
    outer loop
      vertex -5 0 2
      vertex -5 75 2
      vertex -5 75 3
    endloop
  endfacet
  facet normal 1 0 0
    outer loop
      vertex -5 0 3
      vertex -5 0 2
      vertex -5 75 3
    endloop
  endfacet
  facet normal 0.980785 0.19509 0
    outer loop
      vertex -5 0 2
      vertex -5 0 3
      vertex -4.6194 -1.91342 3
    endloop
  endfacet
  facet normal 0.980785 0.19509 0
    outer loop
      vertex -4.6194 -1.91342 2
      vertex -5 0 2
      vertex -4.6194 -1.91342 3
    endloop
  endfacet
  facet normal 0.83147 0.55557 0
    outer loop
      vertex -4.6194 -1.91342 2
      vertex -4.6194 -1.91342 3
      vertex -3.53553 -3.53553 3
    endloop
  endfacet
  facet normal 0.83147 0.55557 0
    outer loop
      vertex -3.53553 -3.53553 2
      vertex -4.6194 -1.91342 2
      vertex -3.53553 -3.53553 3
    endloop
  endfacet
  facet normal 0.55557 0.83147 0
    outer loop
      vertex -3.53553 -3.53553 3
      vertex -1.91342 -4.6194 3
      vertex -3.53553 -3.53553 2
    endloop
  endfacet
  facet normal 0.55557 0.83147 0
    outer loop
      vertex -3.53553 -3.53553 2
      vertex -1.91342 -4.6194 3
      vertex -1.91342 -4.6194 2
    endloop
  endfacet
  facet normal 0.19509 0.980785 0
    outer loop
      vertex -1.91342 -4.6194 3
      vertex 0 -5 3
      vertex -1.91342 -4.6194 2
    endloop
  endfacet
  facet normal 0.19509 0.980785 0
    outer loop
      vertex -1.91342 -4.6194 2
      vertex 0 -5 3
      vertex 0 -5 2
    endloop
  endfacet
  facet normal 0 1 0
    outer loop
      vertex 0 -5 3
      vertex 100 -5 3
      vertex 0 -5 2
    endloop
  endfacet
  facet normal 0 1 0
    outer loop
      vertex 0 -5 2
      vertex 100 -5 3
      vertex 100 -5 2
    endloop
  endfacet
  facet normal -0.19509 0.980785 0
    outer loop
      vertex 100 -5 3
      vertex 101.913 -4.6194 3
      vertex 100 -5 2
    endloop
  endfacet
  facet normal -0.19509 0.980785 0
    outer loop
      vertex 100 -5 2
      vertex 101.913 -4.6194 3
      vertex 101.913 -4.6194 2
    endloop
  endfacet
  facet normal -0.55557 0.83147 0
    outer loop
      vertex 101.913 -4.6194 3
      vertex 103.536 -3.53553 3
      vertex 101.913 -4.6194 2
    endloop
  endfacet
  facet normal -0.55557 0.83147 0
    outer loop
      vertex 101.913 -4.6194 2
      vertex 103.536 -3.53553 3
      vertex 103.536 -3.53553 2
    endloop
  endfacet
  facet normal -0.83147 0.55557 0
    outer loop
      vertex 103.536 -3.53553 3
      vertex 104.619 -1.91342 3
      vertex 103.536 -3.53553 2
    endloop
  endfacet
  facet normal -0.83147 0.55557 0
    outer loop
      vertex 103.536 -3.53553 2
      vertex 104.619 -1.91342 3
      vertex 104.619 -1.91342 2
    endloop
  endfacet
  facet normal -0.980785 0.19509 0
    outer loop
      vertex 104.619 -1.91342 3
      vertex 105 0 3
      vertex 104.619 -1.91342 2
    endloop
  endfacet
  facet normal -0.980785 0.19509 0
    outer loop
      vertex 104.619 -1.91342 2
      vertex 105 0 3
      vertex 105 0 2
    endloop
  endfacet
  facet normal -1 0 0
    outer loop
      vertex 105 0 3
      vertex 105 75 3
      vertex 105 0 2
    endloop
  endfacet
  facet normal -1 0 0
    outer loop
      vertex 105 0 2
      vertex 105 75 3
      vertex 105 75 2
    endloop
  endfacet
  facet normal -0.980785 -0.19509 0
    outer loop
      vertex 105 75 2
      vertex 105 75 3
      vertex 104.619 76.9134 2
    endloop
  endfacet
  facet normal -0.980785 -0.19509 0
    outer loop
      vertex 104.619 76.9134 2
      vertex 105 75 3
      vertex 104.619 76.9134 3
    endloop
  endfacet
  facet normal -0.83147 -0.55557 0
    outer loop
      vertex 104.619 76.9134 2
      vertex 104.619 76.9134 3
      vertex 103.536 78.5355 2
    endloop
  endfacet
  facet normal -0.83147 -0.55557 0
    outer loop
      vertex 103.536 78.5355 2
      vertex 104.619 76.9134 3
      vertex 103.536 78.5355 3
    endloop
  endfacet
  facet normal -0.55557 -0.83147 0
    outer loop
      vertex 101.913 79.6194 2
      vertex 103.536 78.5355 2
      vertex 103.536 78.5355 3
    endloop
  endfacet
  facet normal -0.55557 -0.83147 0
    outer loop
      vertex 101.913 79.6194 3
      vertex 101.913 79.6194 2
      vertex 103.536 78.5355 3
    endloop
  endfacet
  facet normal -0.19509 -0.980785 0
    outer loop
      vertex 100 80 2
      vertex 101.913 79.6194 2
      vertex 101.913 79.6194 3
    endloop
  endfacet
  facet normal -0.19509 -0.980785 0
    outer loop
      vertex 100 80 3
      vertex 100 80 2
      vertex 101.913 79.6194 3
    endloop
  endfacet
  facet normal 0 -1 0
    outer loop
      vertex 0 80 2
      vertex 100 80 2
      vertex 100 80 3
    endloop
  endfacet
  facet normal 0 -1 0
    outer loop
      vertex 0 80 3
      vertex 0 80 2
      vertex 100 80 3
    endloop
  endfacet
  facet normal 0.19509 -0.980785 0
    outer loop
      vertex -1.91342 79.6194 2
      vertex 0 80 2
      vertex 0 80 3
    endloop
  endfacet
  facet normal 0.19509 -0.980785 0
    outer loop
      vertex -1.91342 79.6194 3
      vertex -1.91342 79.6194 2
      vertex 0 80 3
    endloop
  endfacet
  facet normal 0.55557 -0.83147 0
    outer loop
      vertex -3.53553 78.5355 2
      vertex -1.91342 79.6194 2
      vertex -1.91342 79.6194 3
    endloop
  endfacet
  facet normal 0.55557 -0.83147 0
    outer loop
      vertex -3.53553 78.5355 3
      vertex -3.53553 78.5355 2
      vertex -1.91342 79.6194 3
    endloop
  endfacet
  facet normal 0.83147 -0.55557 0
    outer loop
      vertex -4.6194 76.9134 2
      vertex -3.53553 78.5355 2
      vertex -3.53553 78.5355 3
    endloop
  endfacet
  facet normal 0.83147 -0.55557 0
    outer loop
      vertex -4.6194 76.9134 3
      vertex -4.6194 76.9134 2
      vertex -3.53553 78.5355 3
    endloop
  endfacet
  facet normal 0.980785 -0.19509 0
    outer loop
      vertex -5 75 2
      vertex -4.6194 76.9134 2
      vertex -4.6194 76.9134 3
    endloop
  endfacet
  facet normal 0.980785 -0.19509 0
    outer loop
      vertex -5 75 3
      vertex -5 75 2
      vertex -4.6194 76.9134 3
    endloop
  endfacet
  facet normal 0.980785 0.19509 0
    outer loop
      vertex -5 0 -1
      vertex -5 0 0
      vertex -4.6194 -1.91342 0
    endloop
  endfacet
  facet normal 0.980785 0.19509 0
    outer loop
      vertex -4.6194 -1.91342 -1
      vertex -5 0 -1
      vertex -4.6194 -1.91342 0
    endloop
  endfacet
  facet normal 1 0 0
    outer loop
      vertex -5 0 -1
      vertex -5 75 -1
      vertex -5 75 0
    endloop
  endfacet
  facet normal 1 0 0
    outer loop
      vertex -5 0 0
      vertex -5 0 -1
      vertex -5 75 0
    endloop
  endfacet
  facet normal 0.980785 -0.19509 0
    outer loop
      vertex -5 75 -1
      vertex -4.6194 76.9134 -1
      vertex -4.6194 76.9134 0
    endloop
  endfacet
  facet normal 0.980785 -0.19509 0
    outer loop
      vertex -5 75 0
      vertex -5 75 -1
      vertex -4.6194 76.9134 0
    endloop
  endfacet
  facet normal 0.83147 -0.55557 0
    outer loop
      vertex -4.6194 76.9134 -1
      vertex -3.53553 78.5355 -1
      vertex -3.53553 78.5355 0
    endloop
  endfacet
  facet normal 0.83147 -0.55557 0
    outer loop
      vertex -4.6194 76.9134 0
      vertex -4.6194 76.9134 -1
      vertex -3.53553 78.5355 0
    endloop
  endfacet
  facet normal 0.55557 -0.83147 0
    outer loop
      vertex -3.53553 78.5355 -1
      vertex -1.91342 79.6194 -1
      vertex -1.91342 79.6194 0
    endloop
  endfacet
  facet normal 0.55557 -0.83147 0
    outer loop
      vertex -3.53553 78.5355 0
      vertex -3.53553 78.5355 -1
      vertex -1.91342 79.6194 0
    endloop
  endfacet
  facet normal 0.19509 -0.980785 0
    outer loop
      vertex -1.91342 79.6194 -1
      vertex 0 80 -1
      vertex 0 80 0
    endloop
  endfacet
  facet normal 0.19509 -0.980785 0
    outer loop
      vertex -1.91342 79.6194 0
      vertex -1.91342 79.6194 -1
      vertex 0 80 0
    endloop
  endfacet
  facet normal 0 -1 0
    outer loop
      vertex 0 80 -1
      vertex 100 80 -1
      vertex 100 80 0
    endloop
  endfacet
  facet normal 0 -1 0
    outer loop
      vertex 0 80 0
      vertex 0 80 -1
      vertex 100 80 0
    endloop
  endfacet
  facet normal -0.19509 -0.980785 0
    outer loop
      vertex 100 80 -1
      vertex 101.913 79.6194 -1
      vertex 101.913 79.6194 0
    endloop
  endfacet
  facet normal -0.19509 -0.980785 0
    outer loop
      vertex 100 80 0
      vertex 100 80 -1
      vertex 101.913 79.6194 0
    endloop
  endfacet
  facet normal -0.55557 -0.83147 0
    outer loop
      vertex 101.913 79.6194 -1
      vertex 103.536 78.5355 -1
      vertex 103.536 78.5355 0
    endloop
  endfacet
  facet normal -0.55557 -0.83147 0
    outer loop
      vertex 101.913 79.6194 0
      vertex 101.913 79.6194 -1
      vertex 103.536 78.5355 0
    endloop
  endfacet
  facet normal -0.83147 -0.55557 0
    outer loop
      vertex 104.619 76.9134 -1
      vertex 104.619 76.9134 0
      vertex 103.536 78.5355 -1
    endloop
  endfacet
  facet normal -0.83147 -0.55557 0
    outer loop
      vertex 103.536 78.5355 -1
      vertex 104.619 76.9134 0
      vertex 103.536 78.5355 0
    endloop
  endfacet
  facet normal -0.980785 -0.19509 0
    outer loop
      vertex 105 75 -1
      vertex 105 75 0
      vertex 104.619 76.9134 -1
    endloop
  endfacet
  facet normal -0.980785 -0.19509 0
    outer loop
      vertex 104.619 76.9134 -1
      vertex 105 75 0
      vertex 104.619 76.9134 0
    endloop
  endfacet
  facet normal -1 0 0
    outer loop
      vertex 105 0 0
      vertex 105 75 0
      vertex 105 0 -1
    endloop
  endfacet
  facet normal -1 0 0
    outer loop
      vertex 105 0 -1
      vertex 105 75 0
      vertex 105 75 -1
    endloop
  endfacet
  facet normal -0.980785 0.19509 0
    outer loop
      vertex 104.619 -1.91342 0
      vertex 105 0 0
      vertex 104.619 -1.91342 -1
    endloop
  endfacet
  facet normal -0.980785 0.19509 0
    outer loop
      vertex 104.619 -1.91342 -1
      vertex 105 0 0
      vertex 105 0 -1
    endloop
  endfacet
  facet normal -0.83147 0.55557 0
    outer loop
      vertex 103.536 -3.53553 0
      vertex 104.619 -1.91342 0
      vertex 103.536 -3.53553 -1
    endloop
  endfacet
  facet normal -0.83147 0.55557 0
    outer loop
      vertex 103.536 -3.53553 -1
      vertex 104.619 -1.91342 0
      vertex 104.619 -1.91342 -1
    endloop
  endfacet
  facet normal -0.55557 0.83147 0
    outer loop
      vertex 101.913 -4.6194 0
      vertex 103.536 -3.53553 0
      vertex 101.913 -4.6194 -1
    endloop
  endfacet
  facet normal -0.55557 0.83147 0
    outer loop
      vertex 101.913 -4.6194 -1
      vertex 103.536 -3.53553 0
      vertex 103.536 -3.53553 -1
    endloop
  endfacet
  facet normal -0.19509 0.980785 0
    outer loop
      vertex 100 -5 0
      vertex 101.913 -4.6194 0
      vertex 100 -5 -1
    endloop
  endfacet
  facet normal -0.19509 0.980785 0
    outer loop
      vertex 100 -5 -1
      vertex 101.913 -4.6194 0
      vertex 101.913 -4.6194 -1
    endloop
  endfacet
  facet normal 0 1 0
    outer loop
      vertex 0 -5 0
      vertex 100 -5 0
      vertex 0 -5 -1
    endloop
  endfacet
  facet normal 0 1 0
    outer loop
      vertex 0 -5 -1
      vertex 100 -5 0
      vertex 100 -5 -1
    endloop
  endfacet
  facet normal 0.19509 0.980785 0
    outer loop
      vertex -1.91342 -4.6194 0
      vertex 0 -5 0
      vertex -1.91342 -4.6194 -1
    endloop
  endfacet
  facet normal 0.19509 0.980785 0
    outer loop
      vertex -1.91342 -4.6194 -1
      vertex 0 -5 0
      vertex 0 -5 -1
    endloop
  endfacet
  facet normal 0.55557 0.83147 0
    outer loop
      vertex -3.53553 -3.53553 0
      vertex -1.91342 -4.6194 0
      vertex -3.53553 -3.53553 -1
    endloop
  endfacet
  facet normal 0.55557 0.83147 0
    outer loop
      vertex -3.53553 -3.53553 -1
      vertex -1.91342 -4.6194 0
      vertex -1.91342 -4.6194 -1
    endloop
  endfacet
  facet normal 0.83147 0.55557 0
    outer loop
      vertex -4.6194 -1.91342 -1
      vertex -4.6194 -1.91342 0
      vertex -3.53553 -3.53553 0
    endloop
  endfacet
  facet normal 0.83147 0.55557 0
    outer loop
      vertex -3.53553 -3.53553 -1
      vertex -4.6194 -1.91342 -1
      vertex -3.53553 -3.53553 0
    endloop
  endfacet
  facet normal 0 0 1
    outer loop
      vertex -5 0 2
      vertex -4.6194 -1.91342 2
      vertex -3.53553 -3.53553 2
    endloop
  endfacet
  facet normal 0 0 1
    outer loop
      vertex 0 -5 2
      vertex -5 0 2
      vertex -1.91342 -4.6194 2
    endloop
  endfacet
  facet normal 0 0 1
    outer loop
      vertex -1.91342 -4.6194 2
      vertex -5 0 2
      vertex -3.53553 -3.53553 2
    endloop
  endfacet
  facet normal 0 0 1
    outer loop
      vertex 100 -5 2
      vertex -5 0 2
      vertex 0 -5 2
    endloop
  endfacet
  facet normal 0 0 1
    outer loop
      vertex 101.913 -4.6194 2
      vertex -5 0 2
      vertex 100 -5 2
    endloop
  endfacet
  facet normal 0 0 1
    outer loop
      vertex 103.536 -3.53553 2
      vertex -5 0 2
      vertex 101.913 -4.6194 2
    endloop
  endfacet
  facet normal 0 0 1
    outer loop
      vertex 104.619 -1.91342 2
      vertex -5 0 2
      vertex 103.536 -3.53553 2
    endloop
  endfacet
  facet normal 0 0 1
    outer loop
      vertex 105 0 2
      vertex -5 0 2
      vertex 104.619 -1.91342 2
    endloop
  endfacet
  facet normal 0 0 1
    outer loop
      vertex 105 75 2
      vertex -5 0 2
      vertex 105 0 2
    endloop
  endfacet
  facet normal 0 0 1
    outer loop
      vertex 104.619 76.9134 2
      vertex -5 0 2
      vertex 105 75 2
    endloop
  endfacet
  facet normal 0 0 1
    outer loop
      vertex 103.536 78.5355 2
      vertex -5 0 2
      vertex 104.619 76.9134 2
    endloop
  endfacet
  facet normal 0 0 1
    outer loop
      vertex 101.913 79.6194 2
      vertex -5 0 2
      vertex 103.536 78.5355 2
    endloop
  endfacet
  facet normal 0 0 1
    outer loop
      vertex 100 80 2
      vertex -5 0 2
      vertex 101.913 79.6194 2
    endloop
  endfacet
  facet normal 0 0 1
    outer loop
      vertex 0 80 2
      vertex -5 0 2
      vertex 100 80 2
    endloop
  endfacet
  facet normal 0 0 1
    outer loop
      vertex -1.91342 79.6194 2
      vertex -5 0 2
      vertex 0 80 2
    endloop
  endfacet
  facet normal 0 0 1
    outer loop
      vertex -3.53553 78.5355 2
      vertex -5 0 2
      vertex -1.91342 79.6194 2
    endloop
  endfacet
  facet normal 0 0 1
    outer loop
      vertex -4.6194 76.9134 2
      vertex -5 0 2
      vertex -3.53553 78.5355 2
    endloop
  endfacet
  facet normal 0 0 1
    outer loop
      vertex -5 75 2
      vertex -5 0 2
      vertex -4.6194 76.9134 2
    endloop
  endfacet
  facet normal 0 0 -1
    outer loop
      vertex -5 75 0
      vertex -4.6194 76.9134 0
      vertex -5 0 0
    endloop
  endfacet
  facet normal 0 0 -1
    outer loop
      vertex -5 0 0
      vertex -4.6194 76.9134 0
      vertex -3.53553 78.5355 0
    endloop
  endfacet
  facet normal 0 0 -1
    outer loop
      vertex -5 0 0
      vertex -3.53553 78.5355 0
      vertex -1.91342 79.6194 0
    endloop
  endfacet
  facet normal 0 0 -1
    outer loop
      vertex -0.445042 76.9499 0
      vertex -1.91342 79.6194 0
      vertex 0 80 0
    endloop
  endfacet
  facet normal 0 0 -1
    outer loop
      vertex 99.555 76.9499 0
      vertex 101.913 79.6194 0
      vertex 103.536 78.5355 0
    endloop
  endfacet
  facet normal 0 0 -1
    outer loop
      vertex 101.247 76.5637 0
      vertex 103.536 78.5355 0
      vertex 104.619 76.9134 0
    endloop
  endfacet
  facet normal 0 0 -1
    outer loop
      vertex 102 75 0
      vertex 104.619 76.9134 0
      vertex 105 75 0
    endloop
  endfacet
  facet normal 0 0 -1
    outer loop
      vertex 101.247 -1.56366 0
      vertex 105 0 0
      vertex 104.619 -1.91342 0
    endloop
  endfacet
  facet normal 0 0 -1
    outer loop
      vertex 99.555 -1.94986 0
      vertex 104.619 -1.91342 0
      vertex 103.536 -3.53553 0
    endloop
  endfacet
  facet normal 0 0 -1
    outer loop
      vertex 99.555 -1.94986 0
      vertex 100 -5 0
      vertex -0.445042 -1.94986 0
    endloop
  endfacet
  facet normal 0 0 -1
    outer loop
      vertex -0.445042 -1.94986 0
      vertex 100 -5 0
      vertex 0 -5 0
    endloop
  endfacet
  facet normal 0 0 -1
    outer loop
      vertex -5 0 0
      vertex 0 -5 0
      vertex -1.91342 -4.6194 0
    endloop
  endfacet
  facet normal 0 0 -1
    outer loop
      vertex -5 0 0
      vertex -1.91342 -4.6194 0
      vertex -3.53553 -3.53553 0
    endloop
  endfacet
  facet normal 0 0 -1
    outer loop
      vertex -5 0 0
      vertex -3.53553 -3.53553 0
      vertex -4.6194 -1.91342 0
    endloop
  endfacet
  facet normal 0 0 -1
    outer loop
      vertex 99.555 -1.94986 0
      vertex 101.913 -4.6194 0
      vertex 100 -5 0
    endloop
  endfacet
  facet normal 0 0 -1
    outer loop
      vertex -5 0 0
      vertex -1.80194 -0.867767 0
      vertex 0 -5 0
    endloop
  endfacet
  facet normal 0 0 -1
    outer loop
      vertex -1.80194 -0.867767 0
      vertex -0.445042 -1.94986 0
      vertex 0 -5 0
    endloop
  endfacet
  facet normal 0 0 -1
    outer loop
      vertex 102 0 0
      vertex 105 0 0
      vertex 101.247 -1.56366 0
    endloop
  endfacet
  facet normal 0 0 -1
    outer loop
      vertex 105 75 0
      vertex 105 0 0
      vertex 102 0 0
    endloop
  endfacet
  facet normal 0 0 -1
    outer loop
      vertex -1.80194 75.8678 0
      vertex -1.91342 79.6194 0
      vertex -0.445042 76.9499 0
    endloop
  endfacet
  facet normal 0 0 -1
    outer loop
      vertex -5 0 0
      vertex -1.91342 79.6194 0
      vertex -1.80194 75.8678 0
    endloop
  endfacet
  facet normal 0 0 -1
    outer loop
      vertex -1.80194 -0.867767 0
      vertex -5 0 0
      vertex -1.80194 75.8678 0
    endloop
  endfacet
  facet normal 0 0 -1
    outer loop
      vertex -0.445042 76.9499 0
      vertex 0 80 0
      vertex 100 80 0
    endloop
  endfacet
  facet normal 0 0 -1
    outer loop
      vertex 99.555 76.9499 0
      vertex 103.536 78.5355 0
      vertex 101.247 76.5637 0
    endloop
  endfacet
  facet normal 0 0 -1
    outer loop
      vertex 101.247 76.5637 0
      vertex 104.619 76.9134 0
      vertex 102 75 0
    endloop
  endfacet
  facet normal 0 0 -1
    outer loop
      vertex 102 75 0
      vertex 105 75 0
      vertex 102 0 0
    endloop
  endfacet
  facet normal 0 0 -1
    outer loop
      vertex 101.247 -1.56366 0
      vertex 104.619 -1.91342 0
      vertex 99.555 -1.94986 0
    endloop
  endfacet
  facet normal 0 0 -1
    outer loop
      vertex 99.555 -1.94986 0
      vertex 103.536 -3.53553 0
      vertex 101.913 -4.6194 0
    endloop
  endfacet
  facet normal 0 0 -1
    outer loop
      vertex -0.445042 76.9499 0
      vertex 100 80 0
      vertex 101.913 79.6194 0
    endloop
  endfacet
  facet normal 0 0 -1
    outer loop
      vertex -0.445042 76.9499 0
      vertex 101.913 79.6194 0
      vertex 99.555 76.9499 0
    endloop
  endfacet
  facet normal -0.62349 -0.781831 0
    outer loop
      vertex -1.80194 -0.867767 -1
      vertex -0.445042 -1.94986 -1
      vertex -0.445042 -1.94986 0
    endloop
  endfacet
  facet normal -0.62349 -0.781831 0
    outer loop
      vertex -1.80194 -0.867767 0
      vertex -1.80194 -0.867767 -1
      vertex -0.445042 -1.94986 0
    endloop
  endfacet
  facet normal -1 0 0
    outer loop
      vertex -1.80194 -0.867767 0
      vertex -1.80194 75.8678 0
      vertex -1.80194 -0.867767 -1
    endloop
  endfacet
  facet normal -1 0 0
    outer loop
      vertex -1.80194 -0.867767 -1
      vertex -1.80194 75.8678 0
      vertex -1.80194 75.8678 -1
    endloop
  endfacet
  facet normal -0.62349 0.781831 0
    outer loop
      vertex -1.80194 75.8678 0
      vertex -0.445042 76.9499 0
      vertex -1.80194 75.8678 -1
    endloop
  endfacet
  facet normal -0.62349 0.781831 0
    outer loop
      vertex -1.80194 75.8678 -1
      vertex -0.445042 76.9499 0
      vertex -0.445042 76.9499 -1
    endloop
  endfacet
  facet normal 0 1 0
    outer loop
      vertex -0.445042 76.9499 0
      vertex 99.555 76.9499 0
      vertex -0.445042 76.9499 -1
    endloop
  endfacet
  facet normal 0 1 0
    outer loop
      vertex -0.445042 76.9499 -1
      vertex 99.555 76.9499 0
      vertex 99.555 76.9499 -1
    endloop
  endfacet
  facet normal 0.222521 0.974928 0
    outer loop
      vertex 99.555 76.9499 0
      vertex 101.247 76.5637 0
      vertex 99.555 76.9499 -1
    endloop
  endfacet
  facet normal 0.222521 0.974928 0
    outer loop
      vertex 99.555 76.9499 -1
      vertex 101.247 76.5637 0
      vertex 101.247 76.5637 -1
    endloop
  endfacet
  facet normal 0.900969 0.433884 0
    outer loop
      vertex 101.247 76.5637 -1
      vertex 101.247 76.5637 0
      vertex 102 75 0
    endloop
  endfacet
  facet normal 0.900969 0.433884 0
    outer loop
      vertex 102 75 -1
      vertex 101.247 76.5637 -1
      vertex 102 75 0
    endloop
  endfacet
  facet normal 1 0 0
    outer loop
      vertex 102 0 -1
      vertex 102 75 -1
      vertex 102 75 0
    endloop
  endfacet
  facet normal 1 0 0
    outer loop
      vertex 102 0 0
      vertex 102 0 -1
      vertex 102 75 0
    endloop
  endfacet
  facet normal 0.900969 -0.433884 0
    outer loop
      vertex 101.247 -1.56366 -1
      vertex 102 0 -1
      vertex 102 0 0
    endloop
  endfacet
  facet normal 0.900969 -0.433884 0
    outer loop
      vertex 101.247 -1.56366 0
      vertex 101.247 -1.56366 -1
      vertex 102 0 0
    endloop
  endfacet
  facet normal 0.222521 -0.974928 0
    outer loop
      vertex 99.555 -1.94986 -1
      vertex 101.247 -1.56366 -1
      vertex 101.247 -1.56366 0
    endloop
  endfacet
  facet normal 0.222521 -0.974928 0
    outer loop
      vertex 99.555 -1.94986 0
      vertex 99.555 -1.94986 -1
      vertex 101.247 -1.56366 0
    endloop
  endfacet
  facet normal 0 -1 0
    outer loop
      vertex -0.445042 -1.94986 -1
      vertex 99.555 -1.94986 -1
      vertex 99.555 -1.94986 0
    endloop
  endfacet
  facet normal 0 -1 0
    outer loop
      vertex -0.445042 -1.94986 0
      vertex -0.445042 -1.94986 -1
      vertex 99.555 -1.94986 0
    endloop
  endfacet
  facet normal 0 0 -1
    outer loop
      vertex -1.80194 75.8678 -1
      vertex -0.445042 76.9499 -1
      vertex -1.80194 -0.867767 -1
    endloop
  endfacet
  facet normal 0 0 -1
    outer loop
      vertex -1.80194 -0.867767 -1
      vertex -0.445042 76.9499 -1
      vertex 99.555 76.9499 -1
    endloop
  endfacet
  facet normal 0 0 -1
    outer loop
      vertex -1.80194 -0.867767 -1
      vertex 99.555 76.9499 -1
      vertex 101.247 76.5637 -1
    endloop
  endfacet
  facet normal 0 0 -1
    outer loop
      vertex -1.80194 -0.867767 -1
      vertex 101.247 76.5637 -1
      vertex 102 75 -1
    endloop
  endfacet
  facet normal 0 0 -1
    outer loop
      vertex -1.80194 -0.867767 -1
      vertex 102 75 -1
      vertex 102 0 -1
    endloop
  endfacet
  facet normal 0 0 -1
    outer loop
      vertex -1.80194 -0.867767 -1
      vertex 102 0 -1
      vertex 101.247 -1.56366 -1
    endloop
  endfacet
  facet normal 0 0 -1
    outer loop
      vertex -1.80194 -0.867767 -1
      vertex 101.247 -1.56366 -1
      vertex 99.555 -1.94986 -1
    endloop
  endfacet
  facet normal 0 0 -1
    outer loop
      vertex -1.80194 -0.867767 -1
      vertex 99.555 -1.94986 -1
      vertex -0.445042 -1.94986 -1
    endloop
  endfacet
endsolid OpenSCAD_Model
