  0
SECTION
  2
HEADER
  9
$ACADVER
  1
AC1014
  9
$HANDSEED
  5
FFFF
  9
$MEASUREMENT
 70
     1
  0
ENDSEC
  0
SECTION
  2
TABLES
  0
TABLE
  2
VPORT
  5
8
330
0
100
AcDbSymbolTable
 70
     4
  0
VPORT
  5
2E
330
8
100
AcDbSymbolTableRecord
100
AcDbViewportTableRecord
  2
*ACTIVE
 70
     0
 10
0.0
 20
0.0
 11
1.0
 21
1.0
 12
210.0
 22
148.5
 13
0.0
 23
0.0
 14
10.0
 24
10.0
 15
10.0
 25
10.0
 16
0.0
 26
0.0
 36
1.0
 17
0.0
 27
0.0
 37
0.0
 40
341.0
 41
1.24
 42
50.0
 43
0.0
 44
0.0
 50
0.0
 51
0.0
 71
     0
 72
   100
 73
     1
 74
     3
 75
     0
 76
     0
 77
     0
 78
     0
  0
ENDTAB
  0
TABLE
  2
LTYPE
  5
5
330
0
100
AcDbSymbolTable
 70
     1
  0
LTYPE
  5
14
330
5
100
AcDbSymbolTableRecord
100
AcDbLinetypeTableRecord
  2
BYBLOCK
 70
     0
  3

 72
    65
 73
     0
 40
0.0
  0
LTYPE
  5
15
330
5
100
AcDbSymbolTableRecord
100
AcDbLinetypeTableRecord
  2
BYLAYER
 70
     0
  3

 72
    65
 73
     0
 40
0.0
  0
LTYPE
  5
16
330
5
100
AcDbSymbolTableRecord
100
AcDbLinetypeTableRecord
  2
CONTINUOUS
 70
     0
  3
Solid line
 72
    65
 73
     0
 40
0.0
  0
ENDTAB
  0
TABLE
  2
LAYER
  5
2
100
AcDbSymbolTable
 70
2
  0
LAYER
  5
50
100
AcDbSymbolTableRecord
100
AcDbLayerTableRecord
  2
0
 70
0
  6
CONTINUOUS
  0
LAYER
  5
51
100
AcDbSymbolTableRecord
100
AcDbLayerTableRecord
  2
cylindric_bend
 70
0
  6
CONTINUOUS
  0
ENDTAB
  0
TABLE
  2
STYLE
  5
3
330
0
100
AcDbSymbolTable
 70
     1
  0
STYLE
  5
11
330
3
100
AcDbSymbolTableRecord
100
AcDbTextStyleTableRecord
  2
STANDARD
 70
     0
 40
0.0
 41
1.0
 50
0.0
 71
     0
 42
2.5
  3
txt
  4

  0
ENDTAB
  0
TABLE
  2
VIEW
  5
6
330
0
100
AcDbSymbolTable
 70
     0
  0
ENDTAB
  0
TABLE
  2
UCS
  5
7
330
0
100
AcDbSymbolTable
 70
     0
  0
ENDTAB
  0
TABLE
  2
APPID
  5
9
330
0
100
AcDbSymbolTable
 70
     2
  0
APPID
  5
12
330
9
100
AcDbSymbolTableRecord
100
AcDbRegAppTableRecord
  2
ACAD
 70
     0
  0
ENDTAB
  0
TABLE
  2
DIMSTYLE
  5
A
330
0
100
AcDbSymbolTable
 70
     1
  0
DIMSTYLE
105
27
330
A
100
AcDbSymbolTableRecord
100
AcDbDimStyleTableRecord
  2
ISO-25
 70
     0
  3

  4

  5

  6

  7

 40
1.0
 41
2.5
 42
0.625
 43
3.75
 44
1.25
 45
0.0
 46
0.0
 47
0.0
 48
0.0
140
2.5
141
2.5
142
0.0
143
0.03937007874016
144
1.0
145
0.0
146
1.0
147
0.625
 71
     0
 72
     0
 73
     0
 74
     0
 75
     0
 76
     0
 77
     1
 78
     8
170
     0
171
     3
172
     1
173
     0
174
     0
175
     0
176
     0
177
     0
178
     0
270
     2
271
     2
272
     2
273
     2
274
     3
340
11
275
     0
280
     0
281
     0
282
     0
283
     0
284
     8
285
     0
286
     0
287
     3
288
     0
  0
ENDTAB
  0
TABLE
  2
BLOCK_RECORD
  5
1
330
0
100
AcDbSymbolTable
 70
     1
  0
BLOCK_RECORD
  5
1F
330
1
100
AcDbSymbolTableRecord
100
AcDbBlockTableRecord
  2
*MODEL_SPACE
  0
BLOCK_RECORD
  5
1B
330
1
100
AcDbSymbolTableRecord
100
AcDbBlockTableRecord
  2
*PAPER_SPACE
  0
ENDTAB
  0
ENDSEC
  0
SECTION
  2
BLOCKS
  0
BLOCK
  5
20
330
1F
100
AcDbEntity
  8
0
100
AcDbBlockBegin
  2
*MODEL_SPACE
 70
     0
 10
0.0
 20
0.0
 30
0.0
  3
*MODEL_SPACE
  1

  0
ENDBLK
  5
21
330
1F
100
AcDbEntity
  8
0
100
AcDbBlockEnd
  0
BLOCK
  5
1C
330
1B
100
AcDbEntity
 67
     1
  8
0
100
AcDbBlockBegin
  2
*PAPER_SPACE
  1

  0
ENDBLK
  5
1D
330
1B
100
AcDbEntity
 67
     1
  8
0
100
AcDbBlockEnd
  0
ENDSEC
  0
SECTION
  2
ENTITIES
  0
LWPOLYLINE
  5
100
100
AcDbEntity
  8
cylindric_bend
 62
7
100
AcDbPolyline
 90
165
 70
0
 10
0.000000
 20
8.595360
 30
0.0
 10
0.008890
 20
9.076687
 30
0.0
 10
0.035560
 20
9.545314
 30
0.0
 10
0.080010
 20
10.001244
 30
0.0
 10
0.142240
 20
10.444480
 30
0.0
 10
0.246380
 20
10.890244
 30
0.0
 10
0.396239
 20
11.333474
 30
0.0
 10
0.591820
 20
11.774164
 30
0.0
 10
0.833120
 20
12.212320
 30
0.0
 10
1.186179
 20
12.736824
 30
0.0
 10
1.574799
 20
13.192751
 30
0.0
 10
1.998979
 20
13.580104
 30
0.0
 10
2.458720
 20
13.898880
 30
0.0
 10
3.074668
 20
14.201134
 30
0.0
 10
3.764277
 20
14.417031
 30
0.0
 10
4.527548
 20
14.546574
 30
0.0
 10
5.364480
 20
14.589760
 30
0.0
 10
6.186166
 20
14.552924
 30
0.0
 10
6.903715
 20
14.442431
 30
0.0
 10
7.517126
 20
14.258284
 30
0.0
 10
8.026400
 20
14.000480
 30
0.0
 10
8.426445
 20
13.680434
 30
0.0
 10
8.712193
 20
13.289271
 30
0.0
 10
8.883645
 20
12.826994
 30
0.0
 10
8.940800
 20
12.293600
 30
0.0
 10
8.902695
 20
11.950694
 30
0.0
 10
8.788393
 20
11.633194
 30
0.0
 10
8.597895
 20
11.341094
 30
0.0
 10
8.331200
 20
11.074400
 30
0.0
 10
8.028935
 20
10.861034
 30
0.0
 10
7.711434
 20
10.708634
 30
0.0
 10
7.378696
 20
10.617194
 30
0.0
 10
7.030720
 20
10.586720
 30
0.0
 10
6.882126
 20
10.591800
 30
0.0
 10
6.741155
 20
10.607040
 30
0.0
 10
6.607806
 20
10.632440
 30
0.0
 10
6.482080
 20
10.668000
 30
0.0
 10
6.367776
 20
10.723874
 30
0.0
 10
6.248395
 20
10.789914
 30
0.0
 10
6.123936
 20
10.866114
 30
0.0
 10
5.994400
 20
10.952480
 30
0.0
 10
5.890257
 20
11.046454
 30
0.0
 10
5.801355
 20
11.125194
 30
0.0
 10
5.727697
 20
11.188694
 30
0.0
 10
5.669280
 20
11.236960
 30
0.0
 10
5.591807
 20
11.299184
 30
0.0
 10
5.521956
 20
11.343634
 30
0.0
 10
5.459727
 20
11.370304
 30
0.0
 10
5.405120
 20
11.379194
 30
0.0
 10
5.363207
 20
11.369034
 30
0.0
 10
5.318756
 20
11.358874
 30
0.0
 10
5.271767
 20
11.348714
 30
0.0
 10
5.222240
 20
11.338554
 30
0.0
 10
5.185407
 20
11.320774
 30
0.0
 10
5.156196
 20
11.287751
 30
0.0
 10
5.134606
 20
11.239491
 30
0.0
 10
5.120639
 20
11.175994
 30
0.0
 10
5.043166
 20
11.210278
 30
0.0
 10
4.973315
 20
11.252188
 30
0.0
 10
4.911086
 20
11.301718
 30
0.0
 10
4.856479
 20
11.358874
 30
0.0
 10
4.820916
 20
11.436338
 30
0.0
 10
4.795516
 20
11.526508
 30
0.0
 10
4.780276
 20
11.629378
 30
0.0
 10
4.775199
 20
11.744954
 30
0.0
 10
4.789166
 20
11.890998
 30
0.0
 10
4.831075
 20
12.024348
 30
0.0
 10
4.900926
 20
12.144998
 30
0.0
 10
4.998719
 20
12.252954
 30
0.0
 10
5.118096
 20
12.341848
 30
0.0
 10
5.252715
 20
12.405346
 30
0.0
 10
5.402575
 20
12.443448
 30
0.0
 10
5.567679
 20
12.456148
 30
0.0
 10
5.646415
 20
12.453608
 30
0.0
 10
5.740394
 20
12.445988
 30
0.0
 10
5.849615
 20
12.433288
 30
0.0
 10
5.974079
 20
12.415508
 30
0.0
 10
6.097265
 20
12.397728
 30
0.0
 10
6.202674
 20
12.385028
 30
0.0
 10
6.290305
 20
12.377408
 30
0.0
 10
6.360159
 20
12.374868
 30
0.0
 10
6.511285
 20
12.395188
 30
0.0
 10
6.619234
 20
12.456146
 30
0.0
 10
6.684005
 20
12.557748
 30
0.0
 10
6.705598
 20
12.699994
 30
0.0
 10
6.678925
 20
12.830798
 30
0.0
 10
6.598914
 20
12.959066
 30
0.0
 10
6.465565
 20
13.084798
 30
0.0
 10
6.278879
 20
13.207994
 30
0.0
 10
5.985505
 20
13.368008
 30
0.0
 10
5.694674
 20
13.482306
 30
0.0
 10
5.406385
 20
13.550888
 30
0.0
 10
5.120639
 20
13.573748
 30
0.0
 10
4.441186
 20
13.503893
 30
0.0
 10
3.845555
 20
13.294340
 30
0.0
 10
3.333747
 20
12.945093
 30
0.0
 10
2.905759
 20
12.456148
 30
0.0
 10
2.612387
 20
11.936713
 30
0.0
 10
2.402837
 20
11.353783
 30
0.0
 10
2.277107
 20
10.707353
 30
0.0
 10
2.235199
 20
9.997428
 30
0.0
 10
2.251709
 20
9.448786
 30
0.0
 10
2.301238
 20
8.961103
 30
0.0
 10
2.383787
 20
8.534386
 30
0.0
 10
2.499358
 20
8.168628
 30
0.0
 10
2.658106
 20
7.860016
 30
0.0
 10
2.849876
 20
7.584423
 30
0.0
 10
3.074666
 20
7.341856
 30
0.0
 10
3.332478
 20
7.132308
 30
0.0
 10
3.590286
 20
6.998956
 30
0.0
 10
3.876035
 20
6.883383
 30
0.0
 10
4.189726
 20
6.785596
 30
0.0
 10
4.531358
 20
6.705588
 30
0.0
 10
4.902195
 20
6.652246
 30
0.0
 10
5.283194
 20
6.614146
 30
0.0
 10
5.674355
 20
6.591286
 30
0.0
 10
6.075678
 20
6.583666
 30
0.0
 10
6.653524
 20
6.612876
 30
0.0
 10
7.167872
 20
6.700506
 30
0.0
 10
7.618724
 20
6.846556
 30
0.0
 10
8.006078
 20
7.051026
 30
0.0
 10
8.275313
 20
7.260573
 30
0.0
 10
8.493752
 20
7.503140
 30
0.0
 10
8.661393
 20
7.778733
 30
0.0
 10
8.778238
 20
8.087346
 30
0.0
 10
8.997943
 20
8.018763
 30
0.0
 10
9.210031
 20
7.894300
 30
0.0
 10
9.414503
 20
7.713963
 30
0.0
 10
9.611358
 20
7.477746
 30
0.0
 10
9.780262
 20
7.223743
 30
0.0
 10
9.900910
 20
6.969740
 30
0.0
 10
9.973302
 20
6.715743
 30
0.0
 10
9.997438
 20
6.461746
 30
0.0
 10
9.949172
 20
5.914373
 30
0.0
 10
9.804390
 20
5.410183
 30
0.0
 10
9.563092
 20
4.949173
 30
0.0
 10
9.225278
 20
4.531346
 30
0.0
 10
8.821413
 20
4.193526
 30
0.0
 10
8.361671
 20
3.952226
 30
0.0
 10
7.846053
 20
3.807446
 30
0.0
 10
7.274558
 20
3.759186
 30
0.0
 10
7.015474
 20
3.762996
 30
0.0
 10
6.746232
 20
3.774426
 30
0.0
 10
6.466834
 20
3.793476
 30
0.0
 10
6.177278
 20
3.820146
 30
0.0
 10
5.902954
 20
3.846816
 30
0.0
 10
5.669273
 20
3.865866
 30
0.0
 10
5.476235
 20
3.877296
 30
0.0
 10
5.323838
 20
3.881106
 30
0.0
 10
5.149845
 20
3.879694
 30
0.0
 10
4.993634
 20
3.875884
 30
0.0
 10
4.855205
 20
3.869534
 30
0.0
 10
4.734558
 20
3.860644
 30
0.0
 10
4.232905
 20
3.816194
 30
0.0
 10
3.865875
 20
3.784444
 30
0.0
 10
3.633465
 20
3.765394
 30
0.0
 10
3.535678
 20
3.759044
 30
0.0
 10
2.752086
 20
3.863184
 30
0.0
 10
2.047236
 20
4.175604
 30
0.0
 10
1.421127
 20
4.696304
 30
0.0
 10
0.873758
 20
5.425284
 30
0.0
 10
0.491487
 20
6.156802
 30
0.0
 10
0.218437
 20
6.928962
 30
0.0
 10
0.054608
 20
7.741762
 30
0.0
 10
-0.000002
 20
8.595204
 30
0.0
  0
LWPOLYLINE
  5
101
100
AcDbEntity
  8
cylindric_bend
 62
7
100
AcDbPolyline
 90
113
 70
0
 10
14.681835
 20
5.588000
 30
0.0
 10
13.721715
 20
7.366000
 30
0.0
 10
12.761595
 20
9.144000
 30
0.0
 10
11.801475
 20
10.922000
 30
0.0
 10
10.841355
 20
12.700000
 30
0.0
 10
10.744834
 20
12.839694
 30
0.0
 10
10.638154
 20
12.974311
 30
0.0
 10
10.521315
 20
13.103854
 30
0.0
 10
10.394315
 20
13.228320
 30
0.0
 10
10.227945
 20
13.385794
 30
0.0
 10
10.094595
 20
13.512791
 30
0.0
 10
9.994265
 20
13.609314
 30
0.0
 10
9.926955
 20
13.675360
 30
0.0
 10
9.802495
 20
13.809974
 30
0.0
 10
9.713595
 20
13.929351
 30
0.0
 10
9.660255
 20
14.033494
 30
0.0
 10
9.642475
 20
14.122400
 30
0.0
 10
9.684386
 20
14.223994
 30
0.0
 10
9.749156
 20
14.305271
 30
0.0
 10
9.836786
 20
14.366234
 30
0.0
 10
9.947275
 20
14.406880
 30
0.0
 10
10.066655
 20
14.433550
 30
0.0
 10
10.201275
 20
14.452600
 30
0.0
 10
10.351135
 20
14.464030
 30
0.0
 10
10.516235
 20
14.467840
 30
0.0
 10
11.776075
 20
14.467840
 30
0.0
 10
13.035915
 20
14.467840
 30
0.0
 10
14.295755
 20
14.467840
 30
0.0
 10
15.555595
 20
14.467840
 30
0.0
 10
15.707992
 20
14.462760
 30
0.0
 10
15.840071
 20
14.447520
 30
0.0
 10
15.951832
 20
14.422120
 30
0.0
 10
16.043275
 20
14.386563
 30
0.0
 10
16.114392
 20
14.334487
 30
0.0
 10
16.165190
 20
14.259554
 30
0.0
 10
16.195672
 20
14.161767
 30
0.0
 10
16.205835
 20
14.041123
 30
0.0
 10
16.185512
 20
13.926817
 30
0.0
 10
16.124550
 20
13.827754
 30
0.0
 10
16.022952
 20
13.743937
 30
0.0
 10
15.880715
 20
13.675363
 30
0.0
 10
16.958941
 20
13.869667
 30
0.0
 10
18.039710
 20
14.066514
 30
0.0
 10
19.123020
 20
14.265907
 30
0.0
 10
20.208875
 20
14.467843
 30
0.0
 10
20.680040
 20
14.428467
 30
0.0
 10
21.016587
 20
14.310354
 30
0.0
 10
21.218520
 20
14.113507
 30
0.0
 10
21.285835
 20
13.837923
 30
0.0
 10
21.231220
 20
13.470887
 30
0.0
 10
21.067387
 20
12.959074
 30
0.0
 10
20.794340
 20
12.302487
 30
0.0
 10
20.412075
 20
11.501123
 30
0.0
 10
20.197440
 20
11.078207
 30
0.0
 10
19.959947
 20
10.622277
 30
0.0
 10
19.699600
 20
10.133327
 30
0.0
 10
19.416395
 20
9.611363
 30
0.0
 10
19.143340
 20
9.107170
 30
0.0
 10
18.893150
 20
8.651240
 30
0.0
 10
18.665820
 20
8.243570
 30
0.0
 10
18.461355
 20
7.884163
 30
0.0
 10
18.198460
 20
7.437120
 30
0.0
 10
17.938109
 20
6.990080
 30
0.0
 10
17.680301
 20
6.543040
 30
0.0
 10
17.425035
 20
6.096003
 30
0.0
 10
17.425035
 20
5.207003
 30
0.0
 10
17.425035
 20
4.318003
 30
0.0
 10
17.425035
 20
3.429003
 30
0.0
 10
17.425035
 20
2.540003
 30
0.0
 10
17.405980
 20
2.047243
 30
0.0
 10
17.348828
 20
1.605283
 30
0.0
 10
17.253580
 20
1.214123
 30
0.0
 10
17.120234
 20
0.873763
 30
0.0
 10
16.875120
 20
0.491495
 30
0.0
 10
16.566509
 20
0.218445
 30
0.0
 10
16.194400
 20
0.054615
 30
0.0
 10
15.758794
 20
0.000003
 30
0.0
 10
15.530191
 20
0.019053
 30
0.0
 10
15.311750
 20
0.076203
 30
0.0
 10
15.103471
 20
0.171453
 30
0.0
 10
14.905354
 20
0.304800
 30
0.0
 10
14.806291
 20
0.400053
 30
0.0
 10
14.671670
 20
0.543563
 30
0.0
 10
14.501491
 20
0.735333
 30
0.0
 10
14.295754
 20
0.975360
 30
0.0
 10
14.201772
 20
1.108710
 30
0.0
 10
14.102711
 20
1.244600
 30
0.0
 10
13.998572
 20
1.383030
 30
0.0
 10
13.889354
 20
1.524000
 30
0.0
 10
13.789022
 20
1.648460
 30
0.0
 10
13.691231
 20
1.737360
 30
0.0
 10
13.595982
 20
1.790700
 30
0.0
 10
13.503274
 20
1.808480
 30
0.0
 10
13.380082
 20
1.797050
 30
0.0
 10
13.234031
 20
1.762760
 30
0.0
 10
13.065122
 20
1.705610
 30
0.0
 10
12.873354
 20
1.625600
 30
0.0
 10
12.925422
 20
1.889760
 30
0.0
 10
12.980032
 20
2.153920
 30
0.0
 10
13.037182
 20
2.418080
 30
0.0
 10
13.096874
 20
2.682240
 30
0.0
 10
13.222602
 20
2.931160
 30
0.0
 10
13.396591
 20
3.108960
 30
0.0
 10
13.618842
 20
3.215640
 30
0.0
 10
13.889354
 20
3.251200
 30
0.0
 10
14.060801
 20
3.235960
 30
0.0
 10
14.250030
 20
3.190240
 30
0.0
 10
14.457041
 20
3.114040
 30
0.0
 10
14.681834
 20
3.007360
 30
0.0
 10
14.681834
 20
3.652520
 30
0.0
 10
14.681834
 20
4.297680
 30
0.0
 10
14.681834
 20
4.942840
 30
0.0
 10
14.681834
 20
5.588000
 30
0.0
  0
LWPOLYLINE
  5
102
100
AcDbEntity
  8
cylindric_bend
 62
7
100
AcDbPolyline
 90
49
 70
0
 10
13.178154
 20
13.573760
 30
0.0
 10
13.965554
 20
12.065000
 30
0.0
 10
14.752954
 20
10.556240
 30
0.0
 10
15.540354
 20
9.047480
 30
0.0
 10
16.327754
 20
7.538720
 30
0.0
 10
16.362040
 20
7.480297
 30
0.0
 10
16.403949
 20
7.426954
 30
0.0
 10
16.453480
 20
7.378697
 30
0.0
 10
16.510634
 20
7.335520
 30
0.0
 10
16.589370
 20
7.358380
 30
0.0
 10
16.683349
 20
7.426957
 30
0.0
 10
16.792570
 20
7.541260
 30
0.0
 10
16.917034
 20
7.701283
 30
0.0
 10
17.310730
 20
8.257540
 30
0.0
 10
17.658708
 20
8.808717
 30
0.0
 10
17.960968
 20
9.354820
 30
0.0
 10
18.217514
 20
9.895843
 30
0.0
 10
18.466428
 20
10.538457
 30
0.0
 10
18.644228
 20
11.165837
 30
0.0
 10
18.750908
 20
11.777977
 30
0.0
 10
18.786474
 20
12.374883
 30
0.0
 10
18.740748
 20
12.774927
 30
0.0
 10
18.603588
 20
13.060674
 30
0.0
 10
18.374988
 20
13.232127
 30
0.0
 10
18.054954
 20
13.289283
 30
0.0
 10
17.753960
 20
13.276583
 30
0.0
 10
17.440268
 20
13.238480
 30
0.0
 10
17.113880
 20
13.174983
 30
0.0
 10
16.774794
 20
13.086088
 30
0.0
 10
15.992471
 20
12.863833
 30
0.0
 10
15.372710
 20
12.705080
 30
0.0
 10
14.915511
 20
12.609833
 30
0.0
 10
14.620874
 20
12.578088
 30
0.0
 10
14.354172
 20
12.609833
 30
0.0
 10
14.163671
 20
12.705080
 30
0.0
 10
14.049372
 20
12.863833
 30
0.0
 10
14.011274
 20
13.086088
 30
0.0
 10
14.016351
 20
13.164823
 30
0.0
 10
14.031591
 20
13.238480
 30
0.0
 10
14.056991
 20
13.307063
 30
0.0
 10
14.092553
 20
13.370568
 30
0.0
 10
14.135730
 20
13.426443
 30
0.0
 10
14.183990
 20
13.472160
 30
0.0
 10
14.237330
 20
13.507723
 30
0.0
 10
14.295753
 20
13.533123
 30
0.0
 10
14.016353
 20
13.543283
 30
0.0
 10
13.736953
 20
13.553443
 30
0.0
 10
13.457553
 20
13.563603
 30
0.0
 10
13.178153
 20
13.573763
 30
0.0
  0
LWPOLYLINE
  5
103
100
AcDbEntity
  8
cylindric_bend
 62
7
100
AcDbPolyline
 90
89
 70
0
 10
23.342600
 20
5.628640
 30
0.0
 10
23.342600
 20
8.437880
 30
0.0
 10
23.342600
 20
11.247120
 30
0.0
 10
23.342600
 20
14.056360
 30
0.0
 10
23.342600
 20
16.865600
 30
0.0
 10
23.298147
 20
17.023071
 30
0.0
 10
23.164797
 20
17.190708
 30
0.0
 10
22.942547
 20
17.368511
 30
0.0
 10
22.631400
 20
17.556480
 30
0.0
 10
22.489160
 20
17.652991
 30
0.0
 10
22.387560
 20
17.759668
 30
0.0
 10
22.326600
 20
17.876511
 30
0.0
 10
22.306280
 20
18.003520
 30
0.0
 10
22.315170
 20
18.091141
 30
0.0
 10
22.341840
 20
18.171146
 30
0.0
 10
22.386290
 20
18.243541
 30
0.0
 10
22.448520
 20
18.308320
 30
0.0
 10
22.531070
 20
18.370541
 30
0.0
 10
22.616160
 20
18.414986
 30
0.0
 10
22.703790
 20
18.441656
 30
0.0
 10
22.793960
 20
18.450546
 30
0.0
 10
23.418800
 20
18.450546
 30
0.0
 10
24.043640
 20
18.450546
 30
0.0
 10
24.668480
 20
18.450546
 30
0.0
 10
25.293320
 20
18.450546
 30
0.0
 10
25.436827
 20
18.444196
 30
0.0
 10
25.562557
 20
18.425146
 30
0.0
 10
25.670507
 20
18.393401
 30
0.0
 10
25.760680
 20
18.348960
 30
0.0
 10
25.831797
 20
18.286721
 30
0.0
 10
25.882594
 20
18.201626
 30
0.0
 10
25.913077
 20
18.093681
 30
0.0
 10
25.923237
 20
17.962880
 30
0.0
 10
25.923237
 20
14.869160
 30
0.0
 10
25.923237
 20
11.775440
 30
0.0
 10
25.923237
 20
8.681720
 30
0.0
 10
25.923237
 20
5.588000
 30
0.0
 10
25.960064
 20
5.473697
 30
0.0
 10
26.070552
 20
5.354317
 30
0.0
 10
26.254704
 20
5.229857
 30
0.0
 10
26.512517
 20
5.100320
 30
0.0
 10
26.779214
 20
4.964427
 30
0.0
 10
26.969714
 20
4.820917
 30
0.0
 10
27.084014
 20
4.669787
 30
0.0
 10
27.122117
 20
4.511040
 30
0.0
 10
27.082744
 20
4.354827
 30
0.0
 10
26.964634
 20
4.211317
 30
0.0
 10
26.767784
 20
4.080507
 30
0.0
 10
26.492197
 20
3.962400
 30
0.0
 10
26.253434
 20
3.891280
 30
0.0
 10
26.024832
 20
3.840480
 30
0.0
 10
25.806394
 20
3.810000
 30
0.0
 10
25.598117
 20
3.799840
 30
0.0
 10
25.524454
 20
3.802380
 30
0.0
 10
25.425394
 20
3.810000
 30
0.0
 10
25.300934
 20
3.822700
 30
0.0
 10
25.151077
 20
3.840480
 30
0.0
 10
24.994864
 20
3.858260
 30
0.0
 10
24.851354
 20
3.870960
 30
0.0
 10
24.720544
 20
3.878580
 30
0.0
 10
24.602437
 20
3.881120
 30
0.0
 10
24.497024
 20
3.878580
 30
0.0
 10
24.383994
 20
3.870960
 30
0.0
 10
24.263344
 20
3.858260
 30
0.0
 10
24.135077
 20
3.840480
 30
0.0
 10
24.009344
 20
3.822700
 30
0.0
 10
23.896314
 20
3.810000
 30
0.0
 10
23.795984
 20
3.802380
 30
0.0
 10
23.708357
 20
3.799840
 30
0.0
 10
23.475944
 20
3.808730
 30
0.0
 10
23.246074
 20
3.835400
 30
0.0
 10
23.018744
 20
3.879850
 30
0.0
 10
22.793957
 20
3.942080
 30
0.0
 10
22.509477
 20
4.053837
 30
0.0
 10
22.306277
 20
4.185917
 30
0.0
 10
22.184357
 20
4.338317
 30
0.0
 10
22.143717
 20
4.511040
 30
0.0
 10
22.169117
 20
4.640577
 30
0.0
 10
22.245317
 20
4.765037
 30
0.0
 10
22.372317
 20
4.884417
 30
0.0
 10
22.550117
 20
4.998720
 30
0.0
 10
22.673307
 20
5.052057
 30
0.0
 10
22.799037
 20
5.110477
 30
0.0
 10
22.927307
 20
5.173977
 30
0.0
 10
23.058117
 20
5.242560
 30
0.0
 10
23.182574
 20
5.327647
 30
0.0
 10
23.271474
 20
5.420357
 30
0.0
 10
23.324814
 20
5.520687
 30
0.0
 10
23.342594
 20
5.628640
 30
0.0
  0
LWPOLYLINE
  5
104
100
AcDbEntity
  8
cylindric_bend
 62
7
100
AcDbPolyline
 90
89
 70
0
 10
29.375100
 20
5.588000
 30
0.0
 10
29.375100
 20
7.503160
 30
0.0
 10
29.375100
 20
9.418320
 30
0.0
 10
29.375100
 20
11.333480
 30
0.0
 10
29.375100
 20
13.248640
 30
0.0
 10
28.850590
 20
13.458184
 30
0.0
 10
28.475940
 20
13.660111
 30
0.0
 10
28.251150
 20
13.854424
 30
0.0
 10
28.176220
 20
14.041120
 30
0.0
 10
28.238450
 20
14.227804
 30
0.0
 10
28.425140
 20
14.361151
 30
0.0
 10
28.736290
 20
14.441164
 30
0.0
 10
29.171900
 20
14.467834
 30
0.0
 10
29.888180
 20
14.467834
 30
0.0
 10
30.604460
 20
14.467834
 30
0.0
 10
31.320740
 20
14.467834
 30
0.0
 10
32.037020
 20
14.467834
 30
0.0
 10
32.285937
 20
14.462754
 30
0.0
 10
32.504374
 20
14.447514
 30
0.0
 10
32.692337
 20
14.422114
 30
0.0
 10
32.849820
 20
14.386557
 30
0.0
 10
32.983167
 20
14.344641
 30
0.0
 10
33.078414
 20
14.279868
 30
0.0
 10
33.135567
 20
14.192241
 30
0.0
 10
33.154617
 20
14.081757
 30
0.0
 10
33.140647
 20
13.972531
 30
0.0
 10
33.098734
 20
13.868388
 30
0.0
 10
33.028887
 20
13.769331
 30
0.0
 10
32.931100
 20
13.675357
 30
0.0
 10
32.748217
 20
13.549621
 30
0.0
 10
32.524694
 20
13.436588
 30
0.0
 10
32.260537
 20
13.336261
 30
0.0
 10
31.955740
 20
13.248637
 30
0.0
 10
31.955740
 20
11.333477
 30
0.0
 10
31.955740
 20
9.418317
 30
0.0
 10
31.955740
 20
7.503157
 30
0.0
 10
31.955740
 20
5.587997
 30
0.0
 10
31.992567
 20
5.473694
 30
0.0
 10
32.103054
 20
5.354314
 30
0.0
 10
32.287207
 20
5.229854
 30
0.0
 10
32.545020
 20
5.100317
 30
0.0
 10
32.811717
 20
4.964424
 30
0.0
 10
33.002217
 20
4.820914
 30
0.0
 10
33.116517
 20
4.669784
 30
0.0
 10
33.154620
 20
4.511037
 30
0.0
 10
33.121597
 20
4.348474
 30
0.0
 10
33.022534
 20
4.206234
 30
0.0
 10
32.857437
 20
4.084314
 30
0.0
 10
32.626300
 20
3.982717
 30
0.0
 10
32.368487
 20
3.902707
 30
0.0
 10
32.123377
 20
3.845557
 30
0.0
 10
31.890967
 20
3.811267
 30
0.0
 10
31.671260
 20
3.799837
 30
0.0
 10
31.589977
 20
3.802377
 30
0.0
 10
31.488377
 20
3.809997
 30
0.0
 10
31.366457
 20
3.822697
 30
0.0
 10
31.224220
 20
3.840477
 30
0.0
 10
31.075627
 20
3.858257
 30
0.0
 10
30.934657
 20
3.870957
 30
0.0
 10
30.801307
 20
3.878577
 30
0.0
 10
30.675580
 20
3.881117
 30
0.0
 10
30.579057
 20
3.878577
 30
0.0
 10
30.472377
 20
3.870957
 30
0.0
 10
30.355537
 20
3.858257
 30
0.0
 10
30.228540
 20
3.840477
 30
0.0
 10
30.098997
 20
3.822697
 30
0.0
 10
29.974537
 20
3.809997
 30
0.0
 10
29.855157
 20
3.802377
 30
0.0
 10
29.740860
 20
3.799837
 30
0.0
 10
29.509717
 20
3.811267
 30
0.0
 10
29.263337
 20
3.845557
 30
0.0
 10
29.001717
 20
3.902707
 30
0.0
 10
28.724860
 20
3.982717
 30
0.0
 10
28.484830
 20
4.084314
 30
0.0
 10
28.313380
 20
4.206234
 30
0.0
 10
28.210510
 20
4.348474
 30
0.0
 10
28.176220
 20
4.511037
 30
0.0
 10
28.196540
 20
4.622794
 30
0.0
 10
28.257500
 20
4.734554
 30
0.0
 10
28.359100
 20
4.846314
 30
0.0
 10
28.501340
 20
4.958077
 30
0.0
 10
28.558490
 20
4.992367
 30
0.0
 10
28.668980
 20
5.054597
 30
0.0
 10
28.832810
 20
5.144767
 30
0.0
 10
29.049980
 20
5.262877
 30
0.0
 10
29.192217
 20
5.344154
 30
0.0
 10
29.293817
 20
5.425434
 30
0.0
 10
29.354777
 20
5.506714
 30
0.0
 10
29.375097
 20
5.587997
 30
0.0
  0
LWPOLYLINE
  5
105
100
AcDbEntity
  8
cylindric_bend
 62
7
100
AcDbPolyline
 90
33
 70
0
 10
29.171897
 20
16.865597
 30
0.0
 10
29.199837
 20
17.109428
 30
0.0
 10
29.283657
 20
17.312626
 30
0.0
 10
29.423357
 20
17.475188
 30
0.0
 10
29.618940
 20
17.597117
 30
0.0
 10
29.852617
 20
17.694898
 30
0.0
 10
30.106617
 20
17.764746
 30
0.0
 10
30.380937
 20
17.806658
 30
0.0
 10
30.675580
 20
17.820628
 30
0.0
 10
30.972757
 20
17.810468
 30
0.0
 10
31.234377
 20
17.779986
 30
0.0
 10
31.460437
 20
17.729188
 30
0.0
 10
31.650940
 20
17.658077
 30
0.0
 10
31.873187
 20
17.517098
 30
0.0
 10
32.031934
 20
17.338026
 30
0.0
 10
32.127187
 20
17.120858
 30
0.0
 10
32.158940
 20
16.865597
 30
0.0
 10
32.128457
 20
16.602698
 30
0.0
 10
32.037014
 20
16.382986
 30
0.0
 10
31.884617
 20
16.206458
 30
0.0
 10
31.671260
 20
16.073117
 30
0.0
 10
31.476947
 20
16.001988
 30
0.0
 10
31.239457
 20
15.951186
 30
0.0
 10
30.958787
 20
15.920708
 30
0.0
 10
30.634940
 20
15.910548
 30
0.0
 10
30.337757
 20
15.920708
 30
0.0
 10
30.076137
 20
15.951186
 30
0.0
 10
29.850077
 20
16.001988
 30
0.0
 10
29.659580
 20
16.073117
 30
0.0
 10
29.446217
 20
16.206458
 30
0.0
 10
29.293817
 20
16.382986
 30
0.0
 10
29.202377
 20
16.602698
 30
0.0
 10
29.171900
 20
16.865597
 30
0.0
  0
LWPOLYLINE
  5
106
100
AcDbEntity
  8
cylindric_bend
 62
7
100
AcDbPolyline
 90
193
 70
0
 10
43.901360
 20
11.927840
 30
0.0
 10
43.901360
 20
10.342880
 30
0.0
 10
43.901360
 20
8.757920
 30
0.0
 10
43.901360
 20
7.172960
 30
0.0
 10
43.901360
 20
5.588000
 30
0.0
 10
43.968667
 20
5.481317
 30
0.0
 10
44.129954
 20
5.344157
 30
0.0
 10
44.385224
 20
5.176517
 30
0.0
 10
44.734480
 20
4.978400
 30
0.0
 10
44.894494
 20
4.872987
 30
0.0
 10
45.008792
 20
4.759957
 30
0.0
 10
45.077374
 20
4.639307
 30
0.0
 10
45.100234
 20
4.511040
 30
0.0
 10
45.067209
 20
4.348477
 30
0.0
 10
44.968146
 20
4.206237
 30
0.0
 10
44.803049
 20
4.084317
 30
0.0
 10
44.571914
 20
3.982720
 30
0.0
 10
44.314099
 20
3.902710
 30
0.0
 10
44.068986
 20
3.845560
 30
0.0
 10
43.836579
 20
3.811270
 30
0.0
 10
43.616874
 20
3.799840
 30
0.0
 10
43.543209
 20
3.802380
 30
0.0
 10
43.444149
 20
3.810000
 30
0.0
 10
43.319689
 20
3.822700
 30
0.0
 10
43.169834
 20
3.840480
 30
0.0
 10
43.013619
 20
3.858260
 30
0.0
 10
42.870109
 20
3.870960
 30
0.0
 10
42.739299
 20
3.878580
 30
0.0
 10
42.621194
 20
3.881120
 30
0.0
 10
42.514509
 20
3.878580
 30
0.0
 10
42.397669
 20
3.870960
 30
0.0
 10
42.270669
 20
3.858260
 30
0.0
 10
42.133514
 20
3.840480
 30
0.0
 10
41.998889
 20
3.822700
 30
0.0
 10
41.879509
 20
3.810000
 30
0.0
 10
41.775369
 20
3.802380
 30
0.0
 10
41.686474
 20
3.799840
 30
0.0
 10
41.455329
 20
3.811270
 30
0.0
 10
41.208949
 20
3.845560
 30
0.0
 10
40.947329
 20
3.902710
 30
0.0
 10
40.670474
 20
3.982720
 30
0.0
 10
40.430442
 20
4.084317
 30
0.0
 10
40.258989
 20
4.206237
 30
0.0
 10
40.156122
 20
4.348477
 30
0.0
 10
40.121834
 20
4.511040
 30
0.0
 10
40.154852
 20
4.660897
 30
0.0
 10
40.253909
 20
4.805677
 30
0.0
 10
40.419012
 20
4.945377
 30
0.0
 10
40.650154
 20
5.080000
 30
0.0
 10
40.813979
 20
5.162547
 30
0.0
 10
40.939709
 20
5.227317
 30
0.0
 10
41.027339
 20
5.274307
 30
0.0
 10
41.076874
 20
5.303520
 30
0.0
 10
41.183549
 20
5.382257
 30
0.0
 10
41.259749
 20
5.455917
 30
0.0
 10
41.305469
 20
5.524497
 30
0.0
 10
41.320709
 20
5.588000
 30
0.0
 10
41.320709
 20
7.015480
 30
0.0
 10
41.320709
 20
8.442960
 30
0.0
 10
41.320709
 20
9.870440
 30
0.0
 10
41.320709
 20
11.297920
 30
0.0
 10
41.302929
 20
11.523974
 30
0.0
 10
41.249589
 20
11.734794
 30
0.0
 10
41.160689
 20
11.930374
 30
0.0
 10
41.036234
 20
12.110720
 30
0.0
 10
40.882559
 20
12.261844
 30
0.0
 10
40.706029
 20
12.369791
 30
0.0
 10
40.506642
 20
12.434564
 30
0.0
 10
40.284394
 20
12.456154
 30
0.0
 10
39.894502
 20
12.429484
 30
0.0
 10
39.517312
 20
12.349471
 30
0.0
 10
39.152822
 20
12.216124
 30
0.0
 10
38.801034
 20
12.029440
 30
0.0
 10
38.475912
 20
11.851634
 30
0.0
 10
38.191432
 20
11.724634
 30
0.0
 10
37.947592
 20
11.648434
 30
0.0
 10
37.744394
 20
11.623034
 30
0.0
 10
37.744394
 20
10.114274
 30
0.0
 10
37.744394
 20
8.605514
 30
0.0
 10
37.744394
 20
7.096754
 30
0.0
 10
37.744394
 20
5.587994
 30
0.0
 10
37.792652
 20
5.457181
 30
0.0
 10
37.937432
 20
5.308591
 30
0.0
 10
38.178732
 20
5.142221
 30
0.0
 10
38.516554
 20
4.958074
 30
0.0
 10
38.685462
 20
4.853931
 30
0.0
 10
38.806112
 20
4.744711
 30
0.0
 10
38.878502
 20
4.630411
 30
0.0
 10
38.902632
 20
4.511034
 30
0.0
 10
38.865799
 20
4.395461
 30
0.0
 10
38.755309
 20
4.272271
 30
0.0
 10
38.571159
 20
4.141461
 30
0.0
 10
38.313352
 20
4.003034
 30
0.0
 10
38.216829
 20
3.972554
 30
0.0
 10
38.110149
 20
3.942074
 30
0.0
 10
37.993309
 20
3.911594
 30
0.0
 10
37.866312
 20
3.881114
 30
0.0
 10
37.740579
 20
3.845554
 30
0.0
 10
37.627549
 20
3.820154
 30
0.0
 10
37.527219
 20
3.804914
 30
0.0
 10
37.439592
 20
3.799834
 30
0.0
 10
37.335449
 20
3.802374
 30
0.0
 10
37.205909
 20
3.809994
 30
0.0
 10
37.050969
 20
3.822694
 30
0.0
 10
36.870632
 20
3.840474
 30
0.0
 10
36.706799
 20
3.858254
 30
0.0
 10
36.581069
 20
3.870954
 30
0.0
 10
36.493439
 20
3.878574
 30
0.0
 10
36.443912
 20
3.881114
 30
0.0
 10
36.370249
 20
3.878574
 30
0.0
 10
36.271189
 20
3.870954
 30
0.0
 10
36.146729
 20
3.858254
 30
0.0
 10
35.996872
 20
3.840474
 30
0.0
 10
35.843199
 20
3.822694
 30
0.0
 10
35.707309
 20
3.809994
 30
0.0
 10
35.589199
 20
3.802374
 30
0.0
 10
35.488872
 20
3.799834
 30
0.0
 10
35.266622
 20
3.811264
 30
0.0
 10
35.026592
 20
3.845554
 30
0.0
 10
34.768782
 20
3.902704
 30
0.0
 10
34.493192
 20
3.982714
 30
0.0
 10
34.253162
 20
4.084311
 30
0.0
 10
34.081712
 20
4.206231
 30
0.0
 10
33.978842
 20
4.348471
 30
0.0
 10
33.944552
 20
4.511034
 30
0.0
 10
33.961062
 20
4.605011
 30
0.0
 10
34.010592
 20
4.704071
 30
0.0
 10
34.093142
 20
4.808211
 30
0.0
 10
34.208712
 20
4.917434
 30
0.0
 10
34.363652
 20
4.986011
 30
0.0
 10
34.503352
 20
5.049511
 30
0.0
 10
34.627812
 20
5.107931
 30
0.0
 10
34.737032
 20
5.161274
 30
0.0
 10
34.905942
 20
5.264141
 30
0.0
 10
35.026592
 20
5.369551
 30
0.0
 10
35.098982
 20
5.477501
 30
0.0
 10
35.123112
 20
5.587994
 30
0.0
 10
35.123112
 20
7.376154
 30
0.0
 10
35.123112
 20
9.164314
 30
0.0
 10
35.123112
 20
10.952474
 30
0.0
 10
35.123112
 20
12.740634
 30
0.0
 10
35.090092
 20
12.912078
 30
0.0
 10
34.991032
 20
13.080986
 30
0.0
 10
34.825932
 20
13.247358
 30
0.0
 10
34.594792
 20
13.411194
 30
0.0
 10
34.363652
 20
13.572478
 30
0.0
 10
34.198552
 20
13.731226
 30
0.0
 10
34.099492
 20
13.887438
 30
0.0
 10
34.066472
 20
14.041114
 30
0.0
 10
34.080442
 20
14.161758
 30
0.0
 10
34.122352
 20
14.259546
 30
0.0
 10
34.192202
 20
14.334478
 30
0.0
 10
34.289992
 20
14.386554
 30
0.0
 10
34.409372
 20
14.422108
 30
0.0
 10
34.543992
 20
14.447508
 30
0.0
 10
34.693852
 20
14.462748
 30
0.0
 10
34.858952
 20
14.467828
 30
0.0
 10
35.671752
 20
14.467828
 30
0.0
 10
36.484552
 20
14.467828
 30
0.0
 10
37.297352
 20
14.467828
 30
0.0
 10
38.110152
 20
14.467828
 30
0.0
 10
38.421299
 20
14.448778
 30
0.0
 10
38.643549
 20
14.391626
 30
0.0
 10
38.776899
 20
14.296378
 30
0.0
 10
38.821352
 20
14.163034
 30
0.0
 10
38.787059
 20
14.000468
 30
0.0
 10
38.684189
 20
13.837906
 30
0.0
 10
38.512739
 20
13.675348
 30
0.0
 10
38.272712
 20
13.512794
 30
0.0
 10
38.041569
 20
13.361658
 30
0.0
 10
37.876469
 20
13.213066
 30
0.0
 10
37.777409
 20
13.067018
 30
0.0
 10
37.744392
 20
12.923514
 30
0.0
 10
37.744392
 20
12.867634
 30
0.0
 10
37.744392
 20
12.811754
 30
0.0
 10
37.744392
 20
12.755874
 30
0.0
 10
37.744392
 20
12.699994
 30
0.0
 10
38.091099
 20
12.824448
 30
0.0
 10
38.460669
 20
13.035266
 30
0.0
 10
38.853099
 20
13.332448
 30
0.0
 10
39.268392
 20
13.715994
 30
0.0
 10
39.670976
 20
14.044921
 30
0.0
 10
40.126906
 20
14.279868
 30
0.0
 10
40.636179
 20
14.420838
 30
0.0
 10
41.198792
 20
14.467834
 30
0.0
 10
41.770286
 20
14.425918
 30
0.0
 10
42.285906
 20
14.300186
 30
0.0
 10
42.745646
 20
14.090638
 30
0.0
 10
43.149512
 20
13.797274
 30
0.0
 10
43.478436
 20
13.428968
 30
0.0
 10
43.713383
 20
12.994626
 30
0.0
 10
43.854356
 20
12.494248
 30
0.0
 10
43.901352
 20
11.927834
 30
0.0
  0
LWPOLYLINE
  5
107
100
AcDbEntity
  8
cylindric_bend
 62
7
100
AcDbPolyline
 90
85
 70
0
 10
45.958125
 20
9.204960
 30
0.0
 10
46.029245
 20
10.213334
 30
0.0
 10
46.242605
 20
11.165834
 30
0.0
 10
46.598205
 20
12.062454
 30
0.0
 10
47.096045
 20
12.903200
 30
0.0
 10
47.772952
 20
13.694404
 30
0.0
 10
48.543842
 20
14.259551
 30
0.0
 10
49.408712
 20
14.598644
 30
0.0
 10
50.367565
 20
14.711680
 30
0.0
 10
50.748562
 20
14.692630
 30
0.0
 10
51.139722
 20
14.635477
 30
0.0
 10
51.541042
 20
14.540230
 30
0.0
 10
51.952525
 20
14.406885
 30
0.0
 10
52.328439
 20
14.254480
 30
0.0
 10
52.704359
 20
14.102077
 30
0.0
 10
53.080279
 20
13.949680
 30
0.0
 10
53.456205
 20
13.797285
 30
0.0
 10
53.456205
 20
14.472925
 30
0.0
 10
53.456205
 20
15.148565
 30
0.0
 10
53.456205
 20
15.824205
 30
0.0
 10
53.456205
 20
16.499845
 30
0.0
 10
53.409209
 20
16.689067
 30
0.0
 10
53.268239
 20
16.870674
 30
0.0
 10
53.033289
 20
17.044667
 30
0.0
 10
52.704365
 20
17.211045
 30
0.0
 10
52.375432
 20
17.377407
 30
0.0
 10
52.140482
 20
17.551394
 30
0.0
 10
51.999512
 20
17.733007
 30
0.0
 10
51.952525
 20
17.922245
 30
0.0
 10
51.960145
 20
18.037807
 30
0.0
 10
51.983005
 20
18.140671
 30
0.0
 10
52.021105
 20
18.230847
 30
0.0
 10
52.074448
 20
18.308325
 30
0.0
 10
52.158265
 20
18.370547
 30
0.0
 10
52.267485
 20
18.414991
 30
0.0
 10
52.402105
 20
18.441661
 30
0.0
 10
52.562128
 20
18.450551
 30
0.0
 10
53.232688
 20
18.450551
 30
0.0
 10
53.903248
 20
18.450551
 30
0.0
 10
54.573808
 20
18.450551
 30
0.0
 10
55.244368
 20
18.450551
 30
0.0
 10
55.591072
 20
18.398473
 30
0.0
 10
55.838719
 20
18.242260
 30
0.0
 10
55.987312
 20
17.981913
 30
0.0
 10
56.036848
 20
17.617431
 30
0.0
 10
56.036848
 20
14.630391
 30
0.0
 10
56.036848
 20
11.643351
 30
0.0
 10
56.036848
 20
8.656311
 30
0.0
 10
56.036848
 20
5.669271
 30
0.0
 10
56.632472
 20
5.320018
 30
0.0
 10
57.057919
 20
5.024108
 30
0.0
 10
57.313192
 20
4.781538
 30
0.0
 10
57.398288
 20
4.592311
 30
0.0
 10
57.351292
 20
4.386568
 30
0.0
 10
57.210319
 20
4.216388
 30
0.0
 10
56.975372
 20
4.081768
 30
0.0
 10
56.646448
 20
3.982711
 30
0.0
 10
56.401332
 20
3.938261
 30
0.0
 10
56.133359
 20
3.906511
 30
0.0
 10
55.842532
 20
3.887461
 30
0.0
 10
55.528848
 20
3.881111
 30
0.0
 10
55.163082
 20
3.882240
 30
0.0
 10
54.817642
 20
3.886050
 30
0.0
 10
54.492522
 20
3.892400
 30
0.0
 10
54.187728
 20
3.901290
 30
0.0
 10
53.889272
 20
3.922880
 30
0.0
 10
53.562882
 20
3.947010
 30
0.0
 10
53.208552
 20
3.973680
 30
0.0
 10
52.826288
 20
4.002890
 30
0.0
 10
52.577362
 20
3.999080
 30
0.0
 10
52.338602
 20
3.987650
 30
0.0
 10
52.110005
 20
3.968600
 30
0.0
 10
51.891568
 20
3.941930
 30
0.0
 10
51.316255
 20
3.861920
 30
0.0
 10
50.890802
 20
3.804770
 30
0.0
 10
50.615215
 20
3.770480
 30
0.0
 10
50.489488
 20
3.759050
 30
0.0
 10
49.392205
 20
3.867000
 30
0.0
 10
48.437165
 20
4.190850
 30
0.0
 10
47.624365
 20
4.730600
 30
0.0
 10
46.953808
 20
5.486250
 30
0.0
 10
46.518198
 20
6.259677
 30
0.0
 10
46.207048
 20
7.137247
 30
0.0
 10
46.020358
 20
8.118957
 30
0.0
 10
45.958128
 20
9.204810
 30
0.0
  0
LWPOLYLINE
  5
108
100
AcDbEntity
  8
cylindric_bend
 62
7
100
AcDbPolyline
 90
41
 70
0
 10
53.456208
 20
12.537290
 30
0.0
 10
53.058692
 20
12.739214
 30
0.0
 10
52.699282
 20
12.918282
 30
0.0
 10
52.377972
 20
13.074494
 30
0.0
 10
52.094768
 20
13.207850
 30
0.0
 10
51.825525
 20
13.314524
 30
0.0
 10
51.546125
 20
13.390722
 30
0.0
 10
51.256565
 20
13.436444
 30
0.0
 10
50.956848
 20
13.451684
 30
0.0
 10
50.326925
 20
13.366589
 30
0.0
 10
49.778285
 20
13.111316
 30
0.0
 10
49.310925
 20
12.685869
 30
0.0
 10
48.924848
 20
12.090244
 30
0.0
 10
48.702595
 20
11.565729
 30
0.0
 10
48.543845
 20
11.008199
 30
0.0
 10
48.448595
 20
10.417649
 30
0.0
 10
48.416848
 20
9.794084
 30
0.0
 10
48.442248
 20
9.303862
 30
0.0
 10
48.518448
 20
8.828879
 30
0.0
 10
48.645448
 20
8.369142
 30
0.0
 10
48.823248
 20
7.924644
 30
0.0
 10
49.102645
 20
7.444582
 30
0.0
 10
49.432845
 20
7.101679
 30
0.0
 10
49.813845
 20
6.895942
 30
0.0
 10
50.245648
 20
6.827364
 30
0.0
 10
50.784128
 20
6.827364
 30
0.0
 10
51.322608
 20
6.827364
 30
0.0
 10
51.861088
 20
6.827364
 30
0.0
 10
52.399568
 20
6.827364
 30
0.0
 10
52.581172
 20
6.842604
 30
0.0
 10
52.760242
 20
6.888322
 30
0.0
 10
52.936772
 20
6.964524
 30
0.0
 10
53.110768
 20
7.071207
 30
0.0
 10
53.261892
 20
7.202014
 30
0.0
 10
53.369842
 20
7.350602
 30
0.0
 10
53.434612
 20
7.516974
 30
0.0
 10
53.456202
 20
7.701127
 30
0.0
 10
53.456202
 20
8.910167
 30
0.0
 10
53.456202
 20
10.119207
 30
0.0
 10
53.456202
 20
11.328247
 30
0.0
 10
53.456202
 20
12.537287
 30
0.0
  0
LWPOLYLINE
  5
109
100
AcDbEntity
  8
cylindric_bend
 62
7
100
AcDbPolyline
 90
173
 70
0
 10
58.856245
 20
5.628640
 30
0.0
 10
58.856245
 20
7.396480
 30
0.0
 10
58.856245
 20
9.164320
 30
0.0
 10
58.856245
 20
10.932160
 30
0.0
 10
58.856245
 20
12.700000
 30
0.0
 10
58.814335
 20
12.889224
 30
0.0
 10
58.688605
 20
13.091151
 30
0.0
 10
58.479055
 20
13.305784
 30
0.0
 10
58.185685
 20
13.533120
 30
0.0
 10
58.032015
 20
13.656304
 30
0.0
 10
57.916445
 20
13.782031
 30
0.0
 10
57.838975
 20
13.910304
 30
0.0
 10
57.799605
 20
14.041120
 30
0.0
 10
57.811035
 20
14.169384
 30
0.0
 10
57.845325
 20
14.269711
 30
0.0
 10
57.902475
 20
14.342104
 30
0.0
 10
57.982485
 20
14.386560
 30
0.0
 10
58.094245
 20
14.422114
 30
0.0
 10
58.226325
 20
14.447514
 30
0.0
 10
58.378725
 20
14.462754
 30
0.0
 10
58.551445
 20
14.467834
 30
0.0
 10
59.364245
 20
14.467834
 30
0.0
 10
60.177045
 20
14.467834
 30
0.0
 10
60.989845
 20
14.467834
 30
0.0
 10
61.802645
 20
14.467834
 30
0.0
 10
61.939805
 20
14.462754
 30
0.0
 10
62.076965
 20
14.457674
 30
0.0
 10
62.214125
 20
14.452594
 30
0.0
 10
62.351285
 20
14.447514
 30
0.0
 10
62.440182
 20
14.371308
 30
0.0
 10
62.503682
 20
14.284946
 30
0.0
 10
62.541782
 20
14.188428
 30
0.0
 10
62.554482
 20
14.081754
 30
0.0
 10
62.520189
 20
13.929348
 30
0.0
 10
62.417319
 20
13.776946
 30
0.0
 10
62.245869
 20
13.624548
 30
0.0
 10
62.005842
 20
13.472154
 30
0.0
 10
61.774699
 20
13.331178
 30
0.0
 10
61.609599
 20
13.192746
 30
0.0
 10
61.510539
 20
13.056858
 30
0.0
 10
61.477522
 20
12.923514
 30
0.0
 10
61.477522
 20
12.867634
 30
0.0
 10
61.477522
 20
12.811754
 30
0.0
 10
61.477522
 20
12.755874
 30
0.0
 10
61.477522
 20
12.699994
 30
0.0
 10
61.605789
 20
12.785081
 30
0.0
 10
61.929639
 20
13.020028
 30
0.0
 10
62.449069
 20
13.404838
 30
0.0
 10
63.164082
 20
13.939514
 30
0.0
 10
63.499359
 20
14.170648
 30
0.0
 10
63.814317
 20
14.335746
 30
0.0
 10
64.108959
 20
14.434808
 30
0.0
 10
64.383282
 20
14.467834
 30
0.0
 10
64.763007
 20
14.428458
 30
0.0
 10
65.109717
 20
14.310346
 30
0.0
 10
65.423407
 20
14.113498
 30
0.0
 10
65.704082
 20
13.837914
 30
0.0
 10
65.944107
 20
13.520408
 30
0.0
 10
66.115557
 20
13.177506
 30
0.0
 10
66.218427
 20
12.809208
 30
0.0
 10
66.252722
 20
12.415514
 30
0.0
 10
66.224782
 20
11.939258
 30
0.0
 10
66.140962
 20
11.506188
 30
0.0
 10
66.001262
 20
11.116298
 30
0.0
 10
65.805688
 20
10.769594
 30
0.0
 10
65.554225
 20
10.454628
 30
0.0
 10
65.246882
 20
10.159986
 30
0.0
 10
64.883662
 20
9.885668
 30
0.0
 10
64.464568
 20
9.631674
 30
0.0
 10
64.315975
 20
9.583411
 30
0.0
 10
64.195322
 20
9.540228
 30
0.0
 10
64.102615
 20
9.502131
 30
0.0
 10
64.037848
 20
9.469114
 30
0.0
 10
64.001015
 20
9.439901
 30
0.0
 10
63.971802
 20
9.413231
 30
0.0
 10
63.950212
 20
9.389101
 30
0.0
 10
63.936242
 20
9.367511
 30
0.0
 10
63.956562
 20
9.337031
 30
0.0
 10
63.976882
 20
9.306551
 30
0.0
 10
63.997202
 20
9.276071
 30
0.0
 10
64.017522
 20
9.245591
 30
0.0
 10
63.966722
 20
9.235431
 30
0.0
 10
63.915922
 20
9.225271
 30
0.0
 10
63.865122
 20
9.215111
 30
0.0
 10
63.814322
 20
9.204951
 30
0.0
 10
63.520949
 20
9.244318
 30
0.0
 10
63.311397
 20
9.362426
 30
0.0
 10
63.185669
 20
9.559278
 30
0.0
 10
63.143762
 20
9.834871
 30
0.0
 10
63.159002
 20
9.980916
 30
0.0
 10
63.204722
 20
10.154906
 30
0.0
 10
63.280922
 20
10.356836
 30
0.0
 10
63.387605
 20
10.586711
 30
0.0
 10
63.494282
 20
10.821656
 30
0.0
 10
63.570482
 20
11.038826
 30
0.0
 10
63.616202
 20
11.238216
 30
0.0
 10
63.631442
 20
11.419831
 30
0.0
 10
63.617472
 20
11.590006
 30
0.0
 10
63.575559
 20
11.734786
 30
0.0
 10
63.505712
 20
11.854166
 30
0.0
 10
63.407925
 20
11.948151
 30
0.0
 10
63.302512
 20
12.028156
 30
0.0
 10
63.189479
 20
12.085306
 30
0.0
 10
63.068832
 20
12.119596
 30
0.0
 10
62.940565
 20
12.131026
 30
0.0
 10
62.832612
 20
12.117056
 30
0.0
 10
62.671319
 20
12.075146
 30
0.0
 10
62.456692
 20
12.005296
 30
0.0
 10
62.188725
 20
11.907511
 30
0.0
 10
61.930912
 20
11.818606
 30
0.0
 10
61.726442
 20
11.755106
 30
0.0
 10
61.575312
 20
11.717006
 30
0.0
 10
61.477525
 20
11.704306
 30
0.0
 10
61.477525
 20
10.175226
 30
0.0
 10
61.477525
 20
8.646146
 30
0.0
 10
61.477525
 20
7.117066
 30
0.0
 10
61.477525
 20
5.587986
 30
0.0
 10
61.513082
 20
5.473683
 30
0.0
 10
61.619762
 20
5.354303
 30
0.0
 10
61.797562
 20
5.229843
 30
0.0
 10
62.046485
 20
5.100306
 30
0.0
 10
62.304292
 20
4.964413
 30
0.0
 10
62.488439
 20
4.820903
 30
0.0
 10
62.598932
 20
4.669773
 30
0.0
 10
62.635765
 20
4.511026
 30
0.0
 10
62.601472
 20
4.364973
 30
0.0
 10
62.498599
 20
4.231623
 30
0.0
 10
62.327152
 20
4.110973
 30
0.0
 10
62.087125
 20
4.003026
 30
0.0
 10
61.831852
 20
3.914126
 30
0.0
 10
61.594362
 20
3.850626
 30
0.0
 10
61.374652
 20
3.812526
 30
0.0
 10
61.172725
 20
3.799826
 30
0.0
 10
61.074932
 20
3.802366
 30
0.0
 10
60.964442
 20
3.809986
 30
0.0
 10
60.841252
 20
3.822686
 30
0.0
 10
60.705365
 20
3.840466
 30
0.0
 10
60.565662
 20
3.858246
 30
0.0
 10
60.431042
 20
3.870946
 30
0.0
 10
60.301502
 20
3.878566
 30
0.0
 10
60.177045
 20
3.881106
 30
0.0
 10
60.081792
 20
3.879694
 30
0.0
 10
59.978922
 20
3.875884
 30
0.0
 10
59.868432
 20
3.869534
 30
0.0
 10
59.750325
 20
3.860644
 30
0.0
 10
59.636022
 20
3.849214
 30
0.0
 10
59.516642
 20
3.835244
 30
0.0
 10
59.392182
 20
3.818734
 30
0.0
 10
59.262645
 20
3.799684
 30
0.0
 10
59.021345
 20
3.808574
 30
0.0
 10
58.785125
 20
3.835244
 30
0.0
 10
58.553985
 20
3.879694
 30
0.0
 10
58.327925
 20
3.941924
 30
0.0
 10
58.043445
 20
4.053682
 30
0.0
 10
57.840245
 20
4.185762
 30
0.0
 10
57.718325
 20
4.338162
 30
0.0
 10
57.677685
 20
4.510884
 30
0.0
 10
57.682765
 20
4.579462
 30
0.0
 10
57.698005
 20
4.642962
 30
0.0
 10
57.723405
 20
4.701382
 30
0.0
 10
57.758965
 20
4.754724
 30
0.0
 10
57.813575
 20
4.813142
 30
0.0
 10
57.875805
 20
4.866482
 30
0.0
 10
57.945655
 20
4.914742
 30
0.0
 10
58.023125
 20
4.957924
 30
0.0
 10
58.184415
 20
5.026502
 30
0.0
 10
58.322845
 20
5.090002
 30
0.0
 10
58.438415
 20
5.148422
 30
0.0
 10
58.531125
 20
5.201764
 30
0.0
 10
58.673365
 20
5.297012
 30
0.0
 10
58.774965
 20
5.399882
 30
0.0
 10
58.835925
 20
5.510372
 30
0.0
 10
58.856245
 20
5.628484
 30
0.0
  0
LWPOLYLINE
  5
10a
100
AcDbEntity
  8
cylindric_bend
 62
7
100
AcDbPolyline
 90
89
 70
0
 10
67.792600
 20
5.588000
 30
0.0
 10
67.792600
 20
7.503160
 30
0.0
 10
67.792600
 20
9.418320
 30
0.0
 10
67.792600
 20
11.333480
 30
0.0
 10
67.792600
 20
13.248640
 30
0.0
 10
67.268090
 20
13.458184
 30
0.0
 10
66.893440
 20
13.660111
 30
0.0
 10
66.668650
 20
13.854424
 30
0.0
 10
66.593720
 20
14.041120
 30
0.0
 10
66.655950
 20
14.227804
 30
0.0
 10
66.842640
 20
14.361151
 30
0.0
 10
67.153790
 20
14.441164
 30
0.0
 10
67.589400
 20
14.467834
 30
0.0
 10
68.305680
 20
14.467834
 30
0.0
 10
69.021960
 20
14.467834
 30
0.0
 10
69.738240
 20
14.467834
 30
0.0
 10
70.454520
 20
14.467834
 30
0.0
 10
70.703437
 20
14.462754
 30
0.0
 10
70.921877
 20
14.447514
 30
0.0
 10
71.109837
 20
14.422114
 30
0.0
 10
71.267320
 20
14.386557
 30
0.0
 10
71.400667
 20
14.344641
 30
0.0
 10
71.495917
 20
14.279868
 30
0.0
 10
71.553067
 20
14.192241
 30
0.0
 10
71.572117
 20
14.081757
 30
0.0
 10
71.558147
 20
13.972531
 30
0.0
 10
71.516234
 20
13.868388
 30
0.0
 10
71.446387
 20
13.769331
 30
0.0
 10
71.348600
 20
13.675357
 30
0.0
 10
71.165717
 20
13.549621
 30
0.0
 10
70.942197
 20
13.436588
 30
0.0
 10
70.678037
 20
13.336261
 30
0.0
 10
70.373240
 20
13.248637
 30
0.0
 10
70.373240
 20
11.333477
 30
0.0
 10
70.373240
 20
9.418317
 30
0.0
 10
70.373240
 20
7.503157
 30
0.0
 10
70.373240
 20
5.587997
 30
0.0
 10
70.410067
 20
5.473694
 30
0.0
 10
70.520557
 20
5.354314
 30
0.0
 10
70.704707
 20
5.229854
 30
0.0
 10
70.962520
 20
5.100317
 30
0.0
 10
71.229217
 20
4.964424
 30
0.0
 10
71.419717
 20
4.820914
 30
0.0
 10
71.534017
 20
4.669784
 30
0.0
 10
71.572120
 20
4.511037
 30
0.0
 10
71.539097
 20
4.348474
 30
0.0
 10
71.440037
 20
4.206234
 30
0.0
 10
71.274937
 20
4.084314
 30
0.0
 10
71.043800
 20
3.982717
 30
0.0
 10
70.785987
 20
3.902707
 30
0.0
 10
70.540877
 20
3.845557
 30
0.0
 10
70.308467
 20
3.811267
 30
0.0
 10
70.088760
 20
3.799837
 30
0.0
 10
70.007477
 20
3.802377
 30
0.0
 10
69.905877
 20
3.809997
 30
0.0
 10
69.783957
 20
3.822697
 30
0.0
 10
69.641720
 20
3.840477
 30
0.0
 10
69.493127
 20
3.858257
 30
0.0
 10
69.352157
 20
3.870957
 30
0.0
 10
69.218807
 20
3.878577
 30
0.0
 10
69.093080
 20
3.881117
 30
0.0
 10
68.996557
 20
3.878577
 30
0.0
 10
68.889877
 20
3.870957
 30
0.0
 10
68.773037
 20
3.858257
 30
0.0
 10
68.646040
 20
3.840477
 30
0.0
 10
68.516497
 20
3.822697
 30
0.0
 10
68.392037
 20
3.809997
 30
0.0
 10
68.272657
 20
3.802377
 30
0.0
 10
68.158360
 20
3.799837
 30
0.0
 10
67.927217
 20
3.811267
 30
0.0
 10
67.680837
 20
3.845557
 30
0.0
 10
67.419217
 20
3.902707
 30
0.0
 10
67.142360
 20
3.982717
 30
0.0
 10
66.902330
 20
4.084314
 30
0.0
 10
66.730880
 20
4.206234
 30
0.0
 10
66.628010
 20
4.348474
 30
0.0
 10
66.593720
 20
4.511037
 30
0.0
 10
66.614040
 20
4.622794
 30
0.0
 10
66.675000
 20
4.734554
 30
0.0
 10
66.776600
 20
4.846314
 30
0.0
 10
66.918840
 20
4.958077
 30
0.0
 10
66.975990
 20
4.992367
 30
0.0
 10
67.086480
 20
5.054597
 30
0.0
 10
67.250310
 20
5.144767
 30
0.0
 10
67.467480
 20
5.262877
 30
0.0
 10
67.609717
 20
5.344154
 30
0.0
 10
67.711317
 20
5.425434
 30
0.0
 10
67.772277
 20
5.506714
 30
0.0
 10
67.792597
 20
5.587997
 30
0.0
  0
LWPOLYLINE
  5
10b
100
AcDbEntity
  8
cylindric_bend
 62
7
100
AcDbPolyline
 90
33
 70
0
 10
67.589397
 20
16.865597
 30
0.0
 10
67.617337
 20
17.109428
 30
0.0
 10
67.701157
 20
17.312626
 30
0.0
 10
67.840857
 20
17.475188
 30
0.0
 10
68.036440
 20
17.597117
 30
0.0
 10
68.270117
 20
17.694898
 30
0.0
 10
68.524117
 20
17.764746
 30
0.0
 10
68.798437
 20
17.806658
 30
0.0
 10
69.093080
 20
17.820628
 30
0.0
 10
69.390257
 20
17.810468
 30
0.0
 10
69.651877
 20
17.779986
 30
0.0
 10
69.877937
 20
17.729188
 30
0.0
 10
70.068440
 20
17.658077
 30
0.0
 10
70.290687
 20
17.517098
 30
0.0
 10
70.449434
 20
17.338026
 30
0.0
 10
70.544687
 20
17.120858
 30
0.0
 10
70.576440
 20
16.865597
 30
0.0
 10
70.545957
 20
16.602698
 30
0.0
 10
70.454514
 20
16.382986
 30
0.0
 10
70.302117
 20
16.206458
 30
0.0
 10
70.088760
 20
16.073117
 30
0.0
 10
69.894447
 20
16.001988
 30
0.0
 10
69.656957
 20
15.951186
 30
0.0
 10
69.376287
 20
15.920708
 30
0.0
 10
69.052440
 20
15.910548
 30
0.0
 10
68.755257
 20
15.920708
 30
0.0
 10
68.493637
 20
15.951186
 30
0.0
 10
68.267577
 20
16.001988
 30
0.0
 10
68.077080
 20
16.073117
 30
0.0
 10
67.863717
 20
16.206458
 30
0.0
 10
67.711317
 20
16.382986
 30
0.0
 10
67.619877
 20
16.602698
 30
0.0
 10
67.589400
 20
16.865597
 30
0.0
  0
LWPOLYLINE
  5
10c
100
AcDbEntity
  8
cylindric_bend
 62
7
100
AcDbPolyline
 90
165
 70
0
 10
72.707500
 20
8.595360
 30
0.0
 10
72.716390
 20
9.076687
 30
0.0
 10
72.743060
 20
9.545314
 30
0.0
 10
72.787510
 20
10.001244
 30
0.0
 10
72.849740
 20
10.444480
 30
0.0
 10
72.953880
 20
10.890244
 30
0.0
 10
73.103740
 20
11.333474
 30
0.0
 10
73.299320
 20
11.774164
 30
0.0
 10
73.540620
 20
12.212320
 30
0.0
 10
73.893677
 20
12.736824
 30
0.0
 10
74.282297
 20
13.192751
 30
0.0
 10
74.706477
 20
13.580104
 30
0.0
 10
75.166220
 20
13.898880
 30
0.0
 10
75.782167
 20
14.201134
 30
0.0
 10
76.471777
 20
14.417031
 30
0.0
 10
77.235047
 20
14.546574
 30
0.0
 10
78.071980
 20
14.589760
 30
0.0
 10
78.893664
 20
14.552924
 30
0.0
 10
79.611214
 20
14.442431
 30
0.0
 10
80.224624
 20
14.258284
 30
0.0
 10
80.733900
 20
14.000480
 30
0.0
 10
81.133944
 20
13.680434
 30
0.0
 10
81.419694
 20
13.289271
 30
0.0
 10
81.591144
 20
12.826994
 30
0.0
 10
81.648300
 20
12.293600
 30
0.0
 10
81.610194
 20
11.950694
 30
0.0
 10
81.495894
 20
11.633194
 30
0.0
 10
81.305394
 20
11.341094
 30
0.0
 10
81.038700
 20
11.074400
 30
0.0
 10
80.736434
 20
10.861034
 30
0.0
 10
80.418934
 20
10.708634
 30
0.0
 10
80.086194
 20
10.617194
 30
0.0
 10
79.738220
 20
10.586720
 30
0.0
 10
79.589624
 20
10.591800
 30
0.0
 10
79.448654
 20
10.607040
 30
0.0
 10
79.315304
 20
10.632440
 30
0.0
 10
79.189580
 20
10.668000
 30
0.0
 10
79.075277
 20
10.723874
 30
0.0
 10
78.955894
 20
10.789914
 30
0.0
 10
78.831437
 20
10.866114
 30
0.0
 10
78.701900
 20
10.952480
 30
0.0
 10
78.597757
 20
11.046454
 30
0.0
 10
78.508854
 20
11.125194
 30
0.0
 10
78.435197
 20
11.188694
 30
0.0
 10
78.376780
 20
11.236960
 30
0.0
 10
78.299307
 20
11.299184
 30
0.0
 10
78.229454
 20
11.343634
 30
0.0
 10
78.167227
 20
11.370304
 30
0.0
 10
78.112620
 20
11.379194
 30
0.0
 10
78.070707
 20
11.369034
 30
0.0
 10
78.026254
 20
11.358874
 30
0.0
 10
77.979267
 20
11.348714
 30
0.0
 10
77.929740
 20
11.338554
 30
0.0
 10
77.892907
 20
11.320774
 30
0.0
 10
77.863694
 20
11.287751
 30
0.0
 10
77.842104
 20
11.239491
 30
0.0
 10
77.828134
 20
11.175994
 30
0.0
 10
77.750662
 20
11.210278
 30
0.0
 10
77.680812
 20
11.252188
 30
0.0
 10
77.618582
 20
11.301718
 30
0.0
 10
77.563974
 20
11.358874
 30
0.0
 10
77.528412
 20
11.436338
 30
0.0
 10
77.503012
 20
11.526508
 30
0.0
 10
77.487772
 20
11.629378
 30
0.0
 10
77.482692
 20
11.744954
 30
0.0
 10
77.496662
 20
11.890998
 30
0.0
 10
77.538569
 20
12.024348
 30
0.0
 10
77.608422
 20
12.144998
 30
0.0
 10
77.706214
 20
12.252954
 30
0.0
 10
77.825592
 20
12.341848
 30
0.0
 10
77.960209
 20
12.405346
 30
0.0
 10
78.110072
 20
12.443448
 30
0.0
 10
78.275174
 20
12.456148
 30
0.0
 10
78.353912
 20
12.453608
 30
0.0
 10
78.447889
 20
12.445988
 30
0.0
 10
78.557112
 20
12.433288
 30
0.0
 10
78.681574
 20
12.415508
 30
0.0
 10
78.804762
 20
12.397728
 30
0.0
 10
78.910172
 20
12.385028
 30
0.0
 10
78.997802
 20
12.377408
 30
0.0
 10
79.067654
 20
12.374868
 30
0.0
 10
79.218779
 20
12.395188
 30
0.0
 10
79.326729
 20
12.456146
 30
0.0
 10
79.391499
 20
12.557748
 30
0.0
 10
79.413089
 20
12.699994
 30
0.0
 10
79.386419
 20
12.830798
 30
0.0
 10
79.306409
 20
12.959066
 30
0.0
 10
79.173059
 20
13.084798
 30
0.0
 10
78.986374
 20
13.207994
 30
0.0
 10
78.693002
 20
13.368008
 30
0.0
 10
78.402169
 20
13.482306
 30
0.0
 10
78.113882
 20
13.550888
 30
0.0
 10
77.828134
 20
13.573748
 30
0.0
 10
77.148682
 20
13.503893
 30
0.0
 10
76.553052
 20
13.294340
 30
0.0
 10
76.041242
 20
12.945093
 30
0.0
 10
75.613254
 20
12.456148
 30
0.0
 10
75.319882
 20
11.936713
 30
0.0
 10
75.110332
 20
11.353783
 30
0.0
 10
74.984602
 20
10.707353
 30
0.0
 10
74.942694
 20
9.997428
 30
0.0
 10
74.959204
 20
9.448786
 30
0.0
 10
75.008734
 20
8.961103
 30
0.0
 10
75.091284
 20
8.534386
 30
0.0
 10
75.206854
 20
8.168628
 30
0.0
 10
75.365602
 20
7.860016
 30
0.0
 10
75.557372
 20
7.584423
 30
0.0
 10
75.782162
 20
7.341856
 30
0.0
 10
76.039974
 20
7.132308
 30
0.0
 10
76.297782
 20
6.998956
 30
0.0
 10
76.583529
 20
6.883383
 30
0.0
 10
76.897222
 20
6.785596
 30
0.0
 10
77.238854
 20
6.705588
 30
0.0
 10
77.609692
 20
6.652246
 30
0.0
 10
77.990689
 20
6.614146
 30
0.0
 10
78.381852
 20
6.591286
 30
0.0
 10
78.783174
 20
6.583666
 30
0.0
 10
79.361019
 20
6.612876
 30
0.0
 10
79.875369
 20
6.700506
 30
0.0
 10
80.326219
 20
6.846556
 30
0.0
 10
80.713574
 20
7.051026
 30
0.0
 10
80.982809
 20
7.260573
 30
0.0
 10
81.201249
 20
7.503140
 30
0.0
 10
81.368889
 20
7.778733
 30
0.0
 10
81.485734
 20
8.087346
 30
0.0
 10
81.705439
 20
8.018763
 30
0.0
 10
81.917526
 20
7.894300
 30
0.0
 10
82.121999
 20
7.713963
 30
0.0
 10
82.318854
 20
7.477746
 30
0.0
 10
82.487759
 20
7.223743
 30
0.0
 10
82.608406
 20
6.969740
 30
0.0
 10
82.680799
 20
6.715743
 30
0.0
 10
82.704929
 20
6.461746
 30
0.0
 10
82.656663
 20
5.914373
 30
0.0
 10
82.511880
 20
5.410183
 30
0.0
 10
82.270583
 20
4.949173
 30
0.0
 10
81.932769
 20
4.531346
 30
0.0
 10
81.528903
 20
4.193526
 30
0.0
 10
81.069163
 20
3.952226
 30
0.0
 10
80.553543
 20
3.807446
 30
0.0
 10
79.982049
 20
3.759186
 30
0.0
 10
79.722963
 20
3.762996
 30
0.0
 10
79.453723
 20
3.774426
 30
0.0
 10
79.174323
 20
3.793476
 30
0.0
 10
78.884769
 20
3.820146
 30
0.0
 10
78.610446
 20
3.846816
 30
0.0
 10
78.376766
 20
3.865866
 30
0.0
 10
78.183726
 20
3.877296
 30
0.0
 10
78.031329
 20
3.881106
 30
0.0
 10
77.857336
 20
3.879694
 30
0.0
 10
77.701123
 20
3.875884
 30
0.0
 10
77.562696
 20
3.869534
 30
0.0
 10
77.442049
 20
3.860644
 30
0.0
 10
76.940396
 20
3.816194
 30
0.0
 10
76.573366
 20
3.784444
 30
0.0
 10
76.340956
 20
3.765394
 30
0.0
 10
76.243169
 20
3.759044
 30
0.0
 10
75.459576
 20
3.863184
 30
0.0
 10
74.754726
 20
4.175604
 30
0.0
 10
74.128616
 20
4.696304
 30
0.0
 10
73.581249
 20
5.425284
 30
0.0
 10
73.198979
 20
6.156802
 30
0.0
 10
72.925929
 20
6.928962
 30
0.0
 10
72.762099
 20
7.741762
 30
0.0
 10
72.707489
 20
8.595204
 30
0.0
  0
LWPOLYLINE
  5
10d
100
AcDbEntity
  8
cylindric_bend
 62
7
100
AcDbPolyline
 90
17
 70
0
 10
82.675095
 20
2.336800
 30
0.0
 10
85.215095
 20
2.336800
 30
0.0
 10
87.755095
 20
2.336800
 30
0.0
 10
90.295095
 20
2.336800
 30
0.0
 10
92.835095
 20
2.336800
 30
0.0
 10
92.835095
 20
2.087880
 30
0.0
 10
92.835095
 20
1.838960
 30
0.0
 10
92.835095
 20
1.590040
 30
0.0
 10
92.835095
 20
1.341120
 30
0.0
 10
90.295095
 20
1.341120
 30
0.0
 10
87.755095
 20
1.341120
 30
0.0
 10
85.215095
 20
1.341120
 30
0.0
 10
82.675095
 20
1.341120
 30
0.0
 10
82.675095
 20
1.590040
 30
0.0
 10
82.675095
 20
1.838960
 30
0.0
 10
82.675095
 20
2.087880
 30
0.0
 10
82.675095
 20
2.336800
 30
0.0
  0
LWPOLYLINE
  5
10e
100
AcDbEntity
  8
cylindric_bend
 62
7
100
AcDbPolyline
 90
93
 70
0
 10
94.216855
 20
6.583680
 30
0.0
 10
94.216855
 20
9.001760
 30
0.0
 10
94.216855
 20
11.419840
 30
0.0
 10
94.216855
 20
13.837920
 30
0.0
 10
94.216855
 20
16.256000
 30
0.0
 10
94.174945
 20
16.478241
 30
0.0
 10
94.049215
 20
16.697948
 30
0.0
 10
93.839665
 20
16.915121
 30
0.0
 10
93.546295
 20
17.129760
 30
0.0
 10
93.252925
 20
17.341841
 30
0.0
 10
93.043375
 20
17.551388
 30
0.0
 10
92.917645
 20
17.758401
 30
0.0
 10
92.875735
 20
17.962880
 30
0.0
 10
92.889705
 20
18.077171
 30
0.0
 10
92.931615
 20
18.176226
 30
0.0
 10
93.001465
 20
18.260051
 30
0.0
 10
93.099255
 20
18.328640
 30
0.0
 10
93.226255
 20
18.381971
 30
0.0
 10
93.363415
 20
18.420068
 30
0.0
 10
93.510735
 20
18.442928
 30
0.0
 10
93.668215
 20
18.450548
 30
0.0
 10
94.293055
 20
18.450548
 30
0.0
 10
94.917895
 20
18.450548
 30
0.0
 10
95.542735
 20
18.450548
 30
0.0
 10
96.167575
 20
18.450548
 30
0.0
 10
96.319972
 20
18.442928
 30
0.0
 10
96.452052
 20
18.420068
 30
0.0
 10
96.563812
 20
18.381971
 30
0.0
 10
96.655255
 20
18.328640
 30
0.0
 10
96.735262
 20
18.254971
 30
0.0
 10
96.792412
 20
18.155906
 30
0.0
 10
96.826702
 20
18.031451
 30
0.0
 10
96.838132
 20
17.881600
 30
0.0
 10
96.838132
 20
16.901160
 30
0.0
 10
96.838132
 20
15.920720
 30
0.0
 10
96.838132
 20
14.940280
 30
0.0
 10
96.838132
 20
13.959840
 30
0.0
 10
97.056569
 20
13.986510
 30
0.0
 10
97.407089
 20
14.066517
 30
0.0
 10
97.889689
 20
14.199870
 30
0.0
 10
98.504372
 20
14.386565
 30
0.0
 10
98.818059
 20
14.475460
 30
0.0
 10
99.108889
 20
14.538957
 30
0.0
 10
99.376859
 20
14.577060
 30
0.0
 10
99.621972
 20
14.589760
 30
0.0
 10
100.630347
 20
14.476724
 30
0.0
 10
101.542207
 20
14.137631
 30
0.0
 10
102.357547
 20
13.572484
 30
0.0
 10
103.076372
 20
12.781280
 30
0.0
 10
103.609767
 20
11.925294
 30
0.0
 10
103.990764
 20
11.003274
 30
0.0
 10
104.219367
 20
10.015214
 30
0.0
 10
104.295572
 20
8.961120
 30
0.0
 10
104.233337
 20
7.997187
 30
0.0
 10
104.046644
 20
7.096757
 30
0.0
 10
103.735497
 20
6.259827
 30
0.0
 10
103.299892
 20
5.486400
 30
0.0
 10
102.669967
 20
4.730750
 30
0.0
 10
101.938447
 20
4.191000
 30
0.0
 10
101.105327
 20
3.867150
 30
0.0
 10
100.170612
 20
3.759200
 30
0.0
 10
99.962327
 20
3.763010
 30
0.0
 10
99.723567
 20
3.774440
 30
0.0
 10
99.454329
 20
3.793490
 30
0.0
 10
99.154612
 20
3.820160
 30
0.0
 10
98.863779
 20
3.846830
 30
0.0
 10
98.621209
 20
3.865880
 30
0.0
 10
98.426899
 20
3.877310
 30
0.0
 10
98.280852
 20
3.881120
 30
0.0
 10
98.063679
 20
3.879709
 30
0.0
 10
97.879527
 20
3.875899
 30
0.0
 10
97.728399
 20
3.869549
 30
0.0
 10
97.610292
 20
3.860659
 30
0.0
 10
97.146739
 20
3.816209
 30
0.0
 10
96.812729
 20
3.784459
 30
0.0
 10
96.608259
 20
3.765409
 30
0.0
 10
96.533332
 20
3.759059
 30
0.0
 10
96.176459
 20
3.773029
 30
0.0
 10
95.857689
 20
3.814939
 30
0.0
 10
95.577019
 20
3.884789
 30
0.0
 10
95.334452
 20
3.982579
 30
0.0
 10
95.122359
 20
4.119736
 30
0.0
 10
94.933129
 20
4.287376
 30
0.0
 10
94.766759
 20
4.485496
 30
0.0
 10
94.623252
 20
4.714099
 30
0.0
 10
94.535619
 20
4.880466
 30
0.0
 10
94.455609
 20
5.074776
 30
0.0
 10
94.383219
 20
5.297026
 30
0.0
 10
94.318452
 20
5.547219
 30
0.0
 10
94.274002
 20
5.810106
 30
0.0
 10
94.242252
 20
6.070456
 30
0.0
 10
94.223202
 20
6.328266
 30
0.0
 10
94.216852
 20
6.583539
 30
0.0
  0
LWPOLYLINE
  5
10f
100
AcDbEntity
  8
cylindric_bend
 62
7
100
AcDbPolyline
 90
49
 70
0
 10
101.918132
 20
9.631539
 30
0.0
 10
101.882567
 20
10.291933
 30
0.0
 10
101.775887
 20
10.911693
 30
0.0
 10
101.598087
 20
11.490813
 30
0.0
 10
101.349172
 20
12.029299
 30
0.0
 10
100.966897
 20
12.580473
 30
0.0
 10
100.510967
 20
12.974170
 30
0.0
 10
99.981377
 20
13.210393
 30
0.0
 10
99.378132
 20
13.289139
 30
0.0
 10
99.119049
 20
13.257383
 30
0.0
 10
98.768529
 20
13.162130
 30
0.0
 10
98.326569
 20
13.003383
 30
0.0
 10
97.793172
 20
12.781139
 30
0.0
 10
97.527739
 20
12.674453
 30
0.0
 10
97.280089
 20
12.598250
 30
0.0
 10
97.050219
 20
12.552533
 30
0.0
 10
96.838132
 20
12.537293
 30
0.0
 10
96.838132
 20
11.506053
 30
0.0
 10
96.838132
 20
10.474813
 30
0.0
 10
96.838132
 20
9.443573
 30
0.0
 10
96.838132
 20
8.412333
 30
0.0
 10
96.839261
 20
8.242150
 30
0.0
 10
96.843071
 20
8.077047
 30
0.0
 10
96.849421
 20
7.917030
 30
0.0
 10
96.858311
 20
7.762093
 30
0.0
 10
96.882441
 20
7.613500
 30
0.0
 10
96.914191
 20
7.472530
 30
0.0
 10
96.953561
 20
7.339180
 30
0.0
 10
97.000551
 20
7.213453
 30
0.0
 10
97.069128
 20
7.097880
 30
0.0
 10
97.152948
 20
6.995007
 30
0.0
 10
97.252008
 20
6.904840
 30
0.0
 10
97.366311
 20
6.827373
 30
0.0
 10
97.502198
 20
6.774030
 30
0.0
 10
97.666028
 20
6.735930
 30
0.0
 10
97.857798
 20
6.713070
 30
0.0
 10
98.077511
 20
6.705450
 30
0.0
 10
98.565191
 20
6.705450
 30
0.0
 10
99.052871
 20
6.705450
 30
0.0
 10
99.540551
 20
6.705450
 30
0.0
 10
100.028231
 20
6.705450
 30
0.0
 10
100.449865
 20
6.748627
 30
0.0
 10
100.820705
 20
6.878167
 30
0.0
 10
101.140745
 20
7.094067
 30
0.0
 10
101.409991
 20
7.396330
 30
0.0
 10
101.632235
 20
7.795107
 30
0.0
 10
101.790985
 20
8.300564
 30
0.0
 10
101.886235
 20
8.912707
 30
0.0
 10
101.917991
 20
9.631530
 30
0.0
  0
LWPOLYLINE
  5
110
100
AcDbEntity
  8
cylindric_bend
 62
7
100
AcDbPolyline
 90
97
 70
0
 10
105.489375
 20
8.595360
 30
0.0
 10
105.556685
 20
9.711684
 30
0.0
 10
105.758615
 20
10.744194
 30
0.0
 10
106.095165
 20
11.692884
 30
0.0
 10
106.566335
 20
12.557760
 30
0.0
 10
107.247052
 20
13.393414
 30
0.0
 10
108.049692
 20
13.990311
 30
0.0
 10
108.974252
 20
14.348457
 30
0.0
 10
110.020735
 20
14.467840
 30
0.0
 10
110.747175
 20
14.467840
 30
0.0
 10
111.473615
 20
14.467840
 30
0.0
 10
112.200055
 20
14.467840
 30
0.0
 10
112.926495
 20
14.467840
 30
0.0
 10
113.513229
 20
14.443710
 30
0.0
 10
114.013609
 20
14.371317
 30
0.0
 10
114.427629
 20
14.250670
 30
0.0
 10
114.755295
 20
14.081765
 30
0.0
 10
115.013099
 20
13.872210
 30
0.0
 10
115.197247
 20
13.629637
 30
0.0
 10
115.307739
 20
13.354050
 30
0.0
 10
115.344575
 20
13.045445
 30
0.0
 10
115.282339
 20
12.553950
 30
0.0
 10
115.095647
 20
12.095480
 30
0.0
 10
114.784499
 20
11.670030
 30
0.0
 10
114.348895
 20
11.277605
 30
0.0
 10
114.125369
 20
11.126470
 30
0.0
 10
113.739289
 20
10.896600
 30
0.0
 10
113.190649
 20
10.587990
 30
0.0
 10
112.479455
 20
10.200645
 30
0.0
 10
111.770792
 20
9.847580
 30
0.0
 10
111.189132
 20
9.540240
 30
0.0
 10
110.734472
 20
9.278623
 30
0.0
 10
110.406815
 20
9.062725
 30
0.0
 10
109.906432
 20
8.639813
 30
0.0
 10
109.522889
 20
8.183883
 30
0.0
 10
109.256192
 20
7.694933
 30
0.0
 10
109.106335
 20
7.172965
 30
0.0
 10
109.387002
 20
7.038343
 30
0.0
 10
109.680369
 20
6.918960
 30
0.0
 10
109.986442
 20
6.814823
 30
0.0
 10
110.305215
 20
6.725925
 30
0.0
 10
110.627792
 20
6.663693
 30
0.0
 10
110.945289
 20
6.619243
 30
0.0
 10
111.257712
 20
6.592573
 30
0.0
 10
111.565055
 20
6.583683
 30
0.0
 10
112.144169
 20
6.614160
 30
0.0
 10
112.662329
 20
6.705600
 30
0.0
 10
113.119529
 20
6.858000
 30
0.0
 10
113.515775
 20
7.071363
 30
0.0
 10
113.791359
 20
7.287260
 30
0.0
 10
114.008529
 20
7.528557
 30
0.0
 10
114.167279
 20
7.795260
 30
0.0
 10
114.267615
 20
8.087363
 30
0.0
 10
114.511449
 20
7.994650
 30
0.0
 10
114.734967
 20
7.858757
 30
0.0
 10
114.938169
 20
7.679690
 30
0.0
 10
115.121055
 20
7.457443
 30
0.0
 10
115.281069
 20
7.209790
 30
0.0
 10
115.395367
 20
6.954517
 30
0.0
 10
115.463949
 20
6.691630
 30
0.0
 10
115.486809
 20
6.421123
 30
0.0
 10
115.438544
 20
5.900420
 30
0.0
 10
115.293761
 20
5.415280
 30
0.0
 10
115.052464
 20
4.965700
 30
0.0
 10
114.714649
 20
4.551683
 30
0.0
 10
114.308247
 20
4.204970
 30
0.0
 10
113.861207
 20
3.957320
 30
0.0
 10
113.373527
 20
3.808733
 30
0.0
 10
112.845209
 20
3.759203
 30
0.0
 10
112.574694
 20
3.763013
 30
0.0
 10
112.291484
 20
3.774443
 30
0.0
 10
111.995574
 20
3.793493
 30
0.0
 10
111.686969
 20
3.820163
 30
0.0
 10
111.396137
 20
3.846833
 30
0.0
 10
111.153567
 20
3.865883
 30
0.0
 10
110.959257
 20
3.877313
 30
0.0
 10
110.813209
 20
3.881123
 30
0.0
 10
110.648107
 20
3.879711
 30
0.0
 10
110.498244
 20
3.875901
 30
0.0
 10
110.363627
 20
3.869551
 30
0.0
 10
110.244249
 20
3.860661
 30
0.0
 10
109.761647
 20
3.816211
 30
0.0
 10
109.390807
 20
3.784461
 30
0.0
 10
109.131727
 20
3.765411
 30
0.0
 10
108.984409
 20
3.759061
 30
0.0
 10
108.650397
 20
3.783191
 30
0.0
 10
108.318927
 20
3.855581
 30
0.0
 10
107.989997
 20
3.976231
 30
0.0
 10
107.663609
 20
4.145141
 30
0.0
 10
107.348647
 20
4.364849
 30
0.0
 10
107.054007
 20
4.617579
 30
0.0
 10
106.779687
 20
4.903329
 30
0.0
 10
106.525689
 20
5.222101
 30
0.0
 10
106.072299
 20
5.966319
 30
0.0
 10
105.748449
 20
6.776579
 30
0.0
 10
105.554139
 20
7.652879
 30
0.0
 10
105.489369
 20
8.595221
 30
0.0
  0
LWPOLYLINE
  5
111
100
AcDbEntity
  8
cylindric_bend
 62
7
100
AcDbPolyline
 90
41
 70
0
 10
108.151289
 20
7.924661
 30
0.0
 10
108.363377
 20
8.414879
 30
0.0
 10
108.633887
 20
8.869536
 30
0.0
 10
108.962817
 20
9.288639
 30
0.0
 10
109.350169
 20
9.672181
 30
0.0
 10
109.675287
 20
9.932526
 30
0.0
 10
110.041044
 20
10.185256
 30
0.0
 10
110.447447
 20
10.430366
 30
0.0
 10
110.894489
 20
10.667861
 30
0.0
 10
111.149757
 20
10.801206
 30
0.0
 10
111.407564
 20
10.937096
 30
0.0
 10
111.667917
 20
11.075526
 30
0.0
 10
111.930809
 20
11.216501
 30
0.0
 10
112.277514
 20
11.471766
 30
0.0
 10
112.525164
 20
11.749896
 30
0.0
 10
112.673754
 20
12.050886
 30
0.0
 10
112.723289
 20
12.374741
 30
0.0
 10
112.675024
 20
12.674456
 30
0.0
 10
112.530244
 20
12.923373
 30
0.0
 10
112.288944
 20
13.121496
 30
0.0
 10
111.951129
 20
13.268821
 30
0.0
 10
111.704747
 20
13.331046
 30
0.0
 10
111.412644
 20
13.375493
 30
0.0
 10
111.074827
 20
13.402163
 30
0.0
 10
110.691289
 20
13.411053
 30
0.0
 10
109.865787
 20
13.341197
 30
0.0
 10
109.177447
 20
13.131644
 30
0.0
 10
108.626267
 20
12.782397
 30
0.0
 10
108.212249
 20
12.293453
 30
0.0
 10
107.998887
 20
11.865457
 30
0.0
 10
107.846487
 20
11.353647
 30
0.0
 10
107.755047
 20
10.758017
 30
0.0
 10
107.724569
 20
10.078573
 30
0.0
 10
107.729649
 20
9.750907
 30
0.0
 10
107.744889
 20
9.438487
 30
0.0
 10
107.770289
 20
9.141310
 30
0.0
 10
107.805849
 20
8.859373
 30
0.0
 10
107.865537
 20
8.602830
 30
0.0
 10
107.943007
 20
8.361527
 30
0.0
 10
108.038257
 20
8.135470
 30
0.0
 10
108.151289
 20
7.924653
 30
0.0
  0
LWPOLYLINE
  5
112
100
AcDbEntity
  8
cylindric_bend
 62
7
100
AcDbPolyline
 90
193
 70
0
 10
126.014796
 20
11.927840
 30
0.0
 10
126.014796
 20
10.342880
 30
0.0
 10
126.014796
 20
8.757920
 30
0.0
 10
126.014796
 20
7.172960
 30
0.0
 10
126.014796
 20
5.588000
 30
0.0
 10
126.082106
 20
5.481317
 30
0.0
 10
126.243393
 20
5.344157
 30
0.0
 10
126.498663
 20
5.176517
 30
0.0
 10
126.847916
 20
4.978400
 30
0.0
 10
127.007930
 20
4.872987
 30
0.0
 10
127.122228
 20
4.759957
 30
0.0
 10
127.190810
 20
4.639307
 30
0.0
 10
127.213670
 20
4.511040
 30
0.0
 10
127.180645
 20
4.348477
 30
0.0
 10
127.081582
 20
4.206237
 30
0.0
 10
126.916485
 20
4.084317
 30
0.0
 10
126.685350
 20
3.982720
 30
0.0
 10
126.427535
 20
3.902710
 30
0.0
 10
126.182425
 20
3.845560
 30
0.0
 10
125.950015
 20
3.811270
 30
0.0
 10
125.730310
 20
3.799840
 30
0.0
 10
125.656645
 20
3.802380
 30
0.0
 10
125.557585
 20
3.810000
 30
0.0
 10
125.433128
 20
3.822700
 30
0.0
 10
125.283273
 20
3.840480
 30
0.0
 10
125.127058
 20
3.858260
 30
0.0
 10
124.983545
 20
3.870960
 30
0.0
 10
124.852735
 20
3.878580
 30
0.0
 10
124.734630
 20
3.881120
 30
0.0
 10
124.627945
 20
3.878580
 30
0.0
 10
124.511105
 20
3.870960
 30
0.0
 10
124.384105
 20
3.858260
 30
0.0
 10
124.246950
 20
3.840480
 30
0.0
 10
124.112328
 20
3.822700
 30
0.0
 10
123.992945
 20
3.810000
 30
0.0
 10
123.888808
 20
3.802380
 30
0.0
 10
123.799910
 20
3.799840
 30
0.0
 10
123.568768
 20
3.811270
 30
0.0
 10
123.322388
 20
3.845560
 30
0.0
 10
123.060768
 20
3.902710
 30
0.0
 10
122.783913
 20
3.982720
 30
0.0
 10
122.543878
 20
4.084317
 30
0.0
 10
122.372428
 20
4.206237
 30
0.0
 10
122.269558
 20
4.348477
 30
0.0
 10
122.235270
 20
4.511040
 30
0.0
 10
122.268288
 20
4.660897
 30
0.0
 10
122.367348
 20
4.805677
 30
0.0
 10
122.532448
 20
4.945377
 30
0.0
 10
122.763593
 20
5.080000
 30
0.0
 10
122.927418
 20
5.162547
 30
0.0
 10
123.053148
 20
5.227317
 30
0.0
 10
123.140778
 20
5.274307
 30
0.0
 10
123.190313
 20
5.303520
 30
0.0
 10
123.296988
 20
5.382257
 30
0.0
 10
123.373188
 20
5.455917
 30
0.0
 10
123.418908
 20
5.524497
 30
0.0
 10
123.434148
 20
5.588000
 30
0.0
 10
123.434148
 20
7.015480
 30
0.0
 10
123.434148
 20
8.442960
 30
0.0
 10
123.434148
 20
9.870440
 30
0.0
 10
123.434148
 20
11.297920
 30
0.0
 10
123.416368
 20
11.523974
 30
0.0
 10
123.363028
 20
11.734794
 30
0.0
 10
123.274128
 20
11.930374
 30
0.0
 10
123.149673
 20
12.110720
 30
0.0
 10
122.995998
 20
12.261844
 30
0.0
 10
122.819468
 20
12.369791
 30
0.0
 10
122.620078
 20
12.434564
 30
0.0
 10
122.397830
 20
12.456154
 30
0.0
 10
122.007938
 20
12.429484
 30
0.0
 10
121.630748
 20
12.349471
 30
0.0
 10
121.266258
 20
12.216124
 30
0.0
 10
120.914470
 20
12.029440
 30
0.0
 10
120.589348
 20
11.851634
 30
0.0
 10
120.304868
 20
11.724634
 30
0.0
 10
120.061028
 20
11.648434
 30
0.0
 10
119.857830
 20
11.623034
 30
0.0
 10
119.857830
 20
10.114274
 30
0.0
 10
119.857830
 20
8.605514
 30
0.0
 10
119.857830
 20
7.096754
 30
0.0
 10
119.857830
 20
5.587994
 30
0.0
 10
119.906088
 20
5.457181
 30
0.0
 10
120.050868
 20
5.308591
 30
0.0
 10
120.292170
 20
5.142221
 30
0.0
 10
120.629993
 20
4.958074
 30
0.0
 10
120.798900
 20
4.853931
 30
0.0
 10
120.919548
 20
4.744711
 30
0.0
 10
120.991940
 20
4.630411
 30
0.0
 10
121.016070
 20
4.511034
 30
0.0
 10
120.979238
 20
4.395461
 30
0.0
 10
120.868745
 20
4.272271
 30
0.0
 10
120.684595
 20
4.141461
 30
0.0
 10
120.426788
 20
4.003034
 30
0.0
 10
120.330265
 20
3.972554
 30
0.0
 10
120.223585
 20
3.942074
 30
0.0
 10
120.106745
 20
3.911594
 30
0.0
 10
119.979748
 20
3.881114
 30
0.0
 10
119.854015
 20
3.845554
 30
0.0
 10
119.740985
 20
3.820154
 30
0.0
 10
119.640655
 20
3.804914
 30
0.0
 10
119.553028
 20
3.799834
 30
0.0
 10
119.448885
 20
3.802374
 30
0.0
 10
119.319345
 20
3.809994
 30
0.0
 10
119.164405
 20
3.822694
 30
0.0
 10
118.984068
 20
3.840474
 30
0.0
 10
118.820238
 20
3.858254
 30
0.0
 10
118.694508
 20
3.870954
 30
0.0
 10
118.606878
 20
3.878574
 30
0.0
 10
118.557350
 20
3.881114
 30
0.0
 10
118.483688
 20
3.878574
 30
0.0
 10
118.384628
 20
3.870954
 30
0.0
 10
118.260168
 20
3.858254
 30
0.0
 10
118.110310
 20
3.840474
 30
0.0
 10
117.956638
 20
3.822694
 30
0.0
 10
117.820748
 20
3.809994
 30
0.0
 10
117.702638
 20
3.802374
 30
0.0
 10
117.602310
 20
3.799834
 30
0.0
 10
117.380058
 20
3.811264
 30
0.0
 10
117.140028
 20
3.845554
 30
0.0
 10
116.882218
 20
3.902704
 30
0.0
 10
116.606628
 20
3.982714
 30
0.0
 10
116.366598
 20
4.084311
 30
0.0
 10
116.195148
 20
4.206231
 30
0.0
 10
116.092278
 20
4.348471
 30
0.0
 10
116.057988
 20
4.511034
 30
0.0
 10
116.074498
 20
4.605011
 30
0.0
 10
116.124028
 20
4.704071
 30
0.0
 10
116.206578
 20
4.808211
 30
0.0
 10
116.322148
 20
4.917434
 30
0.0
 10
116.477088
 20
4.986011
 30
0.0
 10
116.616788
 20
5.049511
 30
0.0
 10
116.741248
 20
5.107931
 30
0.0
 10
116.850470
 20
5.161274
 30
0.0
 10
117.019378
 20
5.264141
 30
0.0
 10
117.140028
 20
5.369551
 30
0.0
 10
117.212418
 20
5.477501
 30
0.0
 10
117.236548
 20
5.587994
 30
0.0
 10
117.236548
 20
7.376154
 30
0.0
 10
117.236548
 20
9.164314
 30
0.0
 10
117.236548
 20
10.952474
 30
0.0
 10
117.236548
 20
12.740634
 30
0.0
 10
117.203525
 20
12.912078
 30
0.0
 10
117.104465
 20
13.080986
 30
0.0
 10
116.939365
 20
13.247358
 30
0.0
 10
116.708225
 20
13.411194
 30
0.0
 10
116.477085
 20
13.572478
 30
0.0
 10
116.311985
 20
13.731226
 30
0.0
 10
116.212925
 20
13.887438
 30
0.0
 10
116.179905
 20
14.041114
 30
0.0
 10
116.193875
 20
14.161758
 30
0.0
 10
116.235785
 20
14.259546
 30
0.0
 10
116.305635
 20
14.334478
 30
0.0
 10
116.403428
 20
14.386554
 30
0.0
 10
116.522805
 20
14.422108
 30
0.0
 10
116.657425
 20
14.447508
 30
0.0
 10
116.807285
 20
14.462748
 30
0.0
 10
116.972385
 20
14.467828
 30
0.0
 10
117.785185
 20
14.467828
 30
0.0
 10
118.597985
 20
14.467828
 30
0.0
 10
119.410788
 20
14.467828
 30
0.0
 10
120.223588
 20
14.467828
 30
0.0
 10
120.534735
 20
14.448778
 30
0.0
 10
120.756982
 20
14.391626
 30
0.0
 10
120.890332
 20
14.296378
 30
0.0
 10
120.934785
 20
14.163034
 30
0.0
 10
120.900492
 20
14.000468
 30
0.0
 10
120.797622
 20
13.837906
 30
0.0
 10
120.626172
 20
13.675348
 30
0.0
 10
120.386145
 20
13.512794
 30
0.0
 10
120.155002
 20
13.361658
 30
0.0
 10
119.989902
 20
13.213066
 30
0.0
 10
119.890842
 20
13.067018
 30
0.0
 10
119.857825
 20
12.923514
 30
0.0
 10
119.857825
 20
12.867634
 30
0.0
 10
119.857825
 20
12.811754
 30
0.0
 10
119.857825
 20
12.755874
 30
0.0
 10
119.857825
 20
12.699994
 30
0.0
 10
120.204532
 20
12.824448
 30
0.0
 10
120.574102
 20
13.035266
 30
0.0
 10
120.966532
 20
13.332448
 30
0.0
 10
121.381825
 20
13.715994
 30
0.0
 10
121.784409
 20
14.044921
 30
0.0
 10
122.240339
 20
14.279868
 30
0.0
 10
122.749612
 20
14.420838
 30
0.0
 10
123.312225
 20
14.467834
 30
0.0
 10
123.883722
 20
14.425918
 30
0.0
 10
124.399339
 20
14.300186
 30
0.0
 10
124.859082
 20
14.090638
 30
0.0
 10
125.262948
 20
13.797274
 30
0.0
 10
125.591872
 20
13.428968
 30
0.0
 10
125.826819
 20
12.994626
 30
0.0
 10
125.967789
 20
12.494248
 30
0.0
 10
126.014785
 20
11.927834
 30
0.0
  0
LWPOLYLINE
  5
113
100
AcDbEntity
  8
cylindric_bend
 62
7
100
AcDbPolyline
 90
85
 70
0
 10
128.071564
 20
9.204960
 30
0.0
 10
128.142681
 20
10.213334
 30
0.0
 10
128.356041
 20
11.165834
 30
0.0
 10
128.711641
 20
12.062454
 30
0.0
 10
129.209481
 20
12.903200
 30
0.0
 10
129.886391
 20
13.694404
 30
0.0
 10
130.657281
 20
14.259551
 30
0.0
 10
131.522151
 20
14.598644
 30
0.0
 10
132.481001
 20
14.711680
 30
0.0
 10
132.861998
 20
14.692630
 30
0.0
 10
133.253158
 20
14.635477
 30
0.0
 10
133.654478
 20
14.540230
 30
0.0
 10
134.065961
 20
14.406885
 30
0.0
 10
134.441878
 20
14.254480
 30
0.0
 10
134.817795
 20
14.102077
 30
0.0
 10
135.193718
 20
13.949680
 30
0.0
 10
135.569641
 20
13.797285
 30
0.0
 10
135.569641
 20
14.472925
 30
0.0
 10
135.569641
 20
15.148565
 30
0.0
 10
135.569641
 20
15.824205
 30
0.0
 10
135.569641
 20
16.499845
 30
0.0
 10
135.522648
 20
16.689067
 30
0.0
 10
135.381675
 20
16.870674
 30
0.0
 10
135.146728
 20
17.044667
 30
0.0
 10
134.817801
 20
17.211045
 30
0.0
 10
134.488868
 20
17.377407
 30
0.0
 10
134.253915
 20
17.551394
 30
0.0
 10
134.112948
 20
17.733007
 30
0.0
 10
134.065961
 20
17.922245
 30
0.0
 10
134.073581
 20
18.037807
 30
0.0
 10
134.096441
 20
18.140671
 30
0.0
 10
134.134544
 20
18.230847
 30
0.0
 10
134.187887
 20
18.308325
 30
0.0
 10
134.271704
 20
18.370547
 30
0.0
 10
134.380924
 20
18.414991
 30
0.0
 10
134.515544
 20
18.441661
 30
0.0
 10
134.675570
 20
18.450551
 30
0.0
 10
135.346130
 20
18.450551
 30
0.0
 10
136.016687
 20
18.450551
 30
0.0
 10
136.687247
 20
18.450551
 30
0.0
 10
137.357807
 20
18.450551
 30
0.0
 10
137.704511
 20
18.398473
 30
0.0
 10
137.952161
 20
18.242260
 30
0.0
 10
138.100751
 20
17.981913
 30
0.0
 10
138.150287
 20
17.617431
 30
0.0
 10
138.150287
 20
14.630391
 30
0.0
 10
138.150287
 20
11.643351
 30
0.0
 10
138.150287
 20
8.656311
 30
0.0
 10
138.150287
 20
5.669271
 30
0.0
 10
138.745911
 20
5.320018
 30
0.0
 10
139.171358
 20
5.024108
 30
0.0
 10
139.426631
 20
4.781538
 30
0.0
 10
139.511730
 20
4.592311
 30
0.0
 10
139.464731
 20
4.386568
 30
0.0
 10
139.323758
 20
4.216388
 30
0.0
 10
139.088811
 20
4.081768
 30
0.0
 10
138.759890
 20
3.982711
 30
0.0
 10
138.514774
 20
3.938261
 30
0.0
 10
138.246801
 20
3.906511
 30
0.0
 10
137.955971
 20
3.887461
 30
0.0
 10
137.642287
 20
3.881111
 30
0.0
 10
137.276521
 20
3.882240
 30
0.0
 10
136.931081
 20
3.886050
 30
0.0
 10
136.605964
 20
3.892400
 30
0.0
 10
136.301170
 20
3.901290
 30
0.0
 10
136.002714
 20
3.922880
 30
0.0
 10
135.676324
 20
3.947010
 30
0.0
 10
135.321994
 20
3.973680
 30
0.0
 10
134.939727
 20
4.002890
 30
0.0
 10
134.690804
 20
3.999080
 30
0.0
 10
134.452044
 20
3.987650
 30
0.0
 10
134.223444
 20
3.968600
 30
0.0
 10
134.005010
 20
3.941930
 30
0.0
 10
133.429694
 20
3.861920
 30
0.0
 10
133.004244
 20
3.804770
 30
0.0
 10
132.728654
 20
3.770480
 30
0.0
 10
132.602927
 20
3.759050
 30
0.0
 10
131.505647
 20
3.867000
 30
0.0
 10
130.550607
 20
4.190850
 30
0.0
 10
129.737807
 20
4.730600
 30
0.0
 10
129.067247
 20
5.486250
 30
0.0
 10
128.631637
 20
6.259677
 30
0.0
 10
128.320487
 20
7.137247
 30
0.0
 10
128.133797
 20
8.118957
 30
0.0
 10
128.071570
 20
9.204810
 30
0.0
  0
LWPOLYLINE
  5
114
100
AcDbEntity
  8
cylindric_bend
 62
7
100
AcDbPolyline
 90
41
 70
0
 10
135.569647
 20
12.537290
 30
0.0
 10
135.172134
 20
12.739214
 30
0.0
 10
134.812721
 20
12.918282
 30
0.0
 10
134.491414
 20
13.074494
 30
0.0
 10
134.208207
 20
13.207850
 30
0.0
 10
133.938964
 20
13.314524
 30
0.0
 10
133.659564
 20
13.390722
 30
0.0
 10
133.370004
 20
13.436444
 30
0.0
 10
133.070287
 20
13.451684
 30
0.0
 10
132.440364
 20
13.366589
 30
0.0
 10
131.891724
 20
13.111316
 30
0.0
 10
131.424367
 20
12.685869
 30
0.0
 10
131.038290
 20
12.090244
 30
0.0
 10
130.816037
 20
11.565729
 30
0.0
 10
130.657284
 20
11.008199
 30
0.0
 10
130.562034
 20
10.417649
 30
0.0
 10
130.530287
 20
9.794084
 30
0.0
 10
130.555687
 20
9.303862
 30
0.0
 10
130.631887
 20
8.828879
 30
0.0
 10
130.758887
 20
8.369142
 30
0.0
 10
130.936687
 20
7.924644
 30
0.0
 10
131.216084
 20
7.444582
 30
0.0
 10
131.546284
 20
7.101679
 30
0.0
 10
131.927284
 20
6.895942
 30
0.0
 10
132.359087
 20
6.827364
 30
0.0
 10
132.897567
 20
6.827364
 30
0.0
 10
133.436050
 20
6.827364
 30
0.0
 10
133.974530
 20
6.827364
 30
0.0
 10
134.513010
 20
6.827364
 30
0.0
 10
134.694614
 20
6.842604
 30
0.0
 10
134.873684
 20
6.888322
 30
0.0
 10
135.050214
 20
6.964524
 30
0.0
 10
135.224210
 20
7.071207
 30
0.0
 10
135.375334
 20
7.202014
 30
0.0
 10
135.483284
 20
7.350602
 30
0.0
 10
135.548054
 20
7.516974
 30
0.0
 10
135.569644
 20
7.701127
 30
0.0
 10
135.569644
 20
8.910167
 30
0.0
 10
135.569644
 20
10.119207
 30
0.0
 10
135.569644
 20
11.328247
 30
0.0
 10
135.569644
 20
12.537287
 30
0.0
  0
ENDSEC
  0
SECTION
  2
OBJECTS
  0
DICTIONARY
  5
C
330
0
100
AcDbDictionary
  3
ACAD_GROUP
350
D
  3
ACAD_MLINESTYLE
350
17
  0
DICTIONARY
  5
D
330
C
100
AcDbDictionary
  0
DICTIONARY
  5
1A
330
C
100
AcDbDictionary
  0
DICTIONARY
  5
17
330
C
100
AcDbDictionary
  3
STANDARD
350
18
  0
DICTIONARY
  5
19
330
C
100
AcDbDictionary
  0
ENDSEC
  0
EOF
