<?xml version="1.0" encoding="UTF-8" standalone="no"?>
<!-- Created with Inkscape (http://www.inkscape.org/) -->

<svg
   xmlns:dc="http://purl.org/dc/elements/1.1/"
   xmlns:cc="http://creativecommons.org/ns#"
   xmlns:rdf="http://www.w3.org/1999/02/22-rdf-syntax-ns#"
   xmlns:svg="http://www.w3.org/2000/svg"
   xmlns="http://www.w3.org/2000/svg"
   xmlns:sodipodi="http://sodipodi.sourceforge.net/DTD/sodipodi-0.dtd"
   xmlns:inkscape="http://www.inkscape.org/namespaces/inkscape"
   width="744.09448819"
   height="1052.3622047"
   id="svg2"
   version="1.1"
   inkscape:version="0.48.4 r9939"
   sodipodi:docname="fishA.dxf">
  <defs
     id="defs4" />
  <sodipodi:namedview
     id="base"
     pagecolor="#ffffff"
     bordercolor="#666666"
     borderopacity="1.0"
     inkscape:pageopacity="0.0"
     inkscape:pageshadow="2"
     inkscape:zoom="3.959798"
     inkscape:cx="220.64234"
     inkscape:cy="466.80898"
     inkscape:document-units="px"
     inkscape:current-layer="layer1"
     showgrid="false"
     inkscape:window-width="1920"
     inkscape:window-height="1021"
     inkscape:window-x="0"
     inkscape:window-y="27"
     inkscape:window-maximized="1" />
  <metadata
     id="metadata7">
    <rdf:RDF>
      <cc:Work
         rdf:about="">
        <dc:format>image/svg+xml</dc:format>
        <dc:type
           rdf:resource="http://purl.org/dc/dcmitype/StillImage" />
        <dc:title></dc:title>
      </cc:Work>
    </rdf:RDF>
  </metadata>
  <g
     inkscape:label="A"
     inkscape:groupmode="layer"
     id="layer1"
     style="display:inline">
    <path
       style="font-size:medium;font-style:normal;font-variant:normal;font-weight:normal;font-stretch:normal;text-indent:0;text-align:start;text-decoration:none;line-height:normal;letter-spacing:normal;word-spacing:normal;text-transform:none;direction:ltr;block-progression:tb;writing-mode:lr-tb;text-anchor:start;baseline-shift:baseline;color:#000000;fill:#000000;fill-opacity:1;stroke:none;stroke-width:20;marker:none;visibility:visible;display:inline;overflow:visible;enable-background:accumulate;font-family:Sans;-inkscape-font-specification:Sans"
       d="M 278.5625 295.9375 L 273.625 296.1875 L 268.71875 297 L 263.9375 298.46875 L 259.375 300.71875 L 255.15625 303.8125 L 251.5 307.65625 L 248.40625 312.1875 L 246 317.3125 L 243.03125 329.09375 L 242.3125 343.1875 L 243.78125 359.96875 L 247.375 379.90625 L 250.9375 394.9375 L 255.5625 411.71875 L 261.25 430.21875 L 267.96875 450.4375 L 250.25 496.28125 L 227.375 550.375 L 198.96875 613.375 L 164.5625 685.875 L 163.875 687.71875 L 163.53125 689.65625 L 163.59375 691.65625 L 164.03125 693.5625 L 164.875 695.375 L 166.03125 696.96875 L 167.46875 698.3125 L 169.15625 699.34375 L 171 700.03125 L 172.96875 700.3125 L 174.9375 700.25 L 176.84375 699.78125 L 178.625 698.9375 L 180.21875 697.75 L 181.53125 696.28125 L 182.5625 694.59375 L 213.1875 630.25 L 231.96875 589.03125 L 245.25 583.71875 L 258.96875 578.6875 L 269.65625 575.71875 L 278.4375 574.6875 L 287.0625 575.5 L 297.34375 578.21875 L 310.4375 583.03125 L 322.5625 588.0625 L 340.9375 630.15625 L 370.21875 694.4375 L 371.21875 696.125 L 372.53125 697.59375 L 374.09375 698.78125 L 375.84375 699.625 L 377.75 700.125 L 379.71875 700.21875 L 381.65625 699.96875 L 383.5 699.3125 L 385.1875 698.3125 L 386.65625 697 L 387.84375 695.4375 L 388.6875 693.6875 L 389.1875 691.78125 L 389.28125 689.8125 L 389 687.875 L 388.375 686.03125 L 355.46875 613.53125 L 328.21875 550.53125 L 306.25 496.40625 L 289.1875 450.5625 L 296.1875 430.25 L 302.09375 411.65625 L 306.875 394.78125 L 310.5625 379.6875 L 314.21875 359.75 L 315.65625 342.9375 L 314.84375 328.84375 L 311.71875 317.0625 L 309.21875 311.9375 L 306.03125 307.4375 L 302.25 303.625 L 297.96875 300.59375 L 293.34375 298.40625 L 288.5 296.96875 L 283.5625 296.1875 L 278.5625 295.9375 z M 278.5625 315.9375 L 281.53125 316.0625 L 284.0625 316.46875 L 286.21875 317.09375 L 287.96875 317.90625 L 289.46875 318.9375 L 290.78125 320.25 L 292 322.0625 L 293.15625 324.5 L 294.90625 331.8125 L 295.4375 342.625 L 294.28125 357.09375 L 291.03125 375.40625 L 288.75 385.0625 L 285.9375 395.59375 L 282.59375 406.96875 L 278.75 419.1875 L 275.09375 407.09375 L 271.875 395.78125 L 269.15625 385.3125 L 266.9375 375.71875 L 263.71875 357.3125 L 262.5625 342.75 L 263 331.84375 L 264.6875 324.4375 L 265.78125 321.96875 L 266.96875 320.1875 L 268.21875 318.875 L 269.625 317.875 L 271.28125 317.0625 L 273.28125 316.46875 L 275.71875 316.0625 L 278.5625 315.9375 z M 278.40625 479.5 L 295.34375 523.21875 L 311.4375 562.03125 L 303.09375 558.96875 L 290.34375 555.6875 L 278.1875 554.6875 L 265.96875 556 L 253.03125 559.46875 L 243.65625 562.90625 L 260.78125 523.25 L 278.40625 479.5 z "
       id="path2991" />
  </g>
</svg>
