  0
SECTION
  2
HEADER
  9
$ACADVER
  1
AC1014
  9
$HANDSEED
  5
FFFF
  9
$MEASUREMENT
 70
     1
  0
ENDSEC
  0
SECTION
  2
TABLES
  0
TABLE
  2
VPORT
  5
8
330
0
100
AcDbSymbolTable
 70
     4
  0
VPORT
  5
2E
330
8
100
AcDbSymbolTableRecord
100
AcDbViewportTableRecord
  2
*ACTIVE
 70
     0
 10
0.0
 20
0.0
 11
1.0
 21
1.0
 12
210.0
 22
148.5
 13
0.0
 23
0.0
 14
10.0
 24
10.0
 15
10.0
 25
10.0
 16
0.0
 26
0.0
 36
1.0
 17
0.0
 27
0.0
 37
0.0
 40
341.0
 41
1.24
 42
50.0
 43
0.0
 44
0.0
 50
0.0
 51
0.0
 71
     0
 72
   100
 73
     1
 74
     3
 75
     0
 76
     0
 77
     0
 78
     0
  0
ENDTAB
  0
TABLE
  2
LTYPE
  5
5
330
0
100
AcDbSymbolTable
 70
     1
  0
LTYPE
  5
14
330
5
100
AcDbSymbolTableRecord
100
AcDbLinetypeTableRecord
  2
BYBLOCK
 70
     0
  3

 72
    65
 73
     0
 40
0.0
  0
LTYPE
  5
15
330
5
100
AcDbSymbolTableRecord
100
AcDbLinetypeTableRecord
  2
BYLAYER
 70
     0
  3

 72
    65
 73
     0
 40
0.0
  0
LTYPE
  5
16
330
5
100
AcDbSymbolTableRecord
100
AcDbLinetypeTableRecord
  2
CONTINUOUS
 70
     0
  3
Solid line
 72
    65
 73
     0
 40
0.0
  0
ENDTAB
  0
TABLE
  2
LAYER
  5
2
100
AcDbSymbolTable
 70
2
  0
LAYER
  5
50
100
AcDbSymbolTableRecord
100
AcDbLayerTableRecord
  2
0
 70
0
  6
CONTINUOUS
  0
LAYER
  5
51
100
AcDbSymbolTableRecord
100
AcDbLayerTableRecord
  2
A
 70
0
  6
CONTINUOUS
  0
ENDTAB
  0
TABLE
  2
STYLE
  5
3
330
0
100
AcDbSymbolTable
 70
     1
  0
STYLE
  5
11
330
3
100
AcDbSymbolTableRecord
100
AcDbTextStyleTableRecord
  2
STANDARD
 70
     0
 40
0.0
 41
1.0
 50
0.0
 71
     0
 42
2.5
  3
txt
  4

  0
ENDTAB
  0
TABLE
  2
VIEW
  5
6
330
0
100
AcDbSymbolTable
 70
     0
  0
ENDTAB
  0
TABLE
  2
UCS
  5
7
330
0
100
AcDbSymbolTable
 70
     0
  0
ENDTAB
  0
TABLE
  2
APPID
  5
9
330
0
100
AcDbSymbolTable
 70
     2
  0
APPID
  5
12
330
9
100
AcDbSymbolTableRecord
100
AcDbRegAppTableRecord
  2
ACAD
 70
     0
  0
ENDTAB
  0
TABLE
  2
DIMSTYLE
  5
A
330
0
100
AcDbSymbolTable
 70
     1
  0
DIMSTYLE
105
27
330
A
100
AcDbSymbolTableRecord
100
AcDbDimStyleTableRecord
  2
ISO-25
 70
     0
  3

  4

  5

  6

  7

 40
1.0
 41
2.5
 42
0.625
 43
3.75
 44
1.25
 45
0.0
 46
0.0
 47
0.0
 48
0.0
140
2.5
141
2.5
142
0.0
143
0.03937007874016
144
1.0
145
0.0
146
1.0
147
0.625
 71
     0
 72
     0
 73
     0
 74
     0
 75
     0
 76
     0
 77
     1
 78
     8
170
     0
171
     3
172
     1
173
     0
174
     0
175
     0
176
     0
177
     0
178
     0
270
     2
271
     2
272
     2
273
     2
274
     3
340
11
275
     0
280
     0
281
     0
282
     0
283
     0
284
     8
285
     0
286
     0
287
     3
288
     0
  0
ENDTAB
  0
TABLE
  2
BLOCK_RECORD
  5
1
330
0
100
AcDbSymbolTable
 70
     1
  0
BLOCK_RECORD
  5
1F
330
1
100
AcDbSymbolTableRecord
100
AcDbBlockTableRecord
  2
*MODEL_SPACE
  0
BLOCK_RECORD
  5
1B
330
1
100
AcDbSymbolTableRecord
100
AcDbBlockTableRecord
  2
*PAPER_SPACE
  0
ENDTAB
  0
ENDSEC
  0
SECTION
  2
BLOCKS
  0
BLOCK
  5
20
330
1F
100
AcDbEntity
  8
0
100
AcDbBlockBegin
  2
*MODEL_SPACE
 70
     0
 10
0.0
 20
0.0
 30
0.0
  3
*MODEL_SPACE
  1

  0
ENDBLK
  5
21
330
1F
100
AcDbEntity
  8
0
100
AcDbBlockEnd
  0
BLOCK
  5
1C
330
1B
100
AcDbEntity
 67
     1
  8
0
100
AcDbBlockBegin
  2
*PAPER_SPACE
  1

  0
ENDBLK
  5
1D
330
1B
100
AcDbEntity
 67
     1
  8
0
100
AcDbBlockEnd
  0
ENDSEC
  0
SECTION
  2
ENTITIES
  0
LWPOLYLINE
  5
100
100
AcDbEntity
  8
A
 62
7
100
AcDbPolyline
 90
86
 70
0
 10
32.605486
 20
114.264711
 30
0.0
 10
31.212014
 20
114.194155
 30
0.0
 10
29.827361
 20
113.964850
 30
0.0
 10
28.477986
 20
113.550336
 30
0.0
 10
27.190347
 20
112.915336
 30
0.0
 10
25.999722
 20
112.042211
 30
0.0
 10
24.967847
 20
110.957419
 30
0.0
 10
24.094722
 20
109.678600
 30
0.0
 10
23.415625
 20
108.232211
 30
0.0
 10
22.577777
 20
104.907280
 30
0.0
 10
22.374930
 20
100.929711
 30
0.0
 10
22.789444
 20
96.193669
 30
0.0
 10
23.803680
 20
90.566864
 30
0.0
 10
24.809097
 20
86.324711
 30
0.0
 10
26.114375
 20
81.588669
 30
0.0
 10
27.719514
 20
76.367558
 30
0.0
 10
29.615694
 20
70.661378
 30
0.0
 10
24.615069
 20
57.723253
 30
0.0
 10
18.159236
 20
42.456794
 30
0.0
 10
10.142361
 20
24.676794
 30
0.0
 10
0.432152
 20
4.215683
 30
0.0
 10
0.238125
 20
3.695336
 30
0.0
 10
0.141111
 20
3.148530
 30
0.0
 10
0.158750
 20
2.584086
 30
0.0
 10
0.282222
 20
2.046100
 30
0.0
 10
0.520347
 20
1.534572
 30
0.0
 10
0.846666
 20
1.084780
 30
0.0
 10
1.252361
 20
0.705544
 30
0.0
 10
1.728611
 20
0.414503
 30
0.0
 10
2.248958
 20
0.220475
 30
0.0
 10
2.804583
 20
0.141100
 30
0.0
 10
3.360208
 20
0.158739
 30
0.0
 10
3.898194
 20
0.291030
 30
0.0
 10
4.400902
 20
0.529155
 30
0.0
 10
4.850694
 20
0.864294
 30
0.0
 10
5.221111
 20
1.278808
 30
0.0
 10
5.512152
 20
1.755058
 30
0.0
 10
14.155208
 20
19.914294
 30
0.0
 10
19.455694
 20
31.547141
 30
0.0
 10
23.203958
 20
33.046447
 30
0.0
 10
27.075694
 20
34.466378
 30
0.0
 10
30.091944
 20
35.304225
 30
0.0
 10
32.570208
 20
35.595266
 30
0.0
 10
35.004375
 20
35.365961
 30
0.0
 10
37.905972
 20
34.598669
 30
0.0
 10
41.601319
 20
33.240475
 30
0.0
 10
45.023264
 20
31.820544
 30
0.0
 10
50.209097
 20
19.940753
 30
0.0
 10
58.472916
 20
1.799155
 30
0.0
 10
58.755139
 20
1.322905
 30
0.0
 10
59.125555
 20
0.908391
 30
0.0
 10
59.566527
 20
0.573253
 30
0.0
 10
60.060416
 20
0.335128
 30
0.0
 10
60.598402
 20
0.194016
 30
0.0
 10
61.154027
 20
0.167572
 30
0.0
 10
61.700833
 20
0.238128
 30
0.0
 10
62.221180
 20
0.423336
 30
0.0
 10
62.697430
 20
0.705558
 30
0.0
 10
63.111944
 20
1.075975
 30
0.0
 10
63.447083
 20
1.516947
 30
0.0
 10
63.685208
 20
2.010836
 30
0.0
 10
63.826319
 20
2.548822
 30
0.0
 10
63.852763
 20
3.104447
 30
0.0
 10
63.773402
 20
3.651239
 30
0.0
 10
63.597014
 20
4.171586
 30
0.0
 10
54.310139
 20
24.632697
 30
0.0
 10
46.619583
 20
42.412697
 30
0.0
 10
40.419514
 20
57.687975
 30
0.0
 10
35.604097
 20
70.626100
 30
0.0
 10
37.579652
 20
76.358739
 30
0.0
 10
39.246527
 20
81.606308
 30
0.0
 10
40.595902
 20
86.368808
 30
0.0
 10
41.636597
 20
90.628600
 30
0.0
 10
42.668472
 20
96.255405
 30
0.0
 10
43.074166
 20
101.000266
 30
0.0
 10
42.844861
 20
104.977836
 30
0.0
 10
41.962916
 20
108.302766
 30
0.0
 10
41.257361
 20
109.749155
 30
0.0
 10
40.357777
 20
111.019155
 30
0.0
 10
39.290625
 20
112.095128
 30
0.0
 10
38.082361
 20
112.950614
 30
0.0
 10
36.777083
 20
113.567975
 30
0.0
 10
35.410069
 20
113.973669
 30
0.0
 10
34.016597
 20
114.194155
 30
0.0
 10
32.605486
 20
114.264711
 30
0.0
 10
32.605486
 20
114.264711
 30
0.0
  0
LWPOLYLINE
  5
101
100
AcDbEntity
  8
A
 62
7
100
AcDbPolyline
 90
34
 70
0
 10
32.605486
 20
108.620266
 30
0.0
 10
33.443333
 20
108.584989
 30
0.0
 10
34.157708
 20
108.470336
 30
0.0
 10
34.766250
 20
108.293947
 30
0.0
 10
35.260139
 20
108.064641
 30
0.0
 10
35.683472
 20
107.773600
 30
0.0
 10
36.053889
 20
107.403183
 30
0.0
 10
36.397847
 20
106.891655
 30
0.0
 10
36.724166
 20
106.203739
 30
0.0
 10
37.218055
 20
104.139989
 30
0.0
 10
37.367986
 20
101.088461
 30
0.0
 10
37.041666
 20
97.005058
 30
0.0
 10
36.124444
 20
91.836864
 30
0.0
 10
35.480625
 20
89.111655
 30
0.0
 10
34.686875
 20
86.139503
 30
0.0
 10
33.743194
 20
82.929225
 30
0.0
 10
32.658402
 20
79.480822
 30
0.0
 10
31.626527
 20
82.893947
 30
0.0
 10
30.718125
 20
86.086586
 30
0.0
 10
29.950833
 20
89.041100
 30
0.0
 10
29.324652
 20
91.748669
 30
0.0
 10
28.416250
 20
96.943322
 30
0.0
 10
28.089930
 20
101.053183
 30
0.0
 10
28.213402
 20
104.131169
 30
0.0
 10
28.689652
 20
106.221378
 30
0.0
 10
28.998333
 20
106.918114
 30
0.0
 10
29.333472
 20
107.420822
 30
0.0
 10
29.686250
 20
107.791239
 30
0.0
 10
30.083125
 20
108.073461
 30
0.0
 10
30.550555
 20
108.302766
 30
0.0
 10
31.115000
 20
108.470336
 30
0.0
 10
31.802916
 20
108.584989
 30
0.0
 10
32.605486
 20
108.620266
 30
0.0
 10
32.605486
 20
108.620266
 30
0.0
  0
LWPOLYLINE
  5
102
100
AcDbEntity
  8
A
 62
7
100
AcDbPolyline
 90
12
 70
0
 10
32.561389
 20
62.459294
 30
0.0
 10
37.341527
 20
50.120891
 30
0.0
 10
41.883541
 20
39.167141
 30
0.0
 10
39.528750
 20
40.031447
 30
0.0
 10
35.930416
 20
40.957489
 30
0.0
 10
32.499652
 20
41.239711
 30
0.0
 10
29.051250
 20
40.869294
 30
0.0
 10
25.400000
 20
39.890336
 30
0.0
 10
22.754166
 20
38.920197
 30
0.0
 10
27.587222
 20
50.112072
 30
0.0
 10
32.561389
 20
62.459294
 30
0.0
 10
32.561389
 20
62.459294
 30
0.0
  0
LWPOLYLINE
  5
103
100
AcDbEntity
  8
A
 62
7
100
AcDbPolyline
 90
289
 70
0
 10
87.138544
 20
61.444020
 30
0.0
 10
86.705872
 20
61.409188
 30
0.0
 10
86.285039
 20
61.305547
 30
0.0
 10
85.884215
 20
61.138824
 30
0.0
 10
85.511583
 20
60.914746
 30
0.0
 10
85.175313
 20
60.639068
 30
0.0
 10
84.883585
 20
60.317572
 30
0.0
 10
84.644571
 20
59.956023
 30
0.0
 10
84.466447
 20
59.560186
 30
0.0
 10
84.356877
 20
59.140177
 30
0.0
 10
84.316237
 20
58.708677
 30
0.0
 10
84.341778
 20
58.275305
 30
0.0
 10
84.430743
 20
57.849674
 30
0.0
 10
84.580383
 20
57.441403
 30
0.0
 10
84.787949
 20
57.060112
 30
0.0
 10
85.050683
 20
56.715417
 30
0.0
 10
85.365838
 20
56.416936
 30
0.0
 10
85.554611
 20
56.227972
 30
0.0
 10
85.802032
 20
55.922251
 30
0.0
 10
86.096221
 20
55.506713
 30
0.0
 10
86.425297
 20
54.988308
 30
0.0
 10
86.777387
 20
54.373975
 30
0.0
 10
87.140604
 20
53.670660
 30
0.0
 10
87.503076
 20
52.885303
 30
0.0
 10
87.852921
 20
52.024853
 30
0.0
 10
88.186500
 20
51.095862
 30
0.0
 10
88.506396
 20
50.103580
 30
0.0
 10
88.810064
 20
49.052985
 30
0.0
 10
89.094964
 20
47.949056
 30
0.0
 10
89.358554
 20
46.796771
 30
0.0
 10
89.598294
 20
45.601111
 30
0.0
 10
89.811640
 20
44.367052
 30
0.0
 10
89.996046
 20
43.099575
 30
0.0
 10
90.267220
 20
40.484024
 30
0.0
 10
90.395834
 20
37.790408
 30
0.0
 10
90.369079
 20
35.053115
 30
0.0
 10
90.174123
 20
32.306539
 30
0.0
 10
89.798158
 20
29.585073
 30
0.0
 10
89.228371
 20
26.923114
 30
0.0
 10
88.451941
 20
24.355047
 30
0.0
 10
87.456058
 20
21.915270
 30
0.0
 10
87.376415
 20
21.747680
 30
0.0
 10
87.300632
 20
21.591863
 30
0.0
 10
87.227762
 20
21.444924
 30
0.0
 10
87.156863
 20
21.303976
 30
0.0
 10
87.086982
 20
21.166128
 30
0.0
 10
87.017168
 20
21.028488
 30
0.0
 10
86.946483
 20
20.888170
 30
0.0
 10
86.873974
 20
20.742283
 30
0.0
 10
86.863109
 20
20.792059
 30
0.0
 10
86.853118
 20
20.834531
 30
0.0
 10
86.843720
 20
20.872227
 30
0.0
 10
86.834576
 20
20.907669
 30
0.0
 10
86.825404
 20
20.943384
 30
0.0
 10
86.815893
 20
20.981899
 30
0.0
 10
86.805733
 20
21.025736
 30
0.0
 10
86.794613
 20
21.077422
 30
0.0
 10
86.227369
 20
23.828533
 30
0.0
 10
85.525237
 20
27.045951
 30
0.0
 10
84.637200
 20
30.665285
 30
0.0
 10
83.512242
 20
34.622139
 30
0.0
 10
82.099251
 20
38.852102
 30
0.0
 10
80.347035
 20
43.290744
 30
0.0
 10
78.204455
 20
47.873641
 30
0.0
 10
75.620377
 20
52.536381
 30
0.0
 10
74.856774
 20
53.786662
 30
0.0
 10
74.139634
 20
54.923444
 30
0.0
 10
73.462049
 20
55.952906
 30
0.0
 10
72.817112
 20
56.881223
 30
0.0
 10
72.197916
 20
57.714574
 30
0.0
 10
71.597559
 20
58.459133
 30
0.0
 10
71.009132
 20
59.121080
 30
0.0
 10
70.425725
 20
59.706589
 30
0.0
 10
70.131892
 20
59.978490
 30
0.0
 10
69.828765
 20
60.241061
 30
0.0
 10
69.509106
 20
60.488630
 30
0.0
 10
69.165679
 20
60.715522
 30
0.0
 10
68.791240
 20
60.916069
 30
0.0
 10
68.378552
 20
61.084595
 30
0.0
 10
67.920376
 20
61.215434
 30
0.0
 10
67.409475
 20
61.302908
 30
0.0
 10
66.862215
 20
61.310077
 30
0.0
 10
66.309996
 20
61.214618
 30
0.0
 10
65.768118
 20
61.032802
 30
0.0
 10
65.251883
 20
60.780902
 30
0.0
 10
64.776592
 20
60.475190
 30
0.0
 10
64.357546
 20
60.131940
 30
0.0
 10
64.010051
 20
59.767425
 30
0.0
 10
63.749405
 20
59.397911
 30
0.0
 10
63.382855
 20
58.677604
 30
0.0
 10
63.120594
 20
57.975997
 30
0.0
 10
62.945995
 20
57.282537
 30
0.0
 10
62.842419
 20
56.586676
 30
0.0
 10
62.793236
 20
55.877866
 30
0.0
 10
62.781806
 20
55.145562
 30
0.0
 10
62.791515
 20
54.379207
 30
0.0
 10
62.805710
 20
53.568259
 30
0.0
 10
62.824930
 20
52.711686
 30
0.0
 10
62.859844
 20
51.816889
 30
0.0
 10
62.908984
 20
50.885971
 30
0.0
 10
62.970898
 20
49.921030
 30
0.0
 10
63.044132
 20
48.924168
 30
0.0
 10
63.127235
 20
47.897483
 30
0.0
 10
63.218751
 20
46.843078
 30
0.0
 10
63.317227
 20
45.763050
 30
0.0
 10
63.529972
 20
43.535171
 30
0.0
 10
63.755383
 20
41.236367
 30
0.0
 10
63.983034
 20
38.891058
 30
0.0
 10
64.202502
 20
36.523662
 30
0.0
 10
64.403362
 20
34.158597
 30
0.0
 10
64.575193
 20
31.820285
 30
0.0
 10
64.707572
 20
29.533144
 30
0.0
 10
64.790074
 20
27.321592
 30
0.0
 10
64.808955
 20
26.251826
 30
0.0
 10
64.811213
 20
25.211027
 30
0.0
 10
64.796283
 20
24.203508
 30
0.0
 10
64.763672
 20
23.233589
 30
0.0
 10
64.712867
 20
22.305586
 30
0.0
 10
64.643350
 20
21.423816
 30
0.0
 10
64.554608
 20
20.592596
 30
0.0
 10
64.446130
 20
19.816245
 30
0.0
 10
64.314479
 20
19.103021
 30
0.0
 10
64.161348
 20
18.460082
 30
0.0
 10
63.993920
 20
17.890072
 30
0.0
 10
63.819382
 20
17.395644
 30
0.0
 10
63.644912
 20
16.979446
 30
0.0
 10
63.477699
 20
16.644126
 30
0.0
 10
63.324923
 20
16.392339
 30
0.0
 10
63.193769
 20
16.226731
 30
0.0
 10
62.995877
 20
16.021058
 30
0.0
 10
62.820273
 20
15.796158
 30
0.0
 10
62.668113
 20
15.554672
 30
0.0
 10
62.540560
 20
15.299233
 30
0.0
 10
62.438768
 20
15.032479
 30
0.0
 10
62.363897
 20
14.757047
 30
0.0
 10
62.317105
 20
14.475573
 30
0.0
 10
62.299551
 20
14.190695
 30
0.0
 10
62.312025
 20
13.905552
 30
0.0
 10
62.353785
 20
13.623287
 30
0.0
 10
62.423726
 20
13.346563
 30
0.0
 10
62.520737
 20
13.078034
 30
0.0
 10
62.643709
 20
12.820359
 30
0.0
 10
62.791532
 20
12.576192
 30
0.0
 10
62.963095
 20
12.348196
 30
0.0
 10
63.157283
 20
12.139021
 30
0.0
 10
63.372370
 20
11.951403
 30
0.0
 10
63.605571
 20
11.786983
 30
0.0
 10
63.854197
 20
11.646792
 30
0.0
 10
64.115557
 20
11.531857
 30
0.0
 10
64.386962
 20
11.443205
 30
0.0
 10
64.665719
 20
11.381867
 30
0.0
 10
64.949140
 20
11.348870
 30
0.0
 10
65.234535
 20
11.345229
 30
0.0
 10
65.518732
 20
11.371588
 30
0.0
 10
65.798621
 20
11.427073
 30
0.0
 10
66.071603
 20
11.510436
 30
0.0
 10
66.335077
 20
11.620441
 30
0.0
 10
66.586444
 20
11.755842
 30
0.0
 10
66.823101
 20
11.915405
 30
0.0
 10
67.042456
 20
12.097890
 30
0.0
 10
67.241902
 20
12.302058
 30
0.0
 10
67.840482
 20
12.993652
 30
0.0
 10
68.347604
 20
13.730726
 30
0.0
 10
68.773096
 20
14.510176
 30
0.0
 10
69.126786
 20
15.328889
 30
0.0
 10
69.418499
 20
16.183762
 30
0.0
 10
69.658058
 20
17.071690
 30
0.0
 10
69.855291
 20
17.989564
 30
0.0
 10
70.020027
 20
18.934280
 30
0.0
 10
70.156812
 20
19.907055
 30
0.0
 10
70.264979
 20
20.910008
 30
0.0
 10
70.346541
 20
21.941372
 30
0.0
 10
70.403514
 20
22.999390
 30
0.0
 10
70.437905
 20
24.082290
 30
0.0
 10
70.451734
 20
25.188316
 30
0.0
 10
70.446993
 20
26.315701
 30
0.0
 10
70.425713
 20
27.462683
 30
0.0
 10
70.339271
 20
29.806954
 30
0.0
 10
70.202662
 20
32.199642
 30
0.0
 10
70.026702
 20
34.617733
 30
0.0
 10
69.822209
 20
37.038198
 30
0.0
 10
69.599999
 20
39.438018
 30
0.0
 10
69.370888
 20
41.794170
 30
0.0
 10
69.145694
 20
44.083630
 30
0.0
 10
68.935227
 20
46.283378
 30
0.0
 10
68.845878
 20
47.268271
 30
0.0
 10
68.764026
 20
48.222352
 30
0.0
 10
68.690334
 20
49.143485
 30
0.0
 10
68.625477
 20
50.029533
 30
0.0
 10
68.570125
 20
50.878362
 30
0.0
 10
68.524947
 20
51.687837
 30
0.0
 10
68.490611
 20
52.455823
 30
0.0
 10
68.467808
 20
53.180183
 30
0.0
 10
68.724444
 20
52.814370
 30
0.0
 10
68.989290
 20
52.430480
 30
0.0
 10
69.262997
 20
52.026343
 30
0.0
 10
69.546221
 20
51.599790
 30
0.0
 10
69.839611
 20
51.148646
 30
0.0
 10
70.143824
 20
50.670739
 30
0.0
 10
70.459509
 20
50.163897
 30
0.0
 10
70.787322
 20
49.625947
 30
0.0
 10
73.171665
 20
45.324296
 30
0.0
 10
75.153390
 20
41.085905
 30
0.0
 10
76.780282
 20
36.963395
 30
0.0
 10
78.100131
 20
33.009391
 30
0.0
 10
79.160722
 20
29.276514
 30
0.0
 10
80.009844
 20
25.817390
 30
0.0
 10
80.695280
 20
22.684636
 30
0.0
 10
81.264822
 20
19.930878
 30
0.0
 10
81.394396
 20
19.307962
 30
0.0
 10
81.520546
 20
18.711762
 30
0.0
 10
81.645060
 20
18.141050
 30
0.0
 10
81.769717
 20
17.594603
 30
0.0
 10
81.896308
 20
17.071199
 30
0.0
 10
82.026613
 20
16.569611
 30
0.0
 10
82.162424
 20
16.088617
 30
0.0
 10
82.305516
 20
15.626989
 30
0.0
 10
82.380093
 20
15.402738
 30
0.0
 10
82.457803
 20
15.181557
 30
0.0
 10
82.540599
 20
14.962296
 30
0.0
 10
82.630433
 20
14.743794
 30
0.0
 10
82.729262
 20
14.524900
 30
0.0
 10
82.839040
 20
14.304453
 30
0.0
 10
82.961722
 20
14.081297
 30
0.0
 10
83.099266
 20
13.854280
 30
0.0
 10
83.260048
 20
13.615774
 30
0.0
 10
83.453108
 20
13.365192
 30
0.0
 10
83.681386
 20
13.111932
 30
0.0
 10
83.947827
 20
12.865396
 30
0.0
 10
84.255373
 20
12.634984
 30
0.0
 10
84.606965
 20
12.430094
 30
0.0
 10
85.005545
 20
12.260131
 30
0.0
 10
85.454058
 20
12.134489
 30
0.0
 10
85.922445
 20
12.071150
 30
0.0
 10
86.375434
 20
12.074931
 30
0.0
 10
86.808146
 20
12.135502
 30
0.0
 10
87.215700
 20
12.242518
 30
0.0
 10
87.593221
 20
12.385638
 30
0.0
 10
87.935824
 20
12.554523
 30
0.0
 10
88.238632
 20
12.738834
 30
0.0
 10
88.496766
 20
12.928233
 30
0.0
 10
88.720371
 20
13.118005
 30
0.0
 10
88.924835
 20
13.310709
 30
0.0
 10
89.113142
 20
13.506904
 30
0.0
 10
89.288275
 20
13.707147
 30
0.0
 10
89.453215
 20
13.912001
 30
0.0
 10
89.610943
 20
14.122025
 30
0.0
 10
89.764441
 20
14.337781
 30
0.0
 10
89.916697
 20
14.559830
 30
0.0
 10
90.222010
 20
15.028277
 30
0.0
 10
90.529229
 20
15.534045
 30
0.0
 10
90.841031
 20
16.080060
 30
0.0
 10
91.160095
 20
16.669252
 30
0.0
 10
91.489098
 20
17.304549
 30
0.0
 10
91.830719
 20
17.988881
 30
0.0
 10
92.187637
 20
18.725174
 30
0.0
 10
92.562530
 20
19.516358
 30
0.0
 10
93.774263
 20
22.463794
 30
0.0
 10
94.706428
 20
25.498518
 30
0.0
 10
95.379884
 20
28.590184
 30
0.0
 10
95.815486
 20
31.708440
 30
0.0
 10
96.034084
 20
34.822937
 30
0.0
 10
96.056548
 20
37.903325
 30
0.0
 10
95.903711
 20
40.919259
 30
0.0
 10
95.596433
 20
43.840386
 30
0.0
 10
95.390620
 20
45.256077
 30
0.0
 10
95.151899
 20
46.637431
 30
0.0
 10
94.882027
 20
47.981275
 30
0.0
 10
94.582764
 20
49.284436
 30
0.0
 10
94.255872
 20
50.543745
 30
0.0
 10
93.903103
 20
51.756031
 30
0.0
 10
93.526223
 20
52.918120
 30
0.0
 10
93.126989
 20
54.026844
 30
0.0
 10
92.712257
 20
55.079415
 30
0.0
 10
92.282543
 20
56.074341
 30
0.0
 10
91.830093
 20
57.010399
 30
0.0
 10
91.347149
 20
57.886371
 30
0.0
 10
90.825963
 20
58.701028
 30
0.0
 10
90.258776
 20
59.453151
 30
0.0
 10
89.637839
 20
60.141516
 30
0.0
 10
88.955391
 20
60.764900
 30
0.0
 10
88.760503
 20
60.917178
 30
0.0
 10
88.552892
 20
61.051519
 30
0.0
 10
88.334316
 20
61.167264
 30
0.0
 10
88.106535
 20
61.263753
 30
0.0
 10
87.871311
 20
61.340328
 30
0.0
 10
87.630403
 20
61.396332
 30
0.0
 10
87.385576
 20
61.431108
 30
0.0
 10
87.138544
 20
61.444020
 30
0.0
  0
LWPOLYLINE
  5
104
100
AcDbEntity
  8
A
 62
7
100
AcDbPolyline
 90
73
 70
0
 10
102.852361
 20
61.383322
 30
0.0
 10
102.523583
 20
61.370340
 30
0.0
 10
102.198875
 20
61.318213
 30
0.0
 10
101.882202
 20
61.228817
 30
0.0
 10
101.577532
 20
61.104038
 30
0.0
 10
101.288836
 20
60.945779
 30
0.0
 10
101.020078
 20
60.755925
 30
0.0
 10
100.775228
 20
60.536376
 30
0.0
 10
100.558255
 20
60.289019
 30
0.0
 10
100.373216
 20
60.016949
 30
0.0
 10
100.222084
 20
59.724866
 30
0.0
 10
100.105695
 20
59.417085
 30
0.0
 10
100.024892
 20
59.097926
 30
0.0
 10
99.980507
 20
58.771703
 30
0.0
 10
99.973367
 20
58.442730
 30
0.0
 10
100.004329
 20
58.115324
 30
0.0
 10
100.074225
 20
57.793800
 30
0.0
 10
101.252714
 20
52.957727
 30
0.0
 10
102.211290
 20
47.928886
 30
0.0
 10
102.884780
 20
42.743936
 30
0.0
 10
103.208014
 20
37.439524
 30
0.0
 10
103.115824
 20
32.052305
 30
0.0
 10
102.543037
 20
26.618929
 30
0.0
 10
101.424483
 20
21.176053
 30
0.0
 10
99.694988
 20
15.760327
 30
0.0
 10
99.604960
 20
15.495724
 30
0.0
 10
99.542078
 20
15.223465
 30
0.0
 10
99.506292
 20
14.946257
 30
0.0
 10
99.497571
 20
14.666807
 30
0.0
 10
99.515859
 20
14.387816
 30
0.0
 10
99.561091
 20
14.111992
 30
0.0
 10
99.633238
 20
13.842040
 30
0.0
 10
99.732256
 20
13.580669
 30
0.0
 10
99.857594
 20
13.330846
 30
0.0
 10
100.007434
 20
13.094993
 30
0.0
 10
100.179815
 20
12.874972
 30
0.0
 10
100.372782
 20
12.672653
 30
0.0
 10
100.584369
 20
12.489897
 30
0.0
 10
100.812619
 20
12.328567
 30
0.0
 10
101.055573
 20
12.190535
 30
0.0
 10
101.311269
 20
12.077663
 30
0.0
 10
101.577205
 20
11.991650
 30
0.0
 10
101.850384
 20
11.932897
 30
0.0
 10
102.128102
 20
11.901314
 30
0.0
 10
102.407655
 20
11.896827
 30
0.0
 10
102.686335
 20
11.919320
 30
0.0
 10
102.961443
 20
11.968726
 30
0.0
 10
103.230270
 20
12.044951
 30
0.0
 10
103.490115
 20
12.147914
 30
0.0
 10
103.738008
 20
12.277022
 30
0.0
 10
103.971567
 20
12.430416
 30
0.0
 10
104.188951
 20
12.606110
 30
0.0
 10
104.388327
 20
12.802116
 30
0.0
 10
104.567860
 20
13.016447
 30
0.0
 10
104.725712
 20
13.247113
 30
0.0
 10
104.860050
 20
13.492127
 30
0.0
 10
104.969039
 20
13.749503
 30
0.0
 10
106.886736
 20
19.744571
 30
0.0
 10
108.123298
 20
25.732684
 30
0.0
 10
108.755262
 20
31.673371
 30
0.0
 10
108.859159
 20
37.526163
 30
0.0
 10
108.511515
 20
43.250592
 30
0.0
 10
107.788862
 20
48.806190
 30
0.0
 10
106.767734
 20
54.152490
 30
0.0
 10
105.524664
 20
59.249016
 30
0.0
 10
105.374417
 20
59.680582
 30
0.0
 10
105.153454
 20
60.079611
 30
0.0
 10
104.870876
 20
60.438829
 30
0.0
 10
104.535785
 20
60.750969
 30
0.0
 10
104.157286
 20
61.008760
 30
0.0
 10
103.744482
 20
61.204929
 30
0.0
 10
103.306476
 20
61.332206
 30
0.0
 10
102.852361
 20
61.383322
 30
0.0
  0
LWPOLYLINE
  5
105
100
AcDbEntity
  8
A
 62
7
100
AcDbPolyline
 90
118
 70
0
 10
118.930208
 20
61.568530
 30
0.0
 10
116.972291
 20
61.462697
 30
0.0
 10
114.890902
 20
61.127558
 30
0.0
 10
112.668402
 20
60.554294
 30
0.0
 10
110.260694
 20
59.681169
 30
0.0
 10
109.775625
 20
59.425405
 30
0.0
 10
109.343472
 20
59.072628
 30
0.0
 10
108.990694
 20
58.649294
 30
0.0
 10
108.726111
 20
58.164225
 30
0.0
 10
108.558541
 20
57.635058
 30
0.0
 10
108.505625
 20
57.079433
 30
0.0
 10
108.558541
 20
56.532628
 30
0.0
 10
108.717291
 20
56.003461
 30
0.0
 10
108.973055
 20
55.509572
 30
0.0
 10
109.325833
 20
55.077419
 30
0.0
 10
109.749166
 20
54.724641
 30
0.0
 10
110.234236
 20
54.460058
 30
0.0
 10
110.763402
 20
54.301308
 30
0.0
 10
111.310208
 20
54.248391
 30
0.0
 10
111.865833
 20
54.292489
 30
0.0
 10
112.395000
 20
54.451239
 30
0.0
 10
116.099166
 20
55.703600
 30
0.0
 10
119.000764
 20
56.065197
 30
0.0
 10
121.681875
 20
55.774155
 30
0.0
 10
122.069930
 20
55.677141
 30
0.0
 10
121.805347
 20
54.707003
 30
0.0
 10
121.152708
 20
51.214503
 30
0.0
 10
120.808750
 20
47.924850
 30
0.0
 10
120.711736
 20
44.838044
 30
0.0
 10
120.791111
 20
41.936447
 30
0.0
 10
121.002777
 20
39.211239
 30
0.0
 10
121.258541
 20
36.644780
 30
0.0
 10
121.523125
 20
34.228253
 30
0.0
 10
121.734791
 20
31.952836
 30
0.0
 10
121.840625
 20
29.783253
 30
0.0
 10
121.805347
 20
27.693044
 30
0.0
 10
121.558402
 20
25.620475
 30
0.0
 10
121.046875
 20
23.530266
 30
0.0
 10
120.217847
 20
21.369503
 30
0.0
 10
119.018402
 20
19.111725
 30
0.0
 10
117.386805
 20
16.695197
 30
0.0
 10
117.228055
 20
16.465891
 30
0.0
 10
117.086944
 20
16.218947
 30
0.0
 10
116.972291
 20
15.963183
 30
0.0
 10
116.884097
 20
15.689780
 30
0.0
 10
116.822361
 20
15.416378
 30
0.0
 10
116.787083
 20
15.134155
 30
0.0
 10
116.787083
 20
14.860753
 30
0.0
 10
116.804722
 20
14.578530
 30
0.0
 10
116.857639
 20
14.296308
 30
0.0
 10
116.937014
 20
14.031725
 30
0.0
 10
117.042847
 20
13.767141
 30
0.0
 10
117.175139
 20
13.520197
 30
0.0
 10
117.333889
 20
13.282072
 30
0.0
 10
117.510277
 20
13.061586
 30
0.0
 10
117.704305
 20
12.858739
 30
0.0
 10
117.924791
 20
12.682350
 30
0.0
 10
118.162916
 20
12.523600
 30
0.0
 10
118.409861
 20
12.400128
 30
0.0
 10
118.674444
 20
12.294294
 30
0.0
 10
118.939027
 20
12.214919
 30
0.0
 10
119.221250
 20
12.162003
 30
0.0
 10
119.494652
 20
12.135558
 30
0.0
 10
119.776875
 20
12.135558
 30
0.0
 10
120.059097
 20
12.162003
 30
0.0
 10
120.332500
 20
12.223739
 30
0.0
 10
120.605902
 20
12.311933
 30
0.0
 10
120.861666
 20
12.426586
 30
0.0
 10
121.108611
 20
12.567697
 30
0.0
 10
121.337916
 20
12.726447
 30
0.0
 10
121.549583
 20
12.911655
 30
0.0
 10
121.743611
 20
13.114503
 30
0.0
 10
121.920000
 20
13.334989
 30
0.0
 10
123.842639
 20
16.245405
 30
0.0
 10
125.289027
 20
19.076447
 30
0.0
 10
126.312083
 20
21.845753
 30
0.0
 10
126.964722
 20
24.553322
 30
0.0
 10
127.317500
 20
27.199155
 30
0.0
 10
127.423333
 20
29.783253
 30
0.0
 10
127.335139
 20
32.314433
 30
0.0
 10
127.132291
 20
34.801516
 30
0.0
 10
126.867708
 20
37.253322
 30
0.0
 10
126.611944
 20
39.722766
 30
0.0
 10
126.417916
 20
42.227489
 30
0.0
 10
126.338541
 20
44.820405
 30
0.0
 10
126.417916
 20
47.527975
 30
0.0
 10
126.726597
 20
50.385475
 30
0.0
 10
127.299861
 20
53.428183
 30
0.0
 10
127.590902
 20
54.486516
 30
0.0
 10
128.552222
 20
54.301308
 30
0.0
 10
132.503333
 20
54.080822
 30
0.0
 10
136.622014
 20
54.477697
 30
0.0
 10
140.943541
 20
55.588947
 30
0.0
 10
141.446250
 20
55.818253
 30
0.0
 10
141.896041
 20
56.135753
 30
0.0
 10
142.275277
 20
56.541447
 30
0.0
 10
142.575139
 20
57.008878
 30
0.0
 10
142.769166
 20
57.529225
 30
0.0
 10
142.857361
 20
58.076030
 30
0.0
 10
142.839722
 20
58.622836
 30
0.0
 10
142.725069
 20
59.169641
 30
0.0
 10
142.495764
 20
59.672350
 30
0.0
 10
142.169444
 20
60.122141
 30
0.0
 10
141.772569
 20
60.501378
 30
0.0
 10
141.305139
 20
60.792419
 30
0.0
 10
140.784791
 20
60.986447
 30
0.0
 10
140.237986
 20
61.083461
 30
0.0
 10
139.682361
 20
61.065822
 30
0.0
 10
139.144375
 20
60.942350
 30
0.0
 10
135.634236
 20
60.016308
 30
0.0
 10
132.397500
 20
59.681169
 30
0.0
 10
129.284236
 20
59.866378
 30
0.0
 10
126.144514
 20
60.501378
 30
0.0
 10
124.380625
 20
60.924711
 30
0.0
 10
122.607916
 20
61.268669
 30
0.0
 10
120.799930
 20
61.497975
 30
0.0
 10
118.930208
 20
61.568530
 30
0.0
 10
118.930208
 20
61.568530
 30
0.0
  0
LWPOLYLINE
  5
106
100
AcDbEntity
  8
A
 62
7
100
AcDbPolyline
 90
86
 70
0
 10
158.079730
 20
114.414455
 30
0.0
 10
156.686258
 20
114.343900
 30
0.0
 10
155.301605
 20
114.114594
 30
0.0
 10
153.952230
 20
113.700080
 30
0.0
 10
152.664589
 20
113.065080
 30
0.0
 10
151.473964
 20
112.191955
 30
0.0
 10
150.442089
 20
111.107164
 30
0.0
 10
149.568964
 20
109.828344
 30
0.0
 10
148.889866
 20
108.381955
 30
0.0
 10
148.052019
 20
105.057025
 30
0.0
 10
147.849172
 20
101.079455
 30
0.0
 10
148.263686
 20
96.343414
 30
0.0
 10
149.277922
 20
90.716608
 30
0.0
 10
150.283339
 20
86.474455
 30
0.0
 10
151.588616
 20
81.738414
 30
0.0
 10
153.193755
 20
76.517302
 30
0.0
 10
155.089939
 20
70.811122
 30
0.0
 10
150.089311
 20
57.872997
 30
0.0
 10
143.633480
 20
42.606539
 30
0.0
 10
135.616605
 20
24.826539
 30
0.0
 10
125.906394
 20
4.365427
 30
0.0
 10
125.712369
 20
3.845080
 30
0.0
 10
125.615355
 20
3.298275
 30
0.0
 10
125.632994
 20
2.733830
 30
0.0
 10
125.756464
 20
2.195844
 30
0.0
 10
125.994589
 20
1.684316
 30
0.0
 10
126.320908
 20
1.234525
 30
0.0
 10
126.726605
 20
0.855289
 30
0.0
 10
127.202855
 20
0.564247
 30
0.0
 10
127.723200
 20
0.370219
 30
0.0
 10
128.278825
 20
0.290844
 30
0.0
 10
128.834450
 20
0.308483
 30
0.0
 10
129.372436
 20
0.440775
 30
0.0
 10
129.875144
 20
0.678900
 30
0.0
 10
130.324936
 20
1.014039
 30
0.0
 10
130.695355
 20
1.428552
 30
0.0
 10
130.986394
 20
1.904802
 30
0.0
 10
139.629450
 20
20.064039
 30
0.0
 10
144.929936
 20
31.696886
 30
0.0
 10
148.678200
 20
33.196191
 30
0.0
 10
152.549936
 20
34.616122
 30
0.0
 10
155.566189
 20
35.453969
 30
0.0
 10
158.044453
 20
35.745011
 30
0.0
 10
160.478619
 20
35.515705
 30
0.0
 10
163.380217
 20
34.748414
 30
0.0
 10
167.075564
 20
33.390219
 30
0.0
 10
170.497508
 20
31.970289
 30
0.0
 10
175.683342
 20
20.090497
 30
0.0
 10
183.947161
 20
1.948900
 30
0.0
 10
184.229383
 20
1.472650
 30
0.0
 10
184.599800
 20
1.058136
 30
0.0
 10
185.040772
 20
0.722997
 30
0.0
 10
185.534661
 20
0.484872
 30
0.0
 10
186.072647
 20
0.343761
 30
0.0
 10
186.628272
 20
0.317317
 30
0.0
 10
187.175078
 20
0.387872
 30
0.0
 10
187.695425
 20
0.573080
 30
0.0
 10
188.171675
 20
0.855303
 30
0.0
 10
188.586189
 20
1.225719
 30
0.0
 10
188.921328
 20
1.666692
 30
0.0
 10
189.159453
 20
2.160580
 30
0.0
 10
189.300564
 20
2.698567
 30
0.0
 10
189.327008
 20
3.254192
 30
0.0
 10
189.247647
 20
3.800983
 30
0.0
 10
189.071258
 20
4.321330
 30
0.0
 10
179.784383
 20
24.782441
 30
0.0
 10
172.093828
 20
42.562441
 30
0.0
 10
165.893758
 20
57.837719
 30
0.0
 10
161.078342
 20
70.775844
 30
0.0
 10
163.053897
 20
76.508483
 30
0.0
 10
164.720772
 20
81.756052
 30
0.0
 10
166.070147
 20
86.518552
 30
0.0
 10
167.110842
 20
90.778344
 30
0.0
 10
168.142717
 20
96.405150
 30
0.0
 10
168.548411
 20
101.150011
 30
0.0
 10
168.319105
 20
105.127580
 30
0.0
 10
167.437161
 20
108.452511
 30
0.0
 10
166.731605
 20
109.898900
 30
0.0
 10
165.832022
 20
111.168900
 30
0.0
 10
164.764869
 20
112.244872
 30
0.0
 10
163.556605
 20
113.100358
 30
0.0
 10
162.251328
 20
113.717719
 30
0.0
 10
160.884314
 20
114.123414
 30
0.0
 10
159.490842
 20
114.343900
 30
0.0
 10
158.079730
 20
114.414455
 30
0.0
 10
158.079730
 20
114.414455
 30
0.0
  0
LWPOLYLINE
  5
107
100
AcDbEntity
  8
A
 62
7
100
AcDbPolyline
 90
34
 70
0
 10
158.079730
 20
108.770011
 30
0.0
 10
158.917578
 20
108.734733
 30
0.0
 10
159.631953
 20
108.620080
 30
0.0
 10
160.240494
 20
108.443691
 30
0.0
 10
160.734383
 20
108.214386
 30
0.0
 10
161.157717
 20
107.923344
 30
0.0
 10
161.528133
 20
107.552927
 30
0.0
 10
161.872092
 20
107.041400
 30
0.0
 10
162.198411
 20
106.353483
 30
0.0
 10
162.692300
 20
104.289733
 30
0.0
 10
162.842230
 20
101.238205
 30
0.0
 10
162.515911
 20
97.154802
 30
0.0
 10
161.598689
 20
91.986608
 30
0.0
 10
160.954869
 20
89.261400
 30
0.0
 10
160.161119
 20
86.289247
 30
0.0
 10
159.217439
 20
83.078969
 30
0.0
 10
158.132647
 20
79.630566
 30
0.0
 10
157.100772
 20
83.043691
 30
0.0
 10
156.192369
 20
86.236330
 30
0.0
 10
155.425078
 20
89.190844
 30
0.0
 10
154.798897
 20
91.898414
 30
0.0
 10
153.890494
 20
97.093066
 30
0.0
 10
153.564172
 20
101.202927
 30
0.0
 10
153.687644
 20
104.280914
 30
0.0
 10
154.163897
 20
106.371122
 30
0.0
 10
154.472578
 20
107.067858
 30
0.0
 10
154.807717
 20
107.570566
 30
0.0
 10
155.160494
 20
107.940983
 30
0.0
 10
155.557369
 20
108.223205
 30
0.0
 10
156.024800
 20
108.452511
 30
0.0
 10
156.589244
 20
108.620080
 30
0.0
 10
157.277161
 20
108.734733
 30
0.0
 10
158.079730
 20
108.770011
 30
0.0
 10
158.079730
 20
108.770011
 30
0.0
  0
LWPOLYLINE
  5
108
100
AcDbEntity
  8
A
 62
7
100
AcDbPolyline
 90
12
 70
0
 10
158.035633
 20
62.609039
 30
0.0
 10
162.815772
 20
50.270636
 30
0.0
 10
167.357786
 20
39.316886
 30
0.0
 10
165.002994
 20
40.181191
 30
0.0
 10
161.404661
 20
41.107233
 30
0.0
 10
157.973897
 20
41.389455
 30
0.0
 10
154.525494
 20
41.019039
 30
0.0
 10
150.874241
 20
40.040080
 30
0.0
 10
148.228408
 20
39.069941
 30
0.0
 10
153.061464
 20
50.261816
 30
0.0
 10
158.035633
 20
62.609039
 30
0.0
 10
158.035633
 20
62.609039
 30
0.0
  0
ENDSEC
  0
SECTION
  2
OBJECTS
  0
DICTIONARY
  5
C
330
0
100
AcDbDictionary
  3
ACAD_GROUP
350
D
  3
ACAD_MLINESTYLE
350
17
  0
DICTIONARY
  5
D
330
C
100
AcDbDictionary
  0
DICTIONARY
  5
1A
330
C
100
AcDbDictionary
  0
DICTIONARY
  5
17
330
C
100
AcDbDictionary
  3
STANDARD
350
18
  0
DICTIONARY
  5
19
330
C
100
AcDbDictionary
  0
ENDSEC
  0
EOF
