  0
SECTION
  2
HEADER
  9
$ACADVER
  1
AC1014
  9
$HANDSEED
  5
FFFF
  9
$MEASUREMENT
 70
     1
  0
ENDSEC
  0
SECTION
  2
TABLES
  0
TABLE
  2
VPORT
  5
8
330
0
100
AcDbSymbolTable
 70
     4
  0
VPORT
  5
2E
330
8
100
AcDbSymbolTableRecord
100
AcDbViewportTableRecord
  2
*ACTIVE
 70
     0
 10
0.0
 20
0.0
 11
1.0
 21
1.0
 12
210.0
 22
148.5
 13
0.0
 23
0.0
 14
10.0
 24
10.0
 15
10.0
 25
10.0
 16
0.0
 26
0.0
 36
1.0
 17
0.0
 27
0.0
 37
0.0
 40
341.0
 41
1.24
 42
50.0
 43
0.0
 44
0.0
 50
0.0
 51
0.0
 71
     0
 72
   100
 73
     1
 74
     3
 75
     0
 76
     0
 77
     0
 78
     0
  0
ENDTAB
  0
TABLE
  2
LTYPE
  5
5
330
0
100
AcDbSymbolTable
 70
     1
  0
LTYPE
  5
14
330
5
100
AcDbSymbolTableRecord
100
AcDbLinetypeTableRecord
  2
BYBLOCK
 70
     0
  3

 72
    65
 73
     0
 40
0.0
  0
LTYPE
  5
15
330
5
100
AcDbSymbolTableRecord
100
AcDbLinetypeTableRecord
  2
BYLAYER
 70
     0
  3

 72
    65
 73
     0
 40
0.0
  0
LTYPE
  5
16
330
5
100
AcDbSymbolTableRecord
100
AcDbLinetypeTableRecord
  2
CONTINUOUS
 70
     0
  3
Solid line
 72
    65
 73
     0
 40
0.0
  0
ENDTAB
  0
TABLE
  2
LAYER
  5
2
100
AcDbSymbolTable
 70
2
  0
LAYER
  5
50
100
AcDbSymbolTableRecord
100
AcDbLayerTableRecord
  2
0
 70
0
  6
CONTINUOUS
  0
LAYER
  5
51
100
AcDbSymbolTableRecord
100
AcDbLayerTableRecord
  2
parabolic_bend
 70
0
  6
CONTINUOUS
  0
ENDTAB
  0
TABLE
  2
STYLE
  5
3
330
0
100
AcDbSymbolTable
 70
     1
  0
STYLE
  5
11
330
3
100
AcDbSymbolTableRecord
100
AcDbTextStyleTableRecord
  2
STANDARD
 70
     0
 40
0.0
 41
1.0
 50
0.0
 71
     0
 42
2.5
  3
txt
  4

  0
ENDTAB
  0
TABLE
  2
VIEW
  5
6
330
0
100
AcDbSymbolTable
 70
     0
  0
ENDTAB
  0
TABLE
  2
UCS
  5
7
330
0
100
AcDbSymbolTable
 70
     0
  0
ENDTAB
  0
TABLE
  2
APPID
  5
9
330
0
100
AcDbSymbolTable
 70
     2
  0
APPID
  5
12
330
9
100
AcDbSymbolTableRecord
100
AcDbRegAppTableRecord
  2
ACAD
 70
     0
  0
ENDTAB
  0
TABLE
  2
DIMSTYLE
  5
A
330
0
100
AcDbSymbolTable
 70
     1
  0
DIMSTYLE
105
27
330
A
100
AcDbSymbolTableRecord
100
AcDbDimStyleTableRecord
  2
ISO-25
 70
     0
  3

  4

  5

  6

  7

 40
1.0
 41
2.5
 42
0.625
 43
3.75
 44
1.25
 45
0.0
 46
0.0
 47
0.0
 48
0.0
140
2.5
141
2.5
142
0.0
143
0.03937007874016
144
1.0
145
0.0
146
1.0
147
0.625
 71
     0
 72
     0
 73
     0
 74
     0
 75
     0
 76
     0
 77
     1
 78
     8
170
     0
171
     3
172
     1
173
     0
174
     0
175
     0
176
     0
177
     0
178
     0
270
     2
271
     2
272
     2
273
     2
274
     3
340
11
275
     0
280
     0
281
     0
282
     0
283
     0
284
     8
285
     0
286
     0
287
     3
288
     0
  0
ENDTAB
  0
TABLE
  2
BLOCK_RECORD
  5
1
330
0
100
AcDbSymbolTable
 70
     1
  0
BLOCK_RECORD
  5
1F
330
1
100
AcDbSymbolTableRecord
100
AcDbBlockTableRecord
  2
*MODEL_SPACE
  0
BLOCK_RECORD
  5
1B
330
1
100
AcDbSymbolTableRecord
100
AcDbBlockTableRecord
  2
*PAPER_SPACE
  0
ENDTAB
  0
ENDSEC
  0
SECTION
  2
BLOCKS
  0
BLOCK
  5
20
330
1F
100
AcDbEntity
  8
0
100
AcDbBlockBegin
  2
*MODEL_SPACE
 70
     0
 10
0.0
 20
0.0
 30
0.0
  3
*MODEL_SPACE
  1

  0
ENDBLK
  5
21
330
1F
100
AcDbEntity
  8
0
100
AcDbBlockEnd
  0
BLOCK
  5
1C
330
1B
100
AcDbEntity
 67
     1
  8
0
100
AcDbBlockBegin
  2
*PAPER_SPACE
  1

  0
ENDBLK
  5
1D
330
1B
100
AcDbEntity
 67
     1
  8
0
100
AcDbBlockEnd
  0
ENDSEC
  0
SECTION
  2
ENTITIES
  0
LWPOLYLINE
  5
100
100
AcDbEntity
  8
parabolic_bend
 62
7
100
AcDbPolyline
 90
217
 70
0
 10
1.178560
 20
1.808480
 30
0.0
 10
1.178560
 20
4.521200
 30
0.0
 10
1.178560
 20
7.233920
 30
0.0
 10
1.178560
 20
9.946640
 30
0.0
 10
1.178560
 20
12.659360
 30
0.0
 10
1.158240
 20
12.799054
 30
0.0
 10
1.097279
 20
12.933671
 30
0.0
 10
0.995679
 20
13.063214
 30
0.0
 10
0.853440
 20
13.187680
 30
0.0
 10
0.524510
 20
13.451834
 30
0.0
 10
0.289560
 20
13.675351
 30
0.0
 10
0.148590
 20
13.858234
 30
0.0
 10
0.101600
 20
14.000480
 30
0.0
 10
0.091440
 20
14.010640
 30
0.0
 10
0.081280
 20
14.020800
 30
0.0
 10
0.071120
 20
14.030960
 30
0.0
 10
0.060960
 20
14.041120
 30
0.0
 10
0.087630
 20
14.136364
 30
0.0
 10
0.127000
 20
14.218911
 30
0.0
 10
0.179070
 20
14.288764
 30
0.0
 10
0.243840
 20
14.345920
 30
0.0
 10
0.326390
 20
14.399254
 30
0.0
 10
0.431800
 20
14.437351
 30
0.0
 10
0.560070
 20
14.460211
 30
0.0
 10
0.711200
 20
14.467831
 30
0.0
 10
1.513840
 20
14.467831
 30
0.0
 10
2.316480
 20
14.467831
 30
0.0
 10
3.119120
 20
14.467831
 30
0.0
 10
3.921760
 20
14.467831
 30
0.0
 10
4.161788
 20
14.438616
 30
0.0
 10
4.333237
 20
14.350983
 30
0.0
 10
4.436108
 20
14.204936
 30
0.0
 10
4.470400
 20
14.000471
 30
0.0
 10
4.446267
 20
13.912836
 30
0.0
 10
4.373877
 20
13.812503
 30
0.0
 10
4.253227
 20
13.699476
 30
0.0
 10
4.084320
 20
13.573751
 30
0.0
 10
3.924298
 20
13.441666
 30
0.0
 10
3.809997
 20
13.309583
 30
0.0
 10
3.741418
 20
13.177506
 30
0.0
 10
3.718561
 20
13.045431
 30
0.0
 10
3.718561
 20
12.984471
 30
0.0
 10
3.718561
 20
12.923511
 30
0.0
 10
3.718561
 20
12.862551
 30
0.0
 10
3.718561
 20
12.801591
 30
0.0
 10
4.004308
 20
13.046696
 30
0.0
 10
4.292597
 20
13.294343
 30
0.0
 10
4.583428
 20
13.544536
 30
0.0
 10
4.876801
 20
13.797271
 30
0.0
 10
5.368287
 20
14.090636
 30
0.0
 10
5.867396
 20
14.300183
 30
0.0
 10
6.374127
 20
14.425916
 30
0.0
 10
6.888481
 20
14.467831
 30
0.0
 10
7.767316
 20
14.361146
 30
0.0
 10
8.554714
 20
14.041103
 30
0.0
 10
9.250675
 20
13.507706
 30
0.0
 10
9.855201
 20
12.760951
 30
0.0
 10
10.281915
 20
11.990056
 30
0.0
 10
10.586712
 20
11.160746
 30
0.0
 10
10.769595
 20
10.273016
 30
0.0
 10
10.830561
 20
9.326871
 30
0.0
 10
10.760705
 20
8.265148
 30
0.0
 10
10.551153
 20
7.274548
 30
0.0
 10
10.201905
 20
6.355068
 30
0.0
 10
9.712961
 20
5.506711
 30
0.0
 10
9.016996
 20
4.688831
 30
0.0
 10
8.209274
 20
4.104631
 30
0.0
 10
7.289796
 20
3.754111
 30
0.0
 10
6.258561
 20
3.637271
 30
0.0
 10
5.749287
 20
3.675371
 30
0.0
 10
5.278117
 20
3.789671
 30
0.0
 10
4.845048
 20
3.980171
 30
0.0
 10
4.450081
 20
4.246871
 30
0.0
 10
4.094479
 20
4.605008
 30
0.0
 10
3.840478
 20
5.008868
 30
0.0
 10
3.688079
 20
5.458448
 30
0.0
 10
3.637281
 20
5.953751
 30
0.0
 10
3.648708
 20
6.173458
 30
0.0
 10
3.682997
 20
6.385548
 30
0.0
 10
3.740148
 20
6.590018
 30
0.0
 10
3.820160
 20
6.786871
 30
0.0
 10
3.912868
 20
6.981178
 30
0.0
 10
4.008117
 20
7.178026
 30
0.0
 10
4.105908
 20
7.377418
 30
0.0
 10
4.206240
 20
7.579351
 30
0.0
 10
4.196077
 20
7.687298
 30
0.0
 10
4.165597
 20
7.787628
 30
0.0
 10
4.114797
 20
7.880338
 30
0.0
 10
4.043680
 20
7.965431
 30
0.0
 10
4.140200
 20
7.975591
 30
0.0
 10
4.236720
 20
7.985751
 30
0.0
 10
4.333240
 20
7.995911
 30
0.0
 10
4.429760
 20
8.006071
 30
0.0
 10
4.607557
 20
7.993371
 30
0.0
 10
4.775196
 20
7.955268
 30
0.0
 10
4.932677
 20
7.891771
 30
0.0
 10
5.080000
 20
7.802874
 30
0.0
 10
5.222237
 20
7.697461
 30
0.0
 10
5.344156
 20
7.564108
 30
0.0
 10
5.445757
 20
7.402821
 30
0.0
 10
5.527040
 20
7.213594
 30
0.0
 10
5.595617
 20
7.037061
 30
0.0
 10
5.659115
 20
6.893548
 30
0.0
 10
5.717537
 20
6.783061
 30
0.0
 10
5.770880
 20
6.705594
 30
0.0
 10
5.887716
 20
6.598911
 30
0.0
 10
6.035035
 20
6.522711
 30
0.0
 10
6.212836
 20
6.476991
 30
0.0
 10
6.421120
 20
6.461751
 30
0.0
 10
6.951976
 20
6.525248
 30
0.0
 10
7.426954
 20
6.715748
 30
0.0
 10
7.846055
 20
7.033248
 30
0.0
 10
8.209280
 20
7.477751
 30
0.0
 10
8.467085
 20
7.960348
 30
0.0
 10
8.651233
 20
8.493748
 30
0.0
 10
8.761725
 20
9.077948
 30
0.0
 10
8.798560
 20
9.712951
 30
0.0
 10
8.743945
 20
10.554956
 30
0.0
 10
8.580113
 20
11.272506
 30
0.0
 10
8.307065
 20
11.865596
 30
0.0
 10
7.924800
 20
12.334231
 30
0.0
 10
7.574276
 20
12.592036
 30
0.0
 10
7.172954
 20
12.776183
 30
0.0
 10
6.720836
 20
12.886676
 30
0.0
 10
6.217920
 20
12.923511
 30
0.0
 10
6.042656
 20
12.907001
 30
0.0
 10
5.821675
 20
12.857468
 30
0.0
 10
5.554977
 20
12.774921
 30
0.0
 10
5.242560
 20
12.659357
 30
0.0
 10
4.931407
 20
12.532351
 30
0.0
 10
4.648196
 20
12.395188
 30
0.0
 10
4.392927
 20
12.247871
 30
0.0
 10
4.165600
 20
12.090397
 30
0.0
 10
4.070347
 20
12.020541
 30
0.0
 10
3.987797
 20
11.953231
 30
0.0
 10
3.917947
 20
11.888461
 30
0.0
 10
3.860800
 20
11.826237
 30
0.0
 10
3.816348
 20
11.765271
 30
0.0
 10
3.784597
 20
11.704311
 30
0.0
 10
3.765547
 20
11.643351
 30
0.0
 10
3.759200
 20
11.582397
 30
0.0
 10
3.759200
 20
10.530837
 30
0.0
 10
3.759200
 20
9.479277
 30
0.0
 10
3.759200
 20
8.427717
 30
0.0
 10
3.759200
 20
7.376157
 30
0.0
 10
3.625847
 20
7.184384
 30
0.0
 10
3.510277
 20
6.995154
 30
0.0
 10
3.412488
 20
6.808464
 30
0.0
 10
3.332480
 20
6.624317
 30
0.0
 10
3.279138
 20
6.437624
 30
0.0
 10
3.241037
 20
6.243314
 30
0.0
 10
3.218177
 20
6.041384
 30
0.0
 10
3.210560
 20
5.831837
 30
0.0
 10
3.218177
 20
5.632444
 30
0.0
 10
3.241037
 20
5.440674
 30
0.0
 10
3.279138
 20
5.256524
 30
0.0
 10
3.332480
 20
5.079997
 30
0.0
 10
3.412488
 20
4.912354
 30
0.0
 10
3.510277
 20
4.734554
 30
0.0
 10
3.625847
 20
4.546594
 30
0.0
 10
3.759200
 20
4.348477
 30
0.0
 10
3.759200
 20
3.703317
 30
0.0
 10
3.759200
 20
3.058157
 30
0.0
 10
3.759200
 20
2.412997
 30
0.0
 10
3.759200
 20
1.767837
 30
0.0
 10
3.796027
 20
1.653537
 30
0.0
 10
3.906517
 20
1.534157
 30
0.0
 10
4.090667
 20
1.409697
 30
0.0
 10
4.348480
 20
1.280157
 30
0.0
 10
4.615177
 20
1.145540
 30
0.0
 10
4.805676
 20
1.005840
 30
0.0
 10
4.919977
 20
0.861060
 30
0.0
 10
4.958080
 20
0.711197
 30
0.0
 10
4.937757
 20
0.627380
 30
0.0
 10
4.876796
 20
0.538480
 30
0.0
 10
4.775197
 20
0.444500
 30
0.0
 10
4.632960
 20
0.345437
 30
0.0
 10
4.563107
 20
0.302260
 30
0.0
 10
4.475476
 20
0.254000
 30
0.0
 10
4.370067
 20
0.200660
 30
0.0
 10
4.246880
 20
0.142237
 30
0.0
 10
4.030978
 20
0.080010
 30
0.0
 10
3.830317
 20
0.035560
 30
0.0
 10
3.644898
 20
0.008890
 30
0.0
 10
3.474720
 20
-0.000000
 30
0.0
 10
3.347718
 20
0.002540
 30
0.0
 10
3.210557
 20
0.010160
 30
0.0
 10
3.063238
 20
0.022860
 30
0.0
 10
2.905760
 20
0.040640
 30
0.0
 10
2.755898
 20
0.049530
 30
0.0
 10
2.631438
 20
0.055880
 30
0.0
 10
2.532378
 20
0.059690
 30
0.0
 10
2.458720
 20
0.061101
 30
0.0
 10
2.230120
 20
0.045861
 30
0.0
 10
2.001520
 20
0.030621
 30
0.0
 10
1.772920
 20
0.015381
 30
0.0
 10
1.544320
 20
0.000141
 30
0.0
 10
1.320799
 20
0.010301
 30
0.0
 10
1.097279
 20
0.040781
 30
0.0
 10
0.873759
 20
0.091581
 30
0.0
 10
0.650240
 20
0.162698
 30
0.0
 10
0.365760
 20
0.290971
 30
0.0
 10
0.162560
 20
0.431941
 30
0.0
 10
0.040640
 20
0.585611
 30
0.0
 10
-0.000000
 20
0.751978
 30
0.0
 10
0.019050
 20
0.844691
 30
0.0
 10
0.076200
 20
0.939941
 30
0.0
 10
0.171450
 20
1.037731
 30
0.0
 10
0.304800
 20
1.138058
 30
0.0
 10
0.449579
 20
1.216798
 30
0.0
 10
0.579119
 20
1.290458
 30
0.0
 10
0.693419
 20
1.359038
 30
0.0
 10
0.792480
 20
1.422538
 30
0.0
 10
0.961389
 20
1.538108
 30
0.0
 10
1.082039
 20
1.640978
 30
0.0
 10
1.154429
 20
1.731148
 30
0.0
 10
1.178559
 20
1.808618
 30
0.0
  0
LWPOLYLINE
  5
101
100
AcDbEntity
  8
parabolic_bend
 62
7
100
AcDbPolyline
 90
121
 70
0
 10
12.410440
 20
6.827520
 30
0.0
 10
12.454889
 20
7.344407
 30
0.0
 10
12.588239
 20
7.838437
 30
0.0
 10
12.810489
 20
8.309607
 30
0.0
 10
13.121640
 20
8.757920
 30
0.0
 10
13.456919
 20
9.117327
 30
0.0
 10
13.853158
 20
9.464034
 30
0.0
 10
14.310359
 20
9.798044
 30
0.0
 10
14.828520
 20
10.119360
 30
0.0
 10
15.179037
 20
10.306044
 30
0.0
 10
15.620997
 20
10.520674
 30
0.0
 10
16.154397
 20
10.763244
 30
0.0
 10
16.779240
 20
11.033760
 30
0.0
 10
16.986247
 20
11.106144
 30
0.0
 10
17.139917
 20
11.160754
 30
0.0
 10
17.240247
 20
11.197584
 30
0.0
 10
17.287240
 20
11.216634
 30
0.0
 10
17.396457
 20
11.269968
 30
0.0
 10
17.480274
 20
11.328388
 30
0.0
 10
17.538697
 20
11.391888
 30
0.0
 10
17.571720
 20
11.460474
 30
0.0
 10
17.551400
 20
11.549368
 30
0.0
 10
17.490437
 20
11.612868
 30
0.0
 10
17.388840
 20
11.650968
 30
0.0
 10
17.246603
 20
11.663668
 30
0.0
 10
17.040860
 20
11.654778
 30
0.0
 10
16.789397
 20
11.628108
 30
0.0
 10
16.492219
 20
11.583658
 30
0.0
 10
16.149323
 20
11.521434
 30
0.0
 10
15.805150
 20
11.459198
 30
0.0
 10
15.504160
 20
11.414748
 30
0.0
 10
15.246351
 20
11.388078
 30
0.0
 10
15.031723
 20
11.379188
 30
0.0
 10
14.648181
 20
11.400778
 30
0.0
 10
14.290041
 20
11.465548
 30
0.0
 10
13.957301
 20
11.573498
 30
0.0
 10
13.649963
 20
11.724634
 30
0.0
 10
13.338812
 20
11.957038
 30
0.0
 10
13.116562
 20
12.227548
 30
0.0
 10
12.983212
 20
12.536158
 30
0.0
 10
12.938763
 20
12.882874
 30
0.0
 10
12.992103
 20
13.265138
 30
0.0
 10
13.152123
 20
13.599146
 30
0.0
 10
13.418822
 20
13.884898
 30
0.0
 10
13.792203
 20
14.122394
 30
0.0
 10
14.151611
 20
14.273518
 30
0.0
 10
14.538961
 20
14.381466
 30
0.0
 10
14.954251
 20
14.446238
 30
0.0
 10
15.397483
 20
14.467828
 30
0.0
 10
15.859763
 20
14.452588
 30
0.0
 10
16.322043
 20
14.437348
 30
0.0
 10
16.784323
 20
14.422108
 30
0.0
 10
17.246603
 20
14.406868
 30
0.0
 10
17.891763
 20
14.422108
 30
0.0
 10
18.536923
 20
14.437348
 30
0.0
 10
19.182083
 20
14.452588
 30
0.0
 10
19.827243
 20
14.467828
 30
0.0
 10
20.181567
 20
14.455128
 30
0.0
 10
20.513037
 20
14.417026
 30
0.0
 10
20.821647
 20
14.353528
 30
0.0
 10
21.107403
 20
14.264634
 30
0.0
 10
21.377907
 20
14.142708
 30
0.0
 10
21.620474
 20
13.980146
 30
0.0
 10
21.835107
 20
13.776948
 30
0.0
 10
22.021803
 20
13.533114
 30
0.0
 10
22.144987
 20
13.312128
 30
0.0
 10
22.250394
 20
13.055586
 30
0.0
 10
22.338027
 20
12.763488
 30
0.0
 10
22.407883
 20
12.435834
 30
0.0
 10
22.461217
 20
12.063718
 30
0.0
 10
22.499314
 20
11.617948
 30
0.0
 10
22.522174
 20
11.098518
 30
0.0
 10
22.529794
 20
10.505434
 30
0.0
 10
22.529794
 20
9.245594
 30
0.0
 10
22.529794
 20
7.985754
 30
0.0
 10
22.529794
 20
6.725914
 30
0.0
 10
22.529794
 20
5.466074
 30
0.0
 10
22.912058
 20
5.187941
 30
0.0
 10
23.185106
 20
4.942831
 30
0.0
 10
23.348938
 20
4.730741
 30
0.0
 10
23.403554
 20
4.551674
 30
0.0
 10
23.369261
 20
4.432291
 30
0.0
 10
23.286711
 20
4.317991
 30
0.0
 10
23.155898
 20
4.208771
 30
0.0
 10
22.976834
 20
4.104634
 30
0.0
 10
22.825698
 20
4.034784
 30
0.0
 10
22.656786
 20
3.967474
 30
0.0
 10
22.470098
 20
3.902704
 30
0.0
 10
22.265634
 20
3.840474
 30
0.0
 10
22.129738
 20
3.821424
 30
0.0
 10
21.965906
 20
3.804914
 30
0.0
 10
21.774138
 20
3.790944
 30
0.0
 10
21.554434
 20
3.779514
 30
0.0
 10
21.346148
 20
3.770624
 30
0.0
 10
21.188668
 20
3.764274
 30
0.0
 10
21.081988
 20
3.760464
 30
0.0
 10
21.026114
 20
3.759053
 30
0.0
 10
20.814018
 20
3.766673
 30
0.0
 10
20.543508
 20
3.789533
 30
0.0
 10
20.214578
 20
3.827633
 30
0.0
 10
19.827234
 20
3.880973
 30
0.0
 10
19.436068
 20
3.934313
 30
0.0
 10
19.095708
 20
3.972413
 30
0.0
 10
18.806148
 20
3.995273
 30
0.0
 10
18.567394
 20
4.002893
 30
0.0
 10
18.324821
 20
3.995273
 30
0.0
 10
18.023831
 20
3.972413
 30
0.0
 10
17.664421
 20
3.934313
 30
0.0
 10
17.246594
 20
3.880976
 30
0.0
 10
16.822411
 20
3.827636
 30
0.0
 10
16.443950
 20
3.789536
 30
0.0
 10
16.111211
 20
3.766676
 30
0.0
 10
15.824194
 20
3.759056
 30
0.0
 10
15.149822
 20
3.809856
 30
0.0
 10
14.528792
 20
3.962256
 30
0.0
 10
13.961103
 20
4.216256
 30
0.0
 10
13.446754
 20
4.571856
 30
0.0
 10
12.993364
 20
5.040483
 30
0.0
 10
12.669513
 20
5.572613
 30
0.0
 10
12.475204
 20
6.168243
 30
0.0
 10
12.410434
 20
6.827376
 30
0.0
  0
LWPOLYLINE
  5
102
100
AcDbEntity
  8
parabolic_bend
 62
7
100
AcDbPolyline
 90
81
 70
0
 10
19.786594
 20
7.010256
 30
0.0
 10
19.786594
 20
8.163416
 30
0.0
 10
19.786594
 20
9.316576
 30
0.0
 10
19.786594
 20
10.469736
 30
0.0
 10
19.786594
 20
11.622896
 30
0.0
 10
19.748488
 20
12.080090
 30
0.0
 10
19.634188
 20
12.476327
 30
0.0
 10
19.443688
 20
12.811610
 30
0.0
 10
19.176994
 20
13.085936
 30
0.0
 10
18.848058
 20
13.299290
 30
0.0
 10
18.470868
 20
13.451687
 30
0.0
 10
18.045421
 20
13.543130
 30
0.0
 10
17.571714
 20
13.573616
 30
0.0
 10
17.324061
 20
13.571076
 30
0.0
 10
17.109431
 20
13.563456
 30
0.0
 10
16.927821
 20
13.550756
 30
0.0
 10
16.779234
 20
13.532976
 30
0.0
 10
16.650961
 20
13.517736
 30
0.0
 10
16.509990
 20
13.492336
 30
0.0
 10
16.356321
 20
13.456773
 30
0.0
 10
16.189954
 20
13.411059
 30
0.0
 10
15.866102
 20
13.319613
 30
0.0
 10
15.626071
 20
13.187530
 30
0.0
 10
15.469862
 20
13.014813
 30
0.0
 10
15.397474
 20
12.801459
 30
0.0
 10
15.412711
 20
12.679533
 30
0.0
 10
15.458430
 20
12.577930
 30
0.0
 10
15.534631
 20
12.496653
 30
0.0
 10
15.641313
 20
12.435699
 30
0.0
 10
15.774661
 20
12.391243
 30
0.0
 10
15.930870
 20
12.359493
 30
0.0
 10
16.109941
 20
12.340443
 30
0.0
 10
16.311873
 20
12.334093
 30
0.0
 10
16.487130
 20
12.337903
 30
0.0
 10
16.687791
 20
12.349333
 30
0.0
 10
16.913851
 20
12.368383
 30
0.0
 10
17.165314
 20
12.395053
 30
0.0
 10
17.702521
 20
12.457277
 30
0.0
 10
18.094951
 20
12.501724
 30
0.0
 10
18.342601
 20
12.528394
 30
0.0
 10
18.445474
 20
12.537284
 30
0.0
 10
18.647401
 20
12.529664
 30
0.0
 10
18.826468
 20
12.506804
 30
0.0
 10
18.982678
 20
12.468707
 30
0.0
 10
19.116034
 20
12.415373
 30
0.0
 10
19.222708
 20
12.337897
 30
0.0
 10
19.298908
 20
12.227407
 30
0.0
 10
19.344628
 20
12.083897
 30
0.0
 10
19.359868
 20
11.907373
 30
0.0
 10
19.337008
 20
11.728297
 30
0.0
 10
19.268428
 20
11.556847
 30
0.0
 10
19.154128
 20
11.393017
 30
0.0
 10
18.994114
 20
11.236813
 30
0.0
 10
18.867108
 20
11.160607
 30
0.0
 10
18.567388
 20
10.992967
 30
0.0
 10
18.094951
 20
10.733887
 30
0.0
 10
17.449794
 20
10.383373
 30
0.0
 10
17.031961
 20
10.170007
 30
0.0
 10
16.672551
 20
9.956647
 30
0.0
 10
16.371560
 20
9.743287
 30
0.0
 10
16.128993
 20
9.529933
 30
0.0
 10
15.862291
 20
9.221320
 30
0.0
 10
15.671790
 20
8.884770
 30
0.0
 10
15.557491
 20
8.520280
 30
0.0
 10
15.519393
 20
8.127853
 30
0.0
 10
15.551141
 20
7.757010
 30
0.0
 10
15.646390
 20
7.436967
 30
0.0
 10
15.805141
 20
7.167730
 30
0.0
 10
16.027393
 20
6.949293
 30
0.0
 10
16.301710
 20
6.789270
 30
0.0
 10
16.616671
 20
6.674970
 30
0.0
 10
16.972271
 20
6.606390
 30
0.0
 10
17.368514
 20
6.583530
 30
0.0
 10
17.664421
 20
6.601310
 30
0.0
 10
18.023831
 20
6.654650
 30
0.0
 10
18.446741
 20
6.743550
 30
0.0
 10
18.933154
 20
6.868013
 30
0.0
 10
19.184608
 20
6.930240
 30
0.0
 10
19.410668
 20
6.974687
 30
0.0
 10
19.611328
 20
7.001357
 30
0.0
 10
19.786594
 20
7.010247
 30
0.0
  0
LWPOLYLINE
  5
103
100
AcDbEntity
  8
parabolic_bend
 62
7
100
AcDbPolyline
 90
173
 70
0
 10
25.186640
 20
5.628640
 30
0.0
 10
25.186640
 20
7.396480
 30
0.0
 10
25.186640
 20
9.164320
 30
0.0
 10
25.186640
 20
10.932160
 30
0.0
 10
25.186640
 20
12.700000
 30
0.0
 10
25.144730
 20
12.889224
 30
0.0
 10
25.019000
 20
13.091151
 30
0.0
 10
24.809450
 20
13.305784
 30
0.0
 10
24.516080
 20
13.533120
 30
0.0
 10
24.362410
 20
13.656304
 30
0.0
 10
24.246840
 20
13.782031
 30
0.0
 10
24.169370
 20
13.910304
 30
0.0
 10
24.130000
 20
14.041120
 30
0.0
 10
24.141430
 20
14.169384
 30
0.0
 10
24.175720
 20
14.269711
 30
0.0
 10
24.232870
 20
14.342104
 30
0.0
 10
24.312880
 20
14.386560
 30
0.0
 10
24.424640
 20
14.422114
 30
0.0
 10
24.556720
 20
14.447514
 30
0.0
 10
24.709120
 20
14.462754
 30
0.0
 10
24.881840
 20
14.467834
 30
0.0
 10
25.694640
 20
14.467834
 30
0.0
 10
26.507440
 20
14.467834
 30
0.0
 10
27.320240
 20
14.467834
 30
0.0
 10
28.133040
 20
14.467834
 30
0.0
 10
28.270200
 20
14.462754
 30
0.0
 10
28.407360
 20
14.457674
 30
0.0
 10
28.544520
 20
14.452594
 30
0.0
 10
28.681680
 20
14.447514
 30
0.0
 10
28.770577
 20
14.371308
 30
0.0
 10
28.834074
 20
14.284946
 30
0.0
 10
28.872177
 20
14.188428
 30
0.0
 10
28.884877
 20
14.081754
 30
0.0
 10
28.850584
 20
13.929348
 30
0.0
 10
28.747711
 20
13.776946
 30
0.0
 10
28.576264
 20
13.624548
 30
0.0
 10
28.336237
 20
13.472154
 30
0.0
 10
28.105094
 20
13.331178
 30
0.0
 10
27.939994
 20
13.192746
 30
0.0
 10
27.840934
 20
13.056858
 30
0.0
 10
27.807917
 20
12.923514
 30
0.0
 10
27.807917
 20
12.867634
 30
0.0
 10
27.807917
 20
12.811754
 30
0.0
 10
27.807917
 20
12.755874
 30
0.0
 10
27.807917
 20
12.699994
 30
0.0
 10
27.936184
 20
12.785081
 30
0.0
 10
28.260034
 20
13.020028
 30
0.0
 10
28.779464
 20
13.404838
 30
0.0
 10
29.494477
 20
13.939514
 30
0.0
 10
29.829754
 20
14.170648
 30
0.0
 10
30.144711
 20
14.335746
 30
0.0
 10
30.439354
 20
14.434808
 30
0.0
 10
30.713677
 20
14.467834
 30
0.0
 10
31.093401
 20
14.428458
 30
0.0
 10
31.440111
 20
14.310346
 30
0.0
 10
31.753801
 20
14.113498
 30
0.0
 10
32.034477
 20
13.837914
 30
0.0
 10
32.274501
 20
13.520408
 30
0.0
 10
32.445951
 20
13.177506
 30
0.0
 10
32.548821
 20
12.809208
 30
0.0
 10
32.583117
 20
12.415514
 30
0.0
 10
32.555177
 20
11.939258
 30
0.0
 10
32.471357
 20
11.506188
 30
0.0
 10
32.331657
 20
11.116298
 30
0.0
 10
32.136083
 20
10.769594
 30
0.0
 10
31.884620
 20
10.454628
 30
0.0
 10
31.577277
 20
10.159986
 30
0.0
 10
31.214057
 20
9.885668
 30
0.0
 10
30.794963
 20
9.631674
 30
0.0
 10
30.646370
 20
9.583411
 30
0.0
 10
30.525717
 20
9.540228
 30
0.0
 10
30.433010
 20
9.502131
 30
0.0
 10
30.368243
 20
9.469114
 30
0.0
 10
30.331410
 20
9.439901
 30
0.0
 10
30.302197
 20
9.413231
 30
0.0
 10
30.280607
 20
9.389101
 30
0.0
 10
30.266637
 20
9.367511
 30
0.0
 10
30.286957
 20
9.337031
 30
0.0
 10
30.307277
 20
9.306551
 30
0.0
 10
30.327597
 20
9.276071
 30
0.0
 10
30.347917
 20
9.245591
 30
0.0
 10
30.297117
 20
9.235431
 30
0.0
 10
30.246317
 20
9.225271
 30
0.0
 10
30.195517
 20
9.215111
 30
0.0
 10
30.144717
 20
9.204951
 30
0.0
 10
29.851344
 20
9.244318
 30
0.0
 10
29.641791
 20
9.362426
 30
0.0
 10
29.516064
 20
9.559278
 30
0.0
 10
29.474157
 20
9.834871
 30
0.0
 10
29.489397
 20
9.980916
 30
0.0
 10
29.535114
 20
10.154906
 30
0.0
 10
29.611317
 20
10.356836
 30
0.0
 10
29.718000
 20
10.586711
 30
0.0
 10
29.824677
 20
10.821656
 30
0.0
 10
29.900877
 20
11.038826
 30
0.0
 10
29.946597
 20
11.238216
 30
0.0
 10
29.961837
 20
11.419831
 30
0.0
 10
29.947867
 20
11.590006
 30
0.0
 10
29.905954
 20
11.734786
 30
0.0
 10
29.836107
 20
11.854166
 30
0.0
 10
29.738320
 20
11.948151
 30
0.0
 10
29.632907
 20
12.028156
 30
0.0
 10
29.519874
 20
12.085306
 30
0.0
 10
29.399227
 20
12.119596
 30
0.0
 10
29.270960
 20
12.131026
 30
0.0
 10
29.163007
 20
12.117056
 30
0.0
 10
29.001714
 20
12.075146
 30
0.0
 10
28.787087
 20
12.005296
 30
0.0
 10
28.519120
 20
11.907511
 30
0.0
 10
28.261307
 20
11.818606
 30
0.0
 10
28.056837
 20
11.755106
 30
0.0
 10
27.905707
 20
11.717006
 30
0.0
 10
27.807920
 20
11.704306
 30
0.0
 10
27.807920
 20
10.175226
 30
0.0
 10
27.807920
 20
8.646146
 30
0.0
 10
27.807920
 20
7.117066
 30
0.0
 10
27.807920
 20
5.587986
 30
0.0
 10
27.843477
 20
5.473683
 30
0.0
 10
27.950157
 20
5.354303
 30
0.0
 10
28.127957
 20
5.229843
 30
0.0
 10
28.376880
 20
5.100306
 30
0.0
 10
28.634687
 20
4.964413
 30
0.0
 10
28.818834
 20
4.820903
 30
0.0
 10
28.929327
 20
4.669773
 30
0.0
 10
28.966160
 20
4.511026
 30
0.0
 10
28.931867
 20
4.364973
 30
0.0
 10
28.828994
 20
4.231623
 30
0.0
 10
28.657547
 20
4.110973
 30
0.0
 10
28.417520
 20
4.003026
 30
0.0
 10
28.162247
 20
3.914126
 30
0.0
 10
27.924757
 20
3.850626
 30
0.0
 10
27.705047
 20
3.812526
 30
0.0
 10
27.503120
 20
3.799826
 30
0.0
 10
27.405327
 20
3.802366
 30
0.0
 10
27.294837
 20
3.809986
 30
0.0
 10
27.171647
 20
3.822686
 30
0.0
 10
27.035760
 20
3.840466
 30
0.0
 10
26.896057
 20
3.858246
 30
0.0
 10
26.761437
 20
3.870946
 30
0.0
 10
26.631897
 20
3.878566
 30
0.0
 10
26.507440
 20
3.881106
 30
0.0
 10
26.412187
 20
3.879694
 30
0.0
 10
26.309317
 20
3.875884
 30
0.0
 10
26.198827
 20
3.869534
 30
0.0
 10
26.080720
 20
3.860644
 30
0.0
 10
25.966417
 20
3.849214
 30
0.0
 10
25.847037
 20
3.835244
 30
0.0
 10
25.722577
 20
3.818734
 30
0.0
 10
25.593040
 20
3.799684
 30
0.0
 10
25.351740
 20
3.808574
 30
0.0
 10
25.115520
 20
3.835244
 30
0.0
 10
24.884380
 20
3.879694
 30
0.0
 10
24.658320
 20
3.941924
 30
0.0
 10
24.373840
 20
4.053682
 30
0.0
 10
24.170640
 20
4.185762
 30
0.0
 10
24.048720
 20
4.338162
 30
0.0
 10
24.008080
 20
4.510884
 30
0.0
 10
24.013160
 20
4.579462
 30
0.0
 10
24.028400
 20
4.642962
 30
0.0
 10
24.053800
 20
4.701382
 30
0.0
 10
24.089360
 20
4.754724
 30
0.0
 10
24.143970
 20
4.813142
 30
0.0
 10
24.206200
 20
4.866482
 30
0.0
 10
24.276050
 20
4.914742
 30
0.0
 10
24.353520
 20
4.957924
 30
0.0
 10
24.514810
 20
5.026502
 30
0.0
 10
24.653240
 20
5.090002
 30
0.0
 10
24.768810
 20
5.148422
 30
0.0
 10
24.861520
 20
5.201764
 30
0.0
 10
25.003760
 20
5.297012
 30
0.0
 10
25.105360
 20
5.399882
 30
0.0
 10
25.166320
 20
5.510372
 30
0.0
 10
25.186640
 20
5.628484
 30
0.0
  0
LWPOLYLINE
  5
104
100
AcDbEntity
  8
parabolic_bend
 62
7
100
AcDbPolyline
 90
121
 70
0
 10
33.127315
 20
6.827520
 30
0.0
 10
33.171765
 20
7.344407
 30
0.0
 10
33.305115
 20
7.838437
 30
0.0
 10
33.527365
 20
8.309607
 30
0.0
 10
33.838515
 20
8.757920
 30
0.0
 10
34.173792
 20
9.117327
 30
0.0
 10
34.570032
 20
9.464034
 30
0.0
 10
35.027232
 20
9.798044
 30
0.0
 10
35.545395
 20
10.119360
 30
0.0
 10
35.895912
 20
10.306044
 30
0.0
 10
36.337872
 20
10.520674
 30
0.0
 10
36.871272
 20
10.763244
 30
0.0
 10
37.496115
 20
11.033760
 30
0.0
 10
37.703122
 20
11.106144
 30
0.0
 10
37.856792
 20
11.160754
 30
0.0
 10
37.957122
 20
11.197584
 30
0.0
 10
38.004115
 20
11.216634
 30
0.0
 10
38.113332
 20
11.269968
 30
0.0
 10
38.197152
 20
11.328388
 30
0.0
 10
38.255572
 20
11.391888
 30
0.0
 10
38.288595
 20
11.460474
 30
0.0
 10
38.268275
 20
11.549368
 30
0.0
 10
38.207315
 20
11.612868
 30
0.0
 10
38.105715
 20
11.650968
 30
0.0
 10
37.963478
 20
11.663668
 30
0.0
 10
37.757735
 20
11.654778
 30
0.0
 10
37.506275
 20
11.628108
 30
0.0
 10
37.209095
 20
11.583658
 30
0.0
 10
36.866198
 20
11.521434
 30
0.0
 10
36.522025
 20
11.459198
 30
0.0
 10
36.221035
 20
11.414748
 30
0.0
 10
35.963225
 20
11.388078
 30
0.0
 10
35.748598
 20
11.379188
 30
0.0
 10
35.365055
 20
11.400778
 30
0.0
 10
35.006915
 20
11.465548
 30
0.0
 10
34.674175
 20
11.573498
 30
0.0
 10
34.366838
 20
11.724634
 30
0.0
 10
34.055688
 20
11.957038
 30
0.0
 10
33.833438
 20
12.227548
 30
0.0
 10
33.700088
 20
12.536158
 30
0.0
 10
33.655638
 20
12.882874
 30
0.0
 10
33.708978
 20
13.265138
 30
0.0
 10
33.868998
 20
13.599146
 30
0.0
 10
34.135698
 20
13.884898
 30
0.0
 10
34.509078
 20
14.122394
 30
0.0
 10
34.868485
 20
14.273518
 30
0.0
 10
35.255835
 20
14.381466
 30
0.0
 10
35.671125
 20
14.446238
 30
0.0
 10
36.114358
 20
14.467828
 30
0.0
 10
36.576638
 20
14.452588
 30
0.0
 10
37.038918
 20
14.437348
 30
0.0
 10
37.501198
 20
14.422108
 30
0.0
 10
37.963478
 20
14.406868
 30
0.0
 10
38.608638
 20
14.422108
 30
0.0
 10
39.253798
 20
14.437348
 30
0.0
 10
39.898958
 20
14.452588
 30
0.0
 10
40.544118
 20
14.467828
 30
0.0
 10
40.898442
 20
14.455128
 30
0.0
 10
41.229912
 20
14.417026
 30
0.0
 10
41.538522
 20
14.353528
 30
0.0
 10
41.824278
 20
14.264634
 30
0.0
 10
42.094782
 20
14.142708
 30
0.0
 10
42.337349
 20
13.980146
 30
0.0
 10
42.551982
 20
13.776948
 30
0.0
 10
42.738678
 20
13.533114
 30
0.0
 10
42.861862
 20
13.312128
 30
0.0
 10
42.967269
 20
13.055586
 30
0.0
 10
43.054902
 20
12.763488
 30
0.0
 10
43.124758
 20
12.435834
 30
0.0
 10
43.178092
 20
12.063718
 30
0.0
 10
43.216189
 20
11.617948
 30
0.0
 10
43.239049
 20
11.098518
 30
0.0
 10
43.246669
 20
10.505434
 30
0.0
 10
43.246669
 20
9.245594
 30
0.0
 10
43.246669
 20
7.985754
 30
0.0
 10
43.246669
 20
6.725914
 30
0.0
 10
43.246669
 20
5.466074
 30
0.0
 10
43.628933
 20
5.187941
 30
0.0
 10
43.901981
 20
4.942831
 30
0.0
 10
44.065813
 20
4.730741
 30
0.0
 10
44.120429
 20
4.551674
 30
0.0
 10
44.086136
 20
4.432291
 30
0.0
 10
44.003586
 20
4.317991
 30
0.0
 10
43.872773
 20
4.208771
 30
0.0
 10
43.693709
 20
4.104634
 30
0.0
 10
43.542573
 20
4.034784
 30
0.0
 10
43.373661
 20
3.967474
 30
0.0
 10
43.186973
 20
3.902704
 30
0.0
 10
42.982509
 20
3.840474
 30
0.0
 10
42.846613
 20
3.821424
 30
0.0
 10
42.682781
 20
3.804914
 30
0.0
 10
42.491013
 20
3.790944
 30
0.0
 10
42.271309
 20
3.779514
 30
0.0
 10
42.063023
 20
3.770624
 30
0.0
 10
41.905543
 20
3.764274
 30
0.0
 10
41.798863
 20
3.760464
 30
0.0
 10
41.742989
 20
3.759053
 30
0.0
 10
41.530893
 20
3.766673
 30
0.0
 10
41.260383
 20
3.789533
 30
0.0
 10
40.931453
 20
3.827633
 30
0.0
 10
40.544109
 20
3.880973
 30
0.0
 10
40.152943
 20
3.934313
 30
0.0
 10
39.812583
 20
3.972413
 30
0.0
 10
39.523023
 20
3.995273
 30
0.0
 10
39.284269
 20
4.002893
 30
0.0
 10
39.041696
 20
3.995273
 30
0.0
 10
38.740706
 20
3.972413
 30
0.0
 10
38.381296
 20
3.934313
 30
0.0
 10
37.963469
 20
3.880976
 30
0.0
 10
37.539286
 20
3.827636
 30
0.0
 10
37.160823
 20
3.789536
 30
0.0
 10
36.828086
 20
3.766676
 30
0.0
 10
36.541069
 20
3.759056
 30
0.0
 10
35.866696
 20
3.809856
 30
0.0
 10
35.245666
 20
3.962256
 30
0.0
 10
34.677976
 20
4.216256
 30
0.0
 10
34.163629
 20
4.571856
 30
0.0
 10
33.710239
 20
5.040483
 30
0.0
 10
33.386389
 20
5.572613
 30
0.0
 10
33.192079
 20
6.168243
 30
0.0
 10
33.127309
 20
6.827376
 30
0.0
  0
LWPOLYLINE
  5
105
100
AcDbEntity
  8
parabolic_bend
 62
7
100
AcDbPolyline
 90
81
 70
0
 10
40.503469
 20
7.010256
 30
0.0
 10
40.503469
 20
8.163416
 30
0.0
 10
40.503469
 20
9.316576
 30
0.0
 10
40.503469
 20
10.469736
 30
0.0
 10
40.503469
 20
11.622896
 30
0.0
 10
40.465363
 20
12.080090
 30
0.0
 10
40.351063
 20
12.476327
 30
0.0
 10
40.160563
 20
12.811610
 30
0.0
 10
39.893869
 20
13.085936
 30
0.0
 10
39.564933
 20
13.299290
 30
0.0
 10
39.187743
 20
13.451687
 30
0.0
 10
38.762296
 20
13.543130
 30
0.0
 10
38.288589
 20
13.573616
 30
0.0
 10
38.040936
 20
13.571076
 30
0.0
 10
37.826306
 20
13.563456
 30
0.0
 10
37.644696
 20
13.550756
 30
0.0
 10
37.496109
 20
13.532976
 30
0.0
 10
37.367836
 20
13.517736
 30
0.0
 10
37.226866
 20
13.492336
 30
0.0
 10
37.073196
 20
13.456773
 30
0.0
 10
36.906829
 20
13.411059
 30
0.0
 10
36.582976
 20
13.319613
 30
0.0
 10
36.342946
 20
13.187530
 30
0.0
 10
36.186736
 20
13.014813
 30
0.0
 10
36.114349
 20
12.801459
 30
0.0
 10
36.129589
 20
12.679533
 30
0.0
 10
36.175309
 20
12.577930
 30
0.0
 10
36.251509
 20
12.496653
 30
0.0
 10
36.358192
 20
12.435699
 30
0.0
 10
36.491539
 20
12.391243
 30
0.0
 10
36.647749
 20
12.359493
 30
0.0
 10
36.826819
 20
12.340443
 30
0.0
 10
37.028752
 20
12.334093
 30
0.0
 10
37.204009
 20
12.337903
 30
0.0
 10
37.404669
 20
12.349333
 30
0.0
 10
37.630729
 20
12.368383
 30
0.0
 10
37.882192
 20
12.395053
 30
0.0
 10
38.419399
 20
12.457277
 30
0.0
 10
38.811829
 20
12.501724
 30
0.0
 10
39.059479
 20
12.528394
 30
0.0
 10
39.162352
 20
12.537284
 30
0.0
 10
39.364279
 20
12.529664
 30
0.0
 10
39.543346
 20
12.506804
 30
0.0
 10
39.699556
 20
12.468707
 30
0.0
 10
39.832912
 20
12.415373
 30
0.0
 10
39.939586
 20
12.337897
 30
0.0
 10
40.015786
 20
12.227407
 30
0.0
 10
40.061506
 20
12.083897
 30
0.0
 10
40.076746
 20
11.907373
 30
0.0
 10
40.053886
 20
11.728297
 30
0.0
 10
39.985306
 20
11.556847
 30
0.0
 10
39.871006
 20
11.393017
 30
0.0
 10
39.710992
 20
11.236813
 30
0.0
 10
39.583986
 20
11.160607
 30
0.0
 10
39.284266
 20
10.992967
 30
0.0
 10
38.811829
 20
10.733887
 30
0.0
 10
38.166672
 20
10.383373
 30
0.0
 10
37.748839
 20
10.170007
 30
0.0
 10
37.389429
 20
9.956647
 30
0.0
 10
37.088439
 20
9.743287
 30
0.0
 10
36.845872
 20
9.529933
 30
0.0
 10
36.579169
 20
9.221320
 30
0.0
 10
36.388669
 20
8.884770
 30
0.0
 10
36.274369
 20
8.520280
 30
0.0
 10
36.236272
 20
8.127853
 30
0.0
 10
36.268019
 20
7.757010
 30
0.0
 10
36.363269
 20
7.436967
 30
0.0
 10
36.522019
 20
7.167730
 30
0.0
 10
36.744272
 20
6.949293
 30
0.0
 10
37.018589
 20
6.789270
 30
0.0
 10
37.333549
 20
6.674970
 30
0.0
 10
37.689149
 20
6.606390
 30
0.0
 10
38.085392
 20
6.583530
 30
0.0
 10
38.381299
 20
6.601310
 30
0.0
 10
38.740709
 20
6.654650
 30
0.0
 10
39.163619
 20
6.743550
 30
0.0
 10
39.650032
 20
6.868013
 30
0.0
 10
39.901486
 20
6.930240
 30
0.0
 10
40.127546
 20
6.974687
 30
0.0
 10
40.328206
 20
7.001357
 30
0.0
 10
40.503472
 20
7.010247
 30
0.0
  0
LWPOLYLINE
  5
106
100
AcDbEntity
  8
parabolic_bend
 62
7
100
AcDbPolyline
 90
93
 70
0
 10
45.862875
 20
6.583680
 30
0.0
 10
45.862875
 20
9.001760
 30
0.0
 10
45.862875
 20
11.419840
 30
0.0
 10
45.862875
 20
13.837920
 30
0.0
 10
45.862875
 20
16.256000
 30
0.0
 10
45.820965
 20
16.478241
 30
0.0
 10
45.695235
 20
16.697948
 30
0.0
 10
45.485685
 20
16.915121
 30
0.0
 10
45.192315
 20
17.129760
 30
0.0
 10
44.898945
 20
17.341841
 30
0.0
 10
44.689395
 20
17.551388
 30
0.0
 10
44.563665
 20
17.758401
 30
0.0
 10
44.521755
 20
17.962880
 30
0.0
 10
44.535725
 20
18.077171
 30
0.0
 10
44.577635
 20
18.176226
 30
0.0
 10
44.647485
 20
18.260051
 30
0.0
 10
44.745275
 20
18.328640
 30
0.0
 10
44.872275
 20
18.381971
 30
0.0
 10
45.009435
 20
18.420068
 30
0.0
 10
45.156755
 20
18.442928
 30
0.0
 10
45.314235
 20
18.450548
 30
0.0
 10
45.939075
 20
18.450548
 30
0.0
 10
46.563915
 20
18.450548
 30
0.0
 10
47.188755
 20
18.450548
 30
0.0
 10
47.813595
 20
18.450548
 30
0.0
 10
47.965992
 20
18.442928
 30
0.0
 10
48.098072
 20
18.420068
 30
0.0
 10
48.209832
 20
18.381971
 30
0.0
 10
48.301275
 20
18.328640
 30
0.0
 10
48.381282
 20
18.254971
 30
0.0
 10
48.438432
 20
18.155906
 30
0.0
 10
48.472722
 20
18.031451
 30
0.0
 10
48.484152
 20
17.881600
 30
0.0
 10
48.484152
 20
16.901160
 30
0.0
 10
48.484152
 20
15.920720
 30
0.0
 10
48.484152
 20
14.940280
 30
0.0
 10
48.484152
 20
13.959840
 30
0.0
 10
48.702589
 20
13.986510
 30
0.0
 10
49.053109
 20
14.066517
 30
0.0
 10
49.535709
 20
14.199870
 30
0.0
 10
50.150392
 20
14.386565
 30
0.0
 10
50.464079
 20
14.475460
 30
0.0
 10
50.754906
 20
14.538957
 30
0.0
 10
51.022879
 20
14.577060
 30
0.0
 10
51.267992
 20
14.589760
 30
0.0
 10
52.276366
 20
14.476724
 30
0.0
 10
53.188226
 20
14.137631
 30
0.0
 10
54.003566
 20
13.572484
 30
0.0
 10
54.722392
 20
12.781280
 30
0.0
 10
55.255786
 20
11.925294
 30
0.0
 10
55.636783
 20
11.003274
 30
0.0
 10
55.865386
 20
10.015214
 30
0.0
 10
55.941592
 20
8.961120
 30
0.0
 10
55.879356
 20
7.997187
 30
0.0
 10
55.692663
 20
7.096757
 30
0.0
 10
55.381516
 20
6.259827
 30
0.0
 10
54.945912
 20
5.486400
 30
0.0
 10
54.315986
 20
4.730750
 30
0.0
 10
53.584466
 20
4.191000
 30
0.0
 10
52.751346
 20
3.867150
 30
0.0
 10
51.816632
 20
3.759200
 30
0.0
 10
51.608346
 20
3.763010
 30
0.0
 10
51.369586
 20
3.774440
 30
0.0
 10
51.100349
 20
3.793490
 30
0.0
 10
50.800632
 20
3.820160
 30
0.0
 10
50.509799
 20
3.846830
 30
0.0
 10
50.267229
 20
3.865880
 30
0.0
 10
50.072919
 20
3.877310
 30
0.0
 10
49.926872
 20
3.881120
 30
0.0
 10
49.709699
 20
3.879709
 30
0.0
 10
49.525546
 20
3.875899
 30
0.0
 10
49.374419
 20
3.869549
 30
0.0
 10
49.256312
 20
3.860659
 30
0.0
 10
48.792759
 20
3.816209
 30
0.0
 10
48.458749
 20
3.784459
 30
0.0
 10
48.254279
 20
3.765409
 30
0.0
 10
48.179352
 20
3.759059
 30
0.0
 10
47.822479
 20
3.773029
 30
0.0
 10
47.503709
 20
3.814939
 30
0.0
 10
47.223039
 20
3.884789
 30
0.0
 10
46.980472
 20
3.982579
 30
0.0
 10
46.768379
 20
4.119736
 30
0.0
 10
46.579149
 20
4.287376
 30
0.0
 10
46.412779
 20
4.485496
 30
0.0
 10
46.269272
 20
4.714099
 30
0.0
 10
46.181639
 20
4.880466
 30
0.0
 10
46.101629
 20
5.074776
 30
0.0
 10
46.029239
 20
5.297026
 30
0.0
 10
45.964472
 20
5.547219
 30
0.0
 10
45.920022
 20
5.810106
 30
0.0
 10
45.888272
 20
6.070456
 30
0.0
 10
45.869222
 20
6.328266
 30
0.0
 10
45.862872
 20
6.583539
 30
0.0
  0
LWPOLYLINE
  5
107
100
AcDbEntity
  8
parabolic_bend
 62
7
100
AcDbPolyline
 90
49
 70
0
 10
53.564152
 20
9.631539
 30
0.0
 10
53.528586
 20
10.291933
 30
0.0
 10
53.421906
 20
10.911693
 30
0.0
 10
53.244106
 20
11.490813
 30
0.0
 10
52.995192
 20
12.029299
 30
0.0
 10
52.612916
 20
12.580473
 30
0.0
 10
52.156986
 20
12.974170
 30
0.0
 10
51.627396
 20
13.210393
 30
0.0
 10
51.024152
 20
13.289139
 30
0.0
 10
50.765069
 20
13.257383
 30
0.0
 10
50.414546
 20
13.162130
 30
0.0
 10
49.972589
 20
13.003383
 30
0.0
 10
49.439192
 20
12.781139
 30
0.0
 10
49.173759
 20
12.674453
 30
0.0
 10
48.926106
 20
12.598250
 30
0.0
 10
48.696239
 20
12.552533
 30
0.0
 10
48.484152
 20
12.537293
 30
0.0
 10
48.484152
 20
11.506053
 30
0.0
 10
48.484152
 20
10.474813
 30
0.0
 10
48.484152
 20
9.443573
 30
0.0
 10
48.484152
 20
8.412333
 30
0.0
 10
48.485563
 20
8.242150
 30
0.0
 10
48.489373
 20
8.077047
 30
0.0
 10
48.495723
 20
7.917030
 30
0.0
 10
48.504613
 20
7.762093
 30
0.0
 10
48.528743
 20
7.613500
 30
0.0
 10
48.560493
 20
7.472527
 30
0.0
 10
48.599863
 20
7.339180
 30
0.0
 10
48.646853
 20
7.213453
 30
0.0
 10
48.715430
 20
7.097880
 30
0.0
 10
48.799247
 20
6.995010
 30
0.0
 10
48.898310
 20
6.904840
 30
0.0
 10
49.012613
 20
6.827373
 30
0.0
 10
49.148500
 20
6.774030
 30
0.0
 10
49.312327
 20
6.735930
 30
0.0
 10
49.504100
 20
6.713070
 30
0.0
 10
49.723813
 20
6.705450
 30
0.0
 10
50.211493
 20
6.705450
 30
0.0
 10
50.699173
 20
6.705450
 30
0.0
 10
51.186853
 20
6.705450
 30
0.0
 10
51.674533
 20
6.705450
 30
0.0
 10
52.096167
 20
6.748627
 30
0.0
 10
52.467007
 20
6.878167
 30
0.0
 10
52.787047
 20
7.094067
 30
0.0
 10
53.056293
 20
7.396330
 30
0.0
 10
53.278537
 20
7.795107
 30
0.0
 10
53.437287
 20
8.300567
 30
0.0
 10
53.532537
 20
8.912707
 30
0.0
 10
53.564293
 20
9.631530
 30
0.0
  0
LWPOLYLINE
  5
108
100
AcDbEntity
  8
parabolic_bend
 62
7
100
AcDbPolyline
 90
61
 70
0
 10
57.135395
 20
9.367520
 30
0.0
 10
57.145555
 20
9.786614
 30
0.0
 10
57.176035
 20
10.210794
 30
0.0
 10
57.226835
 20
10.640054
 30
0.0
 10
57.297955
 20
11.074400
 30
0.0
 10
57.408445
 20
11.503654
 30
0.0
 10
57.557035
 20
11.917674
 30
0.0
 10
57.743725
 20
12.316454
 30
0.0
 10
57.968515
 20
12.700000
 30
0.0
 10
58.286012
 20
13.131794
 30
0.0
 10
58.649232
 20
13.512791
 30
0.0
 10
59.058172
 20
13.842994
 30
0.0
 10
59.512835
 20
14.122400
 30
0.0
 10
60.100842
 20
14.380204
 30
0.0
 10
60.747272
 20
14.564351
 30
0.0
 10
61.452122
 20
14.674844
 30
0.0
 10
62.215395
 20
14.711680
 30
0.0
 10
63.292349
 20
14.630394
 30
0.0
 10
64.247389
 20
14.386551
 30
0.0
 10
65.080509
 20
13.980154
 30
0.0
 10
65.791715
 20
13.411200
 30
0.0
 10
66.118099
 20
13.036544
 30
0.0
 10
66.406386
 20
12.623791
 30
0.0
 10
66.656579
 20
12.172944
 30
0.0
 10
66.868675
 20
11.684000
 30
0.0
 10
67.037579
 20
11.155674
 30
0.0
 10
67.158226
 20
10.586714
 30
0.0
 10
67.230619
 20
9.977114
 30
0.0
 10
67.254749
 20
9.326880
 30
0.0
 10
67.195053
 20
8.321037
 30
0.0
 10
67.015981
 20
7.376157
 30
0.0
 10
66.717533
 20
6.492237
 30
0.0
 10
66.299709
 20
5.669280
 30
0.0
 10
65.682483
 20
4.833620
 30
0.0
 10
64.968743
 20
4.236720
 30
0.0
 10
64.158483
 20
3.878580
 30
0.0
 10
63.251709
 20
3.759200
 30
0.0
 10
63.134866
 20
3.763010
 30
0.0
 10
63.007863
 20
3.774440
 30
0.0
 10
62.870706
 20
3.793490
 30
0.0
 10
62.723389
 20
3.820160
 30
0.0
 10
62.577336
 20
3.846830
 30
0.0
 10
62.443983
 20
3.865880
 30
0.0
 10
62.323336
 20
3.877310
 30
0.0
 10
62.215389
 20
3.881120
 30
0.0
 10
62.089656
 20
3.877310
 30
0.0
 10
61.956303
 20
3.865880
 30
0.0
 10
61.815336
 20
3.846830
 30
0.0
 10
61.666749
 20
3.820160
 30
0.0
 10
61.527046
 20
3.793490
 30
0.0
 10
61.412743
 20
3.774440
 30
0.0
 10
61.323846
 20
3.763010
 30
0.0
 10
61.260349
 20
3.759200
 30
0.0
 10
60.325626
 20
3.877310
 30
0.0
 10
59.492506
 20
4.231640
 30
0.0
 10
58.760986
 20
4.822190
 30
0.0
 10
58.131069
 20
5.648960
 30
0.0
 10
57.695459
 20
6.483347
 30
0.0
 10
57.384309
 20
7.381237
 30
0.0
 10
57.197619
 20
8.342627
 30
0.0
 10
57.135389
 20
9.367520
 30
0.0
  0
LWPOLYLINE
  5
109
100
AcDbEntity
  8
parabolic_bend
 62
7
100
AcDbPolyline
 90
29
 70
0
 10
59.492509
 20
10.342880
 30
0.0
 10
59.530606
 20
9.711687
 30
0.0
 10
59.644906
 20
9.138917
 30
0.0
 10
59.835406
 20
8.624567
 30
0.0
 10
60.102109
 20
8.168640
 30
0.0
 10
60.481836
 20
7.750807
 30
0.0
 10
60.930146
 20
7.452357
 30
0.0
 10
61.447036
 20
7.273287
 30
0.0
 10
62.032509
 20
7.213600
 30
0.0
 10
63.277103
 20
7.424425
 30
0.0
 10
64.166103
 20
8.056883
 30
0.0
 10
64.699503
 20
9.110980
 30
0.0
 10
64.877309
 20
10.586720
 30
0.0
 10
64.835393
 20
11.268704
 30
0.0
 10
64.709663
 20
11.871954
 30
0.0
 10
64.500113
 20
12.396464
 30
0.0
 10
64.206749
 20
12.842240
 30
0.0
 10
63.838443
 20
13.206724
 30
0.0
 10
63.404103
 20
13.467071
 30
0.0
 10
62.903726
 20
13.623284
 30
0.0
 10
62.337309
 20
13.675360
 30
0.0
 10
61.720086
 20
13.622014
 30
0.0
 10
61.168903
 20
13.461991
 30
0.0
 10
60.683766
 20
13.195294
 30
0.0
 10
60.264669
 20
12.821920
 30
0.0
 10
59.926846
 20
12.354554
 30
0.0
 10
59.685546
 20
11.785594
 30
0.0
 10
59.540766
 20
11.115034
 30
0.0
 10
59.492509
 20
10.342880
 30
0.0
  0
LWPOLYLINE
  5
10a
100
AcDbEntity
  8
parabolic_bend
 62
7
100
AcDbPolyline
 90
89
 70
0
 10
69.563931
 20
5.628640
 30
0.0
 10
69.563931
 20
8.437880
 30
0.0
 10
69.563931
 20
11.247120
 30
0.0
 10
69.563931
 20
14.056360
 30
0.0
 10
69.563931
 20
16.865600
 30
0.0
 10
69.519481
 20
17.023071
 30
0.0
 10
69.386131
 20
17.190708
 30
0.0
 10
69.163881
 20
17.368511
 30
0.0
 10
68.852734
 20
17.556480
 30
0.0
 10
68.710491
 20
17.652991
 30
0.0
 10
68.608891
 20
17.759668
 30
0.0
 10
68.547931
 20
17.876511
 30
0.0
 10
68.527611
 20
18.003520
 30
0.0
 10
68.536501
 20
18.091141
 30
0.0
 10
68.563171
 20
18.171148
 30
0.0
 10
68.607621
 20
18.243541
 30
0.0
 10
68.669851
 20
18.308320
 30
0.0
 10
68.752401
 20
18.370541
 30
0.0
 10
68.837491
 20
18.414986
 30
0.0
 10
68.925121
 20
18.441656
 30
0.0
 10
69.015291
 20
18.450546
 30
0.0
 10
69.640131
 20
18.450546
 30
0.0
 10
70.264971
 20
18.450546
 30
0.0
 10
70.889811
 20
18.450546
 30
0.0
 10
71.514651
 20
18.450546
 30
0.0
 10
71.658158
 20
18.444196
 30
0.0
 10
71.783888
 20
18.425146
 30
0.0
 10
71.891838
 20
18.393401
 30
0.0
 10
71.982011
 20
18.348960
 30
0.0
 10
72.053128
 20
18.286721
 30
0.0
 10
72.103928
 20
18.201626
 30
0.0
 10
72.134408
 20
18.093681
 30
0.0
 10
72.144568
 20
17.962880
 30
0.0
 10
72.144568
 20
14.869160
 30
0.0
 10
72.144568
 20
11.775440
 30
0.0
 10
72.144568
 20
8.681720
 30
0.0
 10
72.144568
 20
5.588000
 30
0.0
 10
72.181395
 20
5.473697
 30
0.0
 10
72.291885
 20
5.354317
 30
0.0
 10
72.476035
 20
5.229857
 30
0.0
 10
72.733848
 20
5.100320
 30
0.0
 10
73.000545
 20
4.964427
 30
0.0
 10
73.191045
 20
4.820917
 30
0.0
 10
73.305345
 20
4.669787
 30
0.0
 10
73.343448
 20
4.511040
 30
0.0
 10
73.304075
 20
4.354827
 30
0.0
 10
73.185965
 20
4.211317
 30
0.0
 10
72.989118
 20
4.080507
 30
0.0
 10
72.713531
 20
3.962400
 30
0.0
 10
72.474768
 20
3.891280
 30
0.0
 10
72.246168
 20
3.840480
 30
0.0
 10
72.027728
 20
3.810000
 30
0.0
 10
71.819451
 20
3.799840
 30
0.0
 10
71.745788
 20
3.802380
 30
0.0
 10
71.646728
 20
3.810000
 30
0.0
 10
71.522268
 20
3.822700
 30
0.0
 10
71.372411
 20
3.840480
 30
0.0
 10
71.216198
 20
3.858260
 30
0.0
 10
71.072685
 20
3.870960
 30
0.0
 10
70.941875
 20
3.878580
 30
0.0
 10
70.823768
 20
3.881120
 30
0.0
 10
70.718358
 20
3.878580
 30
0.0
 10
70.605328
 20
3.870960
 30
0.0
 10
70.484678
 20
3.858260
 30
0.0
 10
70.356408
 20
3.840480
 30
0.0
 10
70.230678
 20
3.822700
 30
0.0
 10
70.117648
 20
3.810000
 30
0.0
 10
70.017318
 20
3.802380
 30
0.0
 10
69.929688
 20
3.799840
 30
0.0
 10
69.697278
 20
3.808730
 30
0.0
 10
69.467408
 20
3.835400
 30
0.0
 10
69.240078
 20
3.879850
 30
0.0
 10
69.015288
 20
3.942080
 30
0.0
 10
68.730808
 20
4.053837
 30
0.0
 10
68.527608
 20
4.185917
 30
0.0
 10
68.405688
 20
4.338317
 30
0.0
 10
68.365048
 20
4.511040
 30
0.0
 10
68.390448
 20
4.640577
 30
0.0
 10
68.466648
 20
4.765037
 30
0.0
 10
68.593648
 20
4.884417
 30
0.0
 10
68.771448
 20
4.998720
 30
0.0
 10
68.894638
 20
5.052057
 30
0.0
 10
69.020368
 20
5.110477
 30
0.0
 10
69.148638
 20
5.173977
 30
0.0
 10
69.279451
 20
5.242560
 30
0.0
 10
69.403908
 20
5.327647
 30
0.0
 10
69.492808
 20
5.420357
 30
0.0
 10
69.546148
 20
5.520687
 30
0.0
 10
69.563928
 20
5.628640
 30
0.0
  0
LWPOLYLINE
  5
10b
100
AcDbEntity
  8
parabolic_bend
 62
7
100
AcDbPolyline
 90
89
 70
0
 10
75.596431
 20
5.588000
 30
0.0
 10
75.596431
 20
7.503160
 30
0.0
 10
75.596431
 20
9.418320
 30
0.0
 10
75.596431
 20
11.333480
 30
0.0
 10
75.596431
 20
13.248640
 30
0.0
 10
75.071921
 20
13.458184
 30
0.0
 10
74.697271
 20
13.660111
 30
0.0
 10
74.472481
 20
13.854424
 30
0.0
 10
74.397551
 20
14.041120
 30
0.0
 10
74.459781
 20
14.227804
 30
0.0
 10
74.646471
 20
14.361151
 30
0.0
 10
74.957621
 20
14.441164
 30
0.0
 10
75.393231
 20
14.467834
 30
0.0
 10
76.109511
 20
14.467834
 30
0.0
 10
76.825794
 20
14.467834
 30
0.0
 10
77.542074
 20
14.467834
 30
0.0
 10
78.258354
 20
14.467834
 30
0.0
 10
78.507271
 20
14.462754
 30
0.0
 10
78.725711
 20
14.447514
 30
0.0
 10
78.913671
 20
14.422114
 30
0.0
 10
79.071154
 20
14.386557
 30
0.0
 10
79.204501
 20
14.344641
 30
0.0
 10
79.299748
 20
14.279868
 30
0.0
 10
79.356898
 20
14.192241
 30
0.0
 10
79.375948
 20
14.081757
 30
0.0
 10
79.361978
 20
13.972531
 30
0.0
 10
79.320068
 20
13.868388
 30
0.0
 10
79.250221
 20
13.769331
 30
0.0
 10
79.152434
 20
13.675357
 30
0.0
 10
78.969551
 20
13.549621
 30
0.0
 10
78.746028
 20
13.436588
 30
0.0
 10
78.481868
 20
13.336261
 30
0.0
 10
78.177071
 20
13.248637
 30
0.0
 10
78.177071
 20
11.333477
 30
0.0
 10
78.177071
 20
9.418317
 30
0.0
 10
78.177071
 20
7.503157
 30
0.0
 10
78.177071
 20
5.587997
 30
0.0
 10
78.213898
 20
5.473694
 30
0.0
 10
78.324388
 20
5.354314
 30
0.0
 10
78.508538
 20
5.229854
 30
0.0
 10
78.766351
 20
5.100317
 30
0.0
 10
79.033048
 20
4.964424
 30
0.0
 10
79.223548
 20
4.820914
 30
0.0
 10
79.337848
 20
4.669784
 30
0.0
 10
79.375951
 20
4.511037
 30
0.0
 10
79.342928
 20
4.348474
 30
0.0
 10
79.243868
 20
4.206234
 30
0.0
 10
79.078768
 20
4.084314
 30
0.0
 10
78.847631
 20
3.982717
 30
0.0
 10
78.589818
 20
3.902707
 30
0.0
 10
78.344708
 20
3.845557
 30
0.0
 10
78.112301
 20
3.811267
 30
0.0
 10
77.892594
 20
3.799837
 30
0.0
 10
77.811311
 20
3.802377
 30
0.0
 10
77.709711
 20
3.809997
 30
0.0
 10
77.587791
 20
3.822697
 30
0.0
 10
77.445554
 20
3.840477
 30
0.0
 10
77.296961
 20
3.858257
 30
0.0
 10
77.155988
 20
3.870957
 30
0.0
 10
77.022638
 20
3.878577
 30
0.0
 10
76.896911
 20
3.881117
 30
0.0
 10
76.800391
 20
3.878577
 30
0.0
 10
76.693711
 20
3.870957
 30
0.0
 10
76.576871
 20
3.858257
 30
0.0
 10
76.449871
 20
3.840477
 30
0.0
 10
76.320331
 20
3.822697
 30
0.0
 10
76.195871
 20
3.809997
 30
0.0
 10
76.076491
 20
3.802377
 30
0.0
 10
75.962191
 20
3.799837
 30
0.0
 10
75.731051
 20
3.811267
 30
0.0
 10
75.484671
 20
3.845557
 30
0.0
 10
75.223051
 20
3.902707
 30
0.0
 10
74.946194
 20
3.982717
 30
0.0
 10
74.706161
 20
4.084314
 30
0.0
 10
74.534711
 20
4.206234
 30
0.0
 10
74.431841
 20
4.348474
 30
0.0
 10
74.397551
 20
4.511037
 30
0.0
 10
74.417871
 20
4.622794
 30
0.0
 10
74.478831
 20
4.734554
 30
0.0
 10
74.580431
 20
4.846314
 30
0.0
 10
74.722671
 20
4.958077
 30
0.0
 10
74.779821
 20
4.992367
 30
0.0
 10
74.890311
 20
5.054597
 30
0.0
 10
75.054141
 20
5.144767
 30
0.0
 10
75.271314
 20
5.262877
 30
0.0
 10
75.413551
 20
5.344154
 30
0.0
 10
75.515151
 20
5.425434
 30
0.0
 10
75.576111
 20
5.506714
 30
0.0
 10
75.596431
 20
5.587997
 30
0.0
  0
LWPOLYLINE
  5
10c
100
AcDbEntity
  8
parabolic_bend
 62
7
100
AcDbPolyline
 90
33
 70
0
 10
75.393231
 20
16.865597
 30
0.0
 10
75.421171
 20
17.109428
 30
0.0
 10
75.504991
 20
17.312626
 30
0.0
 10
75.644691
 20
17.475188
 30
0.0
 10
75.840271
 20
17.597117
 30
0.0
 10
76.073951
 20
17.694898
 30
0.0
 10
76.327951
 20
17.764746
 30
0.0
 10
76.602271
 20
17.806658
 30
0.0
 10
76.896911
 20
17.820628
 30
0.0
 10
77.194088
 20
17.810468
 30
0.0
 10
77.455708
 20
17.779986
 30
0.0
 10
77.681771
 20
17.729188
 30
0.0
 10
77.872274
 20
17.658077
 30
0.0
 10
78.094521
 20
17.517098
 30
0.0
 10
78.253268
 20
17.338026
 30
0.0
 10
78.348518
 20
17.120858
 30
0.0
 10
78.380271
 20
16.865597
 30
0.0
 10
78.349788
 20
16.602698
 30
0.0
 10
78.258348
 20
16.382986
 30
0.0
 10
78.105951
 20
16.206458
 30
0.0
 10
77.892594
 20
16.073117
 30
0.0
 10
77.698281
 20
16.001988
 30
0.0
 10
77.460788
 20
15.951186
 30
0.0
 10
77.180118
 20
15.920708
 30
0.0
 10
76.856271
 20
15.910548
 30
0.0
 10
76.559091
 20
15.920708
 30
0.0
 10
76.297471
 20
15.951186
 30
0.0
 10
76.071411
 20
16.001988
 30
0.0
 10
75.880911
 20
16.073117
 30
0.0
 10
75.667551
 20
16.206458
 30
0.0
 10
75.515151
 20
16.382986
 30
0.0
 10
75.423711
 20
16.602698
 30
0.0
 10
75.393231
 20
16.865597
 30
0.0
  0
LWPOLYLINE
  5
10d
100
AcDbEntity
  8
parabolic_bend
 62
7
100
AcDbPolyline
 90
165
 70
0
 10
80.511334
 20
8.595360
 30
0.0
 10
80.520224
 20
9.076687
 30
0.0
 10
80.546894
 20
9.545314
 30
0.0
 10
80.591344
 20
10.001244
 30
0.0
 10
80.653574
 20
10.444480
 30
0.0
 10
80.757714
 20
10.890244
 30
0.0
 10
80.907574
 20
11.333474
 30
0.0
 10
81.103154
 20
11.774164
 30
0.0
 10
81.344456
 20
12.212320
 30
0.0
 10
81.697514
 20
12.736824
 30
0.0
 10
82.086134
 20
13.192751
 30
0.0
 10
82.510314
 20
13.580104
 30
0.0
 10
82.970054
 20
13.898880
 30
0.0
 10
83.586001
 20
14.201134
 30
0.0
 10
84.275611
 20
14.417031
 30
0.0
 10
85.038881
 20
14.546574
 30
0.0
 10
85.875814
 20
14.589760
 30
0.0
 10
86.697501
 20
14.552924
 30
0.0
 10
87.415051
 20
14.442431
 30
0.0
 10
88.028461
 20
14.258284
 30
0.0
 10
88.537736
 20
14.000480
 30
0.0
 10
88.937781
 20
13.680434
 30
0.0
 10
89.223528
 20
13.289271
 30
0.0
 10
89.394981
 20
12.826994
 30
0.0
 10
89.452136
 20
12.293600
 30
0.0
 10
89.414031
 20
11.950694
 30
0.0
 10
89.299728
 20
11.633194
 30
0.0
 10
89.109228
 20
11.341094
 30
0.0
 10
88.842534
 20
11.074400
 30
0.0
 10
88.540268
 20
10.861034
 30
0.0
 10
88.222768
 20
10.708634
 30
0.0
 10
87.890031
 20
10.617194
 30
0.0
 10
87.542054
 20
10.586720
 30
0.0
 10
87.393461
 20
10.591800
 30
0.0
 10
87.252491
 20
10.607040
 30
0.0
 10
87.119141
 20
10.632440
 30
0.0
 10
86.993414
 20
10.668000
 30
0.0
 10
86.879111
 20
10.723874
 30
0.0
 10
86.759728
 20
10.789914
 30
0.0
 10
86.635271
 20
10.866114
 30
0.0
 10
86.505734
 20
10.952480
 30
0.0
 10
86.401591
 20
11.046454
 30
0.0
 10
86.312688
 20
11.125194
 30
0.0
 10
86.239031
 20
11.188694
 30
0.0
 10
86.180614
 20
11.236960
 30
0.0
 10
86.103141
 20
11.299184
 30
0.0
 10
86.033291
 20
11.343634
 30
0.0
 10
85.971061
 20
11.370304
 30
0.0
 10
85.916454
 20
11.379194
 30
0.0
 10
85.874541
 20
11.369034
 30
0.0
 10
85.830091
 20
11.358874
 30
0.0
 10
85.783101
 20
11.348714
 30
0.0
 10
85.733574
 20
11.338554
 30
0.0
 10
85.696741
 20
11.320774
 30
0.0
 10
85.667531
 20
11.287751
 30
0.0
 10
85.645941
 20
11.239491
 30
0.0
 10
85.631971
 20
11.175994
 30
0.0
 10
85.554498
 20
11.210278
 30
0.0
 10
85.484645
 20
11.252188
 30
0.0
 10
85.422415
 20
11.301718
 30
0.0
 10
85.367808
 20
11.358874
 30
0.0
 10
85.332245
 20
11.436338
 30
0.0
 10
85.306845
 20
11.526508
 30
0.0
 10
85.291605
 20
11.629378
 30
0.0
 10
85.286525
 20
11.744954
 30
0.0
 10
85.300495
 20
11.890998
 30
0.0
 10
85.342405
 20
12.024348
 30
0.0
 10
85.412255
 20
12.144998
 30
0.0
 10
85.510048
 20
12.252954
 30
0.0
 10
85.629425
 20
12.341848
 30
0.0
 10
85.764042
 20
12.405346
 30
0.0
 10
85.913905
 20
12.443448
 30
0.0
 10
86.079008
 20
12.456148
 30
0.0
 10
86.157745
 20
12.453608
 30
0.0
 10
86.251722
 20
12.445988
 30
0.0
 10
86.360945
 20
12.433288
 30
0.0
 10
86.485408
 20
12.415508
 30
0.0
 10
86.608595
 20
12.397728
 30
0.0
 10
86.714005
 20
12.385028
 30
0.0
 10
86.801635
 20
12.377408
 30
0.0
 10
86.871491
 20
12.374868
 30
0.0
 10
87.022615
 20
12.395188
 30
0.0
 10
87.130565
 20
12.456146
 30
0.0
 10
87.195335
 20
12.557748
 30
0.0
 10
87.216925
 20
12.699994
 30
0.0
 10
87.190255
 20
12.830798
 30
0.0
 10
87.110245
 20
12.959066
 30
0.0
 10
86.976895
 20
13.084798
 30
0.0
 10
86.790211
 20
13.207994
 30
0.0
 10
86.496835
 20
13.368008
 30
0.0
 10
86.206005
 20
13.482306
 30
0.0
 10
85.917715
 20
13.550888
 30
0.0
 10
85.631971
 20
13.573748
 30
0.0
 10
84.952518
 20
13.503893
 30
0.0
 10
84.356885
 20
13.294340
 30
0.0
 10
83.845078
 20
12.945093
 30
0.0
 10
83.417091
 20
12.456148
 30
0.0
 10
83.123718
 20
11.936713
 30
0.0
 10
82.914165
 20
11.353783
 30
0.0
 10
82.788435
 20
10.707353
 30
0.0
 10
82.746528
 20
9.997428
 30
0.0
 10
82.763038
 20
9.448786
 30
0.0
 10
82.812568
 20
8.961103
 30
0.0
 10
82.895118
 20
8.534386
 30
0.0
 10
83.010691
 20
8.168628
 30
0.0
 10
83.169438
 20
7.860016
 30
0.0
 10
83.361205
 20
7.584426
 30
0.0
 10
83.585998
 20
7.341856
 30
0.0
 10
83.843811
 20
7.132308
 30
0.0
 10
84.101618
 20
6.998956
 30
0.0
 10
84.387365
 20
6.883383
 30
0.0
 10
84.701055
 20
6.785596
 30
0.0
 10
85.042688
 20
6.705588
 30
0.0
 10
85.413525
 20
6.652246
 30
0.0
 10
85.794525
 20
6.614146
 30
0.0
 10
86.185685
 20
6.591286
 30
0.0
 10
86.587008
 20
6.583666
 30
0.0
 10
87.164855
 20
6.612876
 30
0.0
 10
87.679205
 20
6.700506
 30
0.0
 10
88.130055
 20
6.846556
 30
0.0
 10
88.517411
 20
7.051026
 30
0.0
 10
88.786645
 20
7.260573
 30
0.0
 10
89.005082
 20
7.503143
 30
0.0
 10
89.172722
 20
7.778733
 30
0.0
 10
89.289568
 20
8.087346
 30
0.0
 10
89.509272
 20
8.018763
 30
0.0
 10
89.721362
 20
7.894300
 30
0.0
 10
89.925832
 20
7.713963
 30
0.0
 10
90.122688
 20
7.477746
 30
0.0
 10
90.291592
 20
7.223743
 30
0.0
 10
90.412242
 20
6.969740
 30
0.0
 10
90.484632
 20
6.715743
 30
0.0
 10
90.508762
 20
6.461746
 30
0.0
 10
90.460497
 20
5.914373
 30
0.0
 10
90.315717
 20
5.410183
 30
0.0
 10
90.074417
 20
4.949173
 30
0.0
 10
89.736602
 20
4.531346
 30
0.0
 10
89.332737
 20
4.193526
 30
0.0
 10
88.872997
 20
3.952226
 30
0.0
 10
88.357377
 20
3.807446
 30
0.0
 10
87.785882
 20
3.759186
 30
0.0
 10
87.526800
 20
3.762996
 30
0.0
 10
87.257557
 20
3.774426
 30
0.0
 10
86.978160
 20
3.793476
 30
0.0
 10
86.688602
 20
3.820146
 30
0.0
 10
86.414280
 20
3.846816
 30
0.0
 10
86.180600
 20
3.865866
 30
0.0
 10
85.987560
 20
3.877296
 30
0.0
 10
85.835162
 20
3.881106
 30
0.0
 10
85.661170
 20
3.879694
 30
0.0
 10
85.504960
 20
3.875884
 30
0.0
 10
85.366530
 20
3.869534
 30
0.0
 10
85.245882
 20
3.860644
 30
0.0
 10
84.744230
 20
3.816194
 30
0.0
 10
84.377200
 20
3.784444
 30
0.0
 10
84.144790
 20
3.765394
 30
0.0
 10
84.047002
 20
3.759044
 30
0.0
 10
83.263412
 20
3.863184
 30
0.0
 10
82.558562
 20
4.175604
 30
0.0
 10
81.932452
 20
4.696304
 30
0.0
 10
81.385085
 20
5.425284
 30
0.0
 10
81.002812
 20
6.156802
 30
0.0
 10
80.729762
 20
6.928962
 30
0.0
 10
80.565932
 20
7.741762
 30
0.0
 10
80.511325
 20
8.595204
 30
0.0
  0
LWPOLYLINE
  5
10e
100
AcDbEntity
  8
parabolic_bend
 62
7
100
AcDbPolyline
 90
17
 70
0
 10
90.478926
 20
2.336800
 30
0.0
 10
93.018926
 20
2.336800
 30
0.0
 10
95.558926
 20
2.336800
 30
0.0
 10
98.098926
 20
2.336800
 30
0.0
 10
100.638926
 20
2.336800
 30
0.0
 10
100.638926
 20
2.087880
 30
0.0
 10
100.638926
 20
1.838960
 30
0.0
 10
100.638926
 20
1.590040
 30
0.0
 10
100.638926
 20
1.341120
 30
0.0
 10
98.098926
 20
1.341120
 30
0.0
 10
95.558926
 20
1.341120
 30
0.0
 10
93.018926
 20
1.341120
 30
0.0
 10
90.478926
 20
1.341120
 30
0.0
 10
90.478926
 20
1.590040
 30
0.0
 10
90.478926
 20
1.838960
 30
0.0
 10
90.478926
 20
2.087880
 30
0.0
 10
90.478926
 20
2.336800
 30
0.0
  0
LWPOLYLINE
  5
10f
100
AcDbEntity
  8
parabolic_bend
 62
7
100
AcDbPolyline
 90
93
 70
0
 10
102.020689
 20
6.583680
 30
0.0
 10
102.020689
 20
9.001760
 30
0.0
 10
102.020689
 20
11.419840
 30
0.0
 10
102.020689
 20
13.837920
 30
0.0
 10
102.020689
 20
16.256000
 30
0.0
 10
101.978779
 20
16.478241
 30
0.0
 10
101.853046
 20
16.697948
 30
0.0
 10
101.643496
 20
16.915121
 30
0.0
 10
101.350126
 20
17.129760
 30
0.0
 10
101.056756
 20
17.341841
 30
0.0
 10
100.847206
 20
17.551388
 30
0.0
 10
100.721476
 20
17.758401
 30
0.0
 10
100.679566
 20
17.962880
 30
0.0
 10
100.693536
 20
18.077171
 30
0.0
 10
100.735446
 20
18.176226
 30
0.0
 10
100.805296
 20
18.260051
 30
0.0
 10
100.903086
 20
18.328640
 30
0.0
 10
101.030086
 20
18.381971
 30
0.0
 10
101.167246
 20
18.420068
 30
0.0
 10
101.314566
 20
18.442928
 30
0.0
 10
101.472046
 20
18.450548
 30
0.0
 10
102.096886
 20
18.450548
 30
0.0
 10
102.721726
 20
18.450548
 30
0.0
 10
103.346566
 20
18.450548
 30
0.0
 10
103.971406
 20
18.450548
 30
0.0
 10
104.123803
 20
18.442928
 30
0.0
 10
104.255883
 20
18.420068
 30
0.0
 10
104.367643
 20
18.381971
 30
0.0
 10
104.459086
 20
18.328640
 30
0.0
 10
104.539093
 20
18.254971
 30
0.0
 10
104.596243
 20
18.155906
 30
0.0
 10
104.630536
 20
18.031451
 30
0.0
 10
104.641966
 20
17.881600
 30
0.0
 10
104.641966
 20
16.901160
 30
0.0
 10
104.641966
 20
15.920720
 30
0.0
 10
104.641966
 20
14.940280
 30
0.0
 10
104.641966
 20
13.959840
 30
0.0
 10
104.860403
 20
13.986510
 30
0.0
 10
105.210923
 20
14.066517
 30
0.0
 10
105.693523
 20
14.199870
 30
0.0
 10
106.308206
 20
14.386565
 30
0.0
 10
106.621890
 20
14.475460
 30
0.0
 10
106.912720
 20
14.538957
 30
0.0
 10
107.180690
 20
14.577060
 30
0.0
 10
107.425803
 20
14.589760
 30
0.0
 10
108.434180
 20
14.476724
 30
0.0
 10
109.346037
 20
14.137631
 30
0.0
 10
110.161377
 20
13.572484
 30
0.0
 10
110.880203
 20
12.781280
 30
0.0
 10
111.413597
 20
11.925294
 30
0.0
 10
111.794595
 20
11.003274
 30
0.0
 10
112.023197
 20
10.015214
 30
0.0
 10
112.099403
 20
8.961120
 30
0.0
 10
112.037167
 20
7.997187
 30
0.0
 10
111.850475
 20
7.096757
 30
0.0
 10
111.539327
 20
6.259827
 30
0.0
 10
111.103723
 20
5.486400
 30
0.0
 10
110.473797
 20
4.730750
 30
0.0
 10
109.742277
 20
4.191000
 30
0.0
 10
108.909160
 20
3.867150
 30
0.0
 10
107.974446
 20
3.759200
 30
0.0
 10
107.766160
 20
3.763010
 30
0.0
 10
107.527400
 20
3.774440
 30
0.0
 10
107.258160
 20
3.793490
 30
0.0
 10
106.958443
 20
3.820160
 30
0.0
 10
106.667610
 20
3.846830
 30
0.0
 10
106.425040
 20
3.865880
 30
0.0
 10
106.230730
 20
3.877310
 30
0.0
 10
106.084683
 20
3.881120
 30
0.0
 10
105.867510
 20
3.879709
 30
0.0
 10
105.683360
 20
3.875899
 30
0.0
 10
105.532233
 20
3.869549
 30
0.0
 10
105.414126
 20
3.860659
 30
0.0
 10
104.950573
 20
3.816209
 30
0.0
 10
104.616560
 20
3.784459
 30
0.0
 10
104.412090
 20
3.765409
 30
0.0
 10
104.337163
 20
3.759059
 30
0.0
 10
103.980293
 20
3.773029
 30
0.0
 10
103.661523
 20
3.814939
 30
0.0
 10
103.380853
 20
3.884789
 30
0.0
 10
103.138283
 20
3.982579
 30
0.0
 10
102.926193
 20
4.119736
 30
0.0
 10
102.736963
 20
4.287376
 30
0.0
 10
102.570593
 20
4.485496
 30
0.0
 10
102.427086
 20
4.714099
 30
0.0
 10
102.339453
 20
4.880466
 30
0.0
 10
102.259443
 20
5.074776
 30
0.0
 10
102.187053
 20
5.297026
 30
0.0
 10
102.122283
 20
5.547219
 30
0.0
 10
102.077833
 20
5.810106
 30
0.0
 10
102.046083
 20
6.070456
 30
0.0
 10
102.027033
 20
6.328266
 30
0.0
 10
102.020683
 20
6.583539
 30
0.0
  0
LWPOLYLINE
  5
110
100
AcDbEntity
  8
parabolic_bend
 62
7
100
AcDbPolyline
 90
49
 70
0
 10
109.721960
 20
9.631539
 30
0.0
 10
109.686395
 20
10.291933
 30
0.0
 10
109.579715
 20
10.911693
 30
0.0
 10
109.401915
 20
11.490813
 30
0.0
 10
109.153000
 20
12.029299
 30
0.0
 10
108.770727
 20
12.580473
 30
0.0
 10
108.314797
 20
12.974170
 30
0.0
 10
107.785207
 20
13.210393
 30
0.0
 10
107.181963
 20
13.289139
 30
0.0
 10
106.922877
 20
13.257383
 30
0.0
 10
106.572357
 20
13.162130
 30
0.0
 10
106.130397
 20
13.003383
 30
0.0
 10
105.597000
 20
12.781139
 30
0.0
 10
105.331567
 20
12.674453
 30
0.0
 10
105.083917
 20
12.598250
 30
0.0
 10
104.854050
 20
12.552533
 30
0.0
 10
104.641963
 20
12.537293
 30
0.0
 10
104.641963
 20
11.506053
 30
0.0
 10
104.641963
 20
10.474813
 30
0.0
 10
104.641963
 20
9.443573
 30
0.0
 10
104.641963
 20
8.412333
 30
0.0
 10
104.643092
 20
8.242150
 30
0.0
 10
104.646902
 20
8.077047
 30
0.0
 10
104.653252
 20
7.917030
 30
0.0
 10
104.662142
 20
7.762093
 30
0.0
 10
104.686272
 20
7.613500
 30
0.0
 10
104.718022
 20
7.472527
 30
0.0
 10
104.757392
 20
7.339180
 30
0.0
 10
104.804382
 20
7.213453
 30
0.0
 10
104.872959
 20
7.097880
 30
0.0
 10
104.956779
 20
6.995010
 30
0.0
 10
105.055839
 20
6.904840
 30
0.0
 10
105.170142
 20
6.827373
 30
0.0
 10
105.306029
 20
6.774030
 30
0.0
 10
105.469859
 20
6.735930
 30
0.0
 10
105.661632
 20
6.713070
 30
0.0
 10
105.881345
 20
6.705450
 30
0.0
 10
106.369025
 20
6.705450
 30
0.0
 10
106.856705
 20
6.705450
 30
0.0
 10
107.344382
 20
6.705450
 30
0.0
 10
107.832062
 20
6.705450
 30
0.0
 10
108.253699
 20
6.748627
 30
0.0
 10
108.624539
 20
6.878167
 30
0.0
 10
108.944579
 20
7.094067
 30
0.0
 10
109.213825
 20
7.396330
 30
0.0
 10
109.436069
 20
7.795107
 30
0.0
 10
109.594816
 20
8.300567
 30
0.0
 10
109.690066
 20
8.912707
 30
0.0
 10
109.721822
 20
9.631530
 30
0.0
  0
LWPOLYLINE
  5
111
100
AcDbEntity
  8
parabolic_bend
 62
7
100
AcDbPolyline
 90
97
 70
0
 10
113.293209
 20
8.595360
 30
0.0
 10
113.360516
 20
9.711684
 30
0.0
 10
113.562446
 20
10.744194
 30
0.0
 10
113.898996
 20
11.692884
 30
0.0
 10
114.370166
 20
12.557760
 30
0.0
 10
115.050886
 20
13.393414
 30
0.0
 10
115.853526
 20
13.990311
 30
0.0
 10
116.778086
 20
14.348457
 30
0.0
 10
117.824566
 20
14.467840
 30
0.0
 10
118.551006
 20
14.467840
 30
0.0
 10
119.277446
 20
14.467840
 30
0.0
 10
120.003886
 20
14.467840
 30
0.0
 10
120.730326
 20
14.467840
 30
0.0
 10
121.317060
 20
14.443710
 30
0.0
 10
121.817440
 20
14.371317
 30
0.0
 10
122.231463
 20
14.250670
 30
0.0
 10
122.559129
 20
14.081765
 30
0.0
 10
122.816933
 20
13.872210
 30
0.0
 10
123.001080
 20
13.629637
 30
0.0
 10
123.111570
 20
13.354050
 30
0.0
 10
123.148406
 20
13.045445
 30
0.0
 10
123.086170
 20
12.553950
 30
0.0
 10
122.899480
 20
12.095480
 30
0.0
 10
122.588333
 20
11.670030
 30
0.0
 10
122.152729
 20
11.277605
 30
0.0
 10
121.929203
 20
11.126470
 30
0.0
 10
121.543120
 20
10.896600
 30
0.0
 10
120.994480
 20
10.587990
 30
0.0
 10
120.283286
 20
10.200645
 30
0.0
 10
119.574623
 20
9.847580
 30
0.0
 10
118.992960
 20
9.540240
 30
0.0
 10
118.538303
 20
9.278623
 30
0.0
 10
118.210646
 20
9.062725
 30
0.0
 10
117.710263
 20
8.639813
 30
0.0
 10
117.326723
 20
8.183880
 30
0.0
 10
117.060023
 20
7.694933
 30
0.0
 10
116.910166
 20
7.172965
 30
0.0
 10
117.190833
 20
7.038343
 30
0.0
 10
117.484203
 20
6.918960
 30
0.0
 10
117.790273
 20
6.814823
 30
0.0
 10
118.109046
 20
6.725925
 30
0.0
 10
118.431623
 20
6.663693
 30
0.0
 10
118.749120
 20
6.619243
 30
0.0
 10
119.061543
 20
6.592573
 30
0.0
 10
119.368886
 20
6.583683
 30
0.0
 10
119.948003
 20
6.614160
 30
0.0
 10
120.466163
 20
6.705600
 30
0.0
 10
120.923363
 20
6.858000
 30
0.0
 10
121.319609
 20
7.071363
 30
0.0
 10
121.595193
 20
7.287257
 30
0.0
 10
121.812360
 20
7.528557
 30
0.0
 10
121.971110
 20
7.795260
 30
0.0
 10
122.071446
 20
8.087363
 30
0.0
 10
122.315280
 20
7.994650
 30
0.0
 10
122.538800
 20
7.858760
 30
0.0
 10
122.742000
 20
7.679690
 30
0.0
 10
122.924886
 20
7.457443
 30
0.0
 10
123.084900
 20
7.209790
 30
0.0
 10
123.199200
 20
6.954517
 30
0.0
 10
123.267780
 20
6.691630
 30
0.0
 10
123.290640
 20
6.421123
 30
0.0
 10
123.242375
 20
5.900420
 30
0.0
 10
123.097595
 20
5.415280
 30
0.0
 10
122.856295
 20
4.965700
 30
0.0
 10
122.518480
 20
4.551683
 30
0.0
 10
122.112077
 20
4.204970
 30
0.0
 10
121.665037
 20
3.957320
 30
0.0
 10
121.177357
 20
3.808733
 30
0.0
 10
120.649040
 20
3.759203
 30
0.0
 10
120.378527
 20
3.763013
 30
0.0
 10
120.095315
 20
3.774443
 30
0.0
 10
119.799407
 20
3.793493
 30
0.0
 10
119.490800
 20
3.820163
 30
0.0
 10
119.199967
 20
3.846833
 30
0.0
 10
118.957397
 20
3.865883
 30
0.0
 10
118.763087
 20
3.877313
 30
0.0
 10
118.617040
 20
3.881123
 30
0.0
 10
118.451937
 20
3.879711
 30
0.0
 10
118.302077
 20
3.875901
 30
0.0
 10
118.167457
 20
3.869551
 30
0.0
 10
118.048080
 20
3.860661
 30
0.0
 10
117.565477
 20
3.816211
 30
0.0
 10
117.194637
 20
3.784461
 30
0.0
 10
116.935557
 20
3.765411
 30
0.0
 10
116.788240
 20
3.759061
 30
0.0
 10
116.454227
 20
3.783191
 30
0.0
 10
116.122757
 20
3.855581
 30
0.0
 10
115.793830
 20
3.976231
 30
0.0
 10
115.467443
 20
4.145141
 30
0.0
 10
115.152480
 20
4.364849
 30
0.0
 10
114.857840
 20
4.617579
 30
0.0
 10
114.583520
 20
4.903329
 30
0.0
 10
114.329520
 20
5.222101
 30
0.0
 10
113.876130
 20
5.966319
 30
0.0
 10
113.552280
 20
6.776579
 30
0.0
 10
113.357970
 20
7.652879
 30
0.0
 10
113.293203
 20
8.595221
 30
0.0
  0
LWPOLYLINE
  5
112
100
AcDbEntity
  8
parabolic_bend
 62
7
100
AcDbPolyline
 90
41
 70
0
 10
115.955120
 20
7.924661
 30
0.0
 10
116.167207
 20
8.414879
 30
0.0
 10
116.437717
 20
8.869536
 30
0.0
 10
116.766650
 20
9.288639
 30
0.0
 10
117.154003
 20
9.672181
 30
0.0
 10
117.479120
 20
9.932526
 30
0.0
 10
117.844877
 20
10.185256
 30
0.0
 10
118.251277
 20
10.430366
 30
0.0
 10
118.698320
 20
10.667861
 30
0.0
 10
118.953587
 20
10.801206
 30
0.0
 10
119.211395
 20
10.937096
 30
0.0
 10
119.471747
 20
11.075526
 30
0.0
 10
119.734640
 20
11.216501
 30
0.0
 10
120.081347
 20
11.471766
 30
0.0
 10
120.328997
 20
11.749896
 30
0.0
 10
120.477587
 20
12.050886
 30
0.0
 10
120.527123
 20
12.374741
 30
0.0
 10
120.478857
 20
12.674456
 30
0.0
 10
120.334077
 20
12.923373
 30
0.0
 10
120.092777
 20
13.121496
 30
0.0
 10
119.754960
 20
13.268821
 30
0.0
 10
119.508577
 20
13.331046
 30
0.0
 10
119.216477
 20
13.375493
 30
0.0
 10
118.878657
 20
13.402163
 30
0.0
 10
118.495120
 20
13.411053
 30
0.0
 10
117.669617
 20
13.341197
 30
0.0
 10
116.981277
 20
13.131644
 30
0.0
 10
116.430097
 20
12.782397
 30
0.0
 10
116.016080
 20
12.293453
 30
0.0
 10
115.802717
 20
11.865457
 30
0.0
 10
115.650317
 20
11.353647
 30
0.0
 10
115.558877
 20
10.758017
 30
0.0
 10
115.528400
 20
10.078573
 30
0.0
 10
115.533480
 20
9.750907
 30
0.0
 10
115.548720
 20
9.438487
 30
0.0
 10
115.574120
 20
9.141310
 30
0.0
 10
115.609680
 20
8.859373
 30
0.0
 10
115.669367
 20
8.602830
 30
0.0
 10
115.746837
 20
8.361527
 30
0.0
 10
115.842087
 20
8.135470
 30
0.0
 10
115.955120
 20
7.924653
 30
0.0
  0
LWPOLYLINE
  5
113
100
AcDbEntity
  8
parabolic_bend
 62
7
100
AcDbPolyline
 90
193
 70
0
 10
133.818630
 20
11.927840
 30
0.0
 10
133.818630
 20
10.342880
 30
0.0
 10
133.818630
 20
8.757920
 30
0.0
 10
133.818630
 20
7.172960
 30
0.0
 10
133.818630
 20
5.588000
 30
0.0
 10
133.885937
 20
5.481317
 30
0.0
 10
134.047224
 20
5.344157
 30
0.0
 10
134.302494
 20
5.176517
 30
0.0
 10
134.651750
 20
4.978400
 30
0.0
 10
134.811764
 20
4.872987
 30
0.0
 10
134.926061
 20
4.759957
 30
0.0
 10
134.994644
 20
4.639307
 30
0.0
 10
135.017504
 20
4.511040
 30
0.0
 10
134.984478
 20
4.348477
 30
0.0
 10
134.885416
 20
4.206237
 30
0.0
 10
134.720318
 20
4.084317
 30
0.0
 10
134.489184
 20
3.982720
 30
0.0
 10
134.231368
 20
3.902710
 30
0.0
 10
133.986256
 20
3.845560
 30
0.0
 10
133.753848
 20
3.811270
 30
0.0
 10
133.534144
 20
3.799840
 30
0.0
 10
133.460478
 20
3.802380
 30
0.0
 10
133.361418
 20
3.810000
 30
0.0
 10
133.236958
 20
3.822700
 30
0.0
 10
133.087104
 20
3.840480
 30
0.0
 10
132.930888
 20
3.858260
 30
0.0
 10
132.787378
 20
3.870960
 30
0.0
 10
132.656568
 20
3.878580
 30
0.0
 10
132.538464
 20
3.881120
 30
0.0
 10
132.431778
 20
3.878580
 30
0.0
 10
132.314938
 20
3.870960
 30
0.0
 10
132.187938
 20
3.858260
 30
0.0
 10
132.050784
 20
3.840480
 30
0.0
 10
131.916158
 20
3.822700
 30
0.0
 10
131.796778
 20
3.810000
 30
0.0
 10
131.692638
 20
3.802380
 30
0.0
 10
131.603744
 20
3.799840
 30
0.0
 10
131.372598
 20
3.811270
 30
0.0
 10
131.126218
 20
3.845560
 30
0.0
 10
130.864598
 20
3.902710
 30
0.0
 10
130.587744
 20
3.982720
 30
0.0
 10
130.347711
 20
4.084317
 30
0.0
 10
130.176261
 20
4.206237
 30
0.0
 10
130.073391
 20
4.348477
 30
0.0
 10
130.039104
 20
4.511040
 30
0.0
 10
130.072121
 20
4.660897
 30
0.0
 10
130.171181
 20
4.805677
 30
0.0
 10
130.336281
 20
4.945377
 30
0.0
 10
130.567424
 20
5.080000
 30
0.0
 10
130.731248
 20
5.162547
 30
0.0
 10
130.856978
 20
5.227317
 30
0.0
 10
130.944608
 20
5.274307
 30
0.0
 10
130.994144
 20
5.303520
 30
0.0
 10
131.100818
 20
5.382257
 30
0.0
 10
131.177018
 20
5.455917
 30
0.0
 10
131.222738
 20
5.524497
 30
0.0
 10
131.237978
 20
5.588000
 30
0.0
 10
131.237978
 20
7.015480
 30
0.0
 10
131.237978
 20
8.442960
 30
0.0
 10
131.237978
 20
9.870440
 30
0.0
 10
131.237978
 20
11.297920
 30
0.0
 10
131.220198
 20
11.523974
 30
0.0
 10
131.166858
 20
11.734794
 30
0.0
 10
131.077958
 20
11.930374
 30
0.0
 10
130.953504
 20
12.110720
 30
0.0
 10
130.799828
 20
12.261844
 30
0.0
 10
130.623298
 20
12.369791
 30
0.0
 10
130.423911
 20
12.434564
 30
0.0
 10
130.201664
 20
12.456154
 30
0.0
 10
129.811771
 20
12.429484
 30
0.0
 10
129.434581
 20
12.349471
 30
0.0
 10
129.070091
 20
12.216124
 30
0.0
 10
128.718304
 20
12.029440
 30
0.0
 10
128.393181
 20
11.851634
 30
0.0
 10
128.108701
 20
11.724634
 30
0.0
 10
127.864861
 20
11.648434
 30
0.0
 10
127.661664
 20
11.623034
 30
0.0
 10
127.661664
 20
10.114274
 30
0.0
 10
127.661664
 20
8.605514
 30
0.0
 10
127.661664
 20
7.096754
 30
0.0
 10
127.661664
 20
5.587994
 30
0.0
 10
127.709921
 20
5.457181
 30
0.0
 10
127.854701
 20
5.308591
 30
0.0
 10
128.096001
 20
5.142221
 30
0.0
 10
128.433824
 20
4.958074
 30
0.0
 10
128.602731
 20
4.853931
 30
0.0
 10
128.723381
 20
4.744711
 30
0.0
 10
128.795771
 20
4.630411
 30
0.0
 10
128.819901
 20
4.511034
 30
0.0
 10
128.783068
 20
4.395461
 30
0.0
 10
128.672578
 20
4.272271
 30
0.0
 10
128.488428
 20
4.141461
 30
0.0
 10
128.230621
 20
4.003034
 30
0.0
 10
128.134098
 20
3.972554
 30
0.0
 10
128.027418
 20
3.942074
 30
0.0
 10
127.910578
 20
3.911594
 30
0.0
 10
127.783581
 20
3.881114
 30
0.0
 10
127.657848
 20
3.845554
 30
0.0
 10
127.544818
 20
3.820154
 30
0.0
 10
127.444488
 20
3.804914
 30
0.0
 10
127.356861
 20
3.799834
 30
0.0
 10
127.252718
 20
3.802374
 30
0.0
 10
127.123178
 20
3.809994
 30
0.0
 10
126.968238
 20
3.822694
 30
0.0
 10
126.787901
 20
3.840474
 30
0.0
 10
126.624068
 20
3.858254
 30
0.0
 10
126.498338
 20
3.870954
 30
0.0
 10
126.410708
 20
3.878574
 30
0.0
 10
126.361181
 20
3.881114
 30
0.0
 10
126.287518
 20
3.878574
 30
0.0
 10
126.188458
 20
3.870954
 30
0.0
 10
126.063998
 20
3.858254
 30
0.0
 10
125.914141
 20
3.840474
 30
0.0
 10
125.760468
 20
3.822694
 30
0.0
 10
125.624578
 20
3.809994
 30
0.0
 10
125.506468
 20
3.802374
 30
0.0
 10
125.406141
 20
3.799834
 30
0.0
 10
125.183891
 20
3.811264
 30
0.0
 10
124.943861
 20
3.845554
 30
0.0
 10
124.686051
 20
3.902704
 30
0.0
 10
124.410461
 20
3.982714
 30
0.0
 10
124.170431
 20
4.084311
 30
0.0
 10
123.998981
 20
4.206231
 30
0.0
 10
123.896111
 20
4.348471
 30
0.0
 10
123.861821
 20
4.511034
 30
0.0
 10
123.878331
 20
4.605011
 30
0.0
 10
123.927861
 20
4.704071
 30
0.0
 10
124.010411
 20
4.808211
 30
0.0
 10
124.125981
 20
4.917434
 30
0.0
 10
124.280921
 20
4.986011
 30
0.0
 10
124.420621
 20
5.049511
 30
0.0
 10
124.545081
 20
5.107931
 30
0.0
 10
124.654301
 20
5.161274
 30
0.0
 10
124.823211
 20
5.264141
 30
0.0
 10
124.943861
 20
5.369551
 30
0.0
 10
125.016251
 20
5.477501
 30
0.0
 10
125.040381
 20
5.587994
 30
0.0
 10
125.040381
 20
7.376154
 30
0.0
 10
125.040381
 20
9.164314
 30
0.0
 10
125.040381
 20
10.952474
 30
0.0
 10
125.040381
 20
12.740634
 30
0.0
 10
125.007361
 20
12.912078
 30
0.0
 10
124.908301
 20
13.080986
 30
0.0
 10
124.743201
 20
13.247358
 30
0.0
 10
124.512061
 20
13.411194
 30
0.0
 10
124.280921
 20
13.572478
 30
0.0
 10
124.115821
 20
13.731226
 30
0.0
 10
124.016761
 20
13.887438
 30
0.0
 10
123.983741
 20
14.041114
 30
0.0
 10
123.997711
 20
14.161758
 30
0.0
 10
124.039621
 20
14.259546
 30
0.0
 10
124.109471
 20
14.334478
 30
0.0
 10
124.207261
 20
14.386554
 30
0.0
 10
124.326641
 20
14.422108
 30
0.0
 10
124.461261
 20
14.447508
 30
0.0
 10
124.611121
 20
14.462748
 30
0.0
 10
124.776221
 20
14.467828
 30
0.0
 10
125.589021
 20
14.467828
 30
0.0
 10
126.401821
 20
14.467828
 30
0.0
 10
127.214621
 20
14.467828
 30
0.0
 10
128.027421
 20
14.467828
 30
0.0
 10
128.338568
 20
14.448778
 30
0.0
 10
128.560816
 20
14.391626
 30
0.0
 10
128.694168
 20
14.296378
 30
0.0
 10
128.738621
 20
14.163034
 30
0.0
 10
128.704328
 20
14.000468
 30
0.0
 10
128.601456
 20
13.837906
 30
0.0
 10
128.430008
 20
13.675348
 30
0.0
 10
128.189981
 20
13.512794
 30
0.0
 10
127.958838
 20
13.361658
 30
0.0
 10
127.793738
 20
13.213066
 30
0.0
 10
127.694678
 20
13.067018
 30
0.0
 10
127.661661
 20
12.923514
 30
0.0
 10
127.661661
 20
12.867634
 30
0.0
 10
127.661661
 20
12.811754
 30
0.0
 10
127.661661
 20
12.755874
 30
0.0
 10
127.661661
 20
12.699994
 30
0.0
 10
128.008368
 20
12.824448
 30
0.0
 10
128.377936
 20
13.035266
 30
0.0
 10
128.770368
 20
13.332448
 30
0.0
 10
129.185661
 20
13.715994
 30
0.0
 10
129.588246
 20
14.044921
 30
0.0
 10
130.044176
 20
14.279868
 30
0.0
 10
130.553448
 20
14.420838
 30
0.0
 10
131.116061
 20
14.467834
 30
0.0
 10
131.687556
 20
14.425918
 30
0.0
 10
132.203176
 20
14.300186
 30
0.0
 10
132.662916
 20
14.090638
 30
0.0
 10
133.066781
 20
13.797274
 30
0.0
 10
133.395706
 20
13.428968
 30
0.0
 10
133.630653
 20
12.994626
 30
0.0
 10
133.771626
 20
12.494248
 30
0.0
 10
133.818621
 20
11.927834
 30
0.0
  0
LWPOLYLINE
  5
114
100
AcDbEntity
  8
parabolic_bend
 62
7
100
AcDbPolyline
 90
85
 70
0
 10
135.875395
 20
9.204960
 30
0.0
 10
135.946515
 20
10.213334
 30
0.0
 10
136.159875
 20
11.165834
 30
0.0
 10
136.515475
 20
12.062454
 30
0.0
 10
137.013315
 20
12.903200
 30
0.0
 10
137.690222
 20
13.694404
 30
0.0
 10
138.461112
 20
14.259551
 30
0.0
 10
139.325982
 20
14.598644
 30
0.0
 10
140.284835
 20
14.711680
 30
0.0
 10
140.665832
 20
14.692630
 30
0.0
 10
141.056992
 20
14.635477
 30
0.0
 10
141.458312
 20
14.540230
 30
0.0
 10
141.869795
 20
14.406885
 30
0.0
 10
142.245709
 20
14.254480
 30
0.0
 10
142.621629
 20
14.102077
 30
0.0
 10
142.997549
 20
13.949680
 30
0.0
 10
143.373475
 20
13.797285
 30
0.0
 10
143.373475
 20
14.472925
 30
0.0
 10
143.373475
 20
15.148565
 30
0.0
 10
143.373475
 20
15.824205
 30
0.0
 10
143.373475
 20
16.499845
 30
0.0
 10
143.326479
 20
16.689067
 30
0.0
 10
143.185509
 20
16.870674
 30
0.0
 10
142.950559
 20
17.044667
 30
0.0
 10
142.621635
 20
17.211045
 30
0.0
 10
142.292702
 20
17.377407
 30
0.0
 10
142.057752
 20
17.551394
 30
0.0
 10
141.916782
 20
17.733007
 30
0.0
 10
141.869795
 20
17.922245
 30
0.0
 10
141.877415
 20
18.037807
 30
0.0
 10
141.900275
 20
18.140671
 30
0.0
 10
141.938378
 20
18.230847
 30
0.0
 10
141.991720
 20
18.308325
 30
0.0
 10
142.075538
 20
18.370547
 30
0.0
 10
142.184755
 20
18.414991
 30
0.0
 10
142.319378
 20
18.441661
 30
0.0
 10
142.479400
 20
18.450551
 30
0.0
 10
143.149960
 20
18.450551
 30
0.0
 10
143.820520
 20
18.450551
 30
0.0
 10
144.491080
 20
18.450551
 30
0.0
 10
145.161640
 20
18.450551
 30
0.0
 10
145.508345
 20
18.398473
 30
0.0
 10
145.755992
 20
18.242260
 30
0.0
 10
145.904585
 20
17.981913
 30
0.0
 10
145.954120
 20
17.617431
 30
0.0
 10
145.954120
 20
14.630391
 30
0.0
 10
145.954120
 20
11.643351
 30
0.0
 10
145.954120
 20
8.656311
 30
0.0
 10
145.954120
 20
5.669271
 30
0.0
 10
146.549745
 20
5.320018
 30
0.0
 10
146.975192
 20
5.024108
 30
0.0
 10
147.230465
 20
4.781538
 30
0.0
 10
147.315560
 20
4.592311
 30
0.0
 10
147.268565
 20
4.386568
 30
0.0
 10
147.127592
 20
4.216388
 30
0.0
 10
146.892645
 20
4.081768
 30
0.0
 10
146.563720
 20
3.982711
 30
0.0
 10
146.318605
 20
3.938261
 30
0.0
 10
146.050632
 20
3.906511
 30
0.0
 10
145.759805
 20
3.887461
 30
0.0
 10
145.446120
 20
3.881111
 30
0.0
 10
145.080355
 20
3.882240
 30
0.0
 10
144.734915
 20
3.886050
 30
0.0
 10
144.409795
 20
3.892400
 30
0.0
 10
144.105000
 20
3.901290
 30
0.0
 10
143.806545
 20
3.922880
 30
0.0
 10
143.480155
 20
3.947010
 30
0.0
 10
143.125825
 20
3.973680
 30
0.0
 10
142.743560
 20
4.002890
 30
0.0
 10
142.494635
 20
3.999080
 30
0.0
 10
142.255875
 20
3.987650
 30
0.0
 10
142.027278
 20
3.968600
 30
0.0
 10
141.808840
 20
3.941930
 30
0.0
 10
141.233528
 20
3.861920
 30
0.0
 10
140.808075
 20
3.804770
 30
0.0
 10
140.532488
 20
3.770480
 30
0.0
 10
140.406760
 20
3.759050
 30
0.0
 10
139.309478
 20
3.867000
 30
0.0
 10
138.354438
 20
4.190850
 30
0.0
 10
137.541638
 20
4.730600
 30
0.0
 10
136.871080
 20
5.486250
 30
0.0
 10
136.435470
 20
6.259677
 30
0.0
 10
136.124320
 20
7.137247
 30
0.0
 10
135.937630
 20
8.118957
 30
0.0
 10
135.875400
 20
9.204810
 30
0.0
  0
LWPOLYLINE
  5
115
100
AcDbEntity
  8
parabolic_bend
 62
7
100
AcDbPolyline
 90
41
 70
0
 10
143.373480
 20
12.537290
 30
0.0
 10
142.975965
 20
12.739214
 30
0.0
 10
142.616555
 20
12.918282
 30
0.0
 10
142.295245
 20
13.074494
 30
0.0
 10
142.012040
 20
13.207850
 30
0.0
 10
141.742798
 20
13.314524
 30
0.0
 10
141.463398
 20
13.390722
 30
0.0
 10
141.173838
 20
13.436444
 30
0.0
 10
140.874120
 20
13.451684
 30
0.0
 10
140.244198
 20
13.366589
 30
0.0
 10
139.695558
 20
13.111316
 30
0.0
 10
139.228198
 20
12.685869
 30
0.0
 10
138.842120
 20
12.090244
 30
0.0
 10
138.619868
 20
11.565729
 30
0.0
 10
138.461118
 20
11.008199
 30
0.0
 10
138.365868
 20
10.417649
 30
0.0
 10
138.334120
 20
9.794084
 30
0.0
 10
138.359520
 20
9.303862
 30
0.0
 10
138.435720
 20
8.828879
 30
0.0
 10
138.562720
 20
8.369142
 30
0.0
 10
138.740520
 20
7.924644
 30
0.0
 10
139.019918
 20
7.444582
 30
0.0
 10
139.350118
 20
7.101679
 30
0.0
 10
139.731118
 20
6.895942
 30
0.0
 10
140.162920
 20
6.827364
 30
0.0
 10
140.701400
 20
6.827364
 30
0.0
 10
141.239880
 20
6.827364
 30
0.0
 10
141.778360
 20
6.827364
 30
0.0
 10
142.316840
 20
6.827364
 30
0.0
 10
142.498445
 20
6.842604
 30
0.0
 10
142.677515
 20
6.888322
 30
0.0
 10
142.854045
 20
6.964524
 30
0.0
 10
143.028040
 20
7.071207
 30
0.0
 10
143.179165
 20
7.202014
 30
0.0
 10
143.287115
 20
7.350602
 30
0.0
 10
143.351885
 20
7.516974
 30
0.0
 10
143.373475
 20
7.701127
 30
0.0
 10
143.373475
 20
8.910167
 30
0.0
 10
143.373475
 20
10.119207
 30
0.0
 10
143.373475
 20
11.328247
 30
0.0
 10
143.373475
 20
12.537287
 30
0.0
  0
ENDSEC
  0
SECTION
  2
OBJECTS
  0
DICTIONARY
  5
C
330
0
100
AcDbDictionary
  3
ACAD_GROUP
350
D
  3
ACAD_MLINESTYLE
350
17
  0
DICTIONARY
  5
D
330
C
100
AcDbDictionary
  0
DICTIONARY
  5
1A
330
C
100
AcDbDictionary
  0
DICTIONARY
  5
17
330
C
100
AcDbDictionary
  3
STANDARD
350
18
  0
DICTIONARY
  5
19
330
C
100
AcDbDictionary
  0
ENDSEC
  0
EOF
