  0
SECTION
  2
HEADER
  9
$ACADVER
  1
AC1014
  9
$HANDSEED
  5
FFFF
  9
$MEASUREMENT
 70
     1
  0
ENDSEC
  0
SECTION
  2
TABLES
  0
TABLE
  2
VPORT
  5
8
330
0
100
AcDbSymbolTable
 70
     4
  0
VPORT
  5
2E
330
8
100
AcDbSymbolTableRecord
100
AcDbViewportTableRecord
  2
*ACTIVE
 70
     0
 10
0.0
 20
0.0
 11
1.0
 21
1.0
 12
210.0
 22
148.5
 13
0.0
 23
0.0
 14
10.0
 24
10.0
 15
10.0
 25
10.0
 16
0.0
 26
0.0
 36
1.0
 17
0.0
 27
0.0
 37
0.0
 40
341.0
 41
1.24
 42
50.0
 43
0.0
 44
0.0
 50
0.0
 51
0.0
 71
     0
 72
   100
 73
     1
 74
     3
 75
     0
 76
     0
 77
     0
 78
     0
  0
ENDTAB
  0
TABLE
  2
LTYPE
  5
5
330
0
100
AcDbSymbolTable
 70
     1
  0
LTYPE
  5
14
330
5
100
AcDbSymbolTableRecord
100
AcDbLinetypeTableRecord
  2
BYBLOCK
 70
     0
  3

 72
    65
 73
     0
 40
0.0
  0
LTYPE
  5
15
330
5
100
AcDbSymbolTableRecord
100
AcDbLinetypeTableRecord
  2
BYLAYER
 70
     0
  3

 72
    65
 73
     0
 40
0.0
  0
LTYPE
  5
16
330
5
100
AcDbSymbolTableRecord
100
AcDbLinetypeTableRecord
  2
CONTINUOUS
 70
     0
  3
Solid line
 72
    65
 73
     0
 40
0.0
  0
ENDTAB
  0
TABLE
  2
LAYER
  5
2
100
AcDbSymbolTable
 70
2
  0
LAYER
  5
50
100
AcDbSymbolTableRecord
100
AcDbLayerTableRecord
  2
0
 70
0
  6
CONTINUOUS
  0
LAYER
  5
51
100
AcDbSymbolTableRecord
100
AcDbLayerTableRecord
  2
smiley
 70
0
  6
CONTINUOUS
  0
ENDTAB
  0
TABLE
  2
STYLE
  5
3
330
0
100
AcDbSymbolTable
 70
     1
  0
STYLE
  5
11
330
3
100
AcDbSymbolTableRecord
100
AcDbTextStyleTableRecord
  2
STANDARD
 70
     0
 40
0.0
 41
1.0
 50
0.0
 71
     0
 42
2.5
  3
txt
  4

  0
ENDTAB
  0
TABLE
  2
VIEW
  5
6
330
0
100
AcDbSymbolTable
 70
     0
  0
ENDTAB
  0
TABLE
  2
UCS
  5
7
330
0
100
AcDbSymbolTable
 70
     0
  0
ENDTAB
  0
TABLE
  2
APPID
  5
9
330
0
100
AcDbSymbolTable
 70
     2
  0
APPID
  5
12
330
9
100
AcDbSymbolTableRecord
100
AcDbRegAppTableRecord
  2
ACAD
 70
     0
  0
ENDTAB
  0
TABLE
  2
DIMSTYLE
  5
A
330
0
100
AcDbSymbolTable
 70
     1
  0
DIMSTYLE
105
27
330
A
100
AcDbSymbolTableRecord
100
AcDbDimStyleTableRecord
  2
ISO-25
 70
     0
  3

  4

  5

  6

  7

 40
1.0
 41
2.5
 42
0.625
 43
3.75
 44
1.25
 45
0.0
 46
0.0
 47
0.0
 48
0.0
140
2.5
141
2.5
142
0.0
143
0.03937007874016
144
1.0
145
0.0
146
1.0
147
0.625
 71
     0
 72
     0
 73
     0
 74
     0
 75
     0
 76
     0
 77
     1
 78
     8
170
     0
171
     3
172
     1
173
     0
174
     0
175
     0
176
     0
177
     0
178
     0
270
     2
271
     2
272
     2
273
     2
274
     3
340
11
275
     0
280
     0
281
     0
282
     0
283
     0
284
     8
285
     0
286
     0
287
     3
288
     0
  0
ENDTAB
  0
TABLE
  2
BLOCK_RECORD
  5
1
330
0
100
AcDbSymbolTable
 70
     1
  0
BLOCK_RECORD
  5
1F
330
1
100
AcDbSymbolTableRecord
100
AcDbBlockTableRecord
  2
*MODEL_SPACE
  0
BLOCK_RECORD
  5
1B
330
1
100
AcDbSymbolTableRecord
100
AcDbBlockTableRecord
  2
*PAPER_SPACE
  0
ENDTAB
  0
ENDSEC
  0
SECTION
  2
BLOCKS
  0
BLOCK
  5
20
330
1F
100
AcDbEntity
  8
0
100
AcDbBlockBegin
  2
*MODEL_SPACE
 70
     0
 10
0.0
 20
0.0
 30
0.0
  3
*MODEL_SPACE
  1

  0
ENDBLK
  5
21
330
1F
100
AcDbEntity
  8
0
100
AcDbBlockEnd
  0
BLOCK
  5
1C
330
1B
100
AcDbEntity
 67
     1
  8
0
100
AcDbBlockBegin
  2
*PAPER_SPACE
  1

  0
ENDBLK
  5
1D
330
1B
100
AcDbEntity
 67
     1
  8
0
100
AcDbBlockEnd
  0
ENDSEC
  0
SECTION
  2
ENTITIES
  0
LWPOLYLINE
  5
100
100
AcDbEntity
  8
smiley
 62
7
100
AcDbPolyline
 90
585
 70
0
 10
131.850940
 20
69.377650
 30
0.0
 10
131.771983
 20
69.371300
 30
0.0
 10
131.693319
 20
69.361987
 30
0.0
 10
131.615059
 20
69.349739
 30
0.0
 10
131.537309
 20
69.334583
 30
0.0
 10
131.460178
 20
69.316549
 30
0.0
 10
131.383772
 20
69.295637
 30
0.0
 10
131.308204
 20
69.271902
 30
0.0
 10
131.233579
 20
69.245345
 30
0.0
 10
131.135196
 20
69.205303
 30
0.0
 10
131.038958
 20
69.160353
 30
0.0
 10
130.945091
 20
69.110637
 30
0.0
 10
130.853818
 20
69.056298
 30
0.0
 10
130.765369
 20
68.997480
 30
0.0
 10
130.679966
 20
68.934322
 30
0.0
 10
130.597837
 20
68.866964
 30
0.0
 10
130.519204
 20
68.795553
 30
0.0
 10
130.462889
 20
68.740438
 30
0.0
 10
130.408669
 20
68.683257
 30
0.0
 10
130.356616
 20
68.624103
 30
0.0
 10
130.306789
 20
68.563055
 30
0.0
 10
130.259263
 20
68.500202
 30
0.0
 10
130.214105
 20
68.435629
 30
0.0
 10
130.171376
 20
68.369420
 30
0.0
 10
130.131148
 20
68.301664
 30
0.0
 10
130.117940
 20
68.277957
 30
0.0
 10
130.105043
 20
68.254081
 30
0.0
 10
130.092456
 20
68.230064
 30
0.0
 10
130.080179
 20
68.205878
 30
0.0
 10
130.068213
 20
68.181522
 30
0.0
 10
130.056557
 20
68.157025
 30
0.0
 10
130.045212
 20
68.132387
 30
0.0
 10
130.034177
 20
68.107608
 30
0.0
 10
130.024327
 20
68.083732
 30
0.0
 10
130.014760
 20
68.059743
 30
0.0
 10
130.005503
 20
68.035641
 30
0.0
 10
129.996528
 20
68.011427
 30
0.0
 10
129.987864
 20
67.987099
 30
0.0
 10
129.979482
 20
67.962687
 30
0.0
 10
129.971411
 20
67.938162
 30
0.0
 10
129.963621
 20
67.913552
 30
0.0
 10
129.933223
 20
67.811873
 30
0.0
 10
129.907992
 20
67.708794
 30
0.0
 10
129.887926
 20
67.604581
 30
0.0
 10
129.873110
 20
67.499492
 30
0.0
 10
129.863542
 20
67.393797
 30
0.0
 10
129.859253
 20
67.287758
 30
0.0
 10
129.860381
 20
67.181640
 30
0.0
 10
129.866731
 20
67.075705
 30
0.0
 10
129.868989
 20
67.049119
 30
0.0
 10
129.871529
 20
67.022562
 30
0.0
 10
129.874351
 20
66.996033
 30
0.0
 10
129.877484
 20
66.969533
 30
0.0
 10
129.880955
 20
66.943089
 30
0.0
 10
129.884765
 20
66.916673
 30
0.0
 10
129.888914
 20
66.890313
 30
0.0
 10
129.893373
 20
66.864010
 30
0.0
 10
129.909799
 20
66.785927
 30
0.0
 10
129.929159
 20
66.708522
 30
0.0
 10
129.951426
 20
66.631899
 30
0.0
 10
129.976572
 20
66.556170
 30
0.0
 10
130.004541
 20
66.481435
 30
0.0
 10
130.035294
 20
66.407806
 30
0.0
 10
130.068800
 20
66.335388
 30
0.0
 10
130.105017
 20
66.264288
 30
0.0
 10
130.117294
 20
66.241682
 30
0.0
 10
130.129853
 20
66.219245
 30
0.0
 10
130.142694
 20
66.196949
 30
0.0
 10
130.155789
 20
66.174823
 30
0.0
 10
130.169166
 20
66.152838
 30
0.0
 10
130.182798
 20
66.131022
 30
0.0
 10
130.196683
 20
66.109376
 30
0.0
 10
130.210851
 20
66.087899
 30
0.0
 10
130.213108
 20
66.084569
 30
0.0
 10
130.215366
 20
66.081238
 30
0.0
 10
130.217624
 20
66.077936
 30
0.0
 10
130.219882
 20
66.074634
 30
0.0
 10
130.222140
 20
66.071332
 30
0.0
 10
130.224397
 20
66.068030
 30
0.0
 10
130.226655
 20
66.064728
 30
0.0
 10
130.228913
 20
66.061426
 30
0.0
 10
130.469242
 20
65.721879
 30
0.0
 10
130.709571
 20
65.382329
 30
0.0
 10
130.949903
 20
65.042782
 30
0.0
 10
131.190232
 20
64.703232
 30
0.0
 10
131.430562
 20
64.363685
 30
0.0
 10
131.670891
 20
64.024135
 30
0.0
 10
131.911223
 20
63.684587
 30
0.0
 10
132.151552
 20
63.345037
 30
0.0
 10
128.836228
 20
61.114726
 30
0.0
 10
125.600934
 20
59.005978
 30
0.0
 10
122.444603
 20
57.016769
 30
0.0
 10
119.366163
 20
55.145074
 30
0.0
 10
116.364543
 20
53.388870
 30
0.0
 10
113.438669
 20
51.746130
 30
0.0
 10
110.587474
 20
50.214832
 30
0.0
 10
107.809885
 20
48.792954
 30
0.0
 10
96.499824
 20
44.868705
 30
0.0
 10
85.634632
 20
42.670019
 30
0.0
 10
75.266891
 20
41.964331
 30
0.0
 10
65.449171
 20
42.519078
 30
0.0
 10
56.234045
 20
44.101695
 30
0.0
 10
47.673322
 20
46.479745
 30
0.0
 10
39.821104
 20
49.420413
 30
0.0
 10
32.729204
 20
52.691261
 30
0.0
 10
32.955202
 20
52.921670
 30
0.0
 10
33.181200
 20
53.152077
 30
0.0
 10
33.407198
 20
53.382486
 30
0.0
 10
33.633196
 20
53.612895
 30
0.0
 10
33.859196
 20
53.843301
 30
0.0
 10
34.085194
 20
54.073710
 30
0.0
 10
34.311192
 20
54.304116
 30
0.0
 10
34.537190
 20
54.534525
 30
0.0
 10
34.555704
 20
54.553575
 30
0.0
 10
34.573964
 20
54.572879
 30
0.0
 10
34.591969
 20
54.592381
 30
0.0
 10
34.609749
 20
54.612136
 30
0.0
 10
34.627275
 20
54.632090
 30
0.0
 10
34.644547
 20
54.652268
 30
0.0
 10
34.661565
 20
54.672673
 30
0.0
 10
34.678329
 20
54.693275
 30
0.0
 10
34.709791
 20
54.735959
 30
0.0
 10
34.740175
 20
54.779418
 30
0.0
 10
34.769462
 20
54.823625
 30
0.0
 10
34.797627
 20
54.868549
 30
0.0
 10
34.824664
 20
54.914168
 30
0.0
 10
34.850544
 20
54.960444
 30
0.0
 10
34.875267
 20
55.007355
 30
0.0
 10
34.898804
 20
55.054873
 30
0.0
 10
34.953936
 20
55.174978
 30
0.0
 10
35.001409
 20
55.298306
 30
0.0
 10
35.041109
 20
55.424358
 30
0.0
 10
35.072932
 20
55.552631
 30
0.0
 10
35.096780
 20
55.682625
 30
0.0
 10
35.112528
 20
55.813841
 30
0.0
 10
35.120064
 20
55.945775
 30
0.0
 10
35.119217
 20
56.077928
 30
0.0
 10
35.117241
 20
56.131310
 30
0.0
 10
35.113968
 20
56.184628
 30
0.0
 10
35.109339
 20
56.237846
 30
0.0
 10
35.103384
 20
56.290930
 30
0.0
 10
35.096103
 20
56.343846
 30
0.0
 10
35.087467
 20
56.396565
 30
0.0
 10
35.077533
 20
56.449047
 30
0.0
 10
35.066244
 20
56.501261
 30
0.0
 10
35.046121
 20
56.577552
 30
0.0
 10
35.023148
 20
56.653035
 30
0.0
 10
34.997382
 20
56.727612
 30
0.0
 10
34.968869
 20
56.801179
 30
0.0
 10
34.937644
 20
56.873637
 30
0.0
 10
34.903749
 20
56.944887
 30
0.0
 10
34.867223
 20
57.014821
 30
0.0
 10
34.828110
 20
57.083345
 30
0.0
 10
34.813661
 20
57.106064
 30
0.0
 10
34.798929
 20
57.128585
 30
0.0
 10
34.783914
 20
57.150937
 30
0.0
 10
34.768618
 20
57.173091
 30
0.0
 10
34.753039
 20
57.195048
 30
0.0
 10
34.737178
 20
57.216808
 30
0.0
 10
34.721035
 20
57.238369
 30
0.0
 10
34.704638
 20
57.259705
 30
0.0
 10
34.688947
 20
57.280251
 30
0.0
 10
34.673029
 20
57.300599
 30
0.0
 10
34.656858
 20
57.320750
 30
0.0
 10
34.640433
 20
57.340703
 30
0.0
 10
34.623781
 20
57.360459
 30
0.0
 10
34.606876
 20
57.380017
 30
0.0
 10
34.589745
 20
57.399349
 30
0.0
 10
34.572361
 20
57.418484
 30
0.0
 10
34.554439
 20
57.438042
 30
0.0
 10
34.536293
 20
57.457374
 30
0.0
 10
34.517892
 20
57.476480
 30
0.0
 10
34.499265
 20
57.495361
 30
0.0
 10
34.480413
 20
57.513988
 30
0.0
 10
34.461306
 20
57.532389
 30
0.0
 10
34.441974
 20
57.550535
 30
0.0
 10
34.422416
 20
57.568457
 30
0.0
 10
34.342282
 20
57.637847
 30
0.0
 10
34.258758
 20
57.703116
 30
0.0
 10
34.172076
 20
57.764130
 30
0.0
 10
34.082462
 20
57.820752
 30
0.0
 10
33.990142
 20
57.872847
 30
0.0
 10
33.895343
 20
57.920278
 30
0.0
 10
33.798293
 20
57.962913
 30
0.0
 10
33.699221
 20
58.000609
 30
0.0
 10
33.648591
 20
58.017260
 30
0.0
 10
33.597556
 20
58.032642
 30
0.0
 10
33.546150
 20
58.046724
 30
0.0
 10
33.494407
 20
58.059509
 30
0.0
 10
33.442357
 20
58.070996
 30
0.0
 10
33.390036
 20
58.081184
 30
0.0
 10
33.337475
 20
58.090046
 30
0.0
 10
33.284708
 20
58.097581
 30
0.0
 10
33.232101
 20
58.104411
 30
0.0
 10
33.179340
 20
58.109942
 30
0.0
 10
33.126454
 20
58.114147
 30
0.0
 10
33.073484
 20
58.117026
 30
0.0
 10
33.020454
 20
58.118437
 30
0.0
 10
32.967405
 20
58.118654
 30
0.0
 10
32.914367
 20
58.117526
 30
0.0
 10
32.861374
 20
58.114986
 30
0.0
 10
32.808903
 20
58.110696
 30
0.0
 10
32.756557
 20
58.105108
 30
0.0
 10
32.704365
 20
58.098222
 30
0.0
 10
32.652363
 20
58.090037
 30
0.0
 10
32.600578
 20
58.080554
 30
0.0
 10
32.549044
 20
58.069802
 30
0.0
 10
32.497796
 20
58.057751
 30
0.0
 10
32.446860
 20
58.044430
 30
0.0
 10
32.395606
 20
58.029021
 30
0.0
 10
32.344758
 20
58.012313
 30
0.0
 10
32.294347
 20
57.994336
 30
0.0
 10
32.244408
 20
57.975088
 30
0.0
 10
32.194971
 20
57.954599
 30
0.0
 10
32.146068
 20
57.932868
 30
0.0
 10
32.097729
 20
57.909895
 30
0.0
 10
32.049985
 20
57.885708
 30
0.0
 10
31.980480
 20
57.849036
 30
0.0
 10
31.912388
 20
57.809802
 30
0.0
 10
31.845798
 20
57.768069
 30
0.0
 10
31.780796
 20
57.723902
 30
0.0
 10
31.717474
 20
57.677358
 30
0.0
 10
31.655918
 20
57.628505
 30
0.0
 10
31.596217
 20
57.577400
 30
0.0
 10
31.538458
 20
57.524111
 30
0.0
 10
31.536200
 20
57.521853
 30
0.0
 10
31.533942
 20
57.519595
 30
0.0
 10
31.531684
 20
57.517338
 30
0.0
 10
31.529426
 20
57.515080
 30
0.0
 10
31.527169
 20
57.512822
 30
0.0
 10
31.524911
 20
57.510564
 30
0.0
 10
31.522653
 20
57.508307
 30
0.0
 10
31.520395
 20
57.506049
 30
0.0
 10
30.557972
 20
56.525987
 30
0.0
 10
29.595552
 20
55.545928
 30
0.0
 10
28.633129
 20
54.565866
 30
0.0
 10
27.670706
 20
53.585807
 30
0.0
 10
26.708286
 20
52.605745
 30
0.0
 10
25.745863
 20
51.625683
 30
0.0
 10
24.783443
 20
50.645624
 30
0.0
 10
23.821020
 20
49.665563
 30
0.0
 10
23.803635
 20
49.646428
 30
0.0
 10
23.786505
 20
49.627096
 30
0.0
 10
23.769599
 20
49.607538
 30
0.0
 10
23.752948
 20
49.587782
 30
0.0
 10
23.736523
 20
49.567829
 30
0.0
 10
23.720352
 20
49.547678
 30
0.0
 10
23.704434
 20
49.527330
 30
0.0
 10
23.688743
 20
49.506784
 30
0.0
 10
23.672346
 20
49.485448
 30
0.0
 10
23.656203
 20
49.463887
 30
0.0
 10
23.640342
 20
49.442127
 30
0.0
 10
23.624763
 20
49.420170
 30
0.0
 10
23.609467
 20
49.398016
 30
0.0
 10
23.594452
 20
49.375664
 30
0.0
 10
23.579720
 20
49.353143
 30
0.0
 10
23.565271
 20
49.330424
 30
0.0
 10
23.497760
 20
49.216496
 30
0.0
 10
23.437562
 20
49.098547
 30
0.0
 10
23.384837
 20
48.977067
 30
0.0
 10
23.339750
 20
48.852545
 30
0.0
 10
23.302457
 20
48.725469
 30
0.0
 10
23.273120
 20
48.596330
 30
0.0
 10
23.251897
 20
48.465621
 30
0.0
 10
23.238943
 20
48.333827
 30
0.0
 10
23.237814
 20
48.307382
 30
0.0
 10
23.236967
 20
48.280938
 30
0.0
 10
23.236403
 20
48.254466
 30
0.0
 10
23.236236
 20
48.227993
 30
0.0
 10
23.236403
 20
48.201521
 30
0.0
 10
23.236967
 20
48.175048
 30
0.0
 10
23.237814
 20
48.148604
 30
0.0
 10
23.238943
 20
48.122160
 30
0.0
 10
23.246421
 20
48.017204
 30
0.0
 10
23.259150
 20
47.912754
 30
0.0
 10
23.277043
 20
47.809063
 30
0.0
 10
23.300044
 20
47.706382
 30
0.0
 10
23.328068
 20
47.604959
 30
0.0
 10
23.361083
 20
47.505050
 30
0.0
 10
23.399013
 20
47.406904
 30
0.0
 10
23.441795
 20
47.310771
 30
0.0
 10
23.452915
 20
47.287121
 30
0.0
 10
23.464317
 20
47.263583
 30
0.0
 10
23.476029
 20
47.240215
 30
0.0
 10
23.488023
 20
47.216989
 30
0.0
 10
23.500300
 20
47.193903
 30
0.0
 10
23.512859
 20
47.170986
 30
0.0
 10
23.525700
 20
47.148211
 30
0.0
 10
23.538823
 20
47.125605
 30
0.0
 10
23.580073
 20
47.057654
 30
0.0
 10
23.623851
 20
46.991304
 30
0.0
 10
23.670088
 20
46.926641
 30
0.0
 10
23.718715
 20
46.863756
 30
0.0
 10
23.769656
 20
46.802734
 30
0.0
 10
23.822849
 20
46.743662
 30
0.0
 10
23.878221
 20
46.686625
 30
0.0
 10
23.935698
 20
46.631716
 30
0.0
 10
23.975893
 20
46.597147
 30
0.0
 10
24.016942
 20
46.563596
 30
0.0
 10
24.058818
 20
46.531084
 30
0.0
 10
24.101493
 20
46.499630
 30
0.0
 10
24.144941
 20
46.469252
 30
0.0
 10
24.189137
 20
46.439969
 30
0.0
 10
24.234050
 20
46.411803
 30
0.0
 10
24.279657
 20
46.384766
 30
0.0
 10
24.302263
 20
46.371643
 30
0.0
 10
24.325038
 20
46.358802
 30
0.0
 10
24.347955
 20
46.346243
 30
0.0
 10
24.371040
 20
46.333966
 30
0.0
 10
24.394267
 20
46.321972
 30
0.0
 10
24.417635
 20
46.310259
 30
0.0
 10
24.441173
 20
46.298858
 30
0.0
 10
24.464823
 20
46.287738
 30
0.0
 10
24.513850
 20
46.265640
 30
0.0
 10
24.563426
 20
46.244784
 30
0.0
 10
24.613514
 20
46.225198
 30
0.0
 10
24.664086
 20
46.206881
 30
0.0
 10
24.715103
 20
46.189863
 30
0.0
 10
24.766535
 20
46.174144
 30
0.0
 10
24.818351
 20
46.159722
 30
0.0
 10
24.870517
 20
46.146627
 30
0.0
 10
24.947547
 20
46.129835
 30
0.0
 10
25.025150
 20
46.115949
 30
0.0
 10
25.103215
 20
46.104943
 30
0.0
 10
25.181636
 20
46.096843
 30
0.0
 10
25.260306
 20
46.091650
 30
0.0
 10
25.339111
 20
46.089392
 30
0.0
 10
25.417944
 20
46.089957
 30
0.0
 10
25.496698
 20
46.093569
 30
0.0
 10
25.628493
 20
46.106523
 30
0.0
 10
25.759201
 20
46.127746
 30
0.0
 10
25.888340
 20
46.157083
 30
0.0
 10
26.015417
 20
46.194376
 30
0.0
 10
26.139939
 20
46.239464
 30
0.0
 10
26.261418
 20
46.292189
 30
0.0
 10
26.379368
 20
46.352387
 30
0.0
 10
26.493295
 20
46.419897
 30
0.0
 10
26.538016
 20
46.449192
 30
0.0
 10
26.581983
 20
46.479610
 30
0.0
 10
26.625169
 20
46.511128
 30
0.0
 10
26.667547
 20
46.543725
 30
0.0
 10
26.709088
 20
46.577380
 30
0.0
 10
26.749767
 20
46.612071
 30
0.0
 10
26.789558
 20
46.647777
 30
0.0
 10
26.828434
 20
46.684480
 30
0.0
 10
26.830692
 20
46.686738
 30
0.0
 10
26.832949
 20
46.688996
 30
0.0
 10
26.835207
 20
46.691254
 30
0.0
 10
26.837465
 20
46.693511
 30
0.0
 10
26.839723
 20
46.695769
 30
0.0
 10
26.841981
 20
46.698027
 30
0.0
 10
26.844238
 20
46.700285
 30
0.0
 10
26.846496
 20
46.702543
 30
0.0
 10
27.183839
 20
47.046501
 30
0.0
 10
27.521182
 20
47.390459
 30
0.0
 10
27.858528
 20
47.734418
 30
0.0
 10
28.195871
 20
48.078376
 30
0.0
 10
28.533214
 20
48.422334
 30
0.0
 10
28.870557
 20
48.766293
 30
0.0
 10
29.207903
 20
49.110251
 30
0.0
 10
29.545246
 20
49.454209
 30
0.0
 10
33.436879
 20
47.094408
 30
0.0
 10
37.448733
 20
44.669354
 30
0.0
 10
41.630462
 20
42.278695
 30
0.0
 10
46.031714
 20
40.022072
 30
0.0
 10
50.702148
 20
37.999131
 30
0.0
 10
55.691411
 20
36.309520
 30
0.0
 10
61.049157
 20
35.052881
 30
0.0
 10
66.825038
 20
34.328862
 30
0.0
 10
71.274302
 20
34.194902
 30
0.0
 10
75.969520
 20
34.427767
 30
0.0
 10
80.929954
 20
35.060201
 30
0.0
 10
86.174857
 20
36.124952
 30
0.0
 10
91.723487
 20
37.654761
 30
0.0
 10
97.595092
 20
39.682375
 30
0.0
 10
103.808936
 20
42.240533
 30
0.0
 10
110.384274
 20
45.361987
 30
0.0
 10
113.353077
 20
46.698970
 30
0.0
 10
116.342118
 20
48.162997
 30
0.0
 10
119.350423
 20
49.757519
 30
0.0
 10
122.377011
 20
51.485983
 30
0.0
 10
125.420896
 20
53.351839
 30
0.0
 10
128.481105
 20
55.358535
 30
0.0
 10
131.556656
 20
57.509517
 30
0.0
 10
134.646566
 20
59.808237
 30
0.0
 10
134.913353
 20
59.431205
 30
0.0
 10
135.180141
 20
59.054176
 30
0.0
 10
135.446931
 20
58.677144
 30
0.0
 10
135.713718
 20
58.300112
 30
0.0
 10
135.980506
 20
57.923080
 30
0.0
 10
136.247293
 20
57.546051
 30
0.0
 10
136.514084
 20
57.169019
 30
0.0
 10
136.780871
 20
56.791987
 30
0.0
 10
136.796478
 20
56.770312
 30
0.0
 10
136.812339
 20
56.748835
 30
0.0
 10
136.828482
 20
56.727584
 30
0.0
 10
136.844907
 20
56.706530
 30
0.0
 10
136.861587
 20
56.685674
 30
0.0
 10
136.878520
 20
56.665043
 30
0.0
 10
136.895707
 20
56.644611
 30
0.0
 10
136.913149
 20
56.624403
 30
0.0
 10
136.931070
 20
56.604845
 30
0.0
 10
136.949217
 20
56.585513
 30
0.0
 10
136.967618
 20
56.566407
 30
0.0
 10
136.986244
 20
56.547526
 30
0.0
 10
137.005125
 20
56.528899
 30
0.0
 10
137.024231
 20
56.510499
 30
0.0
 10
137.043564
 20
56.492352
 30
0.0
 10
137.063122
 20
56.474431
 30
0.0
 10
137.102266
 20
56.440019
 30
0.0
 10
137.142245
 20
56.406582
 30
0.0
 10
137.183035
 20
56.374137
 30
0.0
 10
137.224612
 20
56.342706
 30
0.0
 10
137.266948
 20
56.312308
 30
0.0
 10
137.310018
 20
56.282960
 30
0.0
 10
137.353796
 20
56.254678
 30
0.0
 10
137.398260
 20
56.227472
 30
0.0
 10
137.444596
 20
56.200040
 30
0.0
 10
137.491617
 20
56.173822
 30
0.0
 10
137.539287
 20
56.148788
 30
0.0
 10
137.587578
 20
56.124969
 30
0.0
 10
137.636459
 20
56.102391
 30
0.0
 10
137.685896
 20
56.081055
 30
0.0
 10
137.735858
 20
56.060989
 30
0.0
 10
137.786316
 20
56.042193
 30
0.0
 10
137.835871
 20
56.025711
 30
0.0
 10
137.885822
 20
56.010471
 30
0.0
 10
137.936131
 20
55.996445
 30
0.0
 10
137.986770
 20
55.983660
 30
0.0
 10
138.037708
 20
55.972146
 30
0.0
 10
138.088915
 20
55.961873
 30
0.0
 10
138.140361
 20
55.952870
 30
0.0
 10
138.192010
 20
55.945137
 30
0.0
 10
138.270990
 20
55.934666
 30
0.0
 10
138.350309
 20
55.927188
 30
0.0
 10
138.429853
 20
55.922700
 30
0.0
 10
138.509510
 20
55.921289
 30
0.0
 10
138.589168
 20
55.922700
 30
0.0
 10
138.668712
 20
55.927188
 30
0.0
 10
138.748031
 20
55.934666
 30
0.0
 10
138.827010
 20
55.945137
 30
0.0
 10
138.904780
 20
55.959474
 30
0.0
 10
138.981959
 20
55.976718
 30
0.0
 10
139.058441
 20
55.996812
 30
0.0
 10
139.134119
 20
56.019756
 30
0.0
 10
139.208894
 20
56.045495
 30
0.0
 10
139.282658
 20
56.074000
 30
0.0
 10
139.355305
 20
56.105239
 30
0.0
 10
139.426733
 20
56.139176
 30
0.0
 10
139.474250
 20
56.162713
 30
0.0
 10
139.521161
 20
56.187436
 30
0.0
 10
139.567437
 20
56.213316
 30
0.0
 10
139.613056
 20
56.240353
 30
0.0
 10
139.657980
 20
56.268518
 30
0.0
 10
139.702187
 20
56.297805
 30
0.0
 10
139.745647
 20
56.328189
 30
0.0
 10
139.788330
 20
56.359651
 30
0.0
 10
139.808932
 20
56.376415
 30
0.0
 10
139.829337
 20
56.393433
 30
0.0
 10
139.849516
 20
56.410705
 30
0.0
 10
139.869469
 20
56.428231
 30
0.0
 10
139.889224
 20
56.446011
 30
0.0
 10
139.908726
 20
56.464017
 30
0.0
 10
139.928030
 20
56.482276
 30
0.0
 10
139.947080
 20
56.500790
 30
0.0
 10
140.022241
 20
56.575404
 30
0.0
 10
140.093553
 20
56.653701
 30
0.0
 10
140.160872
 20
56.735464
 30
0.0
 10
140.224036
 20
56.820477
 30
0.0
 10
140.282899
 20
56.908522
 30
0.0
 10
140.337306
 20
56.999386
 30
0.0
 10
140.387107
 20
57.092853
 30
0.0
 10
140.432149
 20
57.188707
 30
0.0
 10
140.442084
 20
57.213655
 30
0.0
 10
140.451707
 20
57.238717
 30
0.0
 10
140.461021
 20
57.263919
 30
0.0
 10
140.469995
 20
57.289234
 30
0.0
 10
140.478660
 20
57.314663
 30
0.0
 10
140.486985
 20
57.340204
 30
0.0
 10
140.495000
 20
57.365829
 30
0.0
 10
140.502677
 20
57.391568
 30
0.0
 10
140.532694
 20
57.492194
 30
0.0
 10
140.557671
 20
57.594192
 30
0.0
 10
140.577539
 20
57.697302
 30
0.0
 10
140.592299
 20
57.801270
 30
0.0
 10
140.601923
 20
57.905836
 30
0.0
 10
140.606382
 20
58.010752
 30
0.0
 10
140.605535
 20
58.115756
 30
0.0
 10
140.599552
 20
58.220596
 30
0.0
 10
140.597295
 20
58.247181
 30
0.0
 10
140.594755
 20
58.273738
 30
0.0
 10
140.591932
 20
58.300267
 30
0.0
 10
140.588800
 20
58.326768
 30
0.0
 10
140.585328
 20
58.353212
 30
0.0
 10
140.581518
 20
58.379628
 30
0.0
 10
140.577370
 20
58.405988
 30
0.0
 10
140.572911
 20
58.432291
 30
0.0
 10
140.550502
 20
58.535384
 30
0.0
 10
140.522957
 20
58.637221
 30
0.0
 10
140.490375
 20
58.737565
 30
0.0
 10
140.452856
 20
58.836173
 30
0.0
 10
140.410506
 20
58.932801
 30
0.0
 10
140.363414
 20
59.027210
 30
0.0
 10
140.311688
 20
59.119158
 30
0.0
 10
140.255422
 20
59.208402
 30
0.0
 10
140.253164
 20
59.211732
 30
0.0
 10
140.250906
 20
59.215062
 30
0.0
 10
140.248648
 20
59.218364
 30
0.0
 10
140.246391
 20
59.221666
 30
0.0
 10
140.244133
 20
59.224968
 30
0.0
 10
140.241875
 20
59.228270
 30
0.0
 10
140.239617
 20
59.231572
 30
0.0
 10
140.237360
 20
59.234874
 30
0.0
 10
139.418255
 20
60.393529
 30
0.0
 10
138.599147
 20
61.552184
 30
0.0
 10
137.780042
 20
62.710839
 30
0.0
 10
136.960935
 20
63.869494
 30
0.0
 10
136.141830
 20
65.028146
 30
0.0
 10
135.322725
 20
66.186801
 30
0.0
 10
134.503617
 20
67.345456
 30
0.0
 10
133.684512
 20
68.504110
 30
0.0
 10
133.652802
 20
68.546813
 30
0.0
 10
133.620030
 20
68.588704
 30
0.0
 10
133.586214
 20
68.629759
 30
0.0
 10
133.551380
 20
68.669953
 30
0.0
 10
133.515546
 20
68.709258
 30
0.0
 10
133.478738
 20
68.747654
 30
0.0
 10
133.440980
 20
68.785113
 30
0.0
 10
133.402290
 20
68.821610
 30
0.0
 10
133.363279
 20
68.857168
 30
0.0
 10
133.323392
 20
68.891740
 30
0.0
 10
133.282656
 20
68.925307
 30
0.0
 10
133.241099
 20
68.957850
 30
0.0
 10
133.198743
 20
68.989346
 30
0.0
 10
133.155614
 20
69.019781
 30
0.0
 10
133.111742
 20
69.049130
 30
0.0
 10
133.067151
 20
69.077374
 30
0.0
 10
133.044545
 20
69.090498
 30
0.0
 10
133.021770
 20
69.103339
 30
0.0
 10
132.998853
 20
69.115898
 30
0.0
 10
132.975768
 20
69.128174
 30
0.0
 10
132.952541
 20
69.140169
 30
0.0
 10
132.929173
 20
69.151881
 30
0.0
 10
132.905635
 20
69.163283
 30
0.0
 10
132.881985
 20
69.174402
 30
0.0
 10
132.857093
 20
69.185465
 30
0.0
 10
132.832060
 20
69.196190
 30
0.0
 10
132.806886
 20
69.206604
 30
0.0
 10
132.781571
 20
69.216679
 30
0.0
 10
132.756142
 20
69.226444
 30
0.0
 10
132.730601
 20
69.235870
 30
0.0
 10
132.704919
 20
69.244986
 30
0.0
 10
132.679124
 20
69.253763
 30
0.0
 10
132.629670
 20
69.271374
 30
0.0
 10
132.579793
 20
69.287743
 30
0.0
 10
132.529526
 20
69.302870
 30
0.0
 10
132.478901
 20
69.316755
 30
0.0
 10
132.427946
 20
69.329371
 30
0.0
 10
132.376697
 20
69.340716
 30
0.0
 10
132.325181
 20
69.350791
 30
0.0
 10
132.273429
 20
69.359597
 30
0.0
 10
132.247070
 20
69.362955
 30
0.0
 10
132.220682
 20
69.365975
 30
0.0
 10
132.194266
 20
69.368797
 30
0.0
 10
132.167822
 20
69.371055
 30
0.0
 10
132.141349
 20
69.373030
 30
0.0
 10
132.114849
 20
69.374724
 30
0.0
 10
132.088320
 20
69.376135
 30
0.0
 10
132.061791
 20
69.377264
 30
0.0
 10
132.035347
 20
69.378393
 30
0.0
 10
132.008903
 20
69.379239
 30
0.0
 10
131.982430
 20
69.379804
 30
0.0
 10
131.955958
 20
69.379970
 30
0.0
 10
131.929485
 20
69.379804
 30
0.0
 10
131.903013
 20
69.379239
 30
0.0
 10
131.876569
 20
69.378393
 30
0.0
 10
131.850124
 20
69.377264
 30
0.0
 10
131.850122
 20
69.377266
 30
0.0
 10
131.850122
 20
69.377266
 30
0.0
 10
131.850119
 20
69.377269
 30
0.0
 10
131.850119
 20
69.377269
 30
0.0
 10
131.850116
 20
69.377272
 30
0.0
 10
131.850113
 20
69.377275
 30
0.0
 10
131.850113
 20
69.377275
 30
0.0
 10
131.850940
 20
69.377650
 30
0.0
  0
LWPOLYLINE
  5
101
100
AcDbEntity
  8
smiley
 62
7
100
AcDbPolyline
 90
177
 70
0
 10
75.829829
 20
152.117899
 30
0.0
 10
75.586344
 20
152.116770
 30
0.0
 10
75.342654
 20
152.114795
 30
0.0
 10
75.098769
 20
152.111944
 30
0.0
 10
74.854695
 20
152.108275
 30
0.0
 10
74.610437
 20
152.103816
 30
0.0
 10
74.366010
 20
152.098567
 30
0.0
 10
74.121416
 20
152.092499
 30
0.0
 10
73.876665
 20
152.085669
 30
0.0
 10
73.631766
 20
152.078049
 30
0.0
 10
73.386727
 20
152.069639
 30
0.0
 10
73.141555
 20
152.060467
 30
0.0
 10
72.896262
 20
152.050533
 30
0.0
 10
72.650850
 20
152.039865
 30
0.0
 10
72.405327
 20
152.028435
 30
0.0
 10
72.159707
 20
152.016271
 30
0.0
 10
71.913996
 20
152.003373
 30
0.0
 10
64.169914
 20
151.191476
 30
0.0
 10
56.690181
 20
149.632043
 30
0.0
 10
49.511035
 20
147.365438
 30
0.0
 10
42.668721
 20
144.432028
 30
0.0
 10
36.199485
 20
140.872182
 30
0.0
 10
30.139569
 20
136.726264
 30
0.0
 10
24.525218
 20
132.034644
 30
0.0
 10
19.392677
 20
126.837688
 30
0.0
 10
14.778186
 20
121.175763
 30
0.0
 10
10.717993
 20
115.089237
 30
0.0
 10
7.248339
 20
108.618477
 30
0.0
 10
4.405469
 20
101.803849
 30
0.0
 10
2.225626
 20
94.685719
 30
0.0
 10
0.745055
 20
87.304457
 30
0.0
 10
0.000000
 20
79.700428
 30
0.0
 10
0.026704
 20
71.913998
 30
0.0
 10
0.838693
 20
64.169917
 30
0.0
 10
2.398403
 20
56.690181
 30
0.0
 10
4.665441
 20
49.511035
 30
0.0
 10
7.599413
 20
42.668723
 30
0.0
 10
11.159927
 20
36.199487
 30
0.0
 10
15.306588
 20
30.139572
 30
0.0
 10
19.999006
 20
24.525221
 30
0.0
 10
25.196786
 20
19.392680
 30
0.0
 10
30.859535
 20
14.778188
 30
0.0
 10
36.946860
 20
10.717996
 30
0.0
 10
43.418368
 20
7.248342
 30
0.0
 10
50.233667
 20
4.405472
 30
0.0
 10
57.352362
 20
2.225630
 30
0.0
 10
64.734062
 20
0.745058
 30
0.0
 10
72.338370
 20
0.000003
 30
0.0
 10
80.124898
 20
0.026701
 30
0.0
 10
80.110561
 20
0.290734
 30
0.0
 10
80.096225
 20
0.554764
 30
0.0
 10
80.081888
 20
0.818797
 30
0.0
 10
80.067551
 20
1.082830
 30
0.0
 10
80.053214
 20
1.346860
 30
0.0
 10
80.038877
 20
1.610893
 30
0.0
 10
80.024540
 20
1.874926
 30
0.0
 10
80.010203
 20
2.138959
 30
0.0
 10
79.995866
 20
2.402990
 30
0.0
 10
79.981529
 20
2.667023
 30
0.0
 10
79.967193
 20
2.931056
 30
0.0
 10
79.952856
 20
3.195086
 30
0.0
 10
79.938519
 20
3.459119
 30
0.0
 10
79.924182
 20
3.723152
 30
0.0
 10
79.909845
 20
3.987182
 30
0.0
 10
79.895508
 20
4.251215
 30
0.0
 10
72.534221
 20
4.224968
 30
0.0
 10
65.347277
 20
4.926635
 30
0.0
 10
58.372570
 20
6.322198
 30
0.0
 10
51.648004
 20
8.377651
 30
0.0
 10
45.211478
 20
11.058982
 30
0.0
 10
39.100895
 20
14.332179
 30
0.0
 10
33.354154
 20
18.163232
 30
0.0
 10
28.009153
 20
22.518130
 30
0.0
 10
23.103798
 20
27.362864
 30
0.0
 10
18.675985
 20
32.663421
 30
0.0
 10
14.763617
 20
38.385790
 30
0.0
 10
11.404593
 20
44.495963
 30
0.0
 10
8.636814
 20
50.959930
 30
0.0
 10
6.498180
 20
57.743677
 30
0.0
 10
5.026593
 20
64.813194
 30
0.0
 10
4.259953
 20
72.134473
 30
0.0
 10
4.233712
 20
79.495859
 30
0.0
 10
4.935378
 20
86.683085
 30
0.0
 10
6.330943
 20
93.658224
 30
0.0
 10
8.386396
 20
100.383357
 30
0.0
 10
11.067727
 20
106.820549
 30
0.0
 10
14.340923
 20
112.931877
 30
0.0
 10
18.171978
 20
118.679414
 30
0.0
 10
22.526876
 20
124.025237
 30
0.0
 10
27.371607
 20
128.931416
 30
0.0
 10
32.672167
 20
133.360025
 30
0.0
 10
38.394536
 20
137.273137
 30
0.0
 10
44.504709
 20
140.632829
 30
0.0
 10
50.968676
 20
143.401172
 30
0.0
 10
57.752423
 20
145.540242
 30
0.0
 10
64.821940
 20
147.012110
 30
0.0
 10
72.143219
 20
147.778848
 30
0.0
 10
79.504506
 20
147.804982
 30
0.0
 10
86.691450
 20
147.103036
 30
0.0
 10
93.666158
 20
145.707035
 30
0.0
 10
100.390723
 20
143.651018
 30
0.0
 10
106.827249
 20
140.969021
 30
0.0
 10
112.937832
 20
137.695079
 30
0.0
 10
118.684573
 20
133.863230
 30
0.0
 10
124.029574
 20
129.507511
 30
0.0
 10
128.934930
 20
124.661955
 30
0.0
 10
133.362742
 20
119.360600
 30
0.0
 10
137.275110
 20
113.637486
 30
0.0
 10
140.634136
 20
107.526644
 30
0.0
 10
143.401915
 20
101.062115
 30
0.0
 10
145.540547
 20
94.277934
 30
0.0
 10
147.012135
 20
87.208134
 30
0.0
 10
147.778775
 20
79.886756
 30
0.0
 10
147.805050
 20
72.526852
 30
0.0
 10
147.103643
 20
65.341161
 30
0.0
 10
145.708542
 20
58.367569
 30
0.0
 10
143.653741
 20
51.643966
 30
0.0
 10
140.973234
 20
45.208238
 30
0.0
 10
137.701014
 20
39.098276
 30
0.0
 10
133.871073
 20
33.351970
 30
0.0
 10
129.517405
 20
28.007203
 30
0.0
 10
124.674006
 20
23.101867
 30
0.0
 10
119.374866
 20
18.673851
 30
0.0
 10
113.653982
 20
14.761041
 30
0.0
 10
107.545344
 20
11.401329
 30
0.0
 10
101.082949
 20
8.632599
 30
0.0
 10
94.300788
 20
6.492742
 30
0.0
 10
87.232854
 20
5.019647
 30
0.0
 10
79.913144
 20
4.251201
 30
0.0
 10
79.927481
 20
3.987168
 30
0.0
 10
79.941818
 20
3.723138
 30
0.0
 10
79.956155
 20
3.459105
 30
0.0
 10
79.970492
 20
3.195072
 30
0.0
 10
79.984829
 20
2.931041
 30
0.0
 10
79.999165
 20
2.667008
 30
0.0
 10
80.013502
 20
2.402975
 30
0.0
 10
80.027839
 20
2.138945
 30
0.0
 10
80.042176
 20
1.874912
 30
0.0
 10
80.056513
 20
1.610879
 30
0.0
 10
80.070850
 20
1.346846
 30
0.0
 10
80.085187
 20
1.082816
 30
0.0
 10
80.099524
 20
0.818783
 30
0.0
 10
80.113861
 20
0.554750
 30
0.0
 10
80.128197
 20
0.290720
 30
0.0
 10
80.142534
 20
0.026687
 30
0.0
 10
87.884875
 20
0.840486
 30
0.0
 10
95.362691
 20
2.401511
 30
0.0
 10
102.539777
 20
4.669406
 30
0.0
 10
109.379933
 20
7.603817
 30
0.0
 10
115.846956
 20
11.164389
 30
0.0
 10
121.904639
 20
15.310770
 30
0.0
 10
127.516786
 20
20.002604
 30
0.0
 10
132.647188
 20
25.199538
 30
0.0
 10
137.259647
 20
30.861217
 30
0.0
 10
141.317957
 20
36.947286
 30
0.0
 10
144.785918
 20
43.417391
 30
0.0
 10
147.627326
 20
50.231178
 30
0.0
 10
149.805977
 20
57.348295
 30
0.0
 10
151.285671
 20
64.728384
 30
0.0
 10
152.030201
 20
72.331089
 30
0.0
 10
152.003362
 20
80.116062
 30
0.0
 10
151.228397
 20
87.621985
 30
0.0
 10
149.750749
 20
94.880944
 30
0.0
 10
147.607113
 20
101.859980
 30
0.0
 10
144.834178
 20
108.526134
 30
0.0
 10
141.468642
 20
114.846450
 30
0.0
 10
137.547192
 20
120.787964
 30
0.0
 10
133.106521
 20
126.317716
 30
0.0
 10
128.183321
 20
131.402751
 30
0.0
 10
122.814289
 20
136.010108
 30
0.0
 10
117.036113
 20
140.106826
 30
0.0
 10
110.885484
 20
143.659947
 30
0.0
 10
104.399100
 20
146.636511
 30
0.0
 10
97.613648
 20
149.003557
 30
0.0
 10
90.565822
 20
150.728130
 30
0.0
 10
83.292315
 20
151.777265
 30
0.0
 10
75.829829
 20
152.117899
 30
0.0
  0
LWPOLYLINE
  5
102
100
AcDbEntity
  8
smiley
 62
7
100
AcDbPolyline
 90
49
 70
0
 10
91.590176
 20
102.371192
 30
0.0
 10
87.921138
 20
102.098941
 30
0.0
 10
84.231892
 20
100.994707
 30
0.0
 10
80.522033
 20
99.086024
 30
0.0
 10
76.791148
 20
96.400428
 30
0.0
 10
76.497866
 20
96.106790
 30
0.0
 10
76.267225
 20
95.761570
 30
0.0
 10
76.106703
 20
95.378679
 30
0.0
 10
76.023775
 20
94.972034
 30
0.0
 10
76.024034
 20
94.557017
 30
0.0
 10
76.105063
 20
94.149824
 30
0.0
 10
76.262309
 20
93.765579
 30
0.0
 10
76.491219
 20
93.419399
 30
0.0
 10
76.784869
 20
93.126128
 30
0.0
 10
77.130100
 20
92.895505
 30
0.0
 10
77.512997
 20
92.734999
 30
0.0
 10
77.919645
 20
92.652085
 30
0.0
 10
78.334661
 20
92.652362
 30
0.0
 10
78.741851
 20
92.733408
 30
0.0
 10
79.126091
 20
92.890670
 30
0.0
 10
79.472259
 20
93.119595
 30
0.0
 10
82.729603
 20
95.474863
 30
0.0
 10
85.789220
 20
97.062538
 30
0.0
 10
88.675738
 20
97.933310
 30
0.0
 10
91.413787
 20
98.137859
 30
0.0
 10
94.081081
 20
97.714164
 30
0.0
 10
96.756330
 20
96.646362
 30
0.0
 10
99.465675
 20
94.904377
 30
0.0
 10
102.235246
 20
92.458136
 30
0.0
 10
102.556183
 20
92.195419
 30
0.0
 10
102.922242
 20
92.000087
 30
0.0
 10
103.318849
 20
91.878198
 30
0.0
 10
103.731433
 20
91.835811
 30
0.0
 10
104.144140
 20
91.876982
 30
0.0
 10
104.541103
 20
91.997702
 30
0.0
 10
104.907735
 20
92.191959
 30
0.0
 10
105.229446
 20
92.453728
 30
0.0
 10
105.492163
 20
92.774666
 30
0.0
 10
105.687498
 20
93.140725
 30
0.0
 10
105.809387
 20
93.537332
 30
0.0
 10
105.851771
 20
93.949915
 30
0.0
 10
105.810603
 20
94.362620
 30
0.0
 10
105.689880
 20
94.759585
 30
0.0
 10
105.495626
 20
95.126217
 30
0.0
 10
105.233857
 20
95.447928
 30
0.0
 10
102.008567
 20
98.280556
 30
0.0
 10
98.659738
 20
100.414915
 30
0.0
 10
95.187050
 20
101.796596
 30
0.0
 10
91.590176
 20
102.371192
 30
0.0
  0
LWPOLYLINE
  5
103
100
AcDbEntity
  8
smiley
 62
7
100
AcDbPolyline
 90
33
 70
0
 10
70.597449
 20
97.266359
 30
0.0
 10
70.381966
 20
94.191887
 30
0.0
 10
69.763950
 20
91.328314
 30
0.0
 10
68.786056
 20
88.736983
 30
0.0
 10
67.490930
 20
86.479245
 30
0.0
 10
65.921224
 20
84.616437
 30
0.0
 10
64.119588
 20
83.209909
 30
0.0
 10
62.128674
 20
82.321008
 30
0.0
 10
59.991128
 20
82.011074
 30
0.0
 10
57.853586
 20
82.321008
 30
0.0
 10
55.862669
 20
83.209909
 30
0.0
 10
54.061033
 20
84.616437
 30
0.0
 10
52.491327
 20
86.479245
 30
0.0
 10
51.196201
 20
88.736983
 30
0.0
 10
50.218306
 20
91.328314
 30
0.0
 10
49.600290
 20
94.191887
 30
0.0
 10
49.384808
 20
97.266359
 30
0.0
 10
49.600290
 20
100.340832
 30
0.0
 10
50.218306
 20
103.204402
 30
0.0
 10
51.196201
 20
105.795733
 30
0.0
 10
52.491327
 20
108.053474
 30
0.0
 10
54.061033
 20
109.916279
 30
0.0
 10
55.862669
 20
111.322807
 30
0.0
 10
57.853586
 20
112.211708
 30
0.0
 10
59.991128
 20
112.521642
 30
0.0
 10
62.128674
 20
112.211708
 30
0.0
 10
64.119588
 20
111.322807
 30
0.0
 10
65.921224
 20
109.916279
 30
0.0
 10
67.490930
 20
108.053474
 30
0.0
 10
68.786056
 20
105.795733
 30
0.0
 10
69.763950
 20
103.204402
 30
0.0
 10
70.381966
 20
100.340832
 30
0.0
 10
70.597449
 20
97.266359
 30
0.0
  0
ENDSEC
  0
SECTION
  2
OBJECTS
  0
DICTIONARY
  5
C
330
0
100
AcDbDictionary
  3
ACAD_GROUP
350
D
  3
ACAD_MLINESTYLE
350
17
  0
DICTIONARY
  5
D
330
C
100
AcDbDictionary
  0
DICTIONARY
  5
1A
330
C
100
AcDbDictionary
  0
DICTIONARY
  5
17
330
C
100
AcDbDictionary
  3
STANDARD
350
18
  0
DICTIONARY
  5
19
330
C
100
AcDbDictionary
  0
ENDSEC
  0
EOF
