solid OpenSCAD_Model
  facet normal 0.989347 0.145579 0
    outer loop
      vertex 14 0 2
      vertex 13.6941 2.07912 0
      vertex 13.6941 2.07912 2
    endloop
  endfacet
  facet normal 0.989347 0.145579 0
    outer loop
      vertex 13.6941 2.07912 0
      vertex 14 0 2
      vertex 14 0 0
    endloop
  endfacet
  facet normal -0.989347 0.145579 0
    outer loop
      vertex -14 0 0
      vertex -13.6941 2.07912 2
      vertex -13.6941 2.07912 0
    endloop
  endfacet
  facet normal -0.989347 0.145579 0
    outer loop
      vertex -13.6941 2.07912 2
      vertex -14 0 0
      vertex -14 0 2
    endloop
  endfacet
  facet normal 0.621487 0.783425 -0
    outer loop
      vertex 11.3262 5.87785 0
      vertex 9.36783 7.43145 2
      vertex 11.3262 5.87785 2
    endloop
  endfacet
  facet normal 0.621487 0.783425 0
    outer loop
      vertex 9.36783 7.43145 2
      vertex 11.3262 5.87785 0
      vertex 9.36783 7.43145 0
    endloop
  endfacet
  facet normal -0.460625 0.887595 0
    outer loop
      vertex -8.27227 8 0
      vertex -9.36783 7.43145 2
      vertex -8.27227 8 2
    endloop
  endfacet
  facet normal -0.460625 0.887595 0
    outer loop
      vertex -9.36783 7.43145 2
      vertex -8.27227 8 0
      vertex -9.36783 7.43145 0
    endloop
  endfacet
  facet normal 0.910249 -0.414061 0
    outer loop
      vertex 12.7896 -4.06737 2
      vertex 13.6941 -2.07912 0
      vertex 13.6941 -2.07912 2
    endloop
  endfacet
  facet normal 0.910249 -0.414061 0
    outer loop
      vertex 13.6941 -2.07912 0
      vertex 12.7896 -4.06737 2
      vertex 12.7896 -4.06737 0
    endloop
  endfacet
  facet normal 0.777714 0.628618 0
    outer loop
      vertex 12.7896 4.06737 2
      vertex 11.3262 5.87785 0
      vertex 11.3262 5.87785 2
    endloop
  endfacet
  facet normal 0.777714 0.628618 0
    outer loop
      vertex 11.3262 5.87785 0
      vertex 12.7896 4.06737 2
      vertex 12.7896 4.06737 0
    endloop
  endfacet
  facet normal 0.910249 0.414061 0
    outer loop
      vertex 13.6941 2.07912 2
      vertex 12.7896 4.06737 0
      vertex 12.7896 4.06737 2
    endloop
  endfacet
  facet normal 0.910249 0.414061 0
    outer loop
      vertex 12.7896 4.06737 0
      vertex 13.6941 2.07912 2
      vertex 13.6941 2.07912 0
    endloop
  endfacet
  facet normal 0.460625 0.887595 -0
    outer loop
      vertex 9.36783 7.43145 0
      vertex 8.27227 8 2
      vertex 9.36783 7.43145 2
    endloop
  endfacet
  facet normal 0.460625 0.887595 0
    outer loop
      vertex 8.27227 8 2
      vertex 9.36783 7.43145 0
      vertex 8.27227 8 0
    endloop
  endfacet
  facet normal -0.777714 0.628618 0
    outer loop
      vertex -12.7896 4.06737 0
      vertex -11.3262 5.87785 2
      vertex -11.3262 5.87785 0
    endloop
  endfacet
  facet normal -0.777714 0.628618 0
    outer loop
      vertex -11.3262 5.87785 2
      vertex -12.7896 4.06737 0
      vertex -12.7896 4.06737 2
    endloop
  endfacet
  facet normal -0.621487 0.783425 0
    outer loop
      vertex -9.36783 7.43145 0
      vertex -11.3262 5.87785 2
      vertex -9.36783 7.43145 2
    endloop
  endfacet
  facet normal -0.621487 0.783425 0
    outer loop
      vertex -11.3262 5.87785 2
      vertex -9.36783 7.43145 0
      vertex -11.3262 5.87785 0
    endloop
  endfacet
  facet normal -0.910249 0.414061 0
    outer loop
      vertex -13.6941 2.07912 0
      vertex -12.7896 4.06737 2
      vertex -12.7896 4.06737 0
    endloop
  endfacet
  facet normal -0.910249 0.414061 0
    outer loop
      vertex -12.7896 4.06737 2
      vertex -13.6941 2.07912 0
      vertex -13.6941 2.07912 2
    endloop
  endfacet
  facet normal 0 0 1
    outer loop
      vertex -9.36783 7.43145 2
      vertex -7 8 2
      vertex -8.27227 8 2
    endloop
  endfacet
  facet normal 0 0 1
    outer loop
      vertex -7 8 2
      vertex -8.625 0 2
      vertex -7 -8 2
    endloop
  endfacet
  facet normal -0 0 1
    outer loop
      vertex -8.70344 -0.162882 2
      vertex -7 -8 2
      vertex -8.625 0 2
    endloop
  endfacet
  facet normal 0 0 1
    outer loop
      vertex -7 8 2
      vertex -8.70344 0.162882 2
      vertex -8.625 0 2
    endloop
  endfacet
  facet normal 0 0 1
    outer loop
      vertex -7 8 2
      vertex -9.33096 1.46593 2
      vertex -8.70344 0.162882 2
    endloop
  endfacet
  facet normal 0 0 1
    outer loop
      vertex -7 8 2
      vertex -9.36783 7.43145 2
      vertex -9.33096 1.46593 2
    endloop
  endfacet
  facet normal -0 0 1
    outer loop
      vertex -11.3262 5.87785 2
      vertex -9.33096 1.46593 2
      vertex -9.36783 7.43145 2
    endloop
  endfacet
  facet normal 0 0 1
    outer loop
      vertex -9.33096 1.46593 2
      vertex -11.3262 5.87785 2
      vertex -10.741 1.78776 2
    endloop
  endfacet
  facet normal 0 0 1
    outer loop
      vertex -10.741 1.78776 2
      vertex -11.3262 5.87785 2
      vertex -10.9172 1.82799 2
    endloop
  endfacet
  facet normal -0 0 1
    outer loop
      vertex -12.7896 4.06737 2
      vertex -10.9172 1.82799 2
      vertex -11.3262 5.87785 2
    endloop
  endfacet
  facet normal 0 0 1
    outer loop
      vertex -10.9172 1.82799 2
      vertex -12.7896 4.06737 2
      vertex -11.0586 1.71527 2
    endloop
  endfacet
  facet normal 0 0 1
    outer loop
      vertex -11.0586 1.71527 2
      vertex -13.6941 2.07912 2
      vertex -12.1893 0.813532 2
    endloop
  endfacet
  facet normal -0 0 1
    outer loop
      vertex -13.6941 2.07912 2
      vertex -11.0586 1.71527 2
      vertex -12.7896 4.06737 2
    endloop
  endfacet
  facet normal -0 0 1
    outer loop
      vertex -9.33096 -1.46593 2
      vertex -7 -8 2
      vertex -8.70344 -0.162882 2
    endloop
  endfacet
  facet normal -0 0 1
    outer loop
      vertex -9.36783 -7.43145 2
      vertex -7 -8 2
      vertex -9.33096 -1.46593 2
    endloop
  endfacet
  facet normal 0 0 1
    outer loop
      vertex -7 -8 2
      vertex -9.36783 -7.43145 2
      vertex -8.27227 -8 2
    endloop
  endfacet
  facet normal 0 0 1
    outer loop
      vertex -11.3262 -5.87785 2
      vertex -9.33096 -1.46593 2
      vertex -10.741 -1.78776 2
    endloop
  endfacet
  facet normal 0 0 1
    outer loop
      vertex -11.3262 -5.87785 2
      vertex -10.741 -1.78776 2
      vertex -10.9172 -1.82799 2
    endloop
  endfacet
  facet normal 0 0 1
    outer loop
      vertex -12.7896 -4.06737 2
      vertex -10.9172 -1.82799 2
      vertex -11.0586 -1.71527 2
    endloop
  endfacet
  facet normal 0 0 1
    outer loop
      vertex -9.33096 -1.46593 2
      vertex -11.3262 -5.87785 2
      vertex -9.36783 -7.43145 2
    endloop
  endfacet
  facet normal 0 0 1
    outer loop
      vertex -13.6941 -2.07912 2
      vertex -11.0586 -1.71527 2
      vertex -12.1893 -0.813532 2
    endloop
  endfacet
  facet normal 0 0 1
    outer loop
      vertex -10.9172 -1.82799 2
      vertex -12.7896 -4.06737 2
      vertex -11.3262 -5.87785 2
    endloop
  endfacet
  facet normal 0 0 1
    outer loop
      vertex -14 0 2
      vertex -12.1893 0.813532 2
      vertex -13.6941 2.07912 2
    endloop
  endfacet
  facet normal 0 0 1
    outer loop
      vertex -12.1893 0.813532 2
      vertex -14 0 2
      vertex -12.1893 -0.813532 2
    endloop
  endfacet
  facet normal 0 0 1
    outer loop
      vertex -11.0586 -1.71527 2
      vertex -13.6941 -2.07912 2
      vertex -12.7896 -4.06737 2
    endloop
  endfacet
  facet normal 0 0 1
    outer loop
      vertex -12.1893 -0.813532 2
      vertex -14 0 2
      vertex -13.6941 -2.07912 2
    endloop
  endfacet
  facet normal -0 0 1
    outer loop
      vertex 12.2966 0.162882 2
      vertex 14 0 2
      vertex 13.6941 2.07912 2
    endloop
  endfacet
  facet normal 0 0 1
    outer loop
      vertex 11.669 1.46593 2
      vertex 13.6941 2.07912 2
      vertex 12.7896 4.06737 2
    endloop
  endfacet
  facet normal 0 0 1
    outer loop
      vertex 12.2966 -0.162882 2
      vertex 14 0 2
      vertex 12.375 0 2
    endloop
  endfacet
  facet normal 0 0 1
    outer loop
      vertex 14 0 2
      vertex 12.2966 -0.162882 2
      vertex 13.6941 -2.07912 2
    endloop
  endfacet
  facet normal 0 0 1
    outer loop
      vertex 14 0 2
      vertex 12.2966 0.162882 2
      vertex 12.375 0 2
    endloop
  endfacet
  facet normal 0 0 1
    outer loop
      vertex 13.6941 2.07912 2
      vertex 11.669 1.46593 2
      vertex 12.2966 0.162882 2
    endloop
  endfacet
  facet normal 0 0 1
    outer loop
      vertex 10.259 1.78776 2
      vertex 12.7896 4.06737 2
      vertex 11.3262 5.87785 2
    endloop
  endfacet
  facet normal 0 0 1
    outer loop
      vertex 12.7896 4.06737 2
      vertex 10.259 1.78776 2
      vertex 11.669 1.46593 2
    endloop
  endfacet
  facet normal 0 0 1
    outer loop
      vertex 11.3262 5.87785 2
      vertex 10.0828 1.82799 2
      vertex 10.259 1.78776 2
    endloop
  endfacet
  facet normal 0 0 1
    outer loop
      vertex 9.36783 7.43145 2
      vertex 10.0828 1.82799 2
      vertex 11.3262 5.87785 2
    endloop
  endfacet
  facet normal 0 0 1
    outer loop
      vertex 10.0828 1.82799 2
      vertex 9.36783 7.43145 2
      vertex 9.94143 1.71527 2
    endloop
  endfacet
  facet normal 0 0 1
    outer loop
      vertex 7 8 2
      vertex 9.94143 1.71527 2
      vertex 9.36783 7.43145 2
    endloop
  endfacet
  facet normal 0 0 1
    outer loop
      vertex 9.94143 1.71527 2
      vertex 7 8 2
      vertex 8.81068 0.813532 2
    endloop
  endfacet
  facet normal -0 0 1
    outer loop
      vertex 7 8 2
      vertex 9.36783 7.43145 2
      vertex 8.27227 8 2
    endloop
  endfacet
  facet normal -0 0 1
    outer loop
      vertex 11.669 -1.46593 2
      vertex 13.6941 -2.07912 2
      vertex 12.2966 -0.162882 2
    endloop
  endfacet
  facet normal 0 0 1
    outer loop
      vertex 13.6941 -2.07912 2
      vertex 11.669 -1.46593 2
      vertex 12.7896 -4.06737 2
    endloop
  endfacet
  facet normal -0 0 1
    outer loop
      vertex 10.259 -1.78776 2
      vertex 12.7896 -4.06737 2
      vertex 11.669 -1.46593 2
    endloop
  endfacet
  facet normal 0 0 1
    outer loop
      vertex 12.7896 -4.06737 2
      vertex 10.259 -1.78776 2
      vertex 11.3262 -5.87785 2
    endloop
  endfacet
  facet normal -0 0 1
    outer loop
      vertex 10.0828 -1.82799 2
      vertex 11.3262 -5.87785 2
      vertex 10.259 -1.78776 2
    endloop
  endfacet
  facet normal 0 0 1
    outer loop
      vertex 9.36783 -7.43145 2
      vertex 10.0828 -1.82799 2
      vertex 9.94143 -1.71527 2
    endloop
  endfacet
  facet normal 0 0 1
    outer loop
      vertex 10.0828 -1.82799 2
      vertex 9.36783 -7.43145 2
      vertex 11.3262 -5.87785 2
    endloop
  endfacet
  facet normal 0 0 1
    outer loop
      vertex 7 -8 2
      vertex 9.94143 -1.71527 2
      vertex 8.81068 -0.813532 2
    endloop
  endfacet
  facet normal 0 0 1
    outer loop
      vertex 9.94143 -1.71527 2
      vertex 7 -8 2
      vertex 9.36783 -7.43145 2
    endloop
  endfacet
  facet normal 0 0 1
    outer loop
      vertex 8.81068 0.813532 2
      vertex 7 8 2
      vertex 8.81068 -0.813532 2
    endloop
  endfacet
  facet normal 0 0 1
    outer loop
      vertex 7 -8 2
      vertex 8.81068 -0.813532 2
      vertex 7 8 2
    endloop
  endfacet
  facet normal 0 0 1
    outer loop
      vertex 9.36783 -7.43145 2
      vertex 7 -8 2
      vertex 8.27227 -8 2
    endloop
  endfacet
  facet normal -0 0 1
    outer loop
      vertex -5.5 6.5 2
      vertex -4 5 2
      vertex -4 6.5 2
    endloop
  endfacet
  facet normal 0 0 1
    outer loop
      vertex -4 5 2
      vertex -5.5 6.5 2
      vertex -5.5 5 2
    endloop
  endfacet
  facet normal -0 0 1
    outer loop
      vertex -2 0.267949 2
      vertex -1 0 2
      vertex -1 0.267949 2
    endloop
  endfacet
  facet normal 0 0 1
    outer loop
      vertex -1 0 2
      vertex -2 0.267949 2
      vertex -1 -2 2
    endloop
  endfacet
  facet normal 0 0 1
    outer loop
      vertex -1 -2 2
      vertex -2 0.267949 2
      vertex -1 -4 2
    endloop
  endfacet
  facet normal 0 0 1
    outer loop
      vertex -3.5 -8 2
      vertex -1 -4 2
      vertex -2 0.267949 2
    endloop
  endfacet
  facet normal 0 0 1
    outer loop
      vertex -1 -4 2
      vertex -3.5 -8 2
      vertex -1.45122 -6 2
    endloop
  endfacet
  facet normal -0 0 1
    outer loop
      vertex -1 0 2
      vertex 1 -2 2
      vertex 1 0 2
    endloop
  endfacet
  facet normal 0 0 1
    outer loop
      vertex 1 -2 2
      vertex -1 0 2
      vertex -1 -2 2
    endloop
  endfacet
  facet normal 0 0 1
    outer loop
      vertex 1 4 2
      vertex 4 6.5 2
      vertex 4 8 2
    endloop
  endfacet
  facet normal 0 0 1
    outer loop
      vertex 4 6.5 2
      vertex 2 4 2
      vertex 4 5 2
    endloop
  endfacet
  facet normal 0 -0 1
    outer loop
      vertex 3.5 2 2
      vertex 4 5 2
      vertex 2 4 2
    endloop
  endfacet
  facet normal -0 0 1
    outer loop
      vertex 2 0.267949 2
      vertex 3.5 -8 2
      vertex 3.5 2 2
    endloop
  endfacet
  facet normal 0 0 1
    outer loop
      vertex 4 5 2
      vertex 3.5 2 2
      vertex 4 2 2
    endloop
  endfacet
  facet normal 0 0 1
    outer loop
      vertex 3.5 2 2
      vertex 2 4 2
      vertex 2 0.267949 2
    endloop
  endfacet
  facet normal 0 0 1
    outer loop
      vertex 4 6.5 2
      vertex 1 4 2
      vertex 2 4 2
    endloop
  endfacet
  facet normal 0 0 1
    outer loop
      vertex 1 4 2
      vertex -1 4 2
      vertex 1 2 2
    endloop
  endfacet
  facet normal 0 0 1
    outer loop
      vertex 4 8 2
      vertex -1 4 2
      vertex 1 4 2
    endloop
  endfacet
  facet normal -0 0 1
    outer loop
      vertex -4 8 2
      vertex -1 4 2
      vertex 4 8 2
    endloop
  endfacet
  facet normal -0 0 1
    outer loop
      vertex -3.5 2 2
      vertex -2 0.267949 2
      vertex -2 4 2
    endloop
  endfacet
  facet normal 0 0 1
    outer loop
      vertex -3.5 -8 2
      vertex -2 0.267949 2
      vertex -3.5 2 2
    endloop
  endfacet
  facet normal -0 0 1
    outer loop
      vertex -4 6.5 2
      vertex -1 4 2
      vertex -4 8 2
    endloop
  endfacet
  facet normal 0 0 1
    outer loop
      vertex -1 4 2
      vertex -4 6.5 2
      vertex -2 4 2
    endloop
  endfacet
  facet normal -0 0 1
    outer loop
      vertex -4 5 2
      vertex -2 4 2
      vertex -4 6.5 2
    endloop
  endfacet
  facet normal 0 0 1
    outer loop
      vertex -2 4 2
      vertex -4 5 2
      vertex -3.5 2 2
    endloop
  endfacet
  facet normal 0 0 1
    outer loop
      vertex -3.5 2 2
      vertex -4 5 2
      vertex -4 2 2
    endloop
  endfacet
  facet normal -0 0 1
    outer loop
      vertex 4 6.5 2
      vertex 5.5 5 2
      vertex 5.5 6.5 2
    endloop
  endfacet
  facet normal 0 0 1
    outer loop
      vertex 5.5 5 2
      vertex 4 6.5 2
      vertex 4 5 2
    endloop
  endfacet
  facet normal 0 0 1
    outer loop
      vertex 3.5 -8 2
      vertex 2 0.267949 2
      vertex 1 -4 2
    endloop
  endfacet
  facet normal 0 0 1
    outer loop
      vertex 3.5 -8 2
      vertex 1.45122 -6 2
      vertex 2.47561 -8 2
    endloop
  endfacet
  facet normal 0 0 1
    outer loop
      vertex 1 0 2
      vertex 2 0.267949 2
      vertex 1 0.267949 2
    endloop
  endfacet
  facet normal 0 0 1
    outer loop
      vertex 1 -2 2
      vertex 2 0.267949 2
      vertex 1 0 2
    endloop
  endfacet
  facet normal 0 0 1
    outer loop
      vertex 1 -4 2
      vertex 2 0.267949 2
      vertex 1 -2 2
    endloop
  endfacet
  facet normal 0 0 1
    outer loop
      vertex 3.5 -8 2
      vertex 1 -4 2
      vertex 1.45122 -6 2
    endloop
  endfacet
  facet normal -0 0 1
    outer loop
      vertex -1 -4 2
      vertex 1.45122 -6 2
      vertex 1 -4 2
    endloop
  endfacet
  facet normal 0 0 1
    outer loop
      vertex 1.45122 -6 2
      vertex -1 -4 2
      vertex -1.45122 -6 2
    endloop
  endfacet
  facet normal 0 0 1
    outer loop
      vertex 1 2 2
      vertex -1 4 2
      vertex -1 2 2
    endloop
  endfacet
  facet normal 0 0 1
    outer loop
      vertex -1.45122 -6 2
      vertex -3.5 -8 2
      vertex -2.47561 -8 2
    endloop
  endfacet
  facet normal 0.989347 -0.145579 0
    outer loop
      vertex 13.6941 -2.07912 2
      vertex 14 0 0
      vertex 14 0 2
    endloop
  endfacet
  facet normal 0.989347 -0.145579 0
    outer loop
      vertex 14 0 0
      vertex 13.6941 -2.07912 2
      vertex 13.6941 -2.07912 0
    endloop
  endfacet
  facet normal 0 0 -1
    outer loop
      vertex -9.5172 0.814408 0
      vertex -8.27227 8 0
      vertex -9.125 0 0
    endloop
  endfacet
  facet normal 0 0 -1
    outer loop
      vertex -9.6427 1.07502 0
      vertex -8.27227 8 0
      vertex -9.5172 0.814408 0
    endloop
  endfacet
  facet normal 0 0 -1
    outer loop
      vertex -8.27227 8 0
      vertex -9.6427 1.07502 0
      vertex -9.36783 7.43145 0
    endloop
  endfacet
  facet normal 0 0 -1
    outer loop
      vertex -11.3262 5.87785 0
      vertex -9.6427 1.07502 0
      vertex -9.9247 1.13938 0
    endloop
  endfacet
  facet normal 0 0 -1
    outer loop
      vertex -11.3262 5.87785 0
      vertex -9.9247 1.13938 0
      vertex -10.806 1.34053 0
    endloop
  endfacet
  facet normal 0 0 -1
    outer loop
      vertex -9.6427 1.07502 0
      vertex -11.3262 5.87785 0
      vertex -9.36783 7.43145 0
    endloop
  endfacet
  facet normal 0 0 -1
    outer loop
      vertex -13.6941 2.07912 0
      vertex -10.806 1.34053 0
      vertex -11.5127 0.776938 0
    endloop
  endfacet
  facet normal 0 0 -1
    outer loop
      vertex -13.6941 2.07912 0
      vertex -11.5127 0.776938 0
      vertex -11.7388 0.59659 0
    endloop
  endfacet
  facet normal 0 0 -1
    outer loop
      vertex -14 0 0
      vertex -11.7388 -0.59659 0
      vertex -13.6941 -2.07912 0
    endloop
  endfacet
  facet normal 0 0 -1
    outer loop
      vertex -10.806 1.34053 0
      vertex -12.7896 4.06737 0
      vertex -11.3262 5.87785 0
    endloop
  endfacet
  facet normal 0 0 -1
    outer loop
      vertex -11.7388 -0.59659 0
      vertex -14 0 0
      vertex -11.7388 0.59659 0
    endloop
  endfacet
  facet normal 0 0 -1
    outer loop
      vertex -10.806 1.34053 0
      vertex -13.6941 2.07912 0
      vertex -12.7896 4.06737 0
    endloop
  endfacet
  facet normal -0 0 -1
    outer loop
      vertex -11.7388 0.59659 0
      vertex -14 0 0
      vertex -13.6941 2.07912 0
    endloop
  endfacet
  facet normal 0 0 -1
    outer loop
      vertex 11.875 0 0
      vertex 14 0 0
      vertex 13.6941 -2.07912 0
    endloop
  endfacet
  facet normal 0 0 -1
    outer loop
      vertex 11.3573 -1.07502 0
      vertex 13.6941 -2.07912 0
      vertex 12.7896 -4.06737 0
    endloop
  endfacet
  facet normal 0 0 -1
    outer loop
      vertex 14 0 0
      vertex 11.875 0 0
      vertex 13.6941 2.07912 0
    endloop
  endfacet
  facet normal 0 0 -1
    outer loop
      vertex 11.4828 0.814408 0
      vertex 13.6941 2.07912 0
      vertex 11.875 0 0
    endloop
  endfacet
  facet normal 0 0 -1
    outer loop
      vertex 13.6941 -2.07912 0
      vertex 11.4828 -0.814408 0
      vertex 11.875 0 0
    endloop
  endfacet
  facet normal 0 0 -1
    outer loop
      vertex 13.6941 -2.07912 0
      vertex 11.3573 -1.07502 0
      vertex 11.4828 -0.814408 0
    endloop
  endfacet
  facet normal 0 0 -1
    outer loop
      vertex 10.194 -1.34053 0
      vertex 12.7896 -4.06737 0
      vertex 11.3262 -5.87785 0
    endloop
  endfacet
  facet normal 0 0 -1
    outer loop
      vertex 12.7896 -4.06737 0
      vertex 11.0753 -1.13938 0
      vertex 11.3573 -1.07502 0
    endloop
  endfacet
  facet normal 0 0 -1
    outer loop
      vertex 12.7896 -4.06737 0
      vertex 10.194 -1.34053 0
      vertex 11.0753 -1.13938 0
    endloop
  endfacet
  facet normal 0 0 -1
    outer loop
      vertex 9.36783 -7.43145 0
      vertex 10.194 -1.34053 0
      vertex 11.3262 -5.87785 0
    endloop
  endfacet
  facet normal -0 0 -1
    outer loop
      vertex 10.194 -1.34053 0
      vertex 9.36783 -7.43145 0
      vertex 9.48732 -0.776938 0
    endloop
  endfacet
  facet normal 0 0 -1
    outer loop
      vertex 8.27227 -8 0
      vertex 9.48732 -0.776938 0
      vertex 9.36783 -7.43145 0
    endloop
  endfacet
  facet normal 0 0 -1
    outer loop
      vertex -9.125 0 0
      vertex 9.26117 -0.59659 0
      vertex 8.27227 -8 0
    endloop
  endfacet
  facet normal -0 0 -1
    outer loop
      vertex 9.48732 -0.776938 0
      vertex 8.27227 -8 0
      vertex 9.26117 -0.59659 0
    endloop
  endfacet
  facet normal 0 0 -1
    outer loop
      vertex 11.3573 1.07502 0
      vertex 13.6941 2.07912 0
      vertex 11.4828 0.814408 0
    endloop
  endfacet
  facet normal -0 0 -1
    outer loop
      vertex 13.6941 2.07912 0
      vertex 11.3573 1.07502 0
      vertex 12.7896 4.06737 0
    endloop
  endfacet
  facet normal 0 0 -1
    outer loop
      vertex 11.0753 1.13938 0
      vertex 12.7896 4.06737 0
      vertex 11.3573 1.07502 0
    endloop
  endfacet
  facet normal 0 0 -1
    outer loop
      vertex 10.194 1.34053 0
      vertex 12.7896 4.06737 0
      vertex 11.0753 1.13938 0
    endloop
  endfacet
  facet normal -0 0 -1
    outer loop
      vertex 12.7896 4.06737 0
      vertex 10.194 1.34053 0
      vertex 11.3262 5.87785 0
    endloop
  endfacet
  facet normal 0 0 -1
    outer loop
      vertex 9.36783 7.43145 0
      vertex 10.194 1.34053 0
      vertex 9.48732 0.776938 0
    endloop
  endfacet
  facet normal 0 0 -1
    outer loop
      vertex 10.194 1.34053 0
      vertex 9.36783 7.43145 0
      vertex 11.3262 5.87785 0
    endloop
  endfacet
  facet normal 0 0 -1
    outer loop
      vertex 8.27227 8 0
      vertex 9.48732 0.776938 0
      vertex 9.26117 0.59659 0
    endloop
  endfacet
  facet normal 0 0 -1
    outer loop
      vertex 9.26117 -0.59659 0
      vertex -9.125 0 0
      vertex 9.26117 0.59659 0
    endloop
  endfacet
  facet normal 0 0 -1
    outer loop
      vertex 9.48732 0.776938 0
      vertex 8.27227 8 0
      vertex 9.36783 7.43145 0
    endloop
  endfacet
  facet normal 0 0 -1
    outer loop
      vertex -9.125 0 0
      vertex 8.27227 -8 0
      vertex -8.27227 -8 0
    endloop
  endfacet
  facet normal -0 0 -1
    outer loop
      vertex 9.26117 0.59659 0
      vertex -9.125 0 0
      vertex 8.27227 8 0
    endloop
  endfacet
  facet normal -0 0 -1
    outer loop
      vertex 8.27227 8 0
      vertex -9.125 0 0
      vertex -8.27227 8 0
    endloop
  endfacet
  facet normal 0 0 -1
    outer loop
      vertex -9.6427 -1.07502 0
      vertex -8.27227 -8 0
      vertex -9.36783 -7.43145 0
    endloop
  endfacet
  facet normal 0 0 -1
    outer loop
      vertex -8.27227 -8 0
      vertex -9.5172 -0.814408 0
      vertex -9.125 0 0
    endloop
  endfacet
  facet normal 0 0 -1
    outer loop
      vertex -8.27227 -8 0
      vertex -9.6427 -1.07502 0
      vertex -9.5172 -0.814408 0
    endloop
  endfacet
  facet normal 0 0 -1
    outer loop
      vertex -11.3262 -5.87785 0
      vertex -9.6427 -1.07502 0
      vertex -9.36783 -7.43145 0
    endloop
  endfacet
  facet normal 0 0 -1
    outer loop
      vertex -9.6427 -1.07502 0
      vertex -11.3262 -5.87785 0
      vertex -9.9247 -1.13938 0
    endloop
  endfacet
  facet normal 0 0 -1
    outer loop
      vertex -9.9247 -1.13938 0
      vertex -11.3262 -5.87785 0
      vertex -10.806 -1.34053 0
    endloop
  endfacet
  facet normal 0 0 -1
    outer loop
      vertex -12.7896 -4.06737 0
      vertex -10.806 -1.34053 0
      vertex -11.3262 -5.87785 0
    endloop
  endfacet
  facet normal 0 0 -1
    outer loop
      vertex -13.6941 -2.07912 0
      vertex -10.806 -1.34053 0
      vertex -12.7896 -4.06737 0
    endloop
  endfacet
  facet normal -0 0 -1
    outer loop
      vertex -11.5127 -0.776938 0
      vertex -13.6941 -2.07912 0
      vertex -11.7388 -0.59659 0
    endloop
  endfacet
  facet normal -0 0 -1
    outer loop
      vertex -10.806 -1.34053 0
      vertex -13.6941 -2.07912 0
      vertex -11.5127 -0.776938 0
    endloop
  endfacet
  facet normal 0.777714 -0.628618 0
    outer loop
      vertex 11.3262 -5.87785 2
      vertex 12.7896 -4.06737 0
      vertex 12.7896 -4.06737 2
    endloop
  endfacet
  facet normal 0.777714 -0.628618 0
    outer loop
      vertex 12.7896 -4.06737 0
      vertex 11.3262 -5.87785 2
      vertex 11.3262 -5.87785 0
    endloop
  endfacet
  facet normal -0.460625 -0.887595 0
    outer loop
      vertex -9.36783 -7.43145 0
      vertex -8.27227 -8 2
      vertex -9.36783 -7.43145 2
    endloop
  endfacet
  facet normal -0.460625 -0.887595 -0
    outer loop
      vertex -8.27227 -8 2
      vertex -9.36783 -7.43145 0
      vertex -8.27227 -8 0
    endloop
  endfacet
  facet normal -0.777714 -0.628618 0
    outer loop
      vertex -11.3262 -5.87785 0
      vertex -12.7896 -4.06737 2
      vertex -12.7896 -4.06737 0
    endloop
  endfacet
  facet normal -0.777714 -0.628618 0
    outer loop
      vertex -12.7896 -4.06737 2
      vertex -11.3262 -5.87785 0
      vertex -11.3262 -5.87785 2
    endloop
  endfacet
  facet normal -0.621487 -0.783425 0
    outer loop
      vertex -11.3262 -5.87785 0
      vertex -9.36783 -7.43145 2
      vertex -11.3262 -5.87785 2
    endloop
  endfacet
  facet normal -0.621487 -0.783425 -0
    outer loop
      vertex -9.36783 -7.43145 2
      vertex -11.3262 -5.87785 0
      vertex -9.36783 -7.43145 0
    endloop
  endfacet
  facet normal 0.460625 -0.887595 0
    outer loop
      vertex 8.27227 -8 0
      vertex 9.36783 -7.43145 2
      vertex 8.27227 -8 2
    endloop
  endfacet
  facet normal 0.460625 -0.887595 0
    outer loop
      vertex 9.36783 -7.43145 2
      vertex 8.27227 -8 0
      vertex 9.36783 -7.43145 0
    endloop
  endfacet
  facet normal -0.910249 -0.414061 0
    outer loop
      vertex -12.7896 -4.06737 0
      vertex -13.6941 -2.07912 2
      vertex -13.6941 -2.07912 0
    endloop
  endfacet
  facet normal -0.910249 -0.414061 0
    outer loop
      vertex -13.6941 -2.07912 2
      vertex -12.7896 -4.06737 0
      vertex -12.7896 -4.06737 2
    endloop
  endfacet
  facet normal -0.989347 -0.145579 0
    outer loop
      vertex -13.6941 -2.07912 0
      vertex -14 0 2
      vertex -14 0 0
    endloop
  endfacet
  facet normal -0.989347 -0.145579 0
    outer loop
      vertex -14 0 2
      vertex -13.6941 -2.07912 0
      vertex -13.6941 -2.07912 2
    endloop
  endfacet
  facet normal 0.621487 -0.783425 0
    outer loop
      vertex 9.36783 -7.43145 0
      vertex 11.3262 -5.87785 2
      vertex 9.36783 -7.43145 2
    endloop
  endfacet
  facet normal 0.621487 -0.783425 0
    outer loop
      vertex 11.3262 -5.87785 2
      vertex 9.36783 -7.43145 0
      vertex 11.3262 -5.87785 0
    endloop
  endfacet
  facet normal 0 -1 0
    outer loop
      vertex -8.27227 -8 0
      vertex -7 -8 2
      vertex -8.27227 -8 2
    endloop
  endfacet
  facet normal 0 -1 -0
    outer loop
      vertex -7 -8 2
      vertex -8.27227 -8 0
      vertex -3.5 -8 2
    endloop
  endfacet
  facet normal 0 -1 -0
    outer loop
      vertex -3.5 -8 2
      vertex -8.27227 -8 0
      vertex -2.47561 -8 2
    endloop
  endfacet
  facet normal 0 -1 -0
    outer loop
      vertex -2.47561 -8 2
      vertex -8.27227 -8 0
      vertex 2.47561 -8 2
    endloop
  endfacet
  facet normal 0 -1 0
    outer loop
      vertex 8.27227 -8 0
      vertex 2.47561 -8 2
      vertex -8.27227 -8 0
    endloop
  endfacet
  facet normal 0 -1 0
    outer loop
      vertex 2.47561 -8 2
      vertex 8.27227 -8 0
      vertex 3.5 -8 2
    endloop
  endfacet
  facet normal 0 -1 0
    outer loop
      vertex 3.5 -8 2
      vertex 8.27227 -8 0
      vertex 7 -8 2
    endloop
  endfacet
  facet normal 0 -1 0
    outer loop
      vertex 7 -8 2
      vertex 8.27227 -8 0
      vertex 8.27227 -8 2
    endloop
  endfacet
  facet normal 0 -1 0
    outer loop
      vertex -6 -8 4
      vertex -7 -8 5
      vertex -7 -8 4.57735
    endloop
  endfacet
  facet normal 0 -1 0
    outer loop
      vertex -7 -8 5
      vertex -6 -8 4
      vertex -3.5 -8 5
    endloop
  endfacet
  facet normal 0 -1 0
    outer loop
      vertex -6 -8 3
      vertex -3.5 -8 5
      vertex -6 -8 4
    endloop
  endfacet
  facet normal 0 -1 0
    outer loop
      vertex -7 -8 2
      vertex -6 -8 3
      vertex -7 -8 2.42265
    endloop
  endfacet
  facet normal 0 -1 0
    outer loop
      vertex -3.5 -8 2
      vertex -6 -8 3
      vertex -7 -8 2
    endloop
  endfacet
  facet normal 0 -1 0
    outer loop
      vertex -6 -8 3
      vertex -3.5 -8 2
      vertex -3.5 -8 5
    endloop
  endfacet
  facet normal 0 -1 0
    outer loop
      vertex -2.47561 -8 2
      vertex 2.47561 -8 5
      vertex -2.47561 -8 5
    endloop
  endfacet
  facet normal 0 -1 -0
    outer loop
      vertex 2.47561 -8 5
      vertex -2.47561 -8 2
      vertex 2.47561 -8 2
    endloop
  endfacet
  facet normal 0 -1 0
    outer loop
      vertex 6 -8 4
      vertex 7 -8 5
      vertex 3.5 -8 5
    endloop
  endfacet
  facet normal 0 -1 -0
    outer loop
      vertex 7 -8 5
      vertex 6 -8 4
      vertex 7 -8 4.57735
    endloop
  endfacet
  facet normal 0 -1 0
    outer loop
      vertex 3.5 -8 5
      vertex 6 -8 3
      vertex 6 -8 4
    endloop
  endfacet
  facet normal 0 -1 0
    outer loop
      vertex 3.5 -8 2
      vertex 6 -8 3
      vertex 3.5 -8 5
    endloop
  endfacet
  facet normal 0 -1 0
    outer loop
      vertex 7 -8 2
      vertex 6 -8 3
      vertex 3.5 -8 2
    endloop
  endfacet
  facet normal 0 -1 0
    outer loop
      vertex 6 -8 3
      vertex 7 -8 2
      vertex 7 -8 2.42265
    endloop
  endfacet
  facet normal 0 1 -0
    outer loop
      vertex 8.27227 8 0
      vertex 7 8 2
      vertex 8.27227 8 2
    endloop
  endfacet
  facet normal 0 1 0
    outer loop
      vertex 7 8 2
      vertex 8.27227 8 0
      vertex 4 8 2
    endloop
  endfacet
  facet normal 0 1 0
    outer loop
      vertex 4 8 2
      vertex 8.27227 8 0
      vertex -4 8 2
    endloop
  endfacet
  facet normal 0 1 0
    outer loop
      vertex -8.27227 8 0
      vertex -4 8 2
      vertex 8.27227 8 0
    endloop
  endfacet
  facet normal 0 1 0
    outer loop
      vertex -4 8 2
      vertex -8.27227 8 0
      vertex -7 8 2
    endloop
  endfacet
  facet normal 0 1 0
    outer loop
      vertex -7 8 2
      vertex -8.27227 8 0
      vertex -8.27227 8 2
    endloop
  endfacet
  facet normal 0 1 -0
    outer loop
      vertex 7 8 2
      vertex 4 8 5
      vertex 7 8 5
    endloop
  endfacet
  facet normal 0 1 0
    outer loop
      vertex 4 8 5
      vertex 7 8 2
      vertex 4 8 2
    endloop
  endfacet
  facet normal 0 1 -0
    outer loop
      vertex -4 8 2
      vertex -7 8 5
      vertex -4 8 5
    endloop
  endfacet
  facet normal 0 1 0
    outer loop
      vertex -7 8 5
      vertex -4 8 2
      vertex -7 8 2
    endloop
  endfacet
  facet normal -0.878949 -0.423279 0.219737
    outer loop
      vertex -9.125 0 0
      vertex -8.70344 0.162882 2
      vertex -9.5172 0.814408 0
    endloop
  endfacet
  facet normal -0.878948 -0.42328 0.219737
    outer loop
      vertex -8.70344 0.162882 2
      vertex -9.125 0 0
      vertex -8.625 0 2
    endloop
  endfacet
  facet normal -0.217083 0.9511 0.219737
    outer loop
      vertex -9.9247 -1.13938 0
      vertex -9.33096 -1.46593 2
      vertex -9.6427 -1.07502 0
    endloop
  endfacet
  facet normal -0.217082 0.9511 0.219737
    outer loop
      vertex -9.33096 -1.46593 2
      vertex -9.9247 -1.13938 0
      vertex -10.741 -1.78776 2
    endloop
  endfacet
  facet normal -0.217082 -0.9511 0.219737
    outer loop
      vertex -9.9247 1.13938 0
      vertex -9.33096 1.46593 2
      vertex -10.741 1.78776 2
    endloop
  endfacet
  facet normal -0.217083 -0.9511 0.219737
    outer loop
      vertex -9.33096 1.46593 2
      vertex -9.9247 1.13938 0
      vertex -9.6427 1.07502 0
    endloop
  endfacet
  facet normal -0.878948 0.42328 0.219737
    outer loop
      vertex -9.33096 -1.46593 2
      vertex -9.5172 -0.814408 0
      vertex -9.6427 -1.07502 0
    endloop
  endfacet
  facet normal -0.878948 0.423279 0.219737
    outer loop
      vertex -9.5172 -0.814408 0
      vertex -9.33096 -1.46593 2
      vertex -8.70344 -0.162882 2
    endloop
  endfacet
  facet normal -0.878948 -0.42328 0.219737
    outer loop
      vertex -9.5172 0.814408 0
      vertex -9.33096 1.46593 2
      vertex -9.6427 1.07502 0
    endloop
  endfacet
  facet normal -0.878948 -0.423279 0.219737
    outer loop
      vertex -9.33096 1.46593 2
      vertex -9.5172 0.814408 0
      vertex -8.70344 0.162882 2
    endloop
  endfacet
  facet normal 0.975559 0 0.219737
    outer loop
      vertex -12.1893 0.813532 2
      vertex -11.7388 -0.59659 0
      vertex -11.7388 0.59659 0
    endloop
  endfacet
  facet normal 0.975559 0 0.219737
    outer loop
      vertex -11.7388 -0.59659 0
      vertex -12.1893 0.813532 2
      vertex -12.1893 -0.813532 2
    endloop
  endfacet
  facet normal -0.217082 0.9511 0.219737
    outer loop
      vertex -10.806 -1.34053 0
      vertex -10.741 -1.78776 2
      vertex -9.9247 -1.13938 0
    endloop
  endfacet
  facet normal -0.217082 0.9511 0.219737
    outer loop
      vertex -10.741 -1.78776 2
      vertex -10.806 -1.34053 0
      vertex -10.9172 -1.82799 2
    endloop
  endfacet
  facet normal 0.608251 -0.762723 0.219737
    outer loop
      vertex -11.7388 0.59659 0
      vertex -11.0586 1.71527 2
      vertex -12.1893 0.813532 2
    endloop
  endfacet
  facet normal 0.608251 -0.762723 0.219738
    outer loop
      vertex -11.0586 1.71527 2
      vertex -11.7388 0.59659 0
      vertex -11.5127 0.776938 0
    endloop
  endfacet
  facet normal 0.608251 -0.762723 0.219737
    outer loop
      vertex -10.806 1.34053 0
      vertex -11.0586 1.71527 2
      vertex -11.5127 0.776938 0
    endloop
  endfacet
  facet normal 0.608251 -0.762723 0.219737
    outer loop
      vertex -11.0586 1.71527 2
      vertex -10.806 1.34053 0
      vertex -10.9172 1.82799 2
    endloop
  endfacet
  facet normal -0.217082 -0.9511 0.219737
    outer loop
      vertex -10.806 1.34053 0
      vertex -10.741 1.78776 2
      vertex -10.9172 1.82799 2
    endloop
  endfacet
  facet normal -0.217082 -0.9511 0.219737
    outer loop
      vertex -10.741 1.78776 2
      vertex -10.806 1.34053 0
      vertex -9.9247 1.13938 0
    endloop
  endfacet
  facet normal -0.878948 0.42328 0.219737
    outer loop
      vertex -9.125 0 0
      vertex -8.70344 -0.162882 2
      vertex -8.625 0 2
    endloop
  endfacet
  facet normal -0.878949 0.423279 0.219737
    outer loop
      vertex -8.70344 -0.162882 2
      vertex -9.125 0 0
      vertex -9.5172 -0.814408 0
    endloop
  endfacet
  facet normal 0.608251 0.762723 0.219737
    outer loop
      vertex -10.806 -1.34053 0
      vertex -11.0586 -1.71527 2
      vertex -10.9172 -1.82799 2
    endloop
  endfacet
  facet normal 0.608251 0.762723 0.219737
    outer loop
      vertex -11.0586 -1.71527 2
      vertex -10.806 -1.34053 0
      vertex -11.5127 -0.776938 0
    endloop
  endfacet
  facet normal 0.608251 0.762723 0.219737
    outer loop
      vertex -11.5127 -0.776938 0
      vertex -12.1893 -0.813532 2
      vertex -11.0586 -1.71527 2
    endloop
  endfacet
  facet normal 0.608251 0.762723 0.219737
    outer loop
      vertex -12.1893 -0.813532 2
      vertex -11.5127 -0.776938 0
      vertex -11.7388 -0.59659 0
    endloop
  endfacet
  facet normal -0.878948 -0.42328 0.219737
    outer loop
      vertex 11.875 0 0
      vertex 12.2966 0.162882 2
      vertex 11.4828 0.814408 0
    endloop
  endfacet
  facet normal -0.878948 -0.42328 0.219737
    outer loop
      vertex 12.2966 0.162882 2
      vertex 11.875 0 0
      vertex 12.375 0 2
    endloop
  endfacet
  facet normal -0.217083 0.9511 0.219737
    outer loop
      vertex 11.0753 -1.13938 0
      vertex 11.669 -1.46593 2
      vertex 11.3573 -1.07502 0
    endloop
  endfacet
  facet normal -0.217082 0.9511 0.219737
    outer loop
      vertex 11.669 -1.46593 2
      vertex 11.0753 -1.13938 0
      vertex 10.259 -1.78776 2
    endloop
  endfacet
  facet normal -0.217082 -0.9511 0.219737
    outer loop
      vertex 11.0753 1.13938 0
      vertex 11.669 1.46593 2
      vertex 10.259 1.78776 2
    endloop
  endfacet
  facet normal -0.217083 -0.9511 0.219737
    outer loop
      vertex 11.669 1.46593 2
      vertex 11.0753 1.13938 0
      vertex 11.3573 1.07502 0
    endloop
  endfacet
  facet normal -0.878948 0.42328 0.219737
    outer loop
      vertex 11.669 -1.46593 2
      vertex 11.4828 -0.814408 0
      vertex 11.3573 -1.07502 0
    endloop
  endfacet
  facet normal -0.878948 0.42328 0.219737
    outer loop
      vertex 11.4828 -0.814408 0
      vertex 11.669 -1.46593 2
      vertex 12.2966 -0.162882 2
    endloop
  endfacet
  facet normal -0.878948 -0.42328 0.219737
    outer loop
      vertex 11.4828 0.814408 0
      vertex 11.669 1.46593 2
      vertex 11.3573 1.07502 0
    endloop
  endfacet
  facet normal -0.878948 -0.42328 0.219737
    outer loop
      vertex 11.669 1.46593 2
      vertex 11.4828 0.814408 0
      vertex 12.2966 0.162882 2
    endloop
  endfacet
  facet normal 0.975559 0 0.219737
    outer loop
      vertex 8.81068 0.813532 2
      vertex 9.26117 -0.59659 0
      vertex 9.26117 0.59659 0
    endloop
  endfacet
  facet normal 0.975559 0 0.219737
    outer loop
      vertex 9.26117 -0.59659 0
      vertex 8.81068 0.813532 2
      vertex 8.81068 -0.813532 2
    endloop
  endfacet
  facet normal -0.217082 0.9511 0.219737
    outer loop
      vertex 10.194 -1.34053 0
      vertex 10.259 -1.78776 2
      vertex 11.0753 -1.13938 0
    endloop
  endfacet
  facet normal -0.217082 0.9511 0.219737
    outer loop
      vertex 10.259 -1.78776 2
      vertex 10.194 -1.34053 0
      vertex 10.0828 -1.82799 2
    endloop
  endfacet
  facet normal 0.608251 -0.762723 0.219737
    outer loop
      vertex 9.26117 0.59659 0
      vertex 9.94143 1.71527 2
      vertex 8.81068 0.813532 2
    endloop
  endfacet
  facet normal 0.608251 -0.762723 0.219738
    outer loop
      vertex 9.94143 1.71527 2
      vertex 9.26117 0.59659 0
      vertex 9.48732 0.776938 0
    endloop
  endfacet
  facet normal 0.608251 -0.762723 0.219737
    outer loop
      vertex 10.194 1.34053 0
      vertex 9.94143 1.71527 2
      vertex 9.48732 0.776938 0
    endloop
  endfacet
  facet normal 0.608251 -0.762723 0.219737
    outer loop
      vertex 9.94143 1.71527 2
      vertex 10.194 1.34053 0
      vertex 10.0828 1.82799 2
    endloop
  endfacet
  facet normal -0.217082 -0.9511 0.219737
    outer loop
      vertex 10.194 1.34053 0
      vertex 10.259 1.78776 2
      vertex 10.0828 1.82799 2
    endloop
  endfacet
  facet normal -0.217082 -0.9511 0.219737
    outer loop
      vertex 10.259 1.78776 2
      vertex 10.194 1.34053 0
      vertex 11.0753 1.13938 0
    endloop
  endfacet
  facet normal -0.878948 0.42328 0.219737
    outer loop
      vertex 11.875 0 0
      vertex 12.2966 -0.162882 2
      vertex 12.375 0 2
    endloop
  endfacet
  facet normal -0.878948 0.42328 0.219737
    outer loop
      vertex 12.2966 -0.162882 2
      vertex 11.875 0 0
      vertex 11.4828 -0.814408 0
    endloop
  endfacet
  facet normal 0.608251 0.762723 0.219737
    outer loop
      vertex 10.194 -1.34053 0
      vertex 9.94143 -1.71527 2
      vertex 10.0828 -1.82799 2
    endloop
  endfacet
  facet normal 0.608251 0.762723 0.219737
    outer loop
      vertex 9.94143 -1.71527 2
      vertex 10.194 -1.34053 0
      vertex 9.48732 -0.776938 0
    endloop
  endfacet
  facet normal 0.608251 0.762723 0.219737
    outer loop
      vertex 9.48732 -0.776938 0
      vertex 8.81068 -0.813532 2
      vertex 9.94143 -1.71527 2
    endloop
  endfacet
  facet normal 0.608251 0.762723 0.219737
    outer loop
      vertex 8.81068 -0.813532 2
      vertex 9.48732 -0.776938 0
      vertex 9.26117 -0.59659 0
    endloop
  endfacet
  facet normal 1 0 0
    outer loop
      vertex -2 4 2
      vertex -2 2 1
      vertex -2 4 1
    endloop
  endfacet
  facet normal 1 0 -0
    outer loop
      vertex -2 2 1
      vertex -2 4 2
      vertex -2 0.267949 2
    endloop
  endfacet
  facet normal -1 0 0
    outer loop
      vertex -1 2 1
      vertex -1 4 2
      vertex -1 4 1
    endloop
  endfacet
  facet normal -1 0 0
    outer loop
      vertex -1 2 1
      vertex -1 2 2
      vertex -1 4 2
    endloop
  endfacet
  facet normal -1 0 0
    outer loop
      vertex -1 0.267949 2
      vertex -1 2 2
      vertex -1 2 1
    endloop
  endfacet
  facet normal -1 0 0
    outer loop
      vertex -1 2 2
      vertex -1 0.267949 2
      vertex -1 2 5
    endloop
  endfacet
  facet normal -1 0 0
    outer loop
      vertex -1 0 5
      vertex -1 0.267949 2
      vertex -1 0 2
    endloop
  endfacet
  facet normal -1 0 0
    outer loop
      vertex -1 0.267949 2
      vertex -1 0 5
      vertex -1 2 5
    endloop
  endfacet
  facet normal -0 0 1
    outer loop
      vertex -2 4 1
      vertex -1 2 1
      vertex -1 4 1
    endloop
  endfacet
  facet normal 0 0 1
    outer loop
      vertex -1 2 1
      vertex -2 4 1
      vertex -2 2 1
    endloop
  endfacet
  facet normal 0 -1 0
    outer loop
      vertex -2 4 1
      vertex -1 4 2
      vertex -2 4 2
    endloop
  endfacet
  facet normal 0 -1 -0
    outer loop
      vertex -1 4 2
      vertex -2 4 1
      vertex -1 4 1
    endloop
  endfacet
  facet normal -0 0.5 0.866025
    outer loop
      vertex -2 2 1
      vertex -1 0.267949 2
      vertex -1 2 1
    endloop
  endfacet
  facet normal 0 0.5 0.866025
    outer loop
      vertex -1 0.267949 2
      vertex -2 2 1
      vertex -2 0.267949 2
    endloop
  endfacet
  facet normal 1 0 0
    outer loop
      vertex 1 0.267949 2
      vertex 1 2 2
      vertex 1 2 5
    endloop
  endfacet
  facet normal 1 0 0
    outer loop
      vertex 1 2 2
      vertex 1 0.267949 2
      vertex 1 2 1
    endloop
  endfacet
  facet normal 1 -0 0
    outer loop
      vertex 1 0 5
      vertex 1 0.267949 2
      vertex 1 2 5
    endloop
  endfacet
  facet normal 1 0 0
    outer loop
      vertex 1 0.267949 2
      vertex 1 0 5
      vertex 1 0 2
    endloop
  endfacet
  facet normal 1 -0 0
    outer loop
      vertex 1 2 2
      vertex 1 4 1
      vertex 1 4 2
    endloop
  endfacet
  facet normal 1 0 0
    outer loop
      vertex 1 4 1
      vertex 1 2 2
      vertex 1 2 1
    endloop
  endfacet
  facet normal -1 0 0
    outer loop
      vertex 2 2 1
      vertex 2 4 2
      vertex 2 4 1
    endloop
  endfacet
  facet normal -1 -0 0
    outer loop
      vertex 2 4 2
      vertex 2 2 1
      vertex 2 0.267949 2
    endloop
  endfacet
  facet normal -0 0 1
    outer loop
      vertex 1 4 1
      vertex 2 2 1
      vertex 2 4 1
    endloop
  endfacet
  facet normal 0 0 1
    outer loop
      vertex 2 2 1
      vertex 1 4 1
      vertex 1 2 1
    endloop
  endfacet
  facet normal 0 -1 0
    outer loop
      vertex 1 4 1
      vertex 2 4 2
      vertex 1 4 2
    endloop
  endfacet
  facet normal 0 -1 -0
    outer loop
      vertex 2 4 2
      vertex 1 4 1
      vertex 2 4 1
    endloop
  endfacet
  facet normal -0 0.5 0.866025
    outer loop
      vertex 1 2 1
      vertex 2 0.267949 2
      vertex 2 2 1
    endloop
  endfacet
  facet normal 0 0.5 0.866025
    outer loop
      vertex 2 0.267949 2
      vertex 1 2 1
      vertex 1 0.267949 2
    endloop
  endfacet
  facet normal 1 -0 0
    outer loop
      vertex -4 2 5
      vertex -4 5 2
      vertex -4 5 5
    endloop
  endfacet
  facet normal 1 0 0
    outer loop
      vertex -4 5 2
      vertex -4 2 5
      vertex -4 2 2
    endloop
  endfacet
  facet normal 1 -0 0
    outer loop
      vertex -4 6.5 5
      vertex -4 8 2
      vertex -4 8 5
    endloop
  endfacet
  facet normal 1 0 0
    outer loop
      vertex -4 8 2
      vertex -4 6.5 5
      vertex -4 6.5 2
    endloop
  endfacet
  facet normal -1 0 0
    outer loop
      vertex 4 2 2
      vertex 4 5 5
      vertex 4 5 2
    endloop
  endfacet
  facet normal -1 -0 0
    outer loop
      vertex 4 5 5
      vertex 4 2 2
      vertex 4 2 5
    endloop
  endfacet
  facet normal -1 0 0
    outer loop
      vertex 4 6.5 2
      vertex 4 8 5
      vertex 4 8 2
    endloop
  endfacet
  facet normal -1 -0 0
    outer loop
      vertex 4 8 5
      vertex 4 6.5 2
      vertex 4 6.5 5
    endloop
  endfacet
  facet normal 0 1 -0
    outer loop
      vertex -3.5 2 2
      vertex -4 2 5
      vertex -3.5 2 5
    endloop
  endfacet
  facet normal 0 1 0
    outer loop
      vertex -4 2 5
      vertex -3.5 2 2
      vertex -4 2 2
    endloop
  endfacet
  facet normal 0 1 -0
    outer loop
      vertex 4 2 2
      vertex 3.5 2 5
      vertex 4 2 5
    endloop
  endfacet
  facet normal 0 1 0
    outer loop
      vertex 3.5 2 5
      vertex 4 2 2
      vertex 3.5 2 2
    endloop
  endfacet
  facet normal 0 1 -0
    outer loop
      vertex 1 2 2
      vertex -1 2 5
      vertex 1 2 5
    endloop
  endfacet
  facet normal 0 1 0
    outer loop
      vertex -1 2 5
      vertex 1 2 2
      vertex -1 2 2
    endloop
  endfacet
  facet normal 1 -0 0
    outer loop
      vertex -5.5 5 5
      vertex -5.5 6.5 2
      vertex -5.5 6.5 5
    endloop
  endfacet
  facet normal 1 0 0
    outer loop
      vertex -5.5 6.5 2
      vertex -5.5 5 5
      vertex -5.5 5 2
    endloop
  endfacet
  facet normal 0 -1 0
    outer loop
      vertex -5.5 6.5 2
      vertex -4 6.5 5
      vertex -5.5 6.5 5
    endloop
  endfacet
  facet normal 0 -1 -0
    outer loop
      vertex -4 6.5 5
      vertex -5.5 6.5 2
      vertex -4 6.5 2
    endloop
  endfacet
  facet normal 0 1 -0
    outer loop
      vertex -4 5 2
      vertex -5.5 5 5
      vertex -4 5 5
    endloop
  endfacet
  facet normal 0 1 0
    outer loop
      vertex -5.5 5 5
      vertex -4 5 2
      vertex -5.5 5 2
    endloop
  endfacet
  facet normal -1 0 0
    outer loop
      vertex 5.5 5 2
      vertex 5.5 6.5 5
      vertex 5.5 6.5 2
    endloop
  endfacet
  facet normal -1 -0 0
    outer loop
      vertex 5.5 6.5 5
      vertex 5.5 5 2
      vertex 5.5 5 5
    endloop
  endfacet
  facet normal 0 1 -0
    outer loop
      vertex 5.5 5 2
      vertex 4 5 5
      vertex 5.5 5 5
    endloop
  endfacet
  facet normal 0 1 0
    outer loop
      vertex 4 5 5
      vertex 5.5 5 2
      vertex 4 5 2
    endloop
  endfacet
  facet normal 0 -1 0
    outer loop
      vertex 4 6.5 2
      vertex 5.5 6.5 5
      vertex 4 6.5 5
    endloop
  endfacet
  facet normal 0 -1 -0
    outer loop
      vertex 5.5 6.5 5
      vertex 4 6.5 2
      vertex 5.5 6.5 2
    endloop
  endfacet
  facet normal -1 0 0
    outer loop
      vertex -7 7 3
      vertex -7 8 2
      vertex -7 7 2.42265
    endloop
  endfacet
  facet normal -1 0 0
    outer loop
      vertex -7 -8 2
      vertex -7 7 2.42265
      vertex -7 8 2
    endloop
  endfacet
  facet normal -1 -0 0
    outer loop
      vertex -7 7 2.42265
      vertex -7 -8 2
      vertex -7 -8 2.42265
    endloop
  endfacet
  facet normal -1 0 0
    outer loop
      vertex -7 8 2
      vertex -7 7 3
      vertex -7 8 5
    endloop
  endfacet
  facet normal -1 0 0
    outer loop
      vertex -7 7 4.57735
      vertex -7 8 5
      vertex -7 7 3
    endloop
  endfacet
  facet normal -1 0 0
    outer loop
      vertex -7 -8 5
      vertex -7 7 4.57735
      vertex -7 -8 4.57735
    endloop
  endfacet
  facet normal -1 0 0
    outer loop
      vertex -7 7 4.57735
      vertex -7 -8 5
      vertex -7 8 5
    endloop
  endfacet
  facet normal 0 0 1
    outer loop
      vertex -4 8 5
      vertex -5.5 6.5 5
      vertex -4 6.5 5
    endloop
  endfacet
  facet normal 0 0 1
    outer loop
      vertex -5.5 6.5 5
      vertex -7 8 5
      vertex -5.5 5 5
    endloop
  endfacet
  facet normal -0 0 1
    outer loop
      vertex -7 8 5
      vertex -5.5 6.5 5
      vertex -4 8 5
    endloop
  endfacet
  facet normal 0 0 1
    outer loop
      vertex -4 5 5
      vertex -5.5 5 5
      vertex -4 2 5
    endloop
  endfacet
  facet normal -0 0 1
    outer loop
      vertex -4 2 5
      vertex -3.5 -8 5
      vertex -3.5 2 5
    endloop
  endfacet
  facet normal 0 0 1
    outer loop
      vertex -7 -8 5
      vertex -4 2 5
      vertex -5.5 5 5
    endloop
  endfacet
  facet normal 0 0 1
    outer loop
      vertex -7 -8 5
      vertex -5.5 5 5
      vertex -7 8 5
    endloop
  endfacet
  facet normal 0 0 1
    outer loop
      vertex -4 2 5
      vertex -7 -8 5
      vertex -3.5 -8 5
    endloop
  endfacet
  facet normal 0 0 1
    outer loop
      vertex 5.5 5 5
      vertex 7 8 5
      vertex 5.5 6.5 5
    endloop
  endfacet
  facet normal -0 0 1
    outer loop
      vertex 4 8 5
      vertex 5.5 6.5 5
      vertex 7 8 5
    endloop
  endfacet
  facet normal 0 0 1
    outer loop
      vertex 5.5 6.5 5
      vertex 4 8 5
      vertex 4 6.5 5
    endloop
  endfacet
  facet normal 0 0 1
    outer loop
      vertex 7 8 5
      vertex 5.5 5 5
      vertex 7 -8 5
    endloop
  endfacet
  facet normal 0 0 1
    outer loop
      vertex 4 2 5
      vertex 5.5 5 5
      vertex 4 5 5
    endloop
  endfacet
  facet normal 0 0 1
    outer loop
      vertex 5.5 5 5
      vertex 4 2 5
      vertex 7 -8 5
    endloop
  endfacet
  facet normal 0 0 1
    outer loop
      vertex 3.5 -8 5
      vertex 4 2 5
      vertex 3.5 2 5
    endloop
  endfacet
  facet normal 0 0 1
    outer loop
      vertex 4 2 5
      vertex 3.5 -8 5
      vertex 7 -8 5
    endloop
  endfacet
  facet normal -0 0 1
    outer loop
      vertex -1 2 5
      vertex 1 0 5
      vertex 1 2 5
    endloop
  endfacet
  facet normal 0 0 1
    outer loop
      vertex 1 0 5
      vertex -1 2 5
      vertex -1 0 5
    endloop
  endfacet
  facet normal -0 0 1
    outer loop
      vertex -1.45122 -6 5
      vertex 2.47561 -8 5
      vertex 1.45122 -6 5
    endloop
  endfacet
  facet normal 0 0 1
    outer loop
      vertex 2.47561 -8 5
      vertex -1.45122 -6 5
      vertex -2.47561 -8 5
    endloop
  endfacet
  facet normal -0 0 1
    outer loop
      vertex -1 -2 5
      vertex 1 -4 5
      vertex 1 -2 5
    endloop
  endfacet
  facet normal 0 0 1
    outer loop
      vertex 1 -4 5
      vertex -1 -2 5
      vertex -1 -4 5
    endloop
  endfacet
  facet normal 1 0 0
    outer loop
      vertex 7 7 3
      vertex 7 8 5
      vertex 7 7 4.57735
    endloop
  endfacet
  facet normal 1 -0 0
    outer loop
      vertex 7 -8 5
      vertex 7 7 4.57735
      vertex 7 8 5
    endloop
  endfacet
  facet normal 1 0 0
    outer loop
      vertex 7 7 4.57735
      vertex 7 -8 5
      vertex 7 -8 4.57735
    endloop
  endfacet
  facet normal 1 0 0
    outer loop
      vertex 7 8 5
      vertex 7 7 3
      vertex 7 8 2
    endloop
  endfacet
  facet normal 1 -0 0
    outer loop
      vertex 7 7 2.42265
      vertex 7 8 2
      vertex 7 7 3
    endloop
  endfacet
  facet normal 1 0 0
    outer loop
      vertex 7 -8 2
      vertex 7 7 2.42265
      vertex 7 -8 2.42265
    endloop
  endfacet
  facet normal 1 0 0
    outer loop
      vertex 7 7 2.42265
      vertex 7 -8 2
      vertex 7 8 2
    endloop
  endfacet
  facet normal 1 -0 0
    outer loop
      vertex -3.5 -8 5
      vertex -3.5 2 2
      vertex -3.5 2 5
    endloop
  endfacet
  facet normal 1 0 0
    outer loop
      vertex -3.5 2 2
      vertex -3.5 -8 5
      vertex -3.5 -8 2
    endloop
  endfacet
  facet normal -1 0 0
    outer loop
      vertex -1 -4 2
      vertex -1 -2 5
      vertex -1 -2 2
    endloop
  endfacet
  facet normal -1 -0 0
    outer loop
      vertex -1 -2 5
      vertex -1 -4 2
      vertex -1 -4 5
    endloop
  endfacet
  facet normal 0 1 -0
    outer loop
      vertex 1.45122 -6 2
      vertex -1.45122 -6 5
      vertex 1.45122 -6 5
    endloop
  endfacet
  facet normal 0 1 0
    outer loop
      vertex -1.45122 -6 5
      vertex 1.45122 -6 2
      vertex -1.45122 -6 2
    endloop
  endfacet
  facet normal -0.890044 0.455875 0
    outer loop
      vertex -2.47561 -8 2
      vertex -1.45122 -6 5
      vertex -1.45122 -6 2
    endloop
  endfacet
  facet normal -0.890044 0.455875 0
    outer loop
      vertex -1.45122 -6 5
      vertex -2.47561 -8 2
      vertex -2.47561 -8 5
    endloop
  endfacet
  facet normal 1 -0 0
    outer loop
      vertex 1 -4 5
      vertex 1 -2 2
      vertex 1 -2 5
    endloop
  endfacet
  facet normal 1 0 0
    outer loop
      vertex 1 -2 2
      vertex 1 -4 5
      vertex 1 -4 2
    endloop
  endfacet
  facet normal -1 0 0
    outer loop
      vertex 3.5 -8 2
      vertex 3.5 2 5
      vertex 3.5 2 2
    endloop
  endfacet
  facet normal -1 -0 0
    outer loop
      vertex 3.5 2 5
      vertex 3.5 -8 2
      vertex 3.5 -8 5
    endloop
  endfacet
  facet normal 0.890044 0.455875 0
    outer loop
      vertex 2.47561 -8 5
      vertex 1.45122 -6 2
      vertex 1.45122 -6 5
    endloop
  endfacet
  facet normal 0.890044 0.455875 0
    outer loop
      vertex 1.45122 -6 2
      vertex 2.47561 -8 5
      vertex 2.47561 -8 2
    endloop
  endfacet
  facet normal 0 -1 0
    outer loop
      vertex -1 0 2
      vertex 1 0 5
      vertex -1 0 5
    endloop
  endfacet
  facet normal 0 -1 -0
    outer loop
      vertex 1 0 5
      vertex -1 0 2
      vertex 1 0 2
    endloop
  endfacet
  facet normal 0 1 -0
    outer loop
      vertex 1 -2 2
      vertex -1 -2 5
      vertex 1 -2 5
    endloop
  endfacet
  facet normal 0 1 0
    outer loop
      vertex -1 -2 5
      vertex 1 -2 2
      vertex -1 -2 2
    endloop
  endfacet
  facet normal 0 -1 0
    outer loop
      vertex -1 -4 2
      vertex 1 -4 5
      vertex -1 -4 5
    endloop
  endfacet
  facet normal 0 -1 -0
    outer loop
      vertex 1 -4 5
      vertex -1 -4 2
      vertex 1 -4 2
    endloop
  endfacet
  facet normal -1 0 0
    outer loop
      vertex -6 -8 3
      vertex -6 7 4
      vertex -6 7 3
    endloop
  endfacet
  facet normal -1 -0 0
    outer loop
      vertex -6 7 4
      vertex -6 -8 3
      vertex -6 -8 4
    endloop
  endfacet
  facet normal 0 -1 0
    outer loop
      vertex -7 7 4.57735
      vertex -7 7 3
      vertex -6 7 4
    endloop
  endfacet
  facet normal 0 -1 0
    outer loop
      vertex -7 7 3
      vertex -6 7 3
      vertex -6 7 4
    endloop
  endfacet
  facet normal 0 -1 -0
    outer loop
      vertex -7 7 3
      vertex -7 7 2.42265
      vertex -6 7 3
    endloop
  endfacet
  facet normal -0.5 0 -0.866025
    outer loop
      vertex -7 -8 4.57735
      vertex -6 7 4
      vertex -6 -8 4
    endloop
  endfacet
  facet normal -0.5 0 -0.866025
    outer loop
      vertex -6 7 4
      vertex -7 -8 4.57735
      vertex -7 7 4.57735
    endloop
  endfacet
  facet normal -0.5 0 0.866025
    outer loop
      vertex -7 7 2.42265
      vertex -6 -8 3
      vertex -6 7 3
    endloop
  endfacet
  facet normal -0.5 0 0.866025
    outer loop
      vertex -6 -8 3
      vertex -7 7 2.42265
      vertex -7 -8 2.42265
    endloop
  endfacet
  facet normal 1 -0 0
    outer loop
      vertex 6 -8 4
      vertex 6 7 3
      vertex 6 7 4
    endloop
  endfacet
  facet normal 1 0 0
    outer loop
      vertex 6 7 3
      vertex 6 -8 4
      vertex 6 -8 3
    endloop
  endfacet
  facet normal 0 -1 0
    outer loop
      vertex 7 7 2.42265
      vertex 7 7 3
      vertex 6 7 3
    endloop
  endfacet
  facet normal 0 -1 0
    outer loop
      vertex 7 7 3
      vertex 6 7 4
      vertex 6 7 3
    endloop
  endfacet
  facet normal 0 -1 0
    outer loop
      vertex 6 7 4
      vertex 7 7 3
      vertex 7 7 4.57735
    endloop
  endfacet
  facet normal 0.5 0 -0.866025
    outer loop
      vertex 6 -8 4
      vertex 7 7 4.57735
      vertex 7 -8 4.57735
    endloop
  endfacet
  facet normal 0.5 0 -0.866025
    outer loop
      vertex 7 7 4.57735
      vertex 6 -8 4
      vertex 6 7 4
    endloop
  endfacet
  facet normal 0.5 0 0.866025
    outer loop
      vertex 6 7 3
      vertex 7 -8 2.42265
      vertex 7 7 2.42265
    endloop
  endfacet
  facet normal 0.5 0 0.866025
    outer loop
      vertex 7 -8 2.42265
      vertex 6 7 3
      vertex 6 -8 3
    endloop
  endfacet
  facet normal -1 0 0
    outer loop
      vertex -9.5 -31 1.95943e-15
      vertex -9.5 -12.5 5
      vertex -9.5 -12.5 -3.06162e-16
    endloop
  endfacet
  facet normal -1 -0 0
    outer loop
      vertex -9.5 -12.5 5
      vertex -9.5 -31 1.95943e-15
      vertex -9.5 -31 5
    endloop
  endfacet
  facet normal 0 -1.22465e-16 -1
    outer loop
      vertex -9.5 -31 1.95943e-15
      vertex 9.5 -12.5 -3.06162e-16
      vertex 9.5 -31 1.95943e-15
    endloop
  endfacet
  facet normal -0 -1.22465e-16 -1
    outer loop
      vertex 9.5 -12.5 -3.06162e-16
      vertex -9.5 -31 1.95943e-15
      vertex -9.5 -12.5 -3.06162e-16
    endloop
  endfacet
  facet normal 1 -0 0
    outer loop
      vertex 9.5 -31 5
      vertex 9.5 -12.5 -3.06162e-16
      vertex 9.5 -12.5 5
    endloop
  endfacet
  facet normal 1 0 0
    outer loop
      vertex 9.5 -12.5 -3.06162e-16
      vertex 9.5 -31 5
      vertex 9.5 -31 1.95943e-15
    endloop
  endfacet
  facet normal 0 -1 0
    outer loop
      vertex -9.5 -31 5
      vertex -7.5 -31 2
      vertex -7.5 -31 5
    endloop
  endfacet
  facet normal 0 -1 -0
    outer loop
      vertex -7.5 -31 2
      vertex -9.5 -31 1.95943e-15
      vertex 7.5 -31 2
    endloop
  endfacet
  facet normal 0 -1 0
    outer loop
      vertex -9.5 -31 1.95943e-15
      vertex -7.5 -31 2
      vertex -9.5 -31 5
    endloop
  endfacet
  facet normal 0 -1 0
    outer loop
      vertex 7.5 -31 2
      vertex 9.5 -31 5
      vertex 7.5 -31 5
    endloop
  endfacet
  facet normal 0 -1 0
    outer loop
      vertex 7.5 -31 2
      vertex 9.5 -31 1.95943e-15
      vertex 9.5 -31 5
    endloop
  endfacet
  facet normal 0 -1 0
    outer loop
      vertex 9.5 -31 1.95943e-15
      vertex 7.5 -31 2
      vertex -9.5 -31 1.95943e-15
    endloop
  endfacet
  facet normal 0 0 1
    outer loop
      vertex -4 -12.5 5
      vertex -7.5 -14.5 5
      vertex -4 -14.5 5
    endloop
  endfacet
  facet normal -0 0 1
    outer loop
      vertex -9.5 -12.5 5
      vertex -7.5 -14.5 5
      vertex -4 -12.5 5
    endloop
  endfacet
  facet normal 0 0 1
    outer loop
      vertex -9.5 -31 5
      vertex -7.5 -14.5 5
      vertex -9.5 -12.5 5
    endloop
  endfacet
  facet normal 0 0 1
    outer loop
      vertex -7.5 -14.5 5
      vertex -9.5 -31 5
      vertex -7.5 -31 5
    endloop
  endfacet
  facet normal 0 0 1
    outer loop
      vertex 9.5 -12.5 5
      vertex 7.5 -14.5 5
      vertex 9.5 -31 5
    endloop
  endfacet
  facet normal -0 0 1
    outer loop
      vertex 4 -12.5 5
      vertex 7.5 -14.5 5
      vertex 9.5 -12.5 5
    endloop
  endfacet
  facet normal 0 0 1
    outer loop
      vertex 7.5 -14.5 5
      vertex 4 -12.5 5
      vertex 4 -14.5 5
    endloop
  endfacet
  facet normal 0 0 1
    outer loop
      vertex 9.5 -31 5
      vertex 7.5 -14.5 5
      vertex 7.5 -31 5
    endloop
  endfacet
  facet normal -0 0 1
    outer loop
      vertex -3 -12.5 5
      vertex 3 -14.5 5
      vertex 3 -12.5 5
    endloop
  endfacet
  facet normal 0 0 1
    outer loop
      vertex 3 -14.5 5
      vertex -3 -12.5 5
      vertex -3 -14.5 5
    endloop
  endfacet
  facet normal 0 1 0
    outer loop
      vertex 9.5 -12.5 5
      vertex 4 -12.5 4
      vertex 4 -12.5 5
    endloop
  endfacet
  facet normal 0 1 0
    outer loop
      vertex 9.5 -12.5 -3.06162e-16
      vertex 3 -12.5 4
      vertex 4 -12.5 4
    endloop
  endfacet
  facet normal 0 1 0
    outer loop
      vertex 3 -12.5 4
      vertex 9.5 -12.5 -3.06162e-16
      vertex -3 -12.5 4
    endloop
  endfacet
  facet normal 0 1 0
    outer loop
      vertex -9.5 -12.5 -3.06162e-16
      vertex -3 -12.5 4
      vertex 9.5 -12.5 -3.06162e-16
    endloop
  endfacet
  facet normal 0 1 -0
    outer loop
      vertex 9.5 -12.5 -3.06162e-16
      vertex 4 -12.5 4
      vertex 9.5 -12.5 5
    endloop
  endfacet
  facet normal 0 1 -0
    outer loop
      vertex 3 -12.5 4
      vertex -3 -12.5 5
      vertex 3 -12.5 5
    endloop
  endfacet
  facet normal 0 1 0
    outer loop
      vertex -3 -12.5 5
      vertex 3 -12.5 4
      vertex -3 -12.5 4
    endloop
  endfacet
  facet normal 0 1 -0
    outer loop
      vertex -4 -12.5 4
      vertex -9.5 -12.5 5
      vertex -4 -12.5 5
    endloop
  endfacet
  facet normal 0 1 0
    outer loop
      vertex -3 -12.5 4
      vertex -9.5 -12.5 -3.06162e-16
      vertex -4 -12.5 4
    endloop
  endfacet
  facet normal 0 1 0
    outer loop
      vertex -4 -12.5 4
      vertex -9.5 -12.5 -3.06162e-16
      vertex -9.5 -12.5 5
    endloop
  endfacet
  facet normal 1 0 0
    outer loop
      vertex -7.5 -14.5 5
      vertex -7.5 -29.5 4
      vertex -7.5 -14.5 4
    endloop
  endfacet
  facet normal 1 0 0
    outer loop
      vertex -7.5 -29.5 4
      vertex -7.5 -31 5
      vertex -7.5 -29.5 3
    endloop
  endfacet
  facet normal 1 -0 0
    outer loop
      vertex -7.5 -31 5
      vertex -7.5 -29.5 4
      vertex -7.5 -14.5 5
    endloop
  endfacet
  facet normal 1 -0 0
    outer loop
      vertex -7.5 -29.5 3
      vertex -7.5 -14.5 2
      vertex -7.5 -14.5 3
    endloop
  endfacet
  facet normal 1 0 0
    outer loop
      vertex -7.5 -29.5 3
      vertex -7.5 -31 2
      vertex -7.5 -14.5 2
    endloop
  endfacet
  facet normal 1 0 0
    outer loop
      vertex -7.5 -31 2
      vertex -7.5 -29.5 3
      vertex -7.5 -31 5
    endloop
  endfacet
  facet normal -0 0 1
    outer loop
      vertex -7.5 -14.5 2
      vertex 7.5 -31 2
      vertex 7.5 -14.5 2
    endloop
  endfacet
  facet normal 0 0 1
    outer loop
      vertex 7.5 -31 2
      vertex -7.5 -14.5 2
      vertex -7.5 -31 2
    endloop
  endfacet
  facet normal -1 0 0
    outer loop
      vertex 7.5 -14.5 2
      vertex 7.5 -29.5 3
      vertex 7.5 -14.5 3
    endloop
  endfacet
  facet normal -1 -0 0
    outer loop
      vertex 7.5 -29.5 3
      vertex 7.5 -31 2
      vertex 7.5 -29.5 4
    endloop
  endfacet
  facet normal -1 0 0
    outer loop
      vertex 7.5 -31 2
      vertex 7.5 -29.5 3
      vertex 7.5 -14.5 2
    endloop
  endfacet
  facet normal -1 0 0
    outer loop
      vertex 7.5 -29.5 4
      vertex 7.5 -14.5 5
      vertex 7.5 -14.5 4
    endloop
  endfacet
  facet normal -1 0 0
    outer loop
      vertex 7.5 -29.5 4
      vertex 7.5 -31 5
      vertex 7.5 -14.5 5
    endloop
  endfacet
  facet normal -1 0 0
    outer loop
      vertex 7.5 -31 5
      vertex 7.5 -29.5 4
      vertex 7.5 -31 2
    endloop
  endfacet
  facet normal 0 -1 0
    outer loop
      vertex -7.5 -14.5 2
      vertex -6.5 -14.5 3
      vertex -7.5 -14.5 3
    endloop
  endfacet
  facet normal 0 -1 -0
    outer loop
      vertex -6.5 -14.5 3
      vertex -7.5 -14.5 2
      vertex 6.5 -14.5 3
    endloop
  endfacet
  facet normal 0 -1 0
    outer loop
      vertex 7.5 -14.5 2
      vertex 6.5 -14.5 3
      vertex -7.5 -14.5 2
    endloop
  endfacet
  facet normal 0 -1 0
    outer loop
      vertex 6.5 -14.5 3
      vertex 7.5 -14.5 2
      vertex 7.5 -14.5 3
    endloop
  endfacet
  facet normal 0 -1 0
    outer loop
      vertex 6.5 -14.5 4
      vertex 4 -14.5 5
      vertex 4 -14.5 4
    endloop
  endfacet
  facet normal 0 -1 0
    outer loop
      vertex 4 -14.5 5
      vertex 6.5 -14.5 4
      vertex 7.5 -14.5 5
    endloop
  endfacet
  facet normal 0 -1 -0
    outer loop
      vertex 7.5 -14.5 5
      vertex 6.5 -14.5 4
      vertex 7.5 -14.5 4
    endloop
  endfacet
  facet normal 0 -1 0
    outer loop
      vertex -6.5 -14.5 4
      vertex -7.5 -14.5 5
      vertex -7.5 -14.5 4
    endloop
  endfacet
  facet normal 0 -1 0
    outer loop
      vertex -7.5 -14.5 5
      vertex -6.5 -14.5 4
      vertex -4 -14.5 5
    endloop
  endfacet
  facet normal 0 -1 0
    outer loop
      vertex -6.5 -14.5 4
      vertex -4 -14.5 4
      vertex -4 -14.5 5
    endloop
  endfacet
  facet normal 0 -1 0
    outer loop
      vertex -6.5 -14.5 3
      vertex -4 -14.5 4
      vertex -6.5 -14.5 4
    endloop
  endfacet
  facet normal 0 -1 -0
    outer loop
      vertex -4 -14.5 4
      vertex -6.5 -14.5 3
      vertex -3 -14.5 4
    endloop
  endfacet
  facet normal 0 -1 -0
    outer loop
      vertex -3 -14.5 4
      vertex -6.5 -14.5 3
      vertex 3 -14.5 4
    endloop
  endfacet
  facet normal 0 -1 0
    outer loop
      vertex 6.5 -14.5 3
      vertex 3 -14.5 4
      vertex -6.5 -14.5 3
    endloop
  endfacet
  facet normal 0 -1 0
    outer loop
      vertex 3 -14.5 4
      vertex 6.5 -14.5 3
      vertex 4 -14.5 4
    endloop
  endfacet
  facet normal 0 -1 0
    outer loop
      vertex 4 -14.5 4
      vertex 6.5 -14.5 3
      vertex 6.5 -14.5 4
    endloop
  endfacet
  facet normal 0 -1 0
    outer loop
      vertex -3 -14.5 4
      vertex 3 -14.5 5
      vertex -3 -14.5 5
    endloop
  endfacet
  facet normal 0 -1 -0
    outer loop
      vertex 3 -14.5 5
      vertex -3 -14.5 4
      vertex 3 -14.5 4
    endloop
  endfacet
  facet normal 1 -0 0
    outer loop
      vertex -4 -14.5 5
      vertex -4 -12.5 4
      vertex -4 -12.5 5
    endloop
  endfacet
  facet normal 1 0 0
    outer loop
      vertex -4 -12.5 4
      vertex -4 -14.5 5
      vertex -4 -14.5 4
    endloop
  endfacet
  facet normal -0 0 1
    outer loop
      vertex -4 -12.5 4
      vertex -3 -14.5 4
      vertex -3 -12.5 4
    endloop
  endfacet
  facet normal 0 0 1
    outer loop
      vertex -3 -14.5 4
      vertex -4 -12.5 4
      vertex -4 -14.5 4
    endloop
  endfacet
  facet normal -1 0 0
    outer loop
      vertex -3 -14.5 4
      vertex -3 -12.5 5
      vertex -3 -12.5 4
    endloop
  endfacet
  facet normal -1 -0 0
    outer loop
      vertex -3 -12.5 5
      vertex -3 -14.5 4
      vertex -3 -14.5 5
    endloop
  endfacet
  facet normal 1 -0 0
    outer loop
      vertex 3 -14.5 5
      vertex 3 -12.5 4
      vertex 3 -12.5 5
    endloop
  endfacet
  facet normal 1 0 0
    outer loop
      vertex 3 -12.5 4
      vertex 3 -14.5 5
      vertex 3 -14.5 4
    endloop
  endfacet
  facet normal -0 0 1
    outer loop
      vertex 3 -12.5 4
      vertex 4 -14.5 4
      vertex 4 -12.5 4
    endloop
  endfacet
  facet normal 0 0 1
    outer loop
      vertex 4 -14.5 4
      vertex 3 -12.5 4
      vertex 3 -14.5 4
    endloop
  endfacet
  facet normal -1 0 0
    outer loop
      vertex 4 -14.5 4
      vertex 4 -12.5 5
      vertex 4 -12.5 4
    endloop
  endfacet
  facet normal -1 -0 0
    outer loop
      vertex 4 -12.5 5
      vertex 4 -14.5 4
      vertex 4 -14.5 5
    endloop
  endfacet
  facet normal 0 0 -1
    outer loop
      vertex -7.5 -14.5 3
      vertex -6.5 -27.7679 3
      vertex -7.5 -29.5 3
    endloop
  endfacet
  facet normal 0 0 -1
    outer loop
      vertex -6.5 -27.7679 3
      vertex -7.5 -14.5 3
      vertex -6.5 -14.5 3
    endloop
  endfacet
  facet normal 1 -0 0
    outer loop
      vertex -6.5 -27.7679 4
      vertex -6.5 -14.5 3
      vertex -6.5 -14.5 4
    endloop
  endfacet
  facet normal 1 0 0
    outer loop
      vertex -6.5 -14.5 3
      vertex -6.5 -27.7679 4
      vertex -6.5 -27.7679 3
    endloop
  endfacet
  facet normal -0 0 1
    outer loop
      vertex -7.5 -14.5 4
      vertex -6.5 -27.7679 4
      vertex -6.5 -14.5 4
    endloop
  endfacet
  facet normal 0 0 1
    outer loop
      vertex -6.5 -27.7679 4
      vertex -7.5 -14.5 4
      vertex -7.5 -29.5 4
    endloop
  endfacet
  facet normal 0.866026 -0.5 0
    outer loop
      vertex -7.5 -29.5 4
      vertex -6.5 -27.7679 3
      vertex -6.5 -27.7679 4
    endloop
  endfacet
  facet normal 0.866026 -0.5 0
    outer loop
      vertex -6.5 -27.7679 3
      vertex -7.5 -29.5 4
      vertex -7.5 -29.5 3
    endloop
  endfacet
  facet normal -1 0 0
    outer loop
      vertex 6.5 -27.7679 3
      vertex 6.5 -14.5 4
      vertex 6.5 -14.5 3
    endloop
  endfacet
  facet normal -1 -0 0
    outer loop
      vertex 6.5 -14.5 4
      vertex 6.5 -27.7679 3
      vertex 6.5 -27.7679 4
    endloop
  endfacet
  facet normal 0 0 -1
    outer loop
      vertex 6.5 -27.7679 3
      vertex 7.5 -14.5 3
      vertex 7.5 -29.5 3
    endloop
  endfacet
  facet normal -0 0 -1
    outer loop
      vertex 7.5 -14.5 3
      vertex 6.5 -27.7679 3
      vertex 6.5 -14.5 3
    endloop
  endfacet
  facet normal 0 0 1
    outer loop
      vertex 6.5 -27.7679 4
      vertex 7.5 -14.5 4
      vertex 6.5 -14.5 4
    endloop
  endfacet
  facet normal 0 0 1
    outer loop
      vertex 7.5 -14.5 4
      vertex 6.5 -27.7679 4
      vertex 7.5 -29.5 4
    endloop
  endfacet
  facet normal -0.866026 -0.5 0
    outer loop
      vertex 7.5 -29.5 3
      vertex 6.5 -27.7679 4
      vertex 6.5 -27.7679 3
    endloop
  endfacet
  facet normal -0.866026 -0.5 0
    outer loop
      vertex 6.5 -27.7679 4
      vertex 7.5 -29.5 3
      vertex 7.5 -29.5 4
    endloop
  endfacet
endsolid OpenSCAD_Model
